<svg id="Capa_1" enable-background="new 0 0 512 512" height="512" viewBox="0 0 512 512" width="512" xmlns="http://www.w3.org/2000/svg"><g><g><g fill="#fef2a8"><path d="m108.34 482.267h1.499v-144.034h-27.675c-15.925 0-28.835 12.91-28.835 28.835v60.187c0 30.382 24.629 55.012 55.011 55.012z"/><path d="m419.911 482.267h-1.499v-144.034h27.675c15.925 0 28.835 12.91 28.835 28.835v60.187c.001 30.382-24.629 55.012-55.011 55.012z"/></g><path d="m341.243 103.454h-154.235c-50.225 0-90.94 40.715-90.94 90.94v269.933c0 25.432 20.617 46.049 46.049 46.049h244.017c25.432 0 46.049-20.617 46.049-46.049v-269.932c0-50.225-40.715-90.941-90.94-90.941z" fill="#ffa585"/><path d="m341.243 103.454h-65.117c39.968 0 72.368 32.4 72.368 72.368v229.741c0 20.238-16.406 36.645-36.645 36.645h-182.39c-14.856 0-27.638-8.846-33.391-21.553v43.672c0 25.432 20.617 46.049 46.049 46.049h244.017c25.432 0 46.049-20.617 46.049-46.049v-269.932c0-50.225-40.715-90.941-90.94-90.941z" fill="#ef7c85"/><g><path d="m383.258 374.524c-3.419 0-6.19-2.771-6.19-6.19v-163.939c0-31.16-25.04-56.511-55.818-56.511h-114.248c-30.778 0-55.818 25.351-55.818 56.511v163.938c0 3.419-2.772 6.19-6.191 6.19s-6.19-2.771-6.19-6.19v-163.938c0-37.987 30.594-68.892 68.199-68.892h114.248c37.605 0 68.199 30.905 68.199 68.892v163.938c-.001 3.419-2.772 6.191-6.191 6.191z" fill="#be545e"/></g><path d="m200.158 198.3c9.878 0 18.091-7.597 18.882-17.443 5.75-71.516 23.758-123.706 45.085-123.706 21.328 0 39.335 52.19 45.085 123.706.792 9.846 9.004 17.443 18.882 17.443h10.989c10.888 0 19.489-9.154 18.92-20.027-4.984-95.352-45.111-169.664-93.875-169.664s-88.892 74.313-93.877 169.664c-.568 10.873 8.032 20.027 18.92 20.027z" fill="#fef2a8"/><path d="m357.141 472.47h-186.031c-20.32 0-36.792-16.473-36.792-36.793v-70.449c0-20.32 16.473-36.792 36.792-36.792h186.032c20.32 0 36.793 16.473 36.793 36.792v70.449c-.001 20.32-16.474 36.793-36.794 36.793z" fill="#ffc7b6"/><g><path d="m264.189 409.324c-55.08 0-122.46-9.947-134.248-38.165-1.318-3.155.171-6.78 3.326-8.098 3.155-1.319 6.78.171 8.098 3.326 3.618 8.661 18.973 16.806 42.127 22.346 22.724 5.436 52.134 8.362 82.795 8.205 62.802-.297 113.54-13.19 120.643-30.656 1.288-3.166 4.901-4.69 8.066-3.403 3.167 1.288 4.69 4.899 3.403 8.067-5.16 12.689-21.581 22.565-48.808 29.352-22.749 5.671-52.312 8.875-83.245 9.021-.715.004-1.439.005-2.157.005z" fill="#d07297"/></g><path d="m198.547 444.086c-10.874 0-19.688-8.815-19.688-19.688v-54.558c0-4.229 3.428-7.658 7.658-7.658h24.062c4.229 0 7.658 3.428 7.658 7.658v54.558c-.001 10.873-8.816 19.688-19.69 19.688z" fill="#fef2a8"/><path d="m328.806 444.086c-10.874 0-19.688-8.815-19.688-19.688v-54.558c0-4.229 3.428-7.658 7.658-7.658h24.062c4.229 0 7.658 3.428 7.658 7.658v54.558c-.002 10.873-8.817 19.688-19.69 19.688z" fill="#fef2a8"/><g><path d="m178.859 303.64c-5.698 0-10.317-4.619-10.317-10.317v-23.901c0-5.698 4.619-10.317 10.317-10.317s10.317 4.619 10.317 10.317v23.901c0 5.698-4.619 10.317-10.317 10.317z" fill="#fff"/></g><g><path d="m178.859 244.514c-5.698 0-10.317-4.619-10.317-10.317v-5.42c0-5.698 4.619-10.317 10.317-10.317s10.317 4.619 10.317 10.317v5.42c0 5.698-4.619 10.317-10.317 10.317z" fill="#fff"/></g><g><path d="m348.494 267.446c-3.419 0-6.19-2.772-6.19-6.191v-12.484c0-3.419 2.772-6.191 6.19-6.191 3.419 0 6.19 2.772 6.19 6.191v12.484c.001 3.419-2.771 6.191-6.19 6.191z" fill="#be545e"/></g><g><path d="m316.486 300.047c-3.419 0-6.19-2.772-6.19-6.19v-12.484c0-3.419 2.772-6.19 6.19-6.19 3.419 0 6.19 2.772 6.19 6.19v12.484c.001 3.418-2.771 6.19-6.19 6.19z" fill="#be545e"/></g><g><path d="m306.238 243.919c-3.419 0-6.19-2.772-6.19-6.191v-12.484c0-3.419 2.772-6.19 6.19-6.19 3.419 0 6.191 2.772 6.191 6.19v12.484c-.001 3.419-2.773 6.191-6.191 6.191z" fill="#be545e"/></g></g><g><path d="m41.886 56.075 8.763 24.641c.375 1.055 1.118 1.891 2.055 2.313l21.893 9.864c3.093 1.394 3.093 6.322 0 7.715l-21.893 9.864c-.937.422-1.68 1.258-2.055 2.313l-8.763 24.642c-1.238 3.481-5.617 3.481-6.855 0l-8.763-24.642c-.375-1.055-1.118-1.891-2.055-2.313l-21.893-9.864c-3.093-1.393-3.093-6.321 0-7.715l21.893-9.864c.937-.422 1.68-1.258 2.055-2.313l8.763-24.641c1.239-3.481 5.617-3.481 6.855 0z" fill="#ffc7b6"/><ellipse cx="134.317" cy="20.759" fill="#ffa585" rx="19.136" ry="19.136" transform="matrix(.099 -.995 .995 .099 100.375 152.365)"/><circle cx="424.079" cy="53.464" fill="#ffa585" r="8.104"/><path d="m486.014 112.778 6.501 18.279c.278.783.829 1.403 1.524 1.716l16.24 7.317c2.294 1.034 2.294 4.689 0 5.723l-16.24 7.317c-.695.313-1.246.933-1.524 1.716l-6.501 18.279c-.919 2.582-4.166 2.582-5.085 0l-6.501-18.279c-.278-.783-.829-1.403-1.525-1.716l-16.24-7.317c-2.294-1.034-2.294-4.689 0-5.723l16.24-7.317c.695-.313 1.246-.934 1.525-1.716l6.501-18.279c.919-2.582 4.167-2.582 5.085 0z" fill="#ffc7b6"/></g></g></svg>