<svg id="Capa_1" enable-background="new 0 0 512 512" height="512" viewBox="0 0 512 512" width="512" xmlns="http://www.w3.org/2000/svg"><g><g><path d="m371.56 512h-207.667c-22.484 0-40.711-18.227-40.711-40.711v-200.65c0-10.642 8.627-19.269 19.269-19.269h250.55c10.642 0 19.269 8.627 19.269 19.269v200.65c0 22.484-18.227 40.711-40.71 40.711z" fill="#e7effa"/><path d="m320.72 69.101h4.083c8.207 0 14.86-6.653 14.86-14.86v-28.349c0-8.207-6.653-14.86-14.86-14.86h-4.083c-8.207 0-14.86 6.653-14.86 14.86v28.349c0 8.207 6.653 14.86 14.86 14.86z" fill="#8bb6ef"/><path d="m256.151 60.803-.381 390.251c-.015 14.875-11.082 26.924-24.719 26.914l-18.914-.015c-13.638-.01-24.681-12.077-24.667-26.952l.38-390.251 22.494-41.986c5.234-9.769 18.18-9.759 23.395.018z" fill="#ffe266"/><path d="m227.817 12.868c-1.784-.906-3.785-1.419-5.768-1.425-4.543-.003-9.087 2.436-11.704 7.321l-22.495 41.986-.016 4.942s12.413 13.022 34.158 13.022 34.146-13.075 34.146-13.075l.012-4.837-22.407-42.012c-1.469-2.76-3.569-4.718-5.926-5.922z" fill="#fef2a8"/><path d="m210.344 18.764-11.975 22.353s6.75 8.501 22.835 8.501 23.343-10.572 23.343-10.572l-10.808-20.264c-5.215-9.777-18.161-9.787-23.395-.018z" fill="#a183e2"/><path d="m187.504 416.044-.034 34.957c-.015 14.875 11.029 26.942 24.666 26.952l18.914.015c13.638.01 24.705-12.039 24.72-26.914l.035-35.215z" fill="#f7c4db"/><path d="m255.805 381.739v34.099l-68.301.206.033-34.383z" fill="#b2e7f1"/><path d="m393.001 251.37h-48.528c8.431 0 15.265 6.835 15.265 15.265v152.38c0 17.812-14.44 32.252-32.252 32.252h-172.052c-17.812 0-32.252-14.44-32.252-32.252v52.273c0 22.484 18.227 40.711 40.711 40.711h207.667c22.484 0 40.711-18.227 40.711-40.711v-200.65c-.001-10.64-8.628-19.268-19.27-19.268z" fill="#dcb6f5"/><path d="m255.765 451.268h-68.289c.117 14.751 11.105 26.675 24.66 26.686l18.914.015c13.572.009 24.595-11.925 24.715-26.701z" fill="#e69fd5"/><g><path d="m322.762 488.202c-5.653 0-10.235-4.583-10.235-10.234v-32.37c0-5.652 4.582-10.234 10.235-10.234 5.652 0 10.234 4.583 10.234 10.234v32.37c0 5.652-4.582 10.234-10.234 10.234z" fill="#6280cc"/></g><path d="m322.762 445.598c16.562 0 29.988-13.426 29.988-29.988v-338.309c0-16.562-13.426-29.988-29.988-29.988-16.562 0-29.988 13.426-29.988 29.988v338.309c-.001 16.562 13.426 29.988 29.988 29.988z" fill="#8bb6ef"/><g><path d="m312.864 61.221c-3.147 0-6.252-1.446-8.258-4.178-3.346-4.556-2.365-10.961 2.191-14.307 8.638-6.343 26.239-6.344 34.878.001 4.556 3.345 5.536 9.751 2.191 14.306-3.319 4.519-9.648 5.518-14.195 2.273-2.139-1.117-8.73-1.117-10.871 0-1.798 1.284-3.877 1.905-5.936 1.905zm16.695-1.987c.001.001.003.002.004.003-.001-.001-.003-.002-.004-.003zm-10.646.001c-.001 0-.001.001-.003.001.002 0 .002-.001.003-.001z" fill="#6280cc"/></g><g><path d="m348.879 389.691h-52.951c-3.391 0-6.141-2.749-6.141-6.141s2.75-6.141 6.141-6.141h52.951c3.391 0 6.141 2.749 6.141 6.141s-2.75 6.141-6.141 6.141z" fill="#6280cc"/></g><path d="m389.113 246.502h-242.774v-44.682c0-13.32 10.798-24.117 24.117-24.117h194.54c13.32 0 24.117 10.798 24.117 24.117z" fill="#e7effa"/><g><path d="m393.001 261.605h-250.55c-5.652 0-10.234-4.583-10.234-10.235s4.582-10.234 10.234-10.234h250.55c5.652 0 10.234 4.583 10.234 10.234.001 5.652-4.581 10.235-10.234 10.235z" fill="#ad99c9"/></g><g><path d="m233.519 218.244h-87.179c-3.391 0-6.141-2.75-6.141-6.141s2.749-6.141 6.141-6.141h87.179c3.391 0 6.141 2.75 6.141 6.141s-2.75 6.141-6.141 6.141z" fill="#ad99c9"/></g><g><path d="m383.912 227.617h-96.589c-3.391 0-6.141-2.75-6.141-6.141s2.75-6.141 6.141-6.141h96.589c3.391 0 6.141 2.75 6.141 6.141s-2.75 6.141-6.141 6.141z" fill="#ad99c9"/></g></g><g><path d="m506.277 243.563c0 10.483-8.498 18.982-18.982 18.982s-18.982-8.498-18.982-18.982c0-10.483 8.498-18.982 18.982-18.982s18.982 8.499 18.982 18.982z" fill="#ffe266"/><circle cx="97.94" cy="141.728" fill="#ffe266" r="8.039"/><g fill="#fef2a8"><path d="m36.544 175.504 6.448 18.132c.276.776.822 1.391 1.512 1.702l16.11 7.258c2.276 1.025 2.276 4.652 0 5.677l-16.11 7.258c-.69.311-1.236.926-1.512 1.702l-6.448 18.132c-.911 2.562-4.133 2.562-5.044 0l-6.448-18.132c-.276-.776-.823-1.392-1.512-1.702l-16.11-7.258c-2.276-1.025-2.276-4.652 0-5.677l16.109-7.258c.69-.311 1.236-.926 1.512-1.702l6.448-18.132c.912-2.562 4.134-2.562 5.045 0z"/><path d="m447.355 103.759 6.448 18.132c.276.776.822 1.391 1.512 1.702l16.11 7.258c2.276 1.025 2.276 4.652 0 5.677l-16.11 7.258c-.69.311-1.236.926-1.512 1.702l-6.448 18.132c-.911 2.562-4.133 2.562-5.044 0l-6.448-18.132c-.276-.776-.823-1.392-1.512-1.702l-16.109-7.258c-2.276-1.025-2.276-4.652 0-5.677l16.109-7.258c.69-.311 1.236-.926 1.512-1.702l6.448-18.132c.911-2.562 4.133-2.562 5.044 0z"/><path d="m101.405 2.59 8.86 24.444c.379 1.047 1.131 1.876 2.078 2.295l22.136 9.784c3.127 1.382 3.127 6.271 0 7.653l-22.136 9.785c-.948.419-1.699 1.248-2.078 2.295l-8.86 24.443c-1.252 3.453-5.679 3.453-6.931 0l-8.861-24.443c-.379-1.047-1.13-1.876-2.078-2.295l-22.135-9.785c-3.127-1.382-3.127-6.271 0-7.653l22.136-9.784c.948-.419 1.699-1.248 2.078-2.295l8.861-24.444c1.251-3.453 5.678-3.453 6.93 0z"/></g></g></g></svg>