<svg id="Capa_1" enable-background="new 0 0 512 512" height="512" viewBox="0 0 512 512" width="512" xmlns="http://www.w3.org/2000/svg"><g><g><path d="m129.7 124.251h52.874v69.233h-52.874z" fill="#ffe266" transform="matrix(.805 -.594 .594 .805 -63.821 123.708)"/><path d="m325.868 124.251h52.874v69.233h-52.874z" fill="#ffe266" transform="matrix(-.805 -.594 .594 -.805 541.511 495.852)"/><g fill="#f7c4db"><path d="m203.754 115.662c6.689-4.517 7.607-14.04 1.868-19.717-26.917-26.628-69.73-31.483-102.306-9.484-32.585 22.005-44.073 63.547-29.411 98.469 3.12 7.431 12.299 10.115 18.978 5.604z"/><path d="m304.172 117.846c-6.8-4.349-7.956-13.845-2.361-19.664 26.242-27.293 68.92-33.219 102.036-12.042 33.125 21.182 45.65 62.424 31.867 97.702-2.933 7.507-12.042 10.419-18.832 6.077z"/></g><g><path d="m234.515 95.543h20.299v62.558h-20.299z" fill="#d0844b" transform="matrix(.922 -.388 .388 .922 -30.035 104.804)"/></g><ellipse cx="229.181" cy="93.139" fill="#ffe266" rx="19.774" ry="19.774" transform="matrix(.229 -.974 .974 .229 86.079 294.933)"/><g fill="#ffe266"><path d="m154.669 512c-13.806 0-21.831-15.613-13.794-26.839l19.919-29.051c3.456-5.041 10.357-6.303 15.374-2.812l9.769 6.798c4.969 3.458 6.216 10.278 2.792 15.27l-20.265 29.544c-3.186 4.45-8.323 7.09-13.795 7.09z"/><path d="m354.191 512c13.806 0 21.831-15.613 13.794-26.839l-19.918-29.051c-3.457-5.041-10.357-6.303-15.374-2.812l-9.769 6.798c-4.969 3.458-6.216 10.278-2.792 15.27l20.266 29.544c3.185 4.45 8.321 7.09 13.793 7.09z"/></g><ellipse cx="254.43" cy="317.571" fill="#f7c4db" rx="167.537" ry="167.537" transform="matrix(.707 -.707 .707 .707 -150.036 272.924)"/><g fill="#fef2a8"><ellipse cx="254.43" cy="317.571" rx="124.833" ry="124.833" transform="matrix(.707 -.707 .707 .707 -150.036 272.924)"/><path d="m201.726 386.149 52.914-68.428"/><path d="m210.64 286.749 43.79 30.822"/></g><path d="m254.43 150.033c-6.976 0-13.85.434-20.603 1.262 62.65 8.773 110.865 62.57 110.865 127.638 0 71.189-57.711 128.9-128.9 128.9-65.068 0-118.865-48.215-127.638-110.865-.828 6.752-1.262 13.626-1.262 20.603 0 92.528 75.009 167.537 167.537 167.537s167.537-75.009 167.537-167.537c.001-92.529-75.007-167.538-167.536-167.538z" fill="#e69fd5"/><path d="m329.176 217.58c9.894 18.243 15.516 39.14 15.516 61.353 0 71.189-57.711 128.9-128.9 128.9-22.213 0-43.11-5.622-61.353-15.516 22.768 30.408 59.08 50.087 99.99 50.087 68.944 0 124.834-55.89 124.834-124.833.001-40.91-19.679-77.223-50.087-99.991z" fill="#eeb6a8"/><g><g><path d="m201.719 396.299c-2.169 0-4.354-.692-6.202-2.121-4.435-3.429-5.249-9.804-1.82-14.238l52.915-68.428c3.428-4.433 9.804-5.249 14.238-1.82s5.249 9.804 1.82 14.238l-52.915 68.428c-2 2.586-5.002 3.941-8.036 3.941z" fill="#d08372"/></g><g><path d="m254.421 327.721c-2.019 0-4.057-.601-5.833-1.851l-43.79-30.822c-4.584-3.226-5.684-9.558-2.458-14.142 3.225-4.583 9.558-5.685 14.142-2.458l43.79 30.822c4.584 3.226 5.684 9.558 2.458 14.142-1.976 2.808-5.117 4.309-8.309 4.309z" fill="#d08372"/></g></g><g><path d="m254.43 249.563c-3.363 0-6.09-2.727-6.09-6.09v-13.991c0-3.363 2.727-6.09 6.09-6.09s6.09 2.727 6.09 6.09v13.991c0 3.363-2.727 6.09-6.09 6.09z" fill="#d08372"/></g><g><path d="m343.881 323.829h-13.99c-3.363 0-6.09-2.727-6.09-6.09s2.727-6.09 6.09-6.09h13.99c3.363 0 6.09 2.727 6.09 6.09s-2.727 6.09-6.09 6.09z" fill="#d08372"/></g><g><path d="m253.149 411.079c-3.363 0-6.09-2.727-6.09-6.09v-13.99c0-3.363 2.727-6.09 6.09-6.09s6.09 2.727 6.09 6.09v13.99c0 3.364-2.727 6.09-6.09 6.09z" fill="#d08372"/></g><g><path d="m177.688 322.823h-13.99c-3.363 0-6.09-2.727-6.09-6.09s2.727-6.09 6.09-6.09h13.99c3.363 0 6.09 2.727 6.09 6.09s-2.727 6.09-6.09 6.09z" fill="#d08372"/></g><g><path d="m101.506 148.739c-.553 0-1.112-.045-1.675-.139-5.53-.918-9.268-6.145-8.35-11.675 4.019-24.203 19.69-29.892 21.464-30.46 0 0 10.015-3.587 13.505 5.199s-7.155 14.097-6.895 13.985c-.247.106-6.081 2.746-8.049 14.602-.825 4.966-5.126 8.488-10 8.488z" fill="#fff"/></g></g><g><path d="m42.933 2.569 8.787 24.241c.376 1.038 1.121 1.86 2.061 2.276l21.952 9.703c3.101 1.371 3.101 6.219 0 7.59l-21.952 9.703c-.94.415-1.685 1.238-2.061 2.276l-8.787 24.241c-1.241 3.425-5.632 3.425-6.873 0l-8.787-24.241c-.376-1.038-1.121-1.86-2.061-2.276l-21.952-9.704c-3.101-1.371-3.101-6.219 0-7.59l21.952-9.703c.94-.416 1.685-1.238 2.061-2.276l8.787-24.24c1.242-3.425 5.632-3.425 6.873 0z" fill="#f7c4db"/><ellipse cx="292.466" cy="25.973" fill="#ef8bbd" rx="18.825" ry="18.825" transform="matrix(.23 -.973 .973 .23 199.993 304.648)"/><path d="m470.881 66.21c0 4.403-3.569 7.972-7.972 7.972s-7.972-3.569-7.972-7.972 3.569-7.972 7.972-7.972 7.972 3.569 7.972 7.972z" fill="#ef8bbd"/><path d="m485.503 206.795 6.395 17.982c.274.77.816 1.38 1.5 1.688l15.976 7.198c2.257 1.017 2.257 4.613 0 5.63l-15.976 7.198c-.684.308-1.226.918-1.5 1.688l-6.395 17.982c-.904 2.54-4.099 2.54-5.002 0l-6.395-17.982c-.274-.77-.816-1.38-1.5-1.688l-15.976-7.198c-2.257-1.017-2.257-4.613 0-5.63l15.976-7.198c.684-.308 1.226-.918 1.5-1.688l6.395-17.982c.904-2.54 4.099-2.54 5.002 0z" fill="#f7c4db"/></g></g></svg>