<svg id="Capa_1" enable-background="new 0 0 512 512" height="512" viewBox="0 0 512 512" width="512" xmlns="http://www.w3.org/2000/svg"><g><g><path d="m101.3 464.473-13.316-13.316c-4.232-4.232-11.424-3.967-16.227.596l-47.624 45.252c-.044.042-.088.084-.131.126-5.545 5.41-1.49 14.869 6.258 14.869h35.636c3.162 0 6.187-1.295 8.37-3.583l26.421-27.698c4.58-4.802 4.852-12.007.613-16.246z" fill="#78eac4"/><path d="m260.476 381.816-85.304-85.303c-9.49-9.489-24.875-9.489-34.365 0l-67.703 63.805c-12.31 12.31-12.31 32.269 0 44.579 4.961 4.961 4.961 13.004 0 17.965l-8.385 8.385c-9.079 9.079-9.079 23.799 0 32.879l24.245 24.245c9.079 9.079 23.799 9.079 32.878 0l8.385-8.385c4.961-4.961 13.004-4.961 17.965 0 12.31 12.31 32.268 12.31 44.578 0l67.704-63.806c9.491-9.49 9.491-24.875.002-34.364z" fill="#b2e7f1"/><g><path d="m260.476 381.816-85.304-85.303c-9.49-9.489-24.875-9.489-34.365 0l-1.829 1.723c.817.619 1.615 1.283 2.364 2.033l70.453 70.453c7.837 7.838 8.577 19.804 1.654 26.727l-49.589 46.369c-8.982 8.982-22.152 6.782-29.072.904-4.657-3.956-18.015-4.729-25.692 2.204s-18.074 5.917-25.572-1.582l-16.452-16.452-2.354 2.353c-9.079 9.079-9.079 23.799 0 32.879l24.245 24.245c9.079 9.079 23.799 9.079 32.878 0l8.385-8.385c4.961-4.961 13.004-4.961 17.965 0 12.31 12.31 32.268 12.31 44.578 0l67.704-63.805c9.492-9.489 9.492-24.873.003-34.363z" fill="#a7adf1"/></g><path d="m192.966 439.41-74.916-74.916c-21.156-21.156-18.798-57.475 5.213-80.291l228.741-217.348c23.07-21.921 57.613-23.19 77.94-2.864l63.957 63.957c20.358 20.358 19.05 54.969-2.95 78.032l-217.782 228.308c-22.827 23.931-59.079 26.246-80.203 5.122z" fill="#78eac4"/><path d="m493.901 127.947-63.957-63.956c-20.327-20.327-54.87-19.058-77.94 2.863l-24.102 22.902c13.478-3.524 27.394-.729 36.838 8.715l46.99 46.989c14.957 14.958 13.253 41.129-3.844 59.007l-169.236 176.97c-17.739 18.549-45.171 21.049-60.692 5.529l-55.041-55.041c-9.551-9.551-12.266-23.611-8.63-37.146-15.212 22.356-14.358 51.595 3.763 69.715l74.916 74.916c21.124 21.125 57.376 18.809 80.204-5.122l217.781-228.308c22-23.064 23.309-57.674 2.95-78.033z" fill="#71afc4"/><path d="m245.176 341.927-29.643-29.643c-8.371-8.371-5.205-24.974 6.998-36.705l116.257-111.75c11.725-11.271 27.461-13.84 35.504-5.797l25.306 25.306c8.055 8.055 5.464 23.823-5.842 35.55l-111.92 116.087c-11.732 12.168-28.302 15.31-36.66 6.952z" fill="#bdf4e3"/><g><path d="m200.123 270.311c-2.643 0-5.284-1.018-7.285-3.049-3.962-4.024-3.914-10.497.11-14.46l2.974-2.932c4.02-3.966 10.494-3.92 14.459.099 3.965 4.02 3.922 10.494-.099 14.459l-2.985 2.944c-1.991 1.96-4.583 2.939-7.174 2.939z" fill="#fff"/></g><g><path d="m146.497 323.172c-2.598 0-5.197-.984-7.189-2.955-4.014-3.971-4.05-10.445-.079-14.46 9.105-9.205 19.827-19.954 30.322-29.888 4.102-3.883 10.573-3.703 14.454.397 3.881 4.102 3.703 10.573-.398 14.454-10.28 9.729-20.853 20.33-29.84 29.417-2 2.022-4.635 3.035-7.27 3.035z" fill="#fff"/></g></g><g><path d="m195.542 112.933c0 10.473-8.49 18.963-18.963 18.963s-18.963-8.49-18.963-18.963 8.49-18.963 18.963-18.963c10.472 0 18.963 8.49 18.963 18.963z" fill="#78eac4"/><path d="m92.457 91.178c0 4.435-3.595 8.031-8.03 8.031s-8.031-3.595-8.031-8.031c0-4.435 3.595-8.031 8.031-8.031 4.435.001 8.03 3.596 8.03 8.031z" fill="#78eac4"/><g fill="#bdf4e3"><path d="m229.049 1.919 6.442 18.114c.276.775.822 1.39 1.511 1.701l16.094 7.251c2.273 1.024 2.273 4.647 0 5.671l-16.094 7.251c-.689.31-1.235.925-1.511 1.701l-6.442 18.114c-.91 2.559-4.129 2.559-5.039 0l-6.442-18.114c-.276-.776-.822-1.39-1.511-1.701l-16.093-7.251c-2.274-1.024-2.274-4.647 0-5.671l16.093-7.251c.689-.31 1.235-.925 1.511-1.701l6.442-18.114c.911-2.559 4.129-2.559 5.039 0z"/><path d="m45.958 138.988 8.852 24.419c.379 1.046 1.129 1.874 2.076 2.293l22.114 9.775c3.124 1.381 3.124 6.264 0 7.645l-22.114 9.775c-.947.418-1.697 1.247-2.076 2.292l-8.852 24.419c-1.25 3.45-5.673 3.45-6.924 0l-8.852-24.419c-.379-1.046-1.129-1.874-2.076-2.292l-22.114-9.775c-3.124-1.381-3.124-6.265 0-7.645l22.114-9.775c.947-.419 1.697-1.247 2.076-2.293l8.852-24.419c1.251-3.45 5.673-3.45 6.924 0z"/></g></g></g></svg>