<svg id="Capa_1" enable-background="new 0 0 512 512" height="512" viewBox="0 0 512 512" width="512" xmlns="http://www.w3.org/2000/svg"><g><g><path d="m377.397 128.422h-82.514c-20.302 0-36.76 16.458-36.76 36.76v110.436h156.033v-110.436c.001-20.302-16.457-36.76-36.759-36.76z" fill="#78eac4"/><path d="m377.397 128.422h-28.492c13.735 0 24.869 11.134 24.869 24.869v42.462c0 13.013-10.549 23.563-23.562 23.563h-92.088v56.303h156.033v-110.437c0-20.302-16.458-36.76-36.76-36.76z" fill="#71afc4"/><path d="m188.345 317.581h226.404v119.914h-226.404z" fill="#b07676"/><path d="m446.013 512h-7.247c-13.264 0-24.017-10.753-24.017-24.017v-199.408h55.281v199.408c0 13.264-10.753 24.017-24.017 24.017z" fill="#d49c8d"/><path d="m165.33 512h-99.777c-13.024 0-23.583-10.558-23.583-23.583v-199.842h146.942v199.842c0 13.025-10.558 23.583-23.582 23.583z" fill="#d49c8d"/><path d="m41.971 288.575v31.688h112.537v134.392c0 7.855-6.368 14.224-14.224 14.224h-84.09c-7.855 0-14.223-6.368-14.223-14.224v33.763c0 13.024 10.558 23.583 23.582 23.583h99.777c13.025 0 23.583-10.558 23.583-23.583v-199.843z" fill="#c7758d"/><path d="m473.868 317.581h-435.736c-18.016 0-32.621-14.605-32.621-32.621 0-18.016 14.605-32.621 32.621-32.621h435.736c18.016 0 32.621 14.605 32.621 32.621 0 18.016-14.605 32.621-32.621 32.621z" fill="#d49c8d"/><path d="m174.474 204.702h-97.837c-13.155 0-23.819 10.664-23.819 23.818 0 13.155 10.664 23.818 23.819 23.818h97.837c7.661 0 13.871-6.21 13.871-13.871v-19.895c0-7.66-6.211-13.87-13.871-13.87z" fill="#ffe266"/><path d="m174.474 157.065h-97.837c-13.155 0-23.819 10.664-23.819 23.818 0 13.154 10.664 23.818 23.819 23.818h97.837c7.661 0 13.871-6.21 13.871-13.871v-19.895c0-7.66-6.211-13.87-13.871-13.87z" fill="#ef8bbd"/><path d="m188.96 317.581h225.788v45.173h-225.788z" fill="#a45775"/><g><path d="m467.716 327.814h-52.967c-5.651 0-10.234-4.582-10.234-10.234 0-5.651 4.582-10.234 10.234-10.234h52.967c5.652 0 10.234 4.582 10.234 10.234-.001 5.652-4.583 10.234-10.234 10.234z" fill="#b3586b"/></g><g><path d="m188.961 327.814h-140.855c-5.652 0-10.234-4.582-10.234-10.234 0-5.651 4.582-10.234 10.234-10.234h140.855c5.651 0 10.233 4.582 10.233 10.234s-4.582 10.234-10.233 10.234z" fill="#b3586b"/></g><g><path d="m150.384 420.634c-3.391 0-6.14-2.749-6.14-6.14v-13.066c0-3.391 2.749-6.14 6.14-6.14s6.14 2.749 6.14 6.14v13.066c0 3.391-2.749 6.14-6.14 6.14z" fill="#b3586b"/></g><g><path d="m101.406 455.798c-3.391 0-6.14-2.749-6.14-6.14v-13.066c0-3.391 2.749-6.14 6.14-6.14s6.14 2.749 6.14 6.14v13.066c0 3.39-2.749 6.14-6.14 6.14z" fill="#b3586b"/></g><g><path d="m131.546 471.705c-3.391 0-6.14-2.749-6.14-6.14v-13.066c0-3.391 2.749-6.14 6.14-6.14s6.14 2.749 6.14 6.14v13.066c0 3.39-2.749 6.14-6.14 6.14z" fill="#b3586b"/></g><g><path d="m164.704 295.194c-.036 0-.073 0-.109-.001-19.352-.202-37.545-.202-57.257 0-.035.001-.071.001-.107.001-5.602 0-10.174-4.512-10.23-10.129-.059-5.651 4.475-10.28 10.128-10.337 19.855-.206 38.185-.206 57.68 0 5.651.059 10.186 4.688 10.126 10.339-.058 5.615-4.629 10.127-10.231 10.127z" fill="#fff"/></g><g><path d="m71.199 295.194h-8.926c-5.651 0-10.234-4.582-10.234-10.234s4.582-10.233 10.234-10.233h8.926c5.651 0 10.234 4.582 10.234 10.233s-4.582 10.234-10.234 10.234z" fill="#fff"/></g></g><g><path d="m99.275 48.701c0 10.482-8.498 18.98-18.98 18.98s-18.98-8.498-18.98-18.98 8.498-18.98 18.98-18.98 18.98 8.497 18.98 18.98z" fill="#ffa585"/><circle cx="448.675" cy="96.98" fill="#ffa585" r="8.038"/><g fill="#ffc7b6"><path d="m338.662 1.921 6.448 18.13c.276.776.822 1.391 1.512 1.702l16.108 7.257c2.275 1.025 2.275 4.651 0 5.676l-16.108 7.257c-.69.311-1.236.926-1.512 1.702l-6.448 18.13c-.911 2.561-4.132 2.561-5.043 0l-6.448-18.13c-.276-.776-.822-1.391-1.512-1.702l-16.108-7.257c-2.276-1.025-2.276-4.651 0-5.676l16.108-7.257c.69-.311 1.236-.926 1.512-1.702l6.448-18.13c.91-2.561 4.132-2.561 5.043 0z"/><path d="m220.583 48.597 8.86 24.441c.379 1.046 1.13 1.876 2.078 2.295l22.134 9.784c3.127 1.382 3.127 6.27 0 7.652l-22.134 9.783c-.948.419-1.699 1.248-2.078 2.295l-8.86 24.441c-1.252 3.453-5.678 3.453-6.93 0l-8.86-24.441c-.379-1.046-1.13-1.876-2.078-2.295l-22.134-9.783c-3.127-1.382-3.127-6.27 0-7.652l22.134-9.784c.948-.419 1.699-1.248 2.078-2.295l8.86-24.441c1.252-3.453 5.679-3.453 6.93 0z"/></g></g></g></svg>