<svg id="Capa_1" enable-background="new 0 0 512 512" height="512" viewBox="0 0 512 512" width="512" xmlns="http://www.w3.org/2000/svg"><g><g><path d="m510.928 148.562c0-31.636-25.647-57.283-57.284-57.283-22.555 0-42.056 13.04-51.399 31.988-21.95-10.803-46.59-16.918-72.62-16.966-58.358-.108-109.731 29.799-139.568 75.138l-55.143 73.394 20.628 14.897c7.527 5.436 9.222 15.944 3.786 23.471l-18.933 26.217c-5.436 7.527-15.944 9.222-23.471 3.786l-21.639-15.627-75.715 100.774c-7.122 9.41-5.175 22.827 4.329 29.824l94.67 69.702c7.614 5.606 18.021 5.484 25.501-.299l118.172-82.153c20.522 9.037 43.207 14.065 67.07 14.065 90.082 0 163.465-71.497 166.497-160.841.956-28.159-5.239-54.954-16.907-78.669 18.968-9.335 32.026-28.847 32.026-51.418zm-50.01 22.102c-8.385-11.09-18.281-20.988-29.371-29.387 3.155-8.964 11.692-15.39 21.734-15.39 12.724 0 23.04 10.314 23.04 23.039 0 10.046-6.433 18.586-15.403 21.738z" fill="#ef8bbd"/><path d="m510.905 146.916c-.846-30.176-25.483-54.79-55.659-55.615-11.633-.318-22.502 2.841-31.661 8.503 9.44 6.688 16.385 16.826 19.132 28.648 3.823-1.978 8.269-2.922 12.97-2.443 10.865 1.106 19.588 9.955 20.543 20.834.96 10.935-5.728 20.454-15.311 23.821 1.415 26.077-15.933 47.884-43.538 51.274.559 5.982 10.935 23.555 10.732 29.715-2.494 75.626-59.364 134.376-133.441 134.376-12.555 0-24.714-1.742-36.264-5.001-12.938-3.65-26.83-1.222-37.762 6.601l-78.302 56.034c-6.151 4.895-14.709 4.998-20.97.253l-77.849-59.001c-1.403-1.062-2.597-2.306-3.592-3.668l-20.363 27.104c-7.122 9.41-5.175 22.827 4.329 29.824l94.67 69.702c7.614 5.606 18.021 5.484 25.501-.299l118.172-82.153c20.522 9.037 43.207 14.065 67.07 14.065 90.082 0 163.465-71.497 166.497-160.841.956-28.159-5.239-54.954-16.907-78.669 19.428-9.561 32.655-29.799 32.003-53.064z" fill="#e068bd"/><ellipse cx="329.31" cy="272.896" fill="#f7c4db" rx="101.735" ry="101.735" transform="matrix(.707 -.707 .707 .707 -96.514 312.787)"/><g><path d="m270.987 276.923c-.362 0-.727-.019-1.095-.058-5.622-.598-9.694-5.639-9.097-11.26 1.176-11.066 5.054-21.787 11.216-31.003 3.144-4.699 9.502-5.96 14.198-2.821 4.7 3.143 5.962 9.499 2.821 14.198-4.327 6.472-7.051 14.006-7.878 21.789-.558 5.254-4.998 9.155-10.165 9.155z" fill="#fff"/></g><g><path d="m311.878 227.103c-4.368 0-8.414-2.819-9.775-7.211-1.672-5.4 1.349-11.133 6.75-12.805 1.276-.395 2.553-.752 3.796-1.062 5.482-1.36 11.039 1.973 12.405 7.461 1.365 5.486-1.975 11.039-7.461 12.405-1.835.426-3.8 1.271-5.715 1.212z" fill="#fff"/></g><path d="m329.31 171.16c-28.093 0-53.527 11.387-71.938 29.798 14.087-14.087 33.547-22.8 55.043-22.8 42.991 0 77.842 34.851 77.842 77.842s-34.851 77.843-77.842 77.843-77.842-34.851-77.842-77.843c0-21.496 8.713-40.956 22.799-55.042-18.41 18.41-29.797 43.844-29.797 71.937 0 56.187 45.548 101.735 101.735 101.735s101.735-45.548 101.735-101.735c0-56.186-45.548-101.735-101.735-101.735z" fill="#e69fd5"/><g><path d="m115.528 444.93c-1.853 0-3.684-.835-4.893-2.424-2.053-2.699-1.529-6.552 1.171-8.605l10.402-7.912c2.699-2.055 6.554-1.53 8.606 1.171 2.054 2.699 1.53 6.552-1.17 8.605l-10.402 7.912c-1.111.845-2.418 1.253-3.714 1.253z" fill="#b74a96"/></g><g><path d="m198.795 412.08c-1.853 0-3.684-.835-4.892-2.424-2.054-2.699-1.53-6.552 1.17-8.605l10.402-7.912c2.7-2.055 6.552-1.53 8.606 1.171 2.053 2.699 1.529 6.552-1.171 8.605l-10.402 7.912c-1.111.845-2.417 1.253-3.713 1.253z" fill="#b74a96"/></g><g><path d="m177.476 452.674c-1.853 0-3.684-.835-4.892-2.423-2.054-2.7-1.53-6.553 1.17-8.606l10.401-7.912c2.699-2.054 6.553-1.53 8.606 1.169 2.054 2.7 1.53 6.553-1.17 8.606l-10.402 7.912c-1.11.845-2.417 1.254-3.713 1.254z" fill="#b74a96"/></g></g><g><path d="m192.616 85.888c0 10.484-8.499 18.984-18.984 18.984s-18.984-8.499-18.984-18.984 8.499-18.984 18.984-18.984 18.984 8.499 18.984 18.984z" fill="#ef8bbd"/><path d="m119.4 183.502c0 4.44-3.599 8.04-8.039 8.04s-8.039-3.6-8.039-8.04 3.599-8.039 8.039-8.039 8.039 3.599 8.039 8.039z" fill="#ef8bbd"/><g fill="#f7c4db"><path d="m258.4 1.921 6.449 18.134c.276.776.822 1.392 1.512 1.702l16.111 7.259c2.276 1.025 2.276 4.652 0 5.678l-16.111 7.259c-.69.311-1.236.926-1.512 1.702l-6.449 18.134c-.911 2.562-4.133 2.562-5.044 0l-6.449-18.134c-.276-.776-.823-1.392-1.512-1.702l-16.111-7.259c-2.276-1.026-2.276-4.652 0-5.678l16.111-7.259c.69-.311 1.236-.926 1.512-1.702l6.449-18.134c.91-2.562 4.132-2.562 5.044 0z"/><path d="m77.542 85.161 6.449 18.134c.276.776.823 1.392 1.512 1.702l16.111 7.259c2.276 1.025 2.276 4.652 0 5.678l-16.111 7.259c-.69.311-1.236.926-1.512 1.702l-6.449 18.134c-.911 2.562-4.133 2.562-5.044 0l-6.449-18.134c-.276-.777-.823-1.392-1.513-1.702l-16.111-7.259c-2.276-1.025-2.276-4.652 0-5.678l16.111-7.259c.69-.311 1.237-.926 1.513-1.702l6.449-18.134c.91-2.562 4.132-2.562 5.044 0z"/><path d="m43.428 199.938 8.861 24.446c.379 1.047 1.131 1.876 2.078 2.295l22.138 9.785c3.128 1.383 3.128 6.271 0 7.654l-22.138 9.786c-.948.419-1.699 1.248-2.078 2.295l-8.861 24.446c-1.252 3.454-5.679 3.454-6.931 0l-8.861-24.446c-.38-1.047-1.131-1.876-2.079-2.295l-22.138-9.786c-3.128-1.382-3.128-6.271 0-7.654l22.138-9.785c.948-.419 1.699-1.248 2.079-2.295l8.861-24.446c1.251-3.454 5.679-3.454 6.931 0z"/></g></g></g></svg>