<svg id="Capa_1" enable-background="new 0 0 512 512" height="512" viewBox="0 0 512 512" width="512" xmlns="http://www.w3.org/2000/svg"><g><g><path d="m415.682 493.562h-319.364c-56.944 0-101.454-49.139-95.839-105.806l2.425-24.475c4.882-49.27 46.327-86.811 95.839-86.811h314.441c49.404 0 90.795 37.383 95.811 86.531l2.498 24.476c5.792 56.76-38.755 106.085-95.811 106.085z" fill="#a183e2"/><g><path d="m367.577 120.278-53.94-29.105c-11.178-6.032-25.129-1.859-31.16 9.319l-172.466 319.631c-6.032 11.178-1.859 25.129 9.319 31.16l53.94 29.105c11.178 6.031 25.129 1.859 31.16-9.319l172.465-319.632c6.032-11.177 1.86-25.128-9.318-31.159zm-66.789 59.245c-7.446-4.018-10.225-13.31-6.208-20.756 4.018-7.446 13.311-10.225 20.757-6.208 7.446 4.018 10.225 13.31 6.207 20.757-4.018 7.445-13.311 10.224-20.756 6.207z" fill="#78eac4"/><g><path d="m281.18 230.131c-1.022 0-2.06-.246-3.023-.766l-50.511-27.254c-3.101-1.672-4.257-5.541-2.585-8.64 1.673-3.101 5.545-4.258 8.64-2.585l50.511 27.254c3.101 1.672 4.257 5.541 2.585 8.64-1.153 2.138-3.349 3.351-5.617 3.351z" fill="#518699"/></g><g><path d="m246.432 254.368c-1.023 0-2.06-.246-3.023-.766l-33.728-18.198c-3.101-1.672-4.257-5.541-2.585-8.64 1.671-3.102 5.545-4.258 8.64-2.585l33.728 18.198c3.101 1.672 4.257 5.541 2.585 8.64-1.151 2.138-3.349 3.351-5.617 3.351z" fill="#518699"/></g><g><path d="m245.251 296.718c-1.023 0-2.06-.246-3.024-.766l-50.511-27.255c-3.1-1.672-4.256-5.541-2.584-8.641 1.673-3.101 5.543-4.258 8.641-2.584l50.511 27.255c3.1 1.672 4.256 5.541 2.584 8.641-1.152 2.137-3.349 3.35-5.617 3.35z" fill="#518699"/></g><g><path d="m210.504 320.956c-1.023 0-2.061-.246-3.024-.766l-33.728-18.199c-3.1-1.672-4.256-5.541-2.584-8.641 1.673-3.101 5.542-4.257 8.641-2.584l33.728 18.199c3.1 1.672 4.256 5.541 2.584 8.641-1.153 2.136-3.349 3.35-5.617 3.35z" fill="#518699"/></g><g><path d="m209.323 363.304c-1.022 0-2.06-.246-3.023-.766l-50.511-27.254c-3.101-1.672-4.257-5.541-2.585-8.64 1.674-3.101 5.544-4.258 8.64-2.585l50.512 27.254c3.1 1.672 4.257 5.541 2.585 8.64-1.154 2.138-3.35 3.351-5.618 3.351z" fill="#440a29"/></g><g><path d="m174.575 387.542c-1.023 0-2.06-.246-3.023-.766l-33.728-18.198c-3.1-1.672-4.257-5.541-2.585-8.64 1.671-3.102 5.544-4.258 8.64-2.585l33.728 18.198c3.101 1.672 4.257 5.541 2.585 8.64-1.151 2.137-3.349 3.351-5.617 3.351z" fill="#440a29"/></g><g><path d="m173.394 429.891c-1.023 0-2.06-.246-3.024-.766l-50.512-27.255c-3.099-1.672-4.256-5.541-2.584-8.641 1.673-3.101 5.543-4.258 8.641-2.584l50.512 27.255c3.1 1.672 4.256 5.541 2.584 8.641-1.152 2.137-3.349 3.35-5.617 3.35z" fill="#440a29"/></g></g><g><path d="m451.973 273.341-316.429 210.67c-12.061 8.03-27.808 5.576-35.172-5.48l-10.213-15.334c-7.364-11.057-3.557-26.529 8.504-34.559l316.429-210.67 46.183-4.472c10.745-1.04 17.736 9.455 12.633 18.967z" fill="#ef8bbd"/><path d="m127.006 409.767-28.344 18.871c-12.061 8.03-15.868 23.502-8.504 34.558l10.214 15.334c7.364 11.056 23.112 13.51 35.173 5.48l28.554-19.01z" fill="#f7c4db"/><path d="m190.696 445.018-26.598 19.983-37.092-55.234 27.879-18.561z" fill="#b2e7f1"/><g><path d="m163.894 471.518c-2.063 0-4.086-.998-5.314-2.843l-36.883-55.372c-1.952-2.931-1.158-6.89 1.773-8.843 2.933-1.956 6.891-1.16 8.843 1.772l36.883 55.372c1.952 2.931 1.158 6.89-1.773 8.843-1.086.725-2.314 1.071-3.529 1.071z" fill="#440a29"/></g><g><path d="m191.773 452.958c-2.062 0-4.086-.999-5.315-2.843l-36.881-55.374c-1.952-2.931-1.158-6.891 1.773-8.844 2.932-1.952 6.891-1.157 8.844 1.773l36.881 55.374c1.952 2.931 1.158 6.891-1.773 8.844-1.087.723-2.315 1.07-3.529 1.07z" fill="#440a29"/></g></g><path d="m437.506 323.838h-363.012l-1.161 145.416c-.107 13.376 10.771 24.242 24.147 24.121l343.192-6.744z" fill="#a183e2"/><path d="m511.493 387.476-2.498-24.476c-4.046-39.644-31.758-71.632-68.253-82.522l-25.964 17.624c12.816 11.375 21.395 26.477 23.377 43.444l2.15 18.408c4.986 42.688-33.361 79.783-82.476 79.783h-274.916c-41.223 0-74.873-26.138-81.66-59.798l-.774 7.817c-5.615 56.666 38.895 105.806 95.839 105.806h319.364c57.056-.001 101.603-49.325 95.811-106.086z" fill="#9762e2"/><path d="m58.895 330.179-20.895 38.724c-4.449 8.246.601 18.413 9.86 19.849l29.074 4.51c9.259 1.436 17.152-6.723 15.41-15.929l-8.18-43.233c-2.374-12.554-19.202-15.165-25.269-3.921z" fill="#b2e7f1"/><g><path d="m220.002 370.141c-.016 0-.029 0-.045 0l-35.273-.144c-5.87-.024-10.609-4.803-10.586-10.673.024-5.855 4.779-10.586 10.628-10.586h.045l35.274.144c5.87.024 10.609 4.803 10.586 10.673-.025 5.856-4.78 10.586-10.629 10.586z" fill="#fff"/></g><g><path d="m141.275 370.141h-9.35c-5.87 0-10.629-4.759-10.629-10.629s4.759-10.629 10.629-10.629h9.35c5.87 0 10.629 4.759 10.629 10.629s-4.759 10.629-10.629 10.629z" fill="#fff"/></g><g><path d="m355.742 450.179c-3.522 0-6.378-2.856-6.378-6.378v-13.571c0-3.522 2.855-6.378 6.378-6.378 3.522 0 6.378 2.855 6.378 6.378v13.571c-.001 3.522-2.856 6.378-6.378 6.378z" fill="#7844c1"/></g><g><path d="m399.303 415.093c-3.522 0-6.378-2.855-6.378-6.378v-13.571c0-3.522 2.856-6.378 6.378-6.378s6.378 2.856 6.378 6.378v13.571c-.001 3.523-2.856 6.378-6.378 6.378z" fill="#7844c1"/></g><g><path d="m442.452 432.994c-3.522 0-6.378-2.856-6.378-6.378v-13.571c0-3.522 2.856-6.378 6.378-6.378s6.378 2.856 6.378 6.378v13.571c-.001 3.522-2.856 6.378-6.378 6.378z" fill="#7844c1"/></g><g><path d="m447.706 330.216h-373.211c-3.522 0-6.377-2.855-6.377-6.378 0-3.522 2.855-6.378 6.377-6.378h373.211c3.522 0 6.378 2.856 6.378 6.378s-2.856 6.378-6.378 6.378z" fill="#7844c1"/></g></g><g><ellipse cx="478.248" cy="98.94" fill="#a183e2" rx="19.714" ry="19.714" transform="matrix(.23 -.973 .973 .23 272.076 541.662)"/><circle cx="96.309" cy="92.947" fill="#a183e2" r="8.349"/><g fill="#cab4ef"><path d="m204.983 20.434 6.697 18.831c.287.806.854 1.445 1.571 1.768l16.731 7.538c2.363 1.065 2.363 4.831 0 5.896l-16.731 7.538c-.716.323-1.284.962-1.571 1.768l-6.697 18.831c-.946 2.66-4.292 2.66-5.238 0l-6.697-18.831c-.287-.806-.854-1.445-1.571-1.768l-16.731-7.538c-2.364-1.065-2.364-4.831 0-5.896l16.731-7.538c.716-.323 1.284-.962 1.571-1.768l6.697-18.831c.946-2.661 4.292-2.661 5.238 0z"/><path d="m113.227 139.458 9.202 25.386c.394 1.087 1.174 1.948 2.158 2.383l22.989 10.162c3.248 1.436 3.248 6.513 0 7.948l-22.989 10.162c-.984.435-1.764 1.296-2.158 2.383l-9.202 25.386c-1.3 3.587-5.898 3.587-7.198 0l-9.202-25.386c-.394-1.087-1.174-1.948-2.158-2.383l-22.989-10.162c-3.248-1.435-3.248-6.513 0-7.948l22.989-10.162c.984-.435 1.764-1.296 2.158-2.383l9.202-25.386c1.3-3.587 5.898-3.587 7.198 0z"/></g></g></g></svg>