<svg id="Capa_1" enable-background="new 0 0 512 512" height="512" viewBox="0 0 512 512" width="512" xmlns="http://www.w3.org/2000/svg"><g><g><path d="m301.379 69.634h-95.723c-20.266 0-36.695 16.429-36.695 36.695v42.292c0 20.266 16.429 36.695 36.695 36.695h95.723c20.266 0 36.695-16.429 36.695-36.695v-42.292c-.001-20.266-16.429-36.695-36.695-36.695zm-1.214 98.203c0 .841-.682 1.524-1.524 1.524h-90.249c-.841 0-1.524-.682-1.524-1.524v-60.772c0-.841.682-1.524 1.524-1.524h90.249c.841 0 1.524.682 1.524 1.524z" fill="#b07676"/><path d="m446.01 507.778h-383.927c-29.564 0-53.53-23.966-53.53-53.53v-251.524c0-29.564 23.966-53.53 53.53-53.53h383.927c29.564 0 53.53 23.966 53.53 53.53v251.523c.001 29.564-23.966 53.531-53.53 53.531z" fill="#d49c8d"/><path d="m446.01 149.193h-39.626c12.885 0 23.331 10.446 23.331 23.332v253.145c0 12.885-10.446 23.331-23.331 23.331h-374.5c-12.885 0-23.331-10.446-23.331-23.331v28.577c0 29.564 23.966 53.531 53.53 53.531h383.927c29.564 0 53.53-23.967 53.53-53.531v-251.523c.001-29.564-23.966-53.531-53.53-53.531z" fill="#c7758d"/><g><path d="m424.051 479.815h-340.008c-26.027 0-47.2-20.454-47.2-45.596v-107.144c0-3.37 2.732-6.102 6.102-6.102s6.102 2.732 6.102 6.102v107.145c0 18.412 15.699 33.391 34.996 33.391h340.008c19.297 0 34.996-14.979 34.996-33.391v-107.145c0-3.37 2.732-6.102 6.102-6.102s6.102 2.732 6.102 6.102v107.145c0 25.141-21.174 45.595-47.2 45.595z" fill="#b3586b"/></g><g><path d="m439.203 345.512h-370.313c-32.845 0-61.061-22.296-68.615-54.219-1.293-5.466 2.089-10.946 7.555-12.239 5.47-1.292 10.946 2.09 12.239 7.555 5.372 22.705 25.448 38.562 48.82 38.562h370.313c23.73 0 44.4-16.841 49.147-40.045 1.126-5.504 6.498-9.055 12.003-7.925 5.502 1.126 9.051 6.5 7.925 12.003-6.674 32.627-35.725 56.308-69.074 56.308z" fill="#b3586b"/></g><path d="m119.514 449.001h-19.248c-13.238 0-23.97-10.732-23.97-23.97v-282.446c0-3.959 3.209-7.168 7.168-7.168h52.852c3.959 0 7.168 3.209 7.168 7.168v282.447c-.001 13.238-10.732 23.969-23.97 23.969z" fill="#b07676"/><path d="m134.959 383.81h-50.138c-8.319 0-15.062-6.743-15.062-15.062v-45.542c0-8.319 6.743-15.062 15.062-15.062h50.138c8.318 0 15.062 6.743 15.062 15.062v45.542c0 8.318-6.744 15.062-15.062 15.062z" fill="#ffe266"/><path d="m123.867 359.979h-27.955c-.483 0-.875-.392-.875-.875v-26.254c0-.483.392-.875.875-.875h27.955c.483 0 .875.392.875.875v26.254c0 .483-.391.875-.875.875z" fill="#b07676"/><path d="m406.714 449.001h-19.248c-13.238 0-23.97-10.732-23.97-23.97v-282.446c0-3.959 3.209-7.168 7.168-7.168h52.852c3.959 0 7.168 3.209 7.168 7.168v282.447c0 13.238-10.732 23.969-23.97 23.969z" fill="#b07676"/><path d="m422.159 383.81h-50.138c-8.319 0-15.062-6.743-15.062-15.062v-45.542c0-8.319 6.744-15.062 15.062-15.062h50.138c8.319 0 15.062 6.743 15.062 15.062v45.542c0 8.318-6.743 15.062-15.062 15.062z" fill="#ffe266"/><path d="m411.068 359.979h-27.955c-.483 0-.875-.392-.875-.875v-26.254c0-.483.392-.875.875-.875h27.955c.483 0 .875.392.875.875v26.254c0 .483-.392.875-.875.875z" fill="#b07676"/><g><path d="m233.914 195.486c-5.497 0-10.021-4.385-10.162-9.912-.143-5.615 4.293-10.283 9.909-10.425 17.707-.451 35.061-.451 53.052-.001 5.616.141 10.053 4.807 9.913 10.422-.14 5.616-4.832 10.035-10.422 9.913-17.649-.443-34.666-.442-52.028-.001-.086.003-.174.004-.262.004z" fill="#fff"/></g><g><path d="m194.001 195.486h-11.555c-5.617 0-10.171-4.553-10.171-10.17s4.553-10.171 10.171-10.171h11.555c5.617 0 10.171 4.553 10.171 10.171 0 5.616-4.554 10.17-10.171 10.17z" fill="#fff"/></g><g><path d="m278.098 445.799c-3.37 0-6.102-2.732-6.102-6.102v-12.306c0-3.37 2.732-6.102 6.102-6.102s6.102 2.732 6.102 6.102v12.306c.001 3.37-2.732 6.102-6.102 6.102z" fill="#b3586b"/></g><g><path d="m309.933 392.709c-3.37 0-6.102-2.732-6.102-6.102v-12.306c0-3.37 2.732-6.102 6.102-6.102s6.102 2.732 6.102 6.102v12.306c0 3.37-2.732 6.102-6.102 6.102z" fill="#b3586b"/></g><g><path d="m331.013 430.037c-3.37 0-6.102-2.732-6.102-6.102v-12.306c0-3.37 2.732-6.102 6.102-6.102s6.102 2.732 6.102 6.102v12.306c0 3.37-2.732 6.102-6.102 6.102z" fill="#b3586b"/></g></g><g><ellipse cx="400.245" cy="27.886" fill="#ffa585" rx="18.863" ry="18.863" transform="matrix(.383 -.924 .924 .383 221.314 386.993)"/><circle cx="127.019" cy="81.575" fill="#ffa585" r="7.988"/><g fill="#ffc7b6"><path d="m486.384 64.635 6.408 18.019c.274.771.817 1.383 1.503 1.691l16.009 7.213c2.262 1.019 2.262 4.623 0 5.642l-16.009 7.213c-.685.309-1.229.92-1.503 1.692l-6.408 18.018c-.905 2.546-4.107 2.546-5.012 0l-6.408-18.018c-.274-.772-.817-1.383-1.503-1.692l-16.009-7.213c-2.262-1.019-2.262-4.622 0-5.642l16.009-7.213c.685-.309 1.229-.92 1.503-1.691l6.408-18.019c.905-2.545 4.107-2.545 5.012 0z"/><path d="m52.84 6.796 8.805 24.291c.377 1.04 1.123 1.864 2.065 2.28l21.997 9.723c3.108 1.374 3.108 6.232 0 7.605l-21.997 9.724c-.942.416-1.688 1.241-2.065 2.28l-8.805 24.291c-1.244 3.432-5.643 3.432-6.887 0l-8.805-24.291c-.377-1.04-1.123-1.864-2.065-2.28l-21.997-9.723c-3.108-1.374-3.108-6.232 0-7.605l21.997-9.723c.942-.416 1.688-1.24 2.065-2.28l8.805-24.291c1.244-3.433 5.643-3.433 6.887-.001z"/></g></g></g></svg>