<svg id="Capa_1" enable-background="new 0 0 512 512" height="512" viewBox="0 0 512 512" width="512" xmlns="http://www.w3.org/2000/svg"><g><g><path d="m472.717 512h-429.217c-21.215 0-38.413-17.198-38.413-38.413v-301.748c0-21.215 17.198-38.413 38.413-38.413h429.217c21.215 0 38.413 17.198 38.413 38.413v301.748c.001 21.215-17.198 38.413-38.413 38.413z" fill="#b07676"/><path d="m458.223 472.9h-400.229c-7.709 0-13.959-6.25-13.959-13.959v-272.457c0-7.709 6.25-13.959 13.959-13.959h400.229c7.71 0 13.959 6.25 13.959 13.959v272.457c0 7.709-6.249 13.959-13.959 13.959z" fill="#78eac4"/><path d="m472.717 133.425h-67.347c17.658 0 31.973 14.315 31.973 31.973v243.102c0 17.658-14.315 31.973-31.973 31.973h-368.31c-17.658 0-31.973-14.315-31.973-31.973v65.085c0 21.216 17.198 38.415 38.413 38.415h429.217c21.215 0 38.413-17.198 38.413-38.414v-301.747c.001-21.215-17.198-38.414-38.413-38.414z" fill="#a45775"/><path d="m458.223 172.525h-20.88v235.976c0 17.658-14.315 31.973-31.973 31.973h-361.335v18.467c0 7.709 6.25 13.959 13.959 13.959h400.229c7.71 0 13.959-6.25 13.959-13.959v-272.457c0-7.709-6.249-13.959-13.959-13.959z" fill="#71afc4"/><g><path d="m411.213 404.601c2.17-2.566 1.697-6.737-.986-8.757l-18.221-14.229c-2.685-2.097-6.561-1.62-8.659 1.065-2.096 2.686-1.619 6.562 1.066 8.659l4.094 3.197h-70.7c-3.407 0-6.169 2.762-6.169 6.169s2.762 6.169 6.169 6.169h70.699l-4.094 3.196c-2.686 2.097-3.163 5.974-1.066 8.66 1.217 1.558 3.032 2.373 4.867 2.373 1.327 0 2.666-.427 3.792-1.307l18.221-14.228c.357-.292.699-.605.987-.967z" fill="#fff"/><path d="m287.794 396.044-183.06-158.534c-1.825-1.582-4.405-1.95-6.602-.948-2.197 1.003-3.606 3.197-3.606 5.611v158.534c0 3.407 2.762 6.169 6.169 6.169h183.059c2.576 0 4.881-1.601 5.781-4.014.901-2.413.206-5.132-1.741-6.818zm-180.929-30.938h29.432v29.432h-29.432zm41.771 29.432v-35.602c0-3.407-2.762-6.169-6.169-6.169h-35.601v-97.091l160.343 138.862z" fill="#fff"/><g><path d="m276.684 343.633c-2.512 0-4.827-1.54-5.755-3.956l-22.27-57.924c-1.222-3.18.365-6.75 3.545-7.973 3.181-1.221 6.751.365 7.973 3.544l10.342 26.901v-73.735c0-3.407 2.762-6.169 6.169-6.169h138.835c3.407 0 6.169 2.762 6.169 6.169s-2.762 6.169-6.169 6.169h-132.667v100.805c0 2.973-2.121 5.523-5.044 6.066-.377.069-.756.103-1.128.103z" fill="#fff"/></g><path d="m356.463 323.389-14.919-19.658 12.512-16.594c2.052-2.72 1.508-6.588-1.212-8.64-2.721-2.052-6.589-1.509-8.64 1.211l-10.412 13.808-10.491-13.823c-2.058-2.714-5.93-3.244-8.643-1.184-2.714 2.059-3.245 5.93-1.185 8.644l12.599 16.602-14.242 18.888c-2.051 2.721-1.508 6.588 1.212 8.64 1.113.839 2.416 1.244 3.709 1.244 1.871 0 3.718-.848 4.931-2.456l12.142-16.102 12.811 16.88c1.213 1.6 3.055 2.44 4.919 2.44 1.299 0 2.61-.409 3.724-1.256 2.715-2.059 3.246-5.93 1.185-8.644z" fill="#fff"/><g><g><path d="m385.222 296.045c-5.362 0-5.828-.155-6.638-.426-1.944-.649-3.458-2.193-4.054-4.13-.989-3.216.645-5.355 2.375-7.62 1.292-1.692 3.698-4.842 7.735-10.61 1.103-1.575 1.542-2.622 1.717-3.203-.062-.151-.211-.257-.384-.257-.25 0-.383.201-.408.328-.658 3.343-3.903 5.522-7.243 4.864-3.344-.657-5.522-3.899-4.865-7.243 1.172-5.961 6.434-10.288 12.515-10.288 7.032 0 12.753 5.721 12.753 12.754-.016.742-.143 1.662-.286 2.39-.574 2.473-1.782 5.001-3.692 7.73-.85 1.213-1.63 2.315-2.345 3.316.393-.004.782-.008 1.167-.013.026-.001.052-.001.079-.001 3.371 0 6.124 2.711 6.167 6.091.042 3.407-2.685 6.204-6.092 6.247-3.728.049-6.467.071-8.501.071z" fill="#fff"/></g></g></g><g><path d="m153.688 217.993c-8.453 0-16.841-.017-24.93-.051-5.678-.024-10.263-4.646-10.239-10.325.024-5.664 4.623-10.239 10.281-10.239h.044c16.121.068 33.437.068 50.076 0 5.644-.012 10.301 4.562 10.324 10.24.023 5.679-4.562 10.301-10.24 10.324-8.346.034-16.863.051-25.316.051z" fill="#fff"/></g><g><path d="m89.74 217.942h-10.739c-5.678 0-10.282-4.603-10.282-10.282s4.604-10.282 10.282-10.282h10.739c5.678 0 10.282 4.603 10.282 10.282s-4.604 10.282-10.282 10.282z" fill="#fff"/></g></g><g><ellipse cx="312.514" cy="33.497" fill="#78eac4" rx="19.07" ry="19.07" transform="matrix(.23 -.973 .973 .23 208.112 329.954)"/><circle cx="194.992" cy="86.277" fill="#78eac4" r="8.076"/><g fill="#bdf4e3"><path d="m463.98 48.356 6.478 18.216c.277.78.826 1.398 1.519 1.71l16.184 7.292c2.286 1.03 2.286 4.673 0 5.703l-16.184 7.292c-.693.312-1.242.93-1.519 1.71l-6.478 18.216c-.915 2.574-4.152 2.574-5.067 0l-6.478-18.216c-.277-.78-.826-1.398-1.519-1.71l-16.184-7.292c-2.286-1.03-2.286-4.673 0-5.703l16.184-7.292c.693-.312 1.242-.93 1.519-1.71l6.478-18.216c.915-2.573 4.152-2.573 5.067 0z"/><path d="m43.417 2.602 8.902 24.557c.381 1.051 1.136 1.885 2.088 2.306l22.238 9.83c3.142 1.389 3.142 6.3 0 7.689l-22.238 9.83c-.952.421-1.707 1.254-2.088 2.306l-8.902 24.557c-1.258 3.47-5.705 3.47-6.963 0l-8.902-24.557c-.381-1.051-1.136-1.885-2.088-2.306l-22.239-9.83c-3.142-1.389-3.142-6.3 0-7.689l22.239-9.83c.952-.421 1.707-1.254 2.088-2.306l8.902-24.557c1.258-3.469 5.705-3.469 6.963 0z"/></g></g></g></svg>