<svg id="Capa_1" enable-background="new 0 0 512 512" height="512" viewBox="0 0 512 512" width="512" xmlns="http://www.w3.org/2000/svg"><g><g><path d="m495.214 509.141h-222.428c-9.271 0-16.786-7.516-16.786-16.786v-318.043c0-9.271 7.515-16.786 16.786-16.786h222.427c9.271 0 16.786 7.516 16.786 16.786v318.042c.001 9.271-7.515 16.787-16.785 16.787z" fill="#ffe266"/><path d="m239.214 509.141h-222.428c-9.271 0-16.786-7.516-16.786-16.787v-318.042c0-9.271 7.515-16.786 16.786-16.786h222.427c9.271 0 16.786 7.516 16.786 16.786v318.042c.001 9.271-7.515 16.787-16.785 16.787z" fill="#ffe266"/><path d="m239.82 472.15c-61.349-13.172-123.952-13.663-192.221.261-8.28 1.689-16.036-4.61-16.036-13.06v-306.332c0-6.519 4.71-12.1 11.141-13.17 67.385-11.206 134.771-11.206 202.156 0 6.431 1.069 11.141 6.65 11.141 13.17v306.102c-.001 8.512-7.859 14.816-16.181 13.029z" fill="#e7effa"/><path d="m464.158 467.05c-61.349-13.172-124.313-13.924-192.582 0-8.28 1.689-15.576.752-15.576-7.699v-306.332c0-6.519 4.71-12.1 11.141-13.17 59.915-9.964 119.576-11.11 179.435-3.365 7.464.966 13.631 2.838 21.102 4.08 6.431 1.069 11.049 6.229 11.049 12.748l-4.781 304.202c-.001 8.513-1.465 11.323-9.788 9.536z" fill="#e7effa"/><path d="m255.957 456.095c0 9.063-224.395-12.507-224.395-12.507h-15.151c-9.064 0-16.411-7.347-16.411-16.411v65.177c0 9.271 7.515 16.787 16.786 16.787h222.427c9.271 0 16.786-7.516 16.786-16.787z" fill="#efaa66"/><path d="m249.385 141.487c-1.268-.642-2.761-1.184-4.525-1.638-5.95-.989-11.9-1.887-17.849-2.701v290.029c0 9.064-7.347 16.411-16.411 16.411h-179.038v15.763c0 8.451 7.756 14.75 16.036 13.061 68.269-13.924 130.872-13.434 192.221-.261 8.323 1.787 16.18-4.517 16.18-13.029v-302.952c0-3.168-.24-5.79-.908-7.978-1.09-2.812-3.104-5.183-5.706-6.705z" fill="#dcb6f5"/><path d="m495.214 157.526c-4.766 0-15.249-.211-15.249-.211.165-3.219-24.777 276.966-24.777 276.966 0 7.993-13.91 15.881-21.903 15.881l-170.984-3.51c-3.434 0-3.82 1.744-6.301-.255v45.957c0 9.271 7.515 16.787 16.786 16.787h222.427c9.271 0 16.786-7.516 16.786-16.787v-318.042c.001-9.271-7.42-16.786-16.785-16.786z" fill="#efaa66"/><path d="m272.036 472.411c68.27-13.924 130.872-13.434 192.221-.261 8.323 1.787 16.18-4.517 16.18-13.029v-306.102c-.182-4.908-2.448-9.214-6.679-11.573-5.668-3.16-18.432-3.918-27.185-4.943l1.722 292.592c0 7.993-6.479 14.472-14.472 14.472h-168.757c-3.434 0-6.584-1.202-9.066-3.201v18.984c0 8.452 7.756 14.75 16.036 13.061z" fill="#dcb6f5"/><g><path d="m256 493.749c-3.48 0-6.301-2.821-6.301-6.301v-40.796c0-3.48 2.821-6.301 6.301-6.301s6.301 2.821 6.301 6.301v40.796c0 3.48-2.821 6.301-6.301 6.301z" fill="#d0844b"/></g><g><path d="m256.005 441.683c-.509 0-1.026-.061-1.542-.192-71.745-18.055-144.187-18.045-221.465.026-3.385.795-6.777-1.312-7.57-4.701-.792-3.388 1.312-6.778 4.701-7.571 79.283-18.539 153.669-18.531 227.41.026 3.375.849 5.422 4.273 4.572 7.647-.72 2.86-3.287 4.765-6.106 4.765z" fill="#ad99c9"/></g><g><path d="m256.005 400.748c-.509 0-1.026-.062-1.542-.192-71.744-18.054-144.186-18.048-221.465.026-3.385.794-6.777-1.312-7.57-4.701-.793-3.388 1.312-6.778 4.701-7.57 79.283-18.541 153.669-18.532 227.41.026 3.375.849 5.422 4.273 4.572 7.647-.72 2.858-3.287 4.764-6.106 4.764z" fill="#ad99c9"/></g><g><path d="m256.005 357.957c-.509 0-1.026-.062-1.542-.192-71.744-18.054-144.186-18.048-221.465.026-3.385.795-6.777-1.312-7.57-4.701-.793-3.388 1.312-6.778 4.701-7.571 79.283-18.54 153.669-18.533 227.41.026 3.375.849 5.422 4.273 4.572 7.647-.72 2.859-3.287 4.765-6.106 4.765z" fill="#ad99c9"/></g><g><path d="m256.005 316.474c-.509 0-1.026-.061-1.542-.192-71.745-18.054-144.187-18.044-221.465.026-3.385.795-6.777-1.312-7.57-4.701-.792-3.388 1.312-6.778 4.701-7.57 79.283-18.539 153.669-18.532 227.41.026 3.375.849 5.422 4.273 4.572 7.648-.72 2.857-3.287 4.763-6.106 4.763z" fill="#ad99c9"/></g><g><path d="m256.005 273.137c-.509 0-1.026-.061-1.542-.192-71.744-18.054-144.186-18.047-221.465.026-3.385.794-6.777-1.312-7.57-4.701-.793-3.388 1.312-6.778 4.701-7.571 79.283-18.541 153.669-18.531 227.41.026 3.375.849 5.422 4.273 4.572 7.647-.72 2.86-3.287 4.765-6.106 4.765z" fill="#ad99c9"/></g><g><path d="m256.005 230.357c-.509 0-1.026-.062-1.542-.192-71.745-18.054-144.187-18.045-221.465.026-3.385.792-6.777-1.311-7.57-4.701-.792-3.388 1.312-6.778 4.701-7.571 79.283-18.539 153.669-18.531 227.41.026 3.375.849 5.422 4.273 4.572 7.647-.72 2.859-3.287 4.765-6.106 4.765z" fill="#ad99c9"/></g><g><path d="m256.005 187.953c-.509 0-1.026-.061-1.542-.192-71.745-18.054-144.187-18.044-221.465.026-3.385.795-6.777-1.312-7.57-4.701-.792-3.388 1.312-6.778 4.701-7.571 79.283-18.539 153.669-18.532 227.41.026 3.375.849 5.422 4.273 4.572 7.647-.72 2.859-3.287 4.765-6.106 4.765z" fill="#ad99c9"/></g><g><path d="m480.443 441.683c-.509 0-1.026-.061-1.542-.192-71.745-18.055-144.187-18.045-221.465.026-3.383.795-6.778-1.312-7.57-4.701-.792-3.388 1.312-6.778 4.701-7.571 79.283-18.539 153.669-18.531 227.41.026 3.374.849 5.422 4.273 4.572 7.647-.72 2.86-3.287 4.765-6.106 4.765z" fill="#ad99c9"/></g><g><path d="m480.443 400.748c-.509 0-1.026-.062-1.542-.192-71.744-18.054-144.185-18.048-221.465.026-3.383.794-6.778-1.312-7.57-4.701-.793-3.388 1.312-6.778 4.701-7.57 79.283-18.541 153.669-18.532 227.41.026 3.374.849 5.422 4.273 4.572 7.647-.72 2.858-3.287 4.764-6.106 4.764z" fill="#ad99c9"/></g><g><path d="m480.443 357.957c-.509 0-1.026-.062-1.542-.192-71.744-18.054-144.185-18.048-221.465.026-3.383.795-6.778-1.312-7.57-4.701-.793-3.388 1.312-6.778 4.701-7.571 79.283-18.54 153.669-18.533 227.41.026 3.374.849 5.422 4.273 4.572 7.647-.72 2.859-3.287 4.765-6.106 4.765z" fill="#ad99c9"/></g><g><path d="m480.443 316.474c-.509 0-1.026-.061-1.542-.192-71.745-18.054-144.187-18.044-221.465.026-3.383.795-6.778-1.312-7.57-4.701-.792-3.388 1.312-6.778 4.701-7.57 79.283-18.539 153.669-18.532 227.41.026 3.374.849 5.422 4.273 4.572 7.648-.72 2.857-3.287 4.763-6.106 4.763z" fill="#ad99c9"/></g><g><path d="m480.443 273.137c-.509 0-1.026-.061-1.542-.192-71.744-18.054-144.185-18.047-221.465.026-3.383.794-6.778-1.312-7.57-4.701-.793-3.388 1.312-6.778 4.701-7.571 79.283-18.541 153.669-18.531 227.41.026 3.374.849 5.422 4.273 4.572 7.647-.72 2.86-3.287 4.765-6.106 4.765z" fill="#ad99c9"/></g><g><path d="m480.443 230.357c-.509 0-1.026-.062-1.542-.192-71.745-18.054-144.187-18.045-221.465.026-3.383.792-6.778-1.311-7.57-4.701-.792-3.388 1.312-6.778 4.701-7.571 79.283-18.539 153.669-18.531 227.41.026 3.374.849 5.422 4.273 4.572 7.647-.72 2.859-3.287 4.765-6.106 4.765z" fill="#ad99c9"/></g><g><path d="m480.443 187.953c-.509 0-1.026-.061-1.542-.192-71.745-18.054-144.187-18.044-221.465.026-3.383.795-6.778-1.312-7.57-4.701-.792-3.388 1.312-6.778 4.701-7.571 79.283-18.539 153.669-18.532 227.41.026 3.374.849 5.422 4.273 4.572 7.647-.72 2.859-3.287 4.765-6.106 4.765z" fill="#ad99c9"/></g></g><g><path d="m94.51 69.578c0 10.757-8.72 19.477-19.477 19.477s-19.477-8.72-19.477-19.477 8.72-19.477 19.477-19.477 19.477 8.72 19.477 19.477z" fill="#ffe266"/><ellipse cx="368.219" cy="19.045" fill="#ffe266" rx="8.248" ry="8.248" transform="matrix(.16 -.987 .987 .16 290.438 379.459)"/><g fill="#fef2a8"><path d="m205.718 4.831 6.617 18.605c.283.797.844 1.428 1.552 1.747l16.53 7.447c2.335 1.052 2.335 4.773 0 5.825l-16.53 7.447c-.708.319-1.269.95-1.552 1.747l-6.617 18.605c-.935 2.628-4.241 2.628-5.175 0l-6.617-18.605c-.283-.797-.844-1.428-1.552-1.747l-16.53-7.447c-2.335-1.052-2.335-4.773 0-5.825l16.53-7.447c.708-.319 1.269-.95 1.552-1.747l6.617-18.605c.935-2.629 4.241-2.629 5.175 0z"/><path d="m457.601 26.823 9.092 25.081c.389 1.074 1.16 1.925 2.133 2.355l22.713 10.04c3.209 1.418 3.209 6.434 0 7.853l-22.713 10.04c-.973.43-1.743 1.281-2.133 2.355l-9.092 25.081c-1.284 3.543-5.827 3.543-7.111 0l-9.092-25.081c-.389-1.074-1.16-1.925-2.132-2.355l-22.713-10.04c-3.209-1.418-3.209-6.435 0-7.853l22.713-10.04c.973-.43 1.743-1.281 2.132-2.355l9.092-25.081c1.284-3.544 5.827-3.544 7.111 0z"/></g></g></g></svg>