<svg id="Capa_1" enable-background="new 0 0 512 512" height="512" viewBox="0 0 512 512" width="512" xmlns="http://www.w3.org/2000/svg"><g><g><path d="m478.567 469.967h-445.134v-282.255c0-20.226 16.397-36.623 36.623-36.623h371.888c20.227 0 36.623 16.397 36.623 36.623z" fill="#8bb6ef"/><path d="m443.822 453.21h-375.644v-253.918c0-5.711 4.629-10.34 10.34-10.34h354.964c5.711 0 10.34 4.629 10.34 10.34z" fill="#b2e7f1"/><path d="m441.944 151.088h-67.499c15.987 0 28.947 12.96 28.947 28.947v183.531c0 15.028-12.183 27.211-27.211 27.211h-342.748v79.189h445.134v-282.254c0-20.227-16.397-36.624-36.623-36.624z" fill="#8388ef"/><path d="m443.822 199.292c0-5.711-4.629-10.34-10.34-10.34h-30.09v174.615c0 15.028-12.183 27.211-27.211 27.211h-308.003v62.433h375.644z" fill="#a7adf1"/><path d="m444.361 512h-376.722c-35.776 0-64.778-29.002-64.778-64.777 0-5.948 4.821-10.769 10.769-10.769h484.74c5.948 0 10.769 4.822 10.769 10.769 0 35.775-29.002 64.777-64.778 64.777z" fill="#8bb6ef"/><path d="m326.641 469.967h-141.282c-18.509 0-33.513-15.004-33.513-33.513h208.308c0 18.508-15.005 33.513-33.513 33.513z" fill="#b2e7f1"/><path d="m390.33 385.327h-160.08c-5.16 0-9.343-4.183-9.343-9.343v-130.913c0-5.16 4.183-9.343 9.343-9.343h160.08c5.16 0 9.343 4.183 9.343 9.343v130.914c-.001 5.159-4.183 9.342-9.343 9.342z" fill="#e7effa"/><path d="m399.672 264.914v-19.843c0-5.16-4.183-9.343-9.343-9.343h-160.079c-5.16 0-9.343 4.183-9.343 9.343v19.843z" fill="#ffe266"/><path d="m134.589 270.272h-18.954c-3.303 0-6.103-2.43-6.568-5.7l-4.22-29.667c-.568-3.995 2.532-7.568 6.568-7.568h27.042c4.004 0 7.096 3.521 6.578 7.492l-3.868 29.667c-.43 3.304-3.245 5.776-6.578 5.776z" fill="#e7effa"/><g><path d="m99.444 365.634c-5.697 0-10.315-4.618-10.315-10.315v-15.98c0-5.697 4.618-10.315 10.315-10.315s10.315 4.618 10.315 10.315v15.98c-.001 5.697-4.619 10.315-10.315 10.315z" fill="#fff"/></g><g><path d="m99.444 318.684c-5.697 0-10.315-4.618-10.315-10.315v-3.21c0-5.697 4.618-10.315 10.315-10.315s10.315 4.618 10.315 10.315v3.21c-.001 5.697-4.619 10.315-10.315 10.315z" fill="#fff"/></g><g><path d="m366.388 360.103c-3.418 0-6.189-2.771-6.189-6.189v-13.17c0-3.418 2.771-6.189 6.189-6.189s6.189 2.771 6.189 6.189v13.17c-.001 3.418-2.772 6.189-6.189 6.189z" fill="#ad99c9"/></g><g><path d="m335.81 338.475c-3.418 0-6.189-2.771-6.189-6.189v-13.17c0-3.418 2.771-6.189 6.189-6.189s6.189 2.771 6.189 6.189v13.17c-.001 3.418-2.772 6.189-6.189 6.189z" fill="#ad99c9"/></g></g><g><path d="m58.457 75.376c0 10.565-8.565 19.13-19.13 19.13-10.566 0-19.13-8.565-19.13-19.13 0-10.566 8.565-19.13 19.13-19.13s19.13 8.565 19.13 19.13z" fill="#8bb6ef"/><circle cx="350.398" cy="32.101" fill="#8bb6ef" r="8.101"/><g fill="#b2e7f1"><path d="m127.478 1.936 6.499 18.274c.278.782.829 1.402 1.524 1.716l16.236 7.315c2.294 1.033 2.294 4.688 0 5.721l-16.236 7.315c-.695.313-1.246.933-1.524 1.715l-6.499 18.274c-.918 2.582-4.165 2.582-5.083 0l-6.499-18.274c-.278-.783-.829-1.402-1.524-1.715l-16.235-7.315c-2.294-1.033-2.294-4.688 0-5.721l16.235-7.315c.695-.313 1.246-.933 1.524-1.716l6.499-18.274c.918-2.581 4.165-2.581 5.083 0z"/><path d="m431.068 23.537 8.93 24.635c.382 1.055 1.139 1.891 2.094 2.313l22.309 9.861c3.152 1.393 3.152 6.32 0 7.713l-22.309 9.861c-.955.422-1.712 1.258-2.094 2.313l-8.93 24.635c-1.262 3.48-5.723 3.48-6.985 0l-8.93-24.635c-.382-1.055-1.139-1.891-2.095-2.313l-22.309-9.861c-3.152-1.393-3.152-6.32 0-7.713l22.309-9.861c.955-.422 1.712-1.258 2.095-2.313l8.93-24.635c1.262-3.481 5.723-3.481 6.985 0z"/></g></g></g></svg>