<svg id="Capa_1" enable-background="new 0 0 512 512" height="512" viewBox="0 0 512 512" width="512" xmlns="http://www.w3.org/2000/svg"><g><g><path d="m110.131 442.422-33.243-33.242-56.543 56.543c-9.18 9.18-9.18 24.062 0 33.242 9.18 9.18 24.062 9.18 33.242 0z" fill="#8bb6ef"/><path d="m444.507 88.259-14.615-14.615c-7.117-7.117-7.117-18.657 0-25.774l36.381-36.381c7.117-7.117 18.656-7.117 25.774 0l14.615 14.615c7.117 7.117 7.117 18.656 0 25.773l-36.381 36.381c-7.117 7.118-18.656 7.118-25.774.001z" fill="#ef8bbd"/><path d="m59.191 458.96c-26.089-26.089-26.089-68.389 0-94.478l305.407-305.407c26.089-26.089 68.388-26.089 94.478 0 26.09 26.089 26.09 68.389 0 94.478l-305.407 305.407c-26.089 26.089-68.388 26.089-94.478 0z" fill="#ef8bbd"/><path d="m459.076 59.075c-24.786-24.787-64.193-26.006-90.44-3.696 12.102.184 24.148 4.881 33.382 14.115l4.91 4.91c18.844 18.844 18.844 49.396 0 68.24l-264.168 264.167c-18.844 18.844-49.396 18.844-68.24 0l-4.91-4.91c-9.234-9.234-13.931-21.28-14.115-33.382-22.31 26.248-21.09 65.654 3.696 90.44 26.089 26.09 68.388 26.09 94.478 0l305.407-305.406c26.089-26.089 26.089-68.389 0-94.478z" fill="#e068bd"/><path d="m331.786 314.791c-9.375-9.375-9.375-24.574 0-33.948l122.823-122.823c9.375-9.375 24.574-9.375 33.948 0 9.375 9.374 9.375 24.574 0 33.948l-122.823 122.823c-9.374 9.375-24.574 9.375-33.948 0z" fill="#b2e7f1"/><path d="m346.432 248.692c10.018 10.018 26.261 10.018 36.279 0l88.405-88.405c28.701-28.701 26.616-77.321-4.658-108.594-31.273-31.274-79.893-33.359-108.594-4.658l-88.405 88.405c-10.018 10.018-10.018 26.261 0 36.279z" fill="#ef8bbd"/><path d="m466.458 51.693c-20.974-20.975-49.745-28.798-75.082-23.032 10.561 3.999 20.704 10.411 29.491 19.198 29.031 29.031 32.312 72.818 7.33 97.8l-76.951 76.951c-7.601 7.6-19.672 8.214-28.806 2.089l23.992 23.992c10.018 10.018 26.261 10.018 36.279 0l88.405-88.405c28.701-28.7 26.616-77.32-4.658-108.593z" fill="#e068bd"/><g><path d="m481.292 81.896c-3.688 0-7.261-1.96-9.158-5.422-3.96-7.23-9.486-13.876-13.015-17.369-5.542-5.543-11.763-10.131-18.526-13.673-5.103-2.673-7.073-8.978-4.4-14.082 2.674-5.102 8.978-7.07 14.082-4.4 8.633 4.523 16.561 10.365 23.561 17.365 4.704 4.659 11.564 12.949 16.597 22.134 2.768 5.053.916 11.393-4.137 14.161-1.593.872-3.31 1.286-5.004 1.286z" fill="#b74a96"/></g><g><path d="m350.471 262.42c-2.667 0-5.333-1.016-7.369-3.049l-83.976-83.83c-4.077-4.07-4.083-10.675-.013-14.753 4.071-4.077 10.675-4.083 14.752-.012l83.976 83.83c4.078 4.07 4.084 10.675.013 14.752-2.038 2.041-4.711 3.062-7.383 3.062z" fill="#b74a96"/></g><g><path d="m168.726 450.161c-1.602 0-3.203-.611-4.426-1.834l-94.478-94.478c-2.444-2.444-2.444-6.407 0-8.85 2.444-2.445 6.407-2.445 8.852 0l94.478 94.478c2.444 2.444 2.444 6.407 0 8.85-1.222 1.223-2.824 1.834-4.426 1.834z" fill="#b74a96"/></g><g><path d="m317.341 156.359c-2.577 0-5.158-.948-7.176-2.863-4.181-3.964-4.356-10.567-.391-14.747 7.754-8.178 16.097-16.186 24.165-23.93 4.015-3.855 8.167-7.841 12.202-11.804 4.11-4.04 10.714-3.979 14.752.131 4.037 4.11 3.978 10.715-.131 14.752-4.121 4.047-8.317 8.075-12.375 11.971-8.257 7.926-16.056 15.414-23.474 23.236-2.052 2.163-4.81 3.254-7.572 3.254z" fill="#fff"/></g><g><path d="m376.306 98.437c-2.702 0-5.4-1.042-7.443-3.121-4.037-4.109-3.979-10.714.131-14.752l4.693-4.61c4.113-4.037 10.716-3.975 14.752.136s3.975 10.716-.135 14.752l-4.689 4.605c-2.03 1.995-4.67 2.99-7.309 2.99z" fill="#fff"/></g><g><path d="m154.559 377.855c-1.474 0-2.954-.518-4.145-1.572-2.589-2.291-2.83-6.247-.539-8.835l8.827-9.974c2.291-2.589 6.246-2.83 8.835-.539s2.83 6.247.539 8.835l-8.827 9.974c-1.237 1.398-2.959 2.111-4.69 2.111z" fill="#b74a96"/></g><g><path d="m203.391 366.63c-1.474 0-2.954-.518-4.146-1.572-2.589-2.291-2.83-6.247-.539-8.835l8.827-9.974c2.291-2.589 6.246-2.831 8.835-.539 2.589 2.291 2.83 6.247.539 8.835l-8.827 9.974c-1.236 1.398-2.959 2.111-4.689 2.111z" fill="#b74a96"/></g></g><g><ellipse cx="261.945" cy="27.216" fill="#ef8bbd" rx="19.347" ry="19.347" transform="matrix(.383 -.924 .924 .383 136.559 258.807)"/><path d="m65.419 110.457c0 4.525-3.668 8.193-8.193 8.193s-8.193-3.668-8.193-8.193 3.668-8.193 8.193-8.193 8.193 3.668 8.193 8.193z" fill="#ef8bbd"/><g fill="#f7c4db"><path d="m128.53 23.759 6.573 18.481c.281.791.838 1.418 1.541 1.735l16.42 7.398c2.319 1.045 2.319 4.741 0 5.786l-16.42 7.398c-.703.317-1.26.944-1.541 1.735l-6.573 18.481c-.929 2.611-4.212 2.611-5.141 0l-6.573-18.481c-.281-.791-.838-1.418-1.542-1.735l-16.42-7.398c-2.32-1.045-2.32-4.741 0-5.786l16.42-7.398c.703-.317 1.26-.944 1.542-1.735l6.573-18.481c.929-2.611 4.213-2.611 5.141 0z"/><path d="m43.166 184.262 9.031 24.914c.387 1.067 1.152 1.912 2.118 2.339l22.562 9.973c3.187 1.409 3.187 6.392 0 7.8l-22.562 9.973c-.966.427-1.731 1.272-2.118 2.339l-9.031 24.914c-1.276 3.52-5.788 3.52-7.064 0l-9.031-24.914c-.387-1.067-1.152-1.912-2.118-2.339l-22.562-9.973c-3.188-1.409-3.188-6.391 0-7.8l22.562-9.973c.966-.427 1.731-1.272 2.118-2.339l9.031-24.914c1.276-3.519 5.788-3.519 7.064 0z"/></g></g></g></svg>