<svg id="Capa_1" enable-background="new 0 0 512 512" height="512" viewBox="0 0 512 512" width="512" xmlns="http://www.w3.org/2000/svg"><g><g><path d="m471.041 506.396h-427.269c-18.437 0-33.384-14.946-33.384-33.384v-292.908c0-18.437 14.946-33.384 33.384-33.384h427.27c18.437 0 33.384 14.946 33.384 33.384v292.908c-.001 18.438-14.948 33.384-33.385 33.384z" fill="#78eac4"/><path d="m471.041 146.721h-77.197c15.348 0 27.789 12.441 27.789 27.789v243.821c0 15.348-12.442 27.789-27.789 27.789h-355.667c-15.348 0-27.789-12.441-27.789-27.789v54.68c0 18.438 14.946 33.384 33.384 33.384h427.269c18.437 0 33.384-14.946 33.384-33.384v-292.906c0-18.439-14.947-33.384-33.384-33.384z" fill="#71afc4"/><path d="m334.45 334.276c0-39.05-29.21-71.385-66.924-76.358v-111.198c0-5.589-4.531-10.12-10.12-10.12s-10.12 4.531-10.12 10.12v111.197c-37.714 4.974-66.924 37.309-66.924 76.358s29.21 71.385 66.924 76.358v89.456c0 5.589 4.531 10.12 10.12 10.12s10.12-4.531 10.12-10.12v-89.456c37.714-4.973 66.924-37.307 66.924-76.357zm-133.848 0c0-27.866 20.177-51.094 46.684-55.883v111.766c-26.507-4.79-46.684-28.017-46.684-55.883zm66.924 55.883v-111.766c26.508 4.789 46.684 28.017 46.684 55.883s-20.176 51.093-46.684 55.883z" fill="#fff"/><g><g><path d="m501.88 423.859h-50.292c-10.937 0-19.835-7.583-19.835-16.904v-145.358c0-9.32 8.897-16.903 19.835-16.903h50.292c5.589 0 10.12-4.531 10.12-10.12s-4.531-10.12-10.12-10.12h-50.292c-22.097 0-40.074 16.662-40.074 37.144v17.864c-23.386 7.646-39.769 29.746-39.769 54.83 0 25.411 16.284 47.254 39.769 54.848v17.815c0 20.481 17.978 37.145 40.074 37.145h50.292c5.589 0 10.12-4.531 10.12-10.12s-4.531-10.121-10.12-10.121zm-109.896-89.568c0-13.933 7.781-26.448 19.529-32.881v65.801c-11.785-6.376-19.529-18.798-19.529-32.92z" fill="#fff"/><g><path d="m501.88 391.34h-26.822c-12.686 0-23.049-9.256-23.099-20.633l-.322-72.695c-.023-5.153 2.056-10.09 5.851-13.902 4.364-4.383 10.651-6.897 17.248-6.897h27.144c5.589 0 10.12 4.531 10.12 10.12s-4.531 10.12-10.12 10.12h-27.144c-1.51 0-2.493.555-2.857.887l.318 71.868c.362.332 1.346.891 2.861.891h26.822c5.589 0 10.12 4.531 10.12 10.12 0 5.59-4.531 10.121-10.12 10.121z" fill="#fff"/></g></g><g><path d="m143.069 334.261c0-25.413-16.284-47.255-39.769-54.848v-17.816c0-20.481-17.978-37.144-40.074-37.144h-50.293c-5.589 0-10.12 4.531-10.12 10.12s4.531 10.12 10.12 10.12h50.292c10.937 0 19.835 7.583 19.835 16.903v145.357c0 9.321-8.898 16.904-19.835 16.904h-50.292c-5.589 0-10.12 4.531-10.12 10.12s4.531 10.12 10.12 10.12h50.292c22.097 0 40.074-16.663 40.074-37.145v-17.863c23.386-7.644 39.77-29.744 39.77-54.828zm-39.769 32.881v-65.802c11.785 6.376 19.529 18.798 19.529 32.921 0 13.933-7.781 26.447-19.529 32.881z" fill="#fff"/><g><path d="m40.077 391.34h-27.144c-5.589 0-10.12-4.531-10.12-10.12s4.531-10.12 10.12-10.12h27.144c1.51 0 2.493-.555 2.857-.887l-.318-71.869c-.362-.331-1.346-.89-2.861-.89h-26.822c-5.589 0-10.12-4.531-10.12-10.12s4.531-10.12 10.12-10.12h26.822c12.687 0 23.049 9.256 23.099 20.633l.322 72.695c.023 5.153-2.056 10.09-5.851 13.902-4.364 4.382-10.651 6.896-17.248 6.896zm2.665-92.857h.01z" fill="#fff"/></g></g></g><g><path d="m137.412 198.069c-8.401 0-16.756-.047-24.832-.142-5.589-.065-10.067-4.649-10-10.238.065-5.548 4.583-10.001 10.117-10.001.041 0 .08 0 .121.001 15.997.189 33.101.189 49.468 0 .04-.001.079-.001.119-.001 5.535 0 10.054 4.454 10.117 10.003.064 5.589-4.414 10.171-10.002 10.236-8.261.094-16.708.142-25.108.142z" fill="#fff"/></g><g><path d="m76.9 197.927h-8.949c-5.589 0-10.12-4.531-10.12-10.12s4.531-10.12 10.12-10.12h8.949c5.589 0 10.12 4.531 10.12 10.12s-4.531 10.12-10.12 10.12z" fill="#fff"/></g><g><path d="m324.33 471.686c-3.353 0-6.072-2.719-6.072-6.072v-12.922c0-3.353 2.719-6.072 6.072-6.072s6.072 2.719 6.072 6.072v12.922c0 3.353-2.718 6.072-6.072 6.072z" fill="#518699"/></g><g><path d="m359.403 440.051c-3.353 0-6.072-2.719-6.072-6.072v-12.921c0-3.353 2.719-6.072 6.072-6.072s6.072 2.719 6.072 6.072v12.921c0 3.353-2.718 6.072-6.072 6.072z" fill="#518699"/></g><g><path d="m387.56 465.224c-3.353 0-6.072-2.719-6.072-6.072v-12.921c0-3.353 2.719-6.072 6.072-6.072s6.072 2.719 6.072 6.072v12.921c0 3.353-2.718 6.072-6.072 6.072z" fill="#518699"/></g></g><g><path d="m378.172 23.148c0 10.366-8.403 18.769-18.769 18.769s-18.77-8.403-18.77-18.769 8.403-18.769 18.77-18.769c10.366 0 18.769 8.403 18.769 18.769z" fill="#78eac4"/><circle cx="239.992" cy="98.317" fill="#78eac4" r="7.949"/><g fill="#bdf4e3"><path d="m186.479 3.69 6.376 17.929c.273.767.813 1.376 1.495 1.683l15.929 7.177c2.25 1.014 2.25 4.6 0 5.613l-15.929 7.177c-.682.307-1.223.915-1.495 1.683l-6.376 17.929c-.901 2.533-4.087 2.533-4.987 0l-6.376-17.929c-.273-.768-.813-1.376-1.495-1.683l-15.929-7.177c-2.25-1.014-2.25-4.599 0-5.613l15.929-7.177c.682-.307 1.223-.916 1.495-1.683l6.376-17.929c.901-2.533 4.086-2.533 4.987 0z"/><path d="m468.841 45.175 6.376 17.929c.273.767.813 1.376 1.495 1.683l15.929 7.177c2.25 1.014 2.25 4.6 0 5.613l-15.929 7.177c-.682.307-1.223.915-1.495 1.683l-6.376 17.929c-.901 2.533-4.086 2.533-4.987 0l-6.376-17.929c-.273-.768-.813-1.376-1.495-1.683l-15.929-7.177c-2.25-1.014-2.25-4.6 0-5.613l15.929-7.177c.682-.307 1.223-.916 1.495-1.683l6.376-17.929c.9-2.533 4.086-2.533 4.987 0z"/><path d="m41.877 35.846 8.761 24.17c.375 1.035 1.118 1.855 2.055 2.269l21.888 9.675c3.092 1.367 3.092 6.201 0 7.567l-21.888 9.675c-.937.414-1.68 1.234-2.055 2.269l-8.761 24.17c-1.238 3.415-5.615 3.415-6.853 0l-8.761-24.17c-.375-1.035-1.118-1.855-2.055-2.269l-21.889-9.675c-3.092-1.367-3.092-6.201 0-7.567l21.888-9.675c.937-.414 1.68-1.234 2.055-2.269l8.761-24.17c1.239-3.415 5.616-3.415 6.854 0z"/></g></g></g></svg>