<svg id="Capa_1" enable-background="new 0 0 512 512" height="512" viewBox="0 0 512 512" width="512" xmlns="http://www.w3.org/2000/svg"><g><g><g fill="#ffe266"><path d="m111.127 176.993h-28.133c-13.378 0-24.224-10.845-24.224-24.224 0-13.379 10.846-24.224 24.224-24.224h28.133c13.379 0 24.224 10.845 24.224 24.224 0 13.379-10.846 24.224-24.224 24.224z"/><path d="m111.127 488.29h-28.133c-13.378 0-24.224-10.845-24.224-24.224 0-13.379 10.846-24.224 24.224-24.224h28.133c13.379 0 24.224 10.845 24.224 24.224 0 13.378-10.846 24.224-24.224 24.224z"/><path d="m111.127 282.265h-28.133c-13.378 0-24.224-10.845-24.224-24.224 0-13.379 10.846-24.224 24.224-24.224h28.133c13.379 0 24.224 10.845 24.224 24.224 0 13.378-10.846 24.224-24.224 24.224z"/><path d="m111.127 387.536h-28.133c-13.378 0-24.224-10.845-24.224-24.224 0-13.379 10.846-24.224 24.224-24.224h28.133c13.379 0 24.224 10.845 24.224 24.224 0 13.378-10.846 24.224-24.224 24.224z"/></g><path d="m411.043 509.309h-268.034c-20.301 0-36.759-16.457-36.759-36.759v-332.055c0-20.301 16.458-36.759 36.759-36.759h268.034c20.301 0 36.759 16.458 36.759 36.759v332.055c0 20.302-16.458 36.759-36.759 36.759z" fill="#8bb6ef"/><path d="m411.043 103.736h-10.068-26.691v405.573h26.691 10.068c20.301 0 36.759-16.458 36.759-36.759v-332.055c0-20.301-16.458-36.759-36.759-36.759z" fill="#8388ef"/><path d="m443.66 239.989h-41.789v-80.381h41.789c14.36 0 26.002 11.641 26.002 26.002v28.378c0 14.359-11.642 26.001-26.002 26.001z" fill="#ef8bbd"/><path d="m443.66 320.37h-41.789v-80.381h41.789c14.36 0 26.002 11.641 26.002 26.002v28.378c0 14.36-11.642 26.001-26.002 26.001z" fill="#ffe266"/><path d="m443.66 400.751h-41.789v-80.381h41.789c14.36 0 26.002 11.641 26.002 26.002v28.378c0 14.36-11.642 26.001-26.002 26.001z" fill="#78eac4"/><path d="m374.284 509.309h-231.275c-20.301 0-36.759-16.457-36.759-36.759v-332.055c0-20.301 16.458-36.759 36.759-36.759h231.275c20.301 0 36.759 16.458 36.759 36.759v332.055c0 20.302-16.458 36.759-36.759 36.759z" fill="#e7effa"/><path d="m335.993 509.309h-192.984c-20.301 0-36.759-16.457-36.759-36.759v-332.055c0-20.301 16.458-36.759 36.759-36.759h192.984c20.302 0 36.759 16.458 36.759 36.759v332.055c0 20.302-16.457 36.759-36.759 36.759z" fill="#8bb6ef"/><path d="m295.855 266.115h-112.708c-12.944 0-23.437-10.493-23.437-23.437v-51.122c0-12.944 10.493-23.437 23.437-23.437h112.707c12.944 0 23.437 10.493 23.437 23.437v51.122c.001 12.943-10.492 23.437-23.436 23.437z" fill="#e7effa"/><g><path d="m281.621 223.286h-84.239c-3.407 0-6.17-2.763-6.17-6.17s2.763-6.17 6.17-6.17h84.239c3.407 0 6.17 2.763 6.17 6.17s-2.763 6.17-6.17 6.17z" fill="#ad99c9"/></g><path d="m411.043 141.09c0-20.63-16.693-37.354-37.285-37.354h-38.187c19.389-1.016 36.691 16.265 36.691 32.341v264.458c0 16.075-13.008 29.107-29.053 29.107h-207.906c-16.046 0-29.053-13.031-29.053-29.107v72.016c0 20.301 16.427 36.759 36.691 36.759h230.014c24.3 0 38.087-17.171 38.087-38.157v-330.063z" fill="#ffbffc"/><g fill="#8388ef"><path d="m335.993 103.736h-.422z"/><path d="m372.262 400.534c0 16.076-13.008 29.107-29.053 29.107h-207.906c-16.046 0-29.053-13.031-29.053-29.107v72.016c0 .699.024 1.392.062 2.081 1.079 19.333 17.094 34.678 36.697 34.678h192.984c20.301 0 36.759-16.458 36.759-36.759"/></g><g><path d="m281.424 375.185c-3.407 0-6.17-2.763-6.17-6.17v-11.405c0-3.407 2.763-6.17 6.17-6.17s6.17 2.763 6.17 6.17v11.405c0 3.407-2.763 6.17-6.17 6.17z" fill="#6280cc"/></g><g><path d="m326.48 412.128c-3.407 0-6.17-2.763-6.17-6.17v-11.405c0-3.407 2.763-6.17 6.17-6.17s6.17 2.763 6.17 6.17v11.405c0 3.407-2.763 6.17-6.17 6.17z" fill="#6280cc"/></g><g><path d="m293.781 438.974c-3.407 0-6.17-2.763-6.17-6.17v-11.405c0-3.407 2.763-6.17 6.17-6.17s6.17 2.763 6.17 6.17v11.405c0 3.407-2.763 6.17-6.17 6.17z" fill="#6280cc"/></g><g><path d="m130.689 358.714c-5.608 0-10.196-4.504-10.279-10.131-.153-10.374-.08-20.947.217-31.424.161-5.678 4.901-10.136 10.571-9.987 5.677.161 10.149 4.894 9.987 10.571-.289 10.183-.361 20.457-.211 30.537.084 5.679-4.452 10.35-10.13 10.434-.052 0-.104 0-.155 0z" fill="#fff"/></g><g><path d="m130.906 294.698c-5.679 0-10.283-4.604-10.283-10.283v-8.773c0-5.679 4.604-10.283 10.283-10.283s10.283 4.604 10.283 10.283v8.773c.001 5.679-4.603 10.283-10.283 10.283z" fill="#fff"/></g></g><g><path d="m154.423 21.763c0 10.533-8.539 19.072-19.072 19.072s-19.072-8.539-19.072-19.072 8.539-19.072 19.072-19.072c10.533 0 19.072 8.539 19.072 19.072z" fill="#8bb6ef"/><ellipse cx="334.824" cy="56.235" fill="#8bb6ef" rx="8.077" ry="8.077" transform="matrix(.16 -.987 .987 .16 225.683 377.728)"/><g fill="#b2e7f1"><path d="m30.968 58.905 6.479 18.218c.277.78.826 1.398 1.519 1.71l16.186 7.292c2.287 1.03 2.287 4.674 0 5.704l-16.186 7.292c-.693.312-1.242.93-1.519 1.71l-6.479 18.218c-.915 2.574-4.152 2.574-5.068 0l-6.479-18.218c-.277-.78-.826-1.398-1.52-1.71l-16.186-7.291c-2.287-1.03-2.287-4.674 0-5.704l16.186-7.292c.693-.312 1.242-.93 1.52-1.71l6.479-18.219c.915-2.574 4.152-2.574 5.068 0z"/><path d="m486.1 15.772 6.479 18.218c.277.78.826 1.398 1.519 1.71l16.186 7.292c2.287 1.03 2.287 4.674 0 5.704l-16.186 7.292c-.693.312-1.242.93-1.519 1.71l-6.479 18.22c-.915 2.574-4.152 2.574-5.068 0l-6.479-18.218c-.277-.78-.827-1.398-1.52-1.71l-16.186-7.292c-2.287-1.03-2.287-4.674 0-5.704l16.186-7.292c.693-.312 1.242-.93 1.52-1.71l6.479-18.218c.916-2.576 4.153-2.576 5.068-.002z"/></g></g></g></svg>