<svg id="Capa_1" enable-background="new 0 0 512 512" height="512" viewBox="0 0 512 512" width="512" xmlns="http://www.w3.org/2000/svg"><g><g><path d="m77.002 159.028c0-33.533 20.871-75.792 75.723-75.792h235.522c25.725 0 46.58 20.854 46.58 46.58v327.474c0 14.283-11.579 25.862-25.862 25.862h-2.142" fill="#8bb6ef"/><path d="m77.002 159.028c0-33.533 20.871-75.792 75.723-75.792h235.522c25.725 0 46.58 20.854 46.58 46.58v327.474c0 14.283-11.579 25.862-25.862 25.862h-2.142" fill="#8388ef"/><path d="m373.689 512h-251.285c-25.344 0-45.89-20.546-45.89-45.891v-300.402c0-25.345 20.546-45.89 45.89-45.89h251.285c14.007 0 25.362 11.355 25.362 25.362v341.459c0 14.007-11.355 25.362-25.362 25.362z" fill="#8bb6ef"/><path d="m373.689 119.816h-47.52c12.07 0 21.855 9.785 21.855 21.855v302.243c0 12.07-9.785 21.854-21.855 21.854h-210.11c-21.84 0-39.545-17.704-39.545-39.544v39.884c0 25.345 20.546 45.891 45.89 45.891h251.285c14.007 0 25.362-11.355 25.362-25.362v-341.458c0-14.008-11.355-25.363-25.362-25.363z" fill="#8388ef"/><path d="m132.205 119.816h-9.8c-25.345 0-45.89 20.546-45.89 45.891v300.401c0 25.345 20.546 45.891 45.89 45.891h9.8z" fill="#ef8bbd"/><g><path d="m399.051 496.872c-5.653 0-10.235-4.583-10.235-10.235v-341.459c0-8.341-6.786-15.127-15.127-15.127h-25.665c-5.653 0-10.235-4.583-10.235-10.235s4.582-10.235 10.235-10.235h25.665c19.628 0 35.597 15.968 35.597 35.597v341.459c0 5.652-4.582 10.235-10.235 10.235z" fill="#6280cc"/></g><path d="m347.078 204.266-22.345-16.239-22.345 16.239c-5.526 4.016-13.275.068-13.275-6.763v-81.253c0-11.783 9.552-21.336 21.336-21.336h44.809c11.783 0 21.336 9.552 21.336 21.336h-12.429c-2.105 0-3.811 1.706-3.811 3.811v77.442c-.001 6.832-7.75 10.779-13.276 6.763z" fill="#ef8bbd"/><g><path d="m235.349 332.995-25.981-68.844c-.021-.058-.043-.113-.066-.168-1.196-2.908-3.999-4.786-7.143-4.786-.003 0-.005 0-.008 0-3.147.003-5.95 1.888-7.141 4.799-.019.047-.037.093-.055.14l-26.22 68.842c-1.208 3.17.383 6.718 3.553 7.926.72.273 1.458.403 2.185.403 2.474 0 4.807-1.507 5.74-3.957l5.024-13.189h33.65l4.971 13.172c1.198 3.174 4.74 4.776 7.914 3.577 3.173-1.199 4.775-4.742 3.577-7.915zm-45.434-21.117 12.224-32.097 12.113 32.097z" fill="#6280cc"/><g><g><path d="m348.024 341.305h-46.581c-2.253 0-4.325-1.234-5.399-3.215s-.977-4.391.254-6.279l39.31-60.332h-32.734c-3.391 0-6.141-2.75-6.141-6.141s2.75-6.141 6.141-6.141h44.065c2.253 0 4.325 1.234 5.399 3.215s.977 4.391-.254 6.279l-39.31 60.332h35.25c3.391 0 6.141 2.75 6.141 6.141s-2.75 6.141-6.141 6.141z" fill="#6280cc"/></g></g><g><g><path d="m286.656 306.392h-42.266c-3.391 0-6.141-2.75-6.141-6.141s2.75-6.141 6.141-6.141h42.266c3.391 0 6.141 2.75 6.141 6.141 0 3.392-2.75 6.141-6.141 6.141z" fill="#6280cc"/></g></g></g><path d="m330.785 462.626h-139.072c-7.39 0-13.38-5.991-13.38-13.38v-46.373c0-7.39 5.991-13.38 13.38-13.38h139.072c7.39 0 13.38 5.99 13.38 13.38v46.373c0 7.39-5.99 13.38-13.38 13.38z" fill="#e7effa"/><g><path d="m307.026 432.2h-91.553c-3.391 0-6.141-2.75-6.141-6.141s2.75-6.141 6.141-6.141h91.553c3.391 0 6.141 2.75 6.141 6.141s-2.75 6.141-6.141 6.141z" fill="#ad99c9"/></g><g><path d="m237.787 171.069c-.075 0-.15-.001-.226-.002-13.096-.284-26.045-.331-38.485-.136-5.624.075-10.306-4.423-10.394-10.074-.088-5.652 4.422-10.306 10.075-10.394 12.695-.196 25.898-.151 39.247.138 5.651.123 10.133 4.804 10.011 10.455-.121 5.575-4.679 10.013-10.228 10.013z" fill="#fff"/></g><g><path d="m165.398 171.069h-5.316c-5.653 0-10.235-4.583-10.235-10.235s4.582-10.235 10.235-10.235h5.316c5.653 0 10.235 4.583 10.235 10.235s-4.582 10.235-10.235 10.235z" fill="#fff"/></g></g><g><path d="m416.31 31.854c0 10.484-8.499 18.983-18.983 18.983s-18.983-8.499-18.983-18.983 8.499-18.983 18.983-18.983 18.983 8.499 18.983 18.983z" fill="#8bb6ef"/><circle cx="12.831" cy="107.353" fill="#8bb6ef" r="8.039"/><g fill="#b2e7f1"><path d="m481.429 53.304 6.449 18.133c.276.776.822 1.392 1.512 1.702l16.111 7.258c2.276 1.025 2.276 4.652 0 5.677l-16.111 7.258c-.69.311-1.236.926-1.512 1.702l-6.449 18.133c-.911 2.562-4.133 2.562-5.044 0l-6.449-18.133c-.276-.777-.823-1.392-1.513-1.702l-16.11-7.258c-2.276-1.025-2.276-4.652 0-5.677l16.11-7.258c.69-.311 1.236-.926 1.513-1.702l6.449-18.133c.911-2.562 4.133-2.562 5.044 0z"/><path d="m47.146 2.59 8.861 24.445c.379 1.047 1.131 1.876 2.078 2.295l22.137 9.785c3.127 1.382 3.127 6.271 0 7.653l-22.137 9.785c-.948.419-1.699 1.248-2.078 2.295l-8.861 24.445c-1.252 3.454-5.679 3.454-6.931 0l-8.861-24.445c-.379-1.047-1.13-1.876-2.078-2.295l-22.138-9.784c-3.128-1.382-3.128-6.271 0-7.653l22.137-9.785c.948-.419 1.699-1.248 2.078-2.295l8.862-24.446c1.252-3.453 5.679-3.453 6.931 0z"/></g></g></g></svg>