<svg id="Capa_1" enable-background="new 0 0 512 512" height="512" viewBox="0 0 512 512" width="512" xmlns="http://www.w3.org/2000/svg"><g><g><path d="m390.784 512h-287.778c-14.547 0-26.339-11.792-26.339-26.339v-398.01c0-14.546 11.792-26.339 26.339-26.339h287.777c14.547 0 26.339 11.792 26.339 26.339v398.01c0 14.547-11.792 26.339-26.338 26.339z" fill="#e7effa"/><path d="m390.784 61.312h-42.867c12.562 0 22.745 10.183 22.745 22.745v343.695c0 12.562-10.183 22.744-22.745 22.744h-248.505c-12.561 0-22.745-10.183-22.745-22.744v57.91c0 14.547 11.792 26.339 26.339 26.339h287.777c14.547 0 26.339-11.792 26.339-26.339v-398.011c0-14.547-11.792-26.339-26.338-26.339z" fill="#dcb6f5"/><g><path d="m319.612 220.314c-34.668 0-62.873-28.204-62.873-62.873 0-34.668 28.205-62.873 62.873-62.873s62.873 28.205 62.873 62.873-28.205 62.873-62.873 62.873zm0-113.241c-27.773 0-50.369 22.595-50.369 50.369 0 27.773 22.595 50.368 50.369 50.368s50.369-22.595 50.369-50.368c0-27.774-22.596-50.369-50.369-50.369z" fill="#ef8bbd"/></g><g><path d="m284.42 456.748h-154.228c-3.453 0-6.252-2.799-6.252-6.252s2.799-6.252 6.252-6.252h154.228c3.453 0 6.252 2.799 6.252 6.252 0 3.452-2.799 6.252-6.252 6.252z" fill="#ad99c9"/></g><g><path d="m215.949 131.143h-85.758c-3.453 0-6.252-2.799-6.252-6.252s2.799-6.252 6.252-6.252h85.758c3.453 0 6.252 2.799 6.252 6.252s-2.799 6.252-6.252 6.252z" fill="#ad99c9"/></g><g><path d="m215.949 170.848h-85.758c-3.453 0-6.252-2.799-6.252-6.252s2.799-6.252 6.252-6.252h85.758c3.453 0 6.252 2.799 6.252 6.252s-2.799 6.252-6.252 6.252z" fill="#ad99c9"/></g><g><path d="m363.598 417.043h-233.406c-3.453 0-6.252-2.799-6.252-6.252s2.799-6.252 6.252-6.252h233.407c3.453 0 6.252 2.799 6.252 6.252s-2.8 6.252-6.253 6.252z" fill="#ad99c9"/></g><g><path d="m363.598 377.339h-194.695c-3.453 0-6.252-2.799-6.252-6.252s2.799-6.252 6.252-6.252h194.696c3.453 0 6.252 2.799 6.252 6.252-.001 3.453-2.8 6.252-6.253 6.252z" fill="#ad99c9"/></g><g><path d="m363.598 337.635h-233.406c-3.453 0-6.252-2.799-6.252-6.252s2.799-6.252 6.252-6.252h233.407c3.453 0 6.252 2.799 6.252 6.252-.001 3.453-2.8 6.252-6.253 6.252z" fill="#ad99c9"/></g><g><path d="m363.598 297.931h-194.695c-3.453 0-6.252-2.799-6.252-6.252s2.799-6.252 6.252-6.252h194.696c3.453 0 6.252 2.799 6.252 6.252-.001 3.453-2.8 6.252-6.253 6.252z" fill="#ad99c9"/></g><g><path d="m363.598 258.227h-233.406c-3.453 0-6.252-2.799-6.252-6.252s2.799-6.252 6.252-6.252h233.407c3.453 0 6.252 2.799 6.252 6.252-.001 3.453-2.8 6.252-6.253 6.252z" fill="#ad99c9"/></g><g fill="#ef8bbd"><path d="m333.458 135.139c3.453 0 6.252-2.799 6.252-6.252s-2.8-6.252-6.252-6.252h-23.912c-3.453 0-6.252 2.8-6.252 6.252v58.999c0 3.453 2.799 6.252 6.252 6.252s6.252-2.799 6.252-6.252v-23.806h15.761c3.453 0 6.252-2.8 6.252-6.252s-2.799-6.252-6.252-6.252h-15.761v-16.437z"/><path d="m144.726 299.899-6.885-9.072 5.568-7.384c2.079-2.757 1.529-6.677-1.228-8.756-2.756-2.079-6.677-1.53-8.756 1.228l-3.44 4.562-3.474-4.578c-2.088-2.75-6.008-3.287-8.76-1.2-2.75 2.087-3.288 6.01-1.2 8.76l5.611 7.393-6.518 8.644c-2.079 2.757-1.529 6.678 1.228 8.756 1.127.851 2.448 1.261 3.76 1.261 1.895 0 3.768-.859 4.997-2.489l4.39-5.822 4.748 6.256c1.23 1.621 3.096 2.473 4.985 2.473 1.317 0 2.645-.415 3.775-1.272 2.749-2.087 3.287-6.009 1.199-8.76z"/><path d="m145.175 379.307-6.885-9.072 5.568-7.384c2.079-2.757 1.529-6.678-1.228-8.756-2.756-2.079-6.677-1.53-8.756 1.228l-3.44 4.562-3.474-4.577c-2.087-2.75-6.01-3.288-8.76-1.2-2.751 2.087-3.288 6.009-1.2 8.76l5.611 7.393-6.518 8.645c-2.079 2.757-1.529 6.677 1.228 8.756 1.127.85 2.448 1.261 3.76 1.261 1.895 0 3.768-.859 4.996-2.488l4.39-5.822 4.748 6.256c1.23 1.621 3.096 2.473 4.985 2.473 1.317 0 2.645-.415 3.775-1.273 2.75-2.089 3.287-6.011 1.2-8.762z"/></g></g><g><ellipse cx="20.954" cy="92.37" fill="#ef8bbd" rx="19.326" ry="19.326" transform="matrix(.222 -.975 .975 .222 -73.763 92.339)"/><path d="m87.497 32.43c0 4.52-3.664 8.184-8.184 8.184s-8.184-3.664-8.184-8.184 3.664-8.185 8.184-8.185 8.184 3.664 8.184 8.185z" fill="#ef8bbd"/><path d="m484.127 1.956 6.565 18.461c.281.79.837 1.417 1.54 1.733l16.402 7.39c2.317 1.044 2.317 4.736 0 5.78l-16.402 7.39c-.702.316-1.259.943-1.54 1.733l-6.565 18.461c-.928 2.608-4.208 2.608-5.135 0l-6.565-18.461c-.281-.791-.837-1.417-1.54-1.733l-16.402-7.39c-2.317-1.044-2.317-4.736 0-5.78l16.402-7.39c.702-.316 1.259-.943 1.54-1.733l6.565-18.461c.927-2.608 4.208-2.608 5.135 0z" fill="#f7c4db"/></g></g></svg>