<svg id="Capa_1" enable-background="new 0 0 512 512" height="512" viewBox="0 0 512 512" width="512" xmlns="http://www.w3.org/2000/svg"><g><g><path d="m482.257 444.324h-442.528c-15.814 0-28.633-12.82-28.633-28.633v-292.819c0-15.814 12.82-28.633 28.633-28.633h442.529c15.814 0 28.633 12.82 28.633 28.633v292.819c0 15.814-12.82 28.633-28.634 28.633z" fill="#d49c8d"/><path d="m464.527 396.856h-407.068c-1.326 0-2.401-1.075-2.401-2.401v-250.347c0-1.326 1.075-2.401 2.401-2.401h407.067c1.326 0 2.401 1.075 2.401 2.401v250.348c0 1.326-1.075 2.4-2.4 2.4z" fill="#8bb6ef"/><path d="m396.68 357.185h-271.374c0-16.433-13.322-29.754-29.754-29.754v-116.298c16.433 0 29.754-13.321 29.754-29.754h271.374c0 16.433 13.322 29.754 29.754 29.754v116.297c-16.433 0-29.754 13.322-29.754 29.755z" fill="#fef2a8"/><path d="m482.257 94.239h-77.648c12.506 0 22.644 10.138 22.644 22.644v217.658c0 12.506-10.138 22.644-22.644 22.644h-370.87c-12.506 0-22.644-10.138-22.644-22.644v81.15c0 15.814 12.819 28.633 28.633 28.633h442.529c15.814 0 28.633-12.82 28.633-28.633v-292.819c.001-15.813-12.819-28.633-28.633-28.633z" fill="#c7758d"/><path d="m464.527 141.707h-37.273v192.834c0 12.505-10.138 22.644-22.644 22.644h-349.551v37.271c0 1.326 1.075 2.401 2.401 2.401h407.067c1.326 0 2.401-1.075 2.401-2.401v-250.348c-.001-1.326-1.076-2.401-2.401-2.401z" fill="#8388ef"/><g><path d="m500.901 438.072c-1.359 0-2.726-.45-3.861-1.376l-43.037-35.1c-2.618-2.135-3.009-5.987-.874-8.604 2.133-2.618 5.986-3.009 8.603-.874l43.037 35.101c2.618 2.134 3.009 5.986.874 8.604-1.208 1.481-2.968 2.249-4.742 2.249z" fill="#b3586b"/></g><g><path d="m57.459 147.822c-1.539 0-3.079-.577-4.268-1.736l-35.226-34.337c-2.419-2.357-2.468-6.229-.111-8.647 2.357-2.419 6.229-2.468 8.647-.11l35.226 34.337c2.419 2.357 2.468 6.229.11 8.647-1.197 1.229-2.787 1.846-4.378 1.846z" fill="#b3586b"/></g><g><path d="m22.231 438.072c-1.43 0-2.865-.498-4.025-1.514-2.541-2.224-2.798-6.088-.574-8.629l32.825-37.501c2.224-2.543 6.087-2.799 8.629-.574s2.798 6.088.574 8.629l-32.825 37.501c-1.209 1.382-2.902 2.088-4.604 2.088z" fill="#b3586b"/></g><g><path d="m464.526 147.822c-1.537 0-3.076-.576-4.264-1.733-2.421-2.355-2.473-6.227-.117-8.647l36.378-37.377c2.356-2.421 6.228-2.473 8.647-.118 2.421 2.355 2.473 6.227.117 8.647l-36.378 37.377c-1.199 1.232-2.79 1.851-4.383 1.851z" fill="#b3586b"/></g><path d="m432.478 510.654-33.398-12.913-33.398 12.913c-12.927 4.998-26.842-4.541-26.842-18.4v-130.385h120.48v130.384c0 13.86-13.915 23.399-26.842 18.401z" fill="#ef8bbd"/><path d="m488.998 354.949c0 8.982-14.418 15.574-17.049 23.678-2.727 8.399 4.967 22.189-.121 29.181-5.139 7.061-20.666 3.979-27.727 9.118-6.991 5.088-8.829 20.834-17.228 23.562-8.104 2.631-18.811-8.942-27.792-8.942-8.982 0-19.688 11.573-27.792 8.942-8.399-2.727-10.237-18.474-17.228-23.562-7.061-5.139-22.588-2.056-27.727-9.118-5.088-6.991 2.606-20.781-.121-29.18-2.632-8.104-17.049-14.697-17.049-23.678 0-8.982 14.418-15.574 17.049-23.678 2.727-8.399-4.967-22.189.121-29.181 5.139-7.061 20.666-3.979 27.727-9.117 6.991-5.088 8.829-20.835 17.228-23.562 8.104-2.631 18.81 8.942 27.792 8.942s19.688-11.573 27.793-8.942c8.399 2.727 10.237 18.474 17.228 23.562 7.061 5.139 22.588 2.057 27.727 9.118 5.088 6.991-2.606 20.781.121 29.181 2.63 8.102 17.048 14.694 17.048 23.676z" fill="#ffe266"/><g><path d="m399.08 409.562c-30.114 0-54.613-24.499-54.613-54.613s24.499-54.613 54.613-54.613c30.113 0 54.613 24.499 54.613 54.613 0 30.113-24.499 54.613-54.613 54.613zm0-96.996c-23.37 0-42.383 19.013-42.383 42.383s19.013 42.382 42.383 42.382 42.382-19.013 42.382-42.382c.001-23.37-19.012-42.383-42.382-42.383z" fill="#d0844b"/></g><g><path d="m391.869 343.861c-3.585 0-7.062-1.895-8.923-5.252-2.588-4.669-1.124-10.488 3.232-13.405 1.454-1.139 3.367-1.903 5.201-2.085 5.094-.845 10.133 2.273 11.524 7.36 1.435 5.25-1.477 10.656-6.58 12.35-1.43.698-2.952 1.032-4.454 1.032z" fill="#fff"/></g><g><path d="m380.852 378.473c-3.142 0-6.241-1.448-8.237-4.178-3.901-5.337-5.567-10.212-5.751-16.826-.157-5.627 4.277-10.315 9.904-10.472 5.643-.124 10.316 4.277 10.472 9.904.07 2.5.361 3.352 1.833 5.366 3.321 4.545 2.329 10.921-2.215 14.243-1.813 1.325-3.919 1.963-6.006 1.963z" fill="#fff"/></g><g><path d="m340.486 249.815h-158.986c-5.629 0-10.192-4.563-10.192-10.192s4.563-10.192 10.192-10.192h158.986c5.629 0 10.192 4.563 10.192 10.192s-4.563 10.192-10.192 10.192z" fill="#d08372"/></g><g><path d="m234.101 321.848h-52.601c-5.629 0-10.192-4.563-10.192-10.192s4.563-10.192 10.192-10.192h52.601c5.629 0 10.192 4.563 10.192 10.192s-4.563 10.192-10.192 10.192z" fill="#d08372"/></g></g><g><ellipse cx="297.194" cy="42.636" fill="#ffe266" rx="18.903" ry="18.903" transform="matrix(.23 -.973 .973 .23 187.417 322.085)"/><circle cx="466.927" cy="50.641" fill="#ffe266" r="8.005"/><g fill="#fef2a8"><path d="m31.803 1.913 6.422 18.057c.275.773.819 1.386 1.506 1.695l16.043 7.228c2.266 1.021 2.266 4.632 0 5.653l-16.044 7.228c-.687.309-1.231.922-1.506 1.695l-6.422 18.057c-.907 2.551-4.116 2.551-5.023 0l-6.421-18.056c-.275-.773-.819-1.386-1.506-1.695l-16.043-7.228c-2.266-1.021-2.266-4.632 0-5.653l16.043-7.228c.687-.309 1.231-.922 1.506-1.695l6.422-18.058c.907-2.551 4.115-2.551 5.023 0z"/><path d="m402.047 1.913 6.422 18.057c.275.773.819 1.386 1.506 1.695l16.043 7.228c2.266 1.021 2.266 4.632 0 5.653l-16.043 7.228c-.687.309-1.231.922-1.506 1.695l-6.422 18.057c-.907 2.551-4.116 2.551-5.023 0l-6.422-18.057c-.275-.773-.819-1.386-1.506-1.695l-16.043-7.228c-2.267-1.021-2.267-4.632 0-5.653l16.043-7.228c.687-.309 1.231-.922 1.506-1.695l6.422-18.057c.907-2.551 4.116-2.551 5.023 0z"/></g></g></g></svg>