<svg id="Capa_1" enable-background="new 0 0 512 512" height="512" viewBox="0 0 512 512" width="512" xmlns="http://www.w3.org/2000/svg"><g><g><path d="m492.958 512h-473.916c-9.47 0-17.146-7.677-17.146-17.146v-60.684c0-9.47 7.677-17.146 17.146-17.146h473.917c9.47 0 17.146 7.677 17.146 17.146v60.684c0 9.469-7.677 17.146-17.147 17.146z" fill="#bdf4e3"/><path d="m155.95 417.023-55.566 94.977h302.324l-61.216-94.977z" fill="#fef2a8"/><path d="m492.958 417.023h-42.282c6.644 0 12.031 5.386 12.031 12.031v27.506c0 6.644-5.386 12.031-12.031 12.031h-436.75c-6.644 0-12.031-5.386-12.031-12.031v38.294c0 9.47 7.677 17.146 17.147 17.146h473.916c9.47 0 17.147-7.676 17.147-17.146v-60.684c0-9.47-7.677-17.147-17.147-17.147z" fill="#b1b7e3"/><path d="m125.781 468.59-25.397 43.41h302.324l-27.979-43.41z" fill="#eeb6a8"/><path d="m320.41 66.439h-62.256v-53.945h62.256c5.913 0 10.706 4.793 10.706 10.706v32.532c0 5.913-4.793 10.707-10.706 10.707z" fill="#ef8bbd"/><path d="m251.397 0c-6.9 0-12.494 5.594-12.494 12.494v108.388h24.989v-108.388c-.001-6.9-5.595-12.494-12.495-12.494z" fill="#fef2a8"/><path d="m485.677 417.023h-470.285v-239.503c0-14.281 11.577-25.859 25.859-25.859h418.567c14.281 0 25.859 11.577 25.859 25.859z" fill="#ffa585"/><path d="m348.47 417.023h-195.87v-286.314c0-14.041 11.383-25.424 25.424-25.424h145.023c14.041 0 25.424 11.383 25.424 25.424v286.314z" fill="#ffa585"/><path d="m152.6 305.763h195.87v111.26h-195.87z" fill="#b07676"/><path d="m152.6 305.763v111.26h34.768v-111.26" fill="#ffc7b6"/><path d="m312.237 305.763h36.233v111.26h-36.233z" fill="#ffc7b6"/><circle cx="249.687" cy="187.024" fill="#e7effa" r="48.364"/><g fill="#b2e7f1"><path d="m101.191 374.332h-35.58c-3.925 0-7.107-3.182-7.107-7.107v-58.561c0-3.925 3.182-7.107 7.107-7.107h35.58c3.925 0 7.107 3.182 7.107 7.107v58.561c0 3.925-3.182 7.107-7.107 7.107z"/><path d="m101.191 267.126h-35.58c-3.925 0-7.107-3.182-7.107-7.107v-58.561c0-3.925 3.182-7.107 7.107-7.107h35.58c3.925 0 7.107 3.182 7.107 7.107v58.561c0 3.925-3.182 7.107-7.107 7.107z"/><path d="m435.792 374.332h-35.58c-3.925 0-7.107-3.182-7.107-7.107v-58.561c0-3.925 3.182-7.107 7.107-7.107h35.58c3.925 0 7.107 3.182 7.107 7.107v58.561c-.001 3.925-3.182 7.107-7.107 7.107z"/><path d="m435.792 267.126h-35.58c-3.925 0-7.107-3.182-7.107-7.107v-58.561c0-3.925 3.182-7.107 7.107-7.107h35.58c3.925 0 7.107 3.182 7.107 7.107v58.561c-.001 3.925-3.182 7.107-7.107 7.107z"/></g><g><path d="m263.892 207.302c-1.583 0-3.166-.599-4.38-1.8l-14.205-14.049c-1.183-1.17-1.849-2.765-1.849-4.428v-25.327c0-3.44 2.789-6.229 6.229-6.229s6.229 2.789 6.229 6.229v22.726l12.356 12.221c2.446 2.419 2.467 6.363.049 8.808-1.219 1.231-2.824 1.849-4.429 1.849z" fill="#ad99c9"/></g><path d="m348.47 151.661h44.635v265.362h-44.635z" fill="#ef7c85"/><path d="m107.964 151.661h44.635v265.362h-44.635z" fill="#ef7c85"/><path d="m187.368 305.763h124.497v50.958h-124.497z" fill="#a45775"/><g><path d="m422.752 468.373c-3.44 0-6.229-2.789-6.229-6.229v-13.255c0-3.44 2.789-6.229 6.229-6.229s6.229 2.789 6.229 6.229v13.255c-.001 3.44-2.79 6.229-6.229 6.229z" fill="#90e0c5"/></g><g><path d="m466.108 483.995c-3.44 0-6.229-2.789-6.229-6.229v-13.254c0-3.44 2.789-6.229 6.229-6.229s6.229 2.789 6.229 6.229v13.254c0 3.44-2.789 6.229-6.229 6.229z" fill="#90e0c5"/></g><g><path d="m69.035 477.368c-3.44 0-6.229-2.789-6.229-6.229v-13.254c0-3.44 2.789-6.229 6.229-6.229s6.229 2.789 6.229 6.229v13.254c-.001 3.44-2.79 6.229-6.229 6.229z" fill="#90e0c5"/></g></g><g><path d="m163.468 22.884c0 10.634-8.62 19.254-19.254 19.254s-19.254-8.62-19.254-19.254 8.62-19.254 19.254-19.254c10.634 0 19.254 8.62 19.254 19.254z" fill="#ffa585"/><circle cx="493.272" cy="105.286" fill="#ffa585" r="8.154"/><g fill="#ffc7b6"><path d="m425.31 36.079 6.541 18.392c.28.787.834 1.411 1.534 1.727l16.341 7.362c2.308 1.04 2.308 4.718 0 5.758l-16.341 7.362c-.7.315-1.254.939-1.534 1.727l-6.541 18.392c-.924 2.598-4.192 2.598-5.116 0l-6.541-18.392c-.28-.787-.834-1.411-1.534-1.727l-16.34-7.362c-2.308-1.04-2.308-4.718 0-5.758l16.34-7.362c.7-.315 1.254-.939 1.534-1.727l6.541-18.392c.924-2.598 4.192-2.598 5.116 0z"/><path d="m47.473 25.511 8.987 24.794c.385 1.062 1.147 1.903 2.108 2.328l22.453 9.925c3.172 1.402 3.172 6.361 0 7.763l-22.453 9.925c-.961.425-1.723 1.266-2.108 2.328l-8.987 24.794c-1.27 3.503-5.76 3.503-7.03 0l-8.988-24.794c-.385-1.062-1.147-1.903-2.108-2.328l-22.453-9.926c-3.172-1.402-3.172-6.361 0-7.763l22.453-9.925c.961-.425 1.723-1.266 2.108-2.328l8.988-24.794c1.27-3.502 5.76-3.502 7.03.001z"/></g></g></g></svg>