<svg id="Capa_1" enable-background="new 0 0 512 512" height="512" viewBox="0 0 512 512" width="512" xmlns="http://www.w3.org/2000/svg"><g><g><path d="m485.754 415.114h-190.633v-115.395h170.835c24.108 0 43.652 19.544 43.652 43.652v47.889c0 13.174-10.68 23.854-23.854 23.854z" fill="#ffe266"/><path d="m465.956 299.719h-19.259c11.83 0 21.419 9.59 21.419 21.42v33.417c0 10.285-8.337 18.622-18.622 18.622h-154.374v41.938h190.633c13.174 0 23.854-10.68 23.854-23.854v-47.889c.001-24.111-19.543-43.654-43.651-43.654z" fill="#cb2cff" opacity=".3"/><path d="m348.893 415.115h-324.523c-12.571 0-22.761-10.191-22.761-22.761v-157.249c0-31.964 25.912-57.876 57.876-57.876h275.954c31.964 0 57.876 25.912 57.876 57.876v135.587c0 24.534-19.888 44.423-44.422 44.423z" fill="#ffe266"/><path d="m372.261 303.922h21.054c.427-37.756.717-73.481-.981-79.472h-20.073c-6.854 0-12.411 5.556-12.411 12.411v54.651c0 6.853 5.557 12.41 12.411 12.41z" fill="#b2e7f1"/><path d="m266.868 236.092h45.329c10.251 0 18.561 8.31 18.561 18.561v160.461h-82.451v-160.461c0-10.251 8.31-18.561 18.561-18.561z" fill="#b2e7f1"/><path d="m335.439 177.228h-51.676c26.643 0 48.242 21.599 48.242 48.242v122.115c0 14.134-11.458 25.592-25.592 25.592h-285.832c-10.478 0-18.972-8.494-18.972-18.972v38.149c0 12.571 10.19 22.761 22.761 22.761h324.371c24.618 0 44.574-19.957 44.574-44.574v-135.436c0-31.965-25.912-57.877-57.876-57.877z" fill="#efaa66"/><path d="m306.413 373.177h-58.106v41.938h82.45v-59.633c-3.328 10.268-12.967 17.695-24.344 17.695z" fill="#a7adf1"/><ellipse cx="423.512" cy="431.254" fill="#a183e2" rx="58.804" ry="58.805" transform="matrix(.29 -.957 .957 .29 -111.965 711.623)"/><ellipse cx="137.07" cy="431.982" fill="#a183e2" rx="58.805" ry="58.805" transform="matrix(.707 -.707 .707 .707 -265.31 223.447)"/><path d="m137.07 373.177c-3.4 0-6.728.304-9.97.859 18.384 3.838 32.195 20.132 32.195 39.656 0 22.376-18.139 40.515-40.515 40.515-19.524 0-35.818-13.811-39.656-32.195-.554 3.243-.859 6.57-.859 9.97 0 32.477 26.328 58.805 58.805 58.805s58.805-26.328 58.805-58.805-26.329-58.805-58.805-58.805z" fill="#9762e2"/><path d="m423.512 372.449c-3.4 0-6.728.305-9.97.859 18.384 3.838 32.195 20.132 32.195 39.656 0 22.376-18.139 40.515-40.514 40.515-19.524 0-35.818-13.811-39.656-32.195-.554 3.243-.859 6.57-.859 9.97 0 32.477 26.328 58.805 58.805 58.805s58.805-26.328 58.805-58.805-26.329-58.805-58.806-58.805z" fill="#9762e2"/><ellipse cx="137.07" cy="431.982" fill="#8bb6ef" rx="16.867" ry="16.867" transform="matrix(.707 -.707 .707 .707 -265.31 223.447)"/><ellipse cx="423.512" cy="431.982" fill="#8bb6ef" rx="16.867" ry="16.867" transform="matrix(.707 -.707 .707 .707 -181.413 425.993)"/><g><path d="m243.44 341.465h-237.215c-3.438 0-6.225-2.787-6.225-6.225s2.787-6.225 6.225-6.225h237.215c3.438 0 6.225 2.787 6.225 6.225s-2.787 6.225-6.225 6.225z" fill="#d0844b"/></g><path d="m199.24 306.736h-40.409c-8.349 0-15.117-6.768-15.117-15.117v-40.409c0-8.349 6.768-15.117 15.117-15.117h40.409c8.349 0 15.117 6.768 15.117 15.117v40.409c0 8.348-6.768 15.117-15.117 15.117z" fill="#b2e7f1"/><path d="m97.366 306.736h-40.408c-8.349 0-15.117-6.768-15.117-15.117v-40.409c0-8.349 6.768-15.117 15.117-15.117h40.409c8.349 0 15.117 6.768 15.117 15.117v40.409c-.001 8.348-6.769 15.117-15.118 15.117z" fill="#b2e7f1"/><path d="m491.009 361.055h18.599c1.1-17.376-.126-31.317-5.569-39.027h-13.029c-10.777 0-19.513 8.736-19.513 19.513-.001 10.778 8.735 19.514 19.512 19.514z" fill="#fef2a8"/><g><path d="m289.532 418.274c-3.438 0-6.225-2.787-6.225-6.225v-172.484c0-3.438 2.787-6.225 6.225-6.225s6.225 2.787 6.225 6.225v172.484c0 3.438-2.787 6.225-6.225 6.225z" fill="#95cde6"/></g><g><path d="m104.398 216.759c-5.325 0-10.649-.01-15.953-.032-5.731-.023-10.356-4.688-10.332-10.417.023-5.715 4.665-10.332 10.374-10.332h.044c16.127.068 32.429.031 48.451-.105h.09c5.689 0 10.324 4.587 10.373 10.287.049 5.729-4.557 10.413-10.287 10.463-10.839.09-21.806.136-32.76.136z" fill="#fff"/></g><g><path d="m58.364 216.621h-4.866c-5.729 0-10.375-4.645-10.375-10.375s4.645-10.375 10.375-10.375h4.866c5.729 0 10.375 4.645 10.375 10.375s-4.645 10.375-10.375 10.375z" fill="#fff"/></g><g><path d="m188.102 290.885c-3.438 0-6.225-2.787-6.225-6.225v-13.246c0-3.438 2.787-6.225 6.225-6.225s6.225 2.787 6.225 6.225v13.246c0 3.438-2.788 6.225-6.225 6.225z" fill="#95cde6"/></g><g><path d="m88.488 290.885c-3.438 0-6.225-2.787-6.225-6.225v-13.246c0-3.438 2.787-6.225 6.225-6.225s6.225 2.787 6.225 6.225v13.246c0 3.438-2.787 6.225-6.225 6.225z" fill="#95cde6"/></g></g><g><ellipse cx="107.345" cy="64.742" fill="#ffe266" rx="19.242" ry="19.242" transform="matrix(.23 -.973 .973 .23 19.672 154.341)"/><path d="m242.379 111.714c0 4.5-3.648 8.149-8.149 8.149s-8.149-3.648-8.149-8.149 3.648-8.149 8.149-8.149c4.5.001 8.149 3.649 8.149 8.149z" fill="#ffe266"/><g fill="#fef2a8"><path d="m309.838 23.161 6.537 18.381c.28.787.834 1.41 1.533 1.725l16.331 7.358c2.307 1.04 2.307 4.715 0 5.755l-16.331 7.358c-.699.315-1.253.938-1.533 1.726l-6.537 18.381c-.924 2.597-4.189 2.597-5.113 0l-6.537-18.381c-.28-.787-.834-1.411-1.533-1.726l-16.331-7.358c-2.307-1.039-2.307-4.715 0-5.755l16.331-7.358c.699-.315 1.253-.939 1.533-1.725l6.537-18.381c.923-2.596 4.189-2.596 5.113 0z"/><path d="m476.094 91.371 8.982 24.779c.385 1.061 1.146 1.902 2.107 2.326l22.44 9.919c3.17 1.401 3.17 6.357 0 7.758l-22.44 9.919c-.961.425-1.722 1.265-2.107 2.326l-8.982 24.779c-1.269 3.501-5.757 3.501-7.026 0l-8.982-24.779c-.385-1.061-1.146-1.902-2.107-2.326l-22.439-9.919c-3.17-1.401-3.17-6.357 0-7.758l22.439-9.919c.961-.425 1.722-1.265 2.107-2.326l8.982-24.779c1.269-3.501 5.757-3.501 7.026 0z"/></g></g></g></svg>