<svg id="Capa_1" enable-background="new 0 0 512 512" height="512" viewBox="0 0 512 512" width="512" xmlns="http://www.w3.org/2000/svg"><g><g><path d="m384.001 505.515h-261.649c-15.132 0-27.399-12.267-27.399-27.399v-381.656c0-15.132 12.267-27.399 27.399-27.399h261.649c15.132 0 27.399 12.267 27.399 27.399v381.656c0 15.132-12.267 27.399-27.399 27.399z" fill="#cab4ef"/><path d="m352.962 198.805h-199.57c-8.223 0-14.889-6.666-14.889-14.889v-54.589c0-8.223 6.666-14.889 14.889-14.889h199.57c8.223 0 14.889 6.666 14.889 14.889v54.589c0 8.223-6.666 14.889-14.889 14.889z" fill="#bdf4e3"/><g fill="#a183e2"><path d="m190.195 292.856h-42.772c-4.927 0-8.921-3.994-8.921-8.921v-42.772c0-4.927 3.994-8.921 8.921-8.921h42.772c4.927 0 8.921 3.994 8.921 8.921v42.772c0 4.927-3.994 8.921-8.921 8.921z"/><path d="m190.195 379.08h-42.772c-4.927 0-8.921-3.994-8.921-8.921v-42.772c0-4.927 3.994-8.921 8.921-8.921h42.772c4.927 0 8.921 3.994 8.921 8.921v42.772c0 4.927-3.994 8.921-8.921 8.921z"/><path d="m190.195 465.304h-42.772c-4.927 0-8.921-3.994-8.921-8.92v-42.772c0-4.927 3.994-8.921 8.921-8.921h42.772c4.927 0 8.921 3.994 8.921 8.921v42.772c0 4.927-3.994 8.92-8.921 8.92z"/><path d="m274.563 292.856h-42.772c-4.927 0-8.921-3.994-8.921-8.921v-42.772c0-4.927 3.994-8.921 8.921-8.921h42.772c4.927 0 8.921 3.994 8.921 8.921v42.772c-.001 4.927-3.994 8.921-8.921 8.921z"/><path d="m274.563 379.08h-42.772c-4.927 0-8.921-3.994-8.921-8.921v-42.772c0-4.927 3.994-8.921 8.921-8.921h42.772c4.927 0 8.921 3.994 8.921 8.921v42.772c-.001 4.927-3.994 8.921-8.921 8.921z"/><path d="m274.563 465.304h-42.772c-4.927 0-8.921-3.994-8.921-8.92v-42.772c0-4.927 3.994-8.921 8.921-8.921h42.772c4.927 0 8.921 3.994 8.921 8.921v42.772c-.001 4.927-3.994 8.92-8.921 8.92z"/><path d="m358.93 292.856h-42.772c-4.927 0-8.921-3.994-8.921-8.921v-42.772c0-4.927 3.994-8.921 8.921-8.921h42.772c4.927 0 8.921 3.994 8.921 8.921v42.772c0 4.927-3.994 8.921-8.921 8.921z"/></g><path d="m358.93 318.467h-42.772c-4.927 0-8.921 3.994-8.921 8.92v64.498 8.702 55.796c0 4.927 3.994 8.92 8.921 8.92h42.772c4.927 0 8.921-3.994 8.921-8.92v-55.796-8.702-64.498c0-4.926-3.994-8.92-8.921-8.92z" fill="#ef8bbd"/><path d="m384.001 69.06h-56.496c12.44 0 22.525 10.084 22.525 22.525v320.888c0 12.44-10.085 22.524-22.525 22.524h-210.028c-12.44 0-22.525-10.085-22.525-22.524v65.643c0 15.132 12.267 27.399 27.399 27.399h261.649c15.132 0 27.399-12.267 27.399-27.399v-381.656c.002-15.133-12.265-27.4-27.398-27.4z" fill="#be87ef"/><path d="m352.961 114.438h-2.932v84.367h2.932c8.223 0 14.889-6.666 14.889-14.889v-54.589c.001-8.223-6.665-14.889-14.889-14.889z" fill="#b1b7e3"/><path d="m147.423 465.304h42.772c4.927 0 8.92-3.994 8.92-8.92v-21.386h-60.613v21.386c.001 4.927 3.994 8.92 8.921 8.92z" fill="#9762e2"/><path d="m231.791 465.304h42.772c4.927 0 8.921-3.994 8.921-8.92v-21.386h-60.614v21.386c0 4.927 3.994 8.92 8.921 8.92z" fill="#9762e2"/><path d="m358.93 232.243h-8.9v60.614h8.9c4.927 0 8.921-3.994 8.921-8.921v-42.772c0-4.927-3.994-8.921-8.921-8.921z" fill="#9762e2"/><path d="m358.93 318.467h-8.9v94.006c0 12.44-10.084 22.524-22.524 22.524h-20.268v21.386c0 4.927 3.994 8.92 8.921 8.92h42.772c4.927 0 8.921-3.994 8.921-8.92v-55.796-8.702-64.499c-.001-4.925-3.995-8.919-8.922-8.919z" fill="#e068bd"/><g><path d="m249.633 157.405c-8.273 0-16.546-.068-25.111-.204-5.551-.088-9.981-4.66-9.892-10.211.088-5.551 4.616-9.96 10.212-9.892 16.914.269 32.67.269 49.586 0 .055-.001.109-.001.163-.001 5.478 0 9.962 4.396 10.049 9.894.087 5.551-4.341 10.124-9.892 10.211-8.568.135-16.841.203-25.115.203z" fill="#fff"/></g><g><path d="m184.625 157.202h-11.709c-5.552 0-10.053-4.501-10.053-10.053s4.501-10.053 10.053-10.053h11.709c5.552 0 10.053 4.501 10.053 10.053s-4.501 10.053-10.053 10.053z" fill="#fff"/></g><g><path d="m329.59 385.112c-3.331 0-6.032-2.701-6.032-6.032v-11.32c0-3.331 2.701-6.032 6.032-6.032s6.032 2.701 6.032 6.032v11.32c0 3.332-2.701 6.032-6.032 6.032z" fill="#b74a96"/></g><g><path d="m346.217 422.043c-3.331 0-6.032-2.701-6.032-6.032v-11.32c0-3.331 2.701-6.032 6.032-6.032s6.032 2.701 6.032 6.032v11.32c0 3.331-2.701 6.032-6.032 6.032z" fill="#b74a96"/></g></g><g><ellipse cx="493.354" cy="107.35" fill="#a183e2" rx="18.646" ry="18.646" transform="matrix(.526 -.851 .851 .526 142.666 470.585)"/><circle cx="63.905" cy="37.773" fill="#a183e2" r="7.896"/><g fill="#cab4ef"><path d="m458.162 8.372 6.334 17.811c.271.762.808 1.367 1.486 1.672l15.824 7.129c2.236 1.007 2.236 4.569 0 5.576l-15.824 7.129c-.678.305-1.214.909-1.486 1.672l-6.334 17.811c-.895 2.516-4.06 2.516-4.954 0l-6.334-17.811c-.271-.763-.808-1.367-1.486-1.672l-15.824-7.129c-2.236-1.007-2.236-4.569 0-5.576l15.824-7.129c.678-.305 1.214-.91 1.486-1.672l6.334-17.811c.894-2.516 4.059-2.516 4.954 0z"/><path d="m30.275 85.037 6.334 17.811c.271.763.808 1.367 1.486 1.672l15.824 7.129c2.235 1.007 2.235 4.569 0 5.576l-15.824 7.129c-.678.305-1.215.909-1.486 1.672l-6.334 17.811c-.895 2.516-4.06 2.516-4.955 0l-6.334-17.811c-.271-.763-.808-1.367-1.486-1.672l-15.824-7.129c-2.236-1.007-2.236-4.569 0-5.576l15.824-7.129c.678-.305 1.214-.91 1.486-1.672l6.334-17.811c.896-2.516 4.06-2.516 4.955 0z"/></g></g></g></svg>