<svg id="Capa_1" enable-background="new 0 0 512 512" height="512" viewBox="0 0 512 512" width="512" xmlns="http://www.w3.org/2000/svg"><g><g><g><path d="m14.331 37.932h147.439c4.891 0 9.443 2.498 12.07 6.624l168.62 264.84-179.317 4.882-160.904-254.389c-6.026-9.527.82-21.957 12.092-21.957z" fill="#ffa585"/><path d="m213.223 292.714h55.01l-163.41-254.782h-55.01z" fill="#b2e7f1"/><g><path d="m173.84 44.557c-2.627-4.126-7.179-6.624-12.07-6.624h-56.948l71.251 111.092c26.391 39.296-1.015 91.533-48.35 91.546l-11.201.003 46.619 73.704 179.317-4.882z" fill="#ef7c85"/></g><path d="m169.031 223.812 44.192 68.902h55.01l-90.946-141.814c9.507 23.031 8.216 56.703-8.256 72.912z" fill="#a7adf1"/><path d="m497.668 37.932h-142.778c-4.809 0-9.296 2.416-11.944 6.43l-178.05 269.916h183.002l161.842-254.356c6.061-9.526-.781-21.99-12.072-21.99z" fill="#ffa585"/><path d="m497.668 37.932h-34.743l-152.221 235.767 37.193 40.579 161.843-254.356c6.061-9.526-.781-21.99-12.072-21.99z" fill="#ef7c85"/><path d="m299.516 292.714h-55.01l163.41-254.782h55.009z" fill="#b2e7f1"/><ellipse cx="256.041" cy="350.036" fill="#ffe266" rx="124.032" ry="124.032" transform="matrix(.707 -.707 .707 .707 -172.52 283.572)"/><path d="m256.041 226.003c-5.519 0-10.952.366-16.28 1.064 44.979 6.822 79.449 45.653 79.449 92.536 0 51.694-41.906 93.6-93.601 93.6-46.883 0-85.715-34.47-92.536-79.449-.699 5.328-1.064 10.761-1.064 16.28 0 68.501 55.531 124.032 124.032 124.032s124.032-55.531 124.032-124.032c0-68.499-55.531-124.031-124.032-124.031z" fill="#efaa66"/><g><path d="m256.041 431.034c-44.662 0-80.998-36.336-80.998-80.999 0-44.662 36.336-80.998 80.998-80.998s80.998 36.336 80.998 80.998c0 44.663-36.336 80.999-80.998 80.999zm0-149.449c-37.744 0-68.45 30.707-68.45 68.45 0 37.744 30.706 68.451 68.45 68.451s68.45-30.707 68.45-68.451c0-37.743-30.706-68.45-68.45-68.45z" fill="#d0844b"/></g><g><path d="m295.823 360.641c-3.465 0-6.274-2.809-6.274-6.274v-13.351c0-3.465 2.809-6.274 6.274-6.274s6.274 2.809 6.274 6.274v13.351c0 3.465-2.809 6.274-6.274 6.274z" fill="#d0844b"/></g><g><path d="m272.053 399.107c-3.465 0-6.274-2.809-6.274-6.274v-13.351c0-3.465 2.809-6.274 6.274-6.274s6.274 2.809 6.274 6.274v13.351c0 3.464-2.809 6.274-6.274 6.274z" fill="#d0844b"/></g></g><g><ellipse cx="75.125" cy="418.528" fill="#ffe266" rx="19.394" ry="19.394" transform="matrix(.23 -.973 .973 .23 -349.467 395.486)"/><circle cx="438.237" cy="314.278" fill="#ffe266" r="8.213"/><g fill="#fef2a8"><path d="m60.839 299.399 6.588 18.525c.282.793.84 1.422 1.545 1.739l16.459 7.415c2.325 1.048 2.325 4.753 0 5.8l-16.459 7.415c-.705.317-1.263.946-1.545 1.739l-6.588 18.526c-.931 2.617-4.222 2.617-5.153 0l-6.589-18.526c-.282-.793-.84-1.422-1.545-1.739l-16.459-7.415c-2.325-1.048-2.325-4.753 0-5.8l16.459-7.415c.705-.318 1.263-.946 1.545-1.739l6.589-18.525c.93-2.617 4.222-2.617 5.153 0z"/><path d="m464.223 377.303 9.053 24.974c.388 1.069 1.155 1.917 2.123 2.345l22.616 9.997c3.195 1.412 3.195 6.407 0 7.819l-22.616 9.997c-.968.428-1.736 1.275-2.123 2.345l-9.053 24.974c-1.279 3.528-5.802 3.528-7.081 0l-9.053-24.974c-.388-1.069-1.155-1.917-2.123-2.345l-22.616-9.997c-3.195-1.412-3.195-6.407 0-7.819l22.616-9.997c.968-.428 1.736-1.275 2.123-2.345l9.053-24.974c1.279-3.528 5.802-3.528 7.081 0z"/></g></g></g></g></svg>