<svg id="Capa_1" enable-background="new 0 0 512 512" height="512" viewBox="0 0 512 512" width="512" xmlns="http://www.w3.org/2000/svg"><g><g><path d="m58.394 281.666h48.566v196.473h-48.566z" fill="#cab4ef" transform="matrix(.886 -.464 .464 .886 -166.839 81.736)"/><path d="m74.544 58.816h48.566v274.5h-48.566z" fill="#cab4ef" transform="matrix(.896 .444 -.444 .896 97.205 -23.493)"/><path d="m383.32 195.282c-10.823 18.745-34.792 25.168-53.537 14.345l-42.057-24.282c-18.745-10.822-25.167-34.792-14.345-53.537 10.822-18.745 34.792-25.168 53.537-14.345l42.057 24.282c18.745 10.823 25.167 34.792 14.345 53.537z" fill="#fef2a8"/><path d="m219.195 56.834-36.893 63.901c-5.738 9.938-18.446 13.344-28.385 7.606l-41.171-23.77c-16.685-9.633-22.401-30.967-12.768-47.652l22.789-39.471c9.633-16.685 30.967-22.402 47.652-12.769l41.171 23.77c9.938 5.738 13.343 18.447 7.605 28.385z" fill="#a183e2"/><path d="m373.094 92.619c3.237-5.607 2.067-12.695-2.753-17.019-9.393-8.425-19.992-16.157-31.678-22.904-67.048-38.71-144.315-30.402-172.581 18.556s3.173 120.028 70.221 158.738c11.686 6.747 23.681 12.061 35.674 15.982 6.154 2.012 12.878-.518 16.115-6.125z" fill="#a183e2"/><path d="m370.341 75.6c-9.393-8.425-19.993-16.157-31.678-22.904-67.047-38.71-144.315-30.403-172.581 18.556 19.881-34.435 74.228-40.278 121.387-13.052 8.219 4.745 15.675 10.184 22.281 16.11 3.39 3.041 4.213 8.026 1.936 11.97l-59.787 103.554c-2.277 3.944-7.006 5.724-11.334 4.308-8.435-2.758-16.873-6.495-25.092-11.241-47.158-27.227-69.271-77.214-49.39-111.649-28.266 48.959 3.173 120.028 70.221 158.738 11.686 6.747 23.681 12.061 35.674 15.982 6.154 2.012 12.878-.518 16.115-6.126l85.002-147.228c3.236-5.606 2.066-12.694-2.754-17.018z" fill="#9762e2"/><g><path d="m156.529 134.093c-5.179 0-9.686-3.833-10.39-9.107-2.85-21.351.903-41.746 10.853-58.98 11.263-19.507 29.701-33.936 53.321-41.727 5.505-1.819 11.438 1.175 13.255 6.68 1.815 5.504-1.176 11.439-6.679 13.254-18.649 6.151-33.074 17.316-41.719 32.288-7.612 13.185-10.456 28.991-8.225 45.707.767 5.746-3.268 11.025-9.014 11.792-.471.062-.939.093-1.402.093z" fill="#7844c1"/></g><ellipse cx="43.408" cy="304.934" fill="#ffe266" rx="36.059" ry="36.059" transform="matrix(.23 -.973 .973 .23 -263.342 277.122)"/><path d="m43.408 268.875c-1.926 0-3.816.155-5.66.445 11.898 2.228 20.906 12.662 20.906 25.207 0 14.168-11.485 25.652-25.652 25.652-12.545 0-22.979-9.007-25.207-20.905-.291 1.844-.445 3.734-.445 5.66 0 19.915 16.144 36.059 36.059 36.059s36.059-16.144 36.059-36.059c-.001-19.914-16.145-36.059-36.06-36.059z" fill="#efaa66"/><path d="m221.945 462.01h-12.482c-11.029 0-19.97-8.941-19.97-19.97v-12.482c0-11.029 8.941-19.97 19.97-19.97h12.482c11.029 0 19.97 8.941 19.97 19.97v12.482c0 11.029-8.941 19.97-19.97 19.97z" fill="#ffe266"/><path d="m314.261 512h-276.653c0-35.196 28.532-63.728 63.728-63.728h149.198c35.195 0 63.727 28.532 63.727 63.728z" fill="#a183e2"/><path d="m250.534 448.272h-46.287c22.078 0 39.976 17.898 39.976 39.976h-202.022c-2.952 7.343-4.592 15.354-4.592 23.752h276.653c-.001-35.196-28.533-63.728-63.728-63.728z" fill="#9762e2"/><g><path d="m245.215 78.495c-.503 0-1.013-.036-1.525-.111-1.796-.261-3.585-.424-5.319-.484-5.793-.2-10.326-5.059-10.126-10.851.2-5.793 5.036-10.321 10.852-10.127 2.5.087 5.063.319 7.617.691 5.736.835 9.709 6.161 8.874 11.897-.761 5.224-5.246 8.985-10.373 8.985z" fill="#fff"/></g><g><path d="m191.832 112.735c-1.165 0-2.349-.196-3.51-.607-5.462-1.939-8.319-7.939-6.38-13.401 3.444-9.706 9.055-18.662 16.227-25.903 4.078-4.119 10.723-4.15 14.842-.071 4.118 4.079 4.15 10.724.071 14.842-5.012 5.061-8.939 11.338-11.358 18.152-1.528 4.301-5.574 6.988-9.892 6.988z" fill="#fff"/></g><g><path d="m249.356 193.412c-3.477 0-6.297-2.82-6.297-6.297v-13.4c0-3.478 2.82-6.297 6.297-6.297 3.478 0 6.297 2.82 6.297 6.297v13.4c0 3.477-2.819 6.297-6.297 6.297z" fill="#7844c1"/></g><g><path d="m275.428 164.456c-3.478 0-6.297-2.82-6.297-6.297v-13.4c0-3.478 2.82-6.297 6.297-6.297s6.297 2.82 6.297 6.297v13.4c0 3.477-2.819 6.297-6.297 6.297z" fill="#7844c1"/></g></g><g><ellipse cx="456.917" cy="79.037" fill="#ffe266" rx="19.465" ry="19.466" transform="matrix(.099 -.995 .995 .099 333.24 525.943)"/><circle cx="424.638" cy="371.605" fill="#ffe266" r="8.243"/><g fill="#fef2a8"><path d="m478.217 173.88 6.613 18.594c.283.796.843 1.427 1.551 1.746l16.52 7.443c2.334 1.051 2.334 4.77 0 5.822l-16.52 7.443c-.707.319-1.268.949-1.551 1.746l-6.613 18.594c-.934 2.627-4.238 2.627-5.172 0l-6.613-18.594c-.283-.796-.844-1.427-1.551-1.746l-16.52-7.443c-2.334-1.052-2.334-4.77 0-5.822l16.52-7.443c.707-.319 1.268-.95 1.551-1.746l6.613-18.594c.934-2.627 4.238-2.627 5.172 0z"/><path d="m359.358 281.847 9.086 25.066c.389 1.073 1.159 1.924 2.131 2.353l22.7 10.034c3.207 1.417 3.207 6.43 0 7.848l-22.7 10.034c-.972.43-1.742 1.28-2.131 2.353l-9.086 25.066c-1.284 3.541-5.824 3.541-7.107 0l-9.086-25.066c-.389-1.073-1.159-1.924-2.131-2.353l-22.7-10.034c-3.207-1.418-3.207-6.431 0-7.848l22.7-10.034c.972-.43 1.742-1.28 2.131-2.353l9.086-25.066c1.284-3.541 5.823-3.541 7.107 0z"/></g></g></g></svg>