<svg id="Capa_1" enable-background="new 0 0 512 512" height="512" viewBox="0 0 512 512" width="512" xmlns="http://www.w3.org/2000/svg"><g><g><path d="m194.729 347.614h60.839v49.608h-60.839z" fill="#a183e2"/><g><g fill="#cab4ef"><path d="m194.729 350.034-39.078-18.788c0-38.382 31.115-69.497 69.497-69.497 38.382 0 69.497 31.115 69.497 69.497l-39.078 18.788z"/><path d="m246.964 290.972h-43.63c-54.216 0-98.167-43.951-98.167-98.167 0-54.216 43.951-98.167 98.167-98.167h43.63c54.216 0 98.167 43.951 98.167 98.167 0 54.216-43.951 98.167-98.167 98.167z"/><path d="m333.494 242.444c8.196-6.858 14.564-16.67 15.527-31.537v-10.957c0-60.683-47.639-109.876-106.404-109.876h-34.937c-58.766 0-106.404 49.193-106.404 109.876v10.957c.581 14.901 7.396 24.42 14.104 31.08 2.525 2.507 6.806 1.431 7.842-1.972l19.414-63.783 25.588 18.53 27.9-21.854 29.024 22.033 30.142-23.857 30.905 24.021 20.936-19.903 18.786 64.943c.95 3.281 4.958 4.491 7.577 2.299z"/></g><path d="m349.022 210.691v-10.741c0-13.862-2.493-27.121-7.029-39.335-6.596-16.622-17.546-33.209-32.48-46.107-16.578-13.858-37.268-22.672-59.887-24.191 24.805 15.854 41.543 45.201 41.543 76.823 0 49.291-39.958 89.249-89.249 89.249h-39.666c-14.282 0-27.778-3.361-39.748-9.325-.198.192-.391.385-.587.578 17.638 26.135 47.514 43.331 81.416 43.331h43.63c35.662 0 66.881-19.018 84.073-47.463.863-.105 1.716-.444 2.458-1.065 8.081-6.762 14.374-16.405 15.473-30.924.02-.277.032-.554.053-.83z" fill="#be87ef"/><g><path d="m122.506 248.505c-.591 0-1.192-.087-1.787-.267-3.238-.985-5.064-4.41-4.079-7.648l20.133-66.142c.577-1.894 2.033-3.393 3.91-4.025 1.876-.632 3.944-.315 5.547.846l21.849 15.821 24.265-19.007c2.193-1.719 5.267-1.741 7.485-.057l25.24 19.161 26.417-20.91c2.213-1.751 5.337-1.764 7.565-.033l26.742 20.785 17.115-16.27c1.55-1.475 3.762-2.034 5.824-1.473 2.066.56 3.691 2.157 4.285 4.213l18.872 65.238c.941 3.251-.933 6.649-4.185 7.59-3.25.942-6.649-.933-7.59-4.185l-16.07-55.551-13.628 12.956c-2.197 2.09-5.591 2.258-7.983.397l-27.11-21.071-26.373 20.875c-2.191 1.735-5.281 1.767-7.509.076l-25.259-19.176-24.18 18.94c-2.151 1.686-5.159 1.743-7.374.139l-18.632-13.492-17.631 57.925c-.803 2.642-3.232 4.345-5.859 4.345z" fill="#a171e3"/></g></g><g><path d="m124.666 414.095h205.167v97.905h-205.167z" fill="#d49c8d"/><path d="m328.578 434.539h-206.859c-11.291 0-20.443-9.153-20.443-20.444 0-11.291 9.153-20.444 20.443-20.444h206.859c11.291 0 20.443 9.153 20.443 20.444.001 11.291-9.152 20.444-20.443 20.444z" fill="#b07676"/></g><path d="m373.911 310.361-23.225 6.577c-5.798 1.642-11.15-3.711-9.509-9.509l6.577-23.225 94.461-94.461 26.157 26.156z" fill="#fef2a8"/><path d="m456.731 223.074-21.691-21.69c-7.536-7.536-7.536-19.754 0-27.289 7.536-7.536 19.754-7.536 27.289 0l21.69 21.69c7.536 7.536 7.536 19.754 0 27.289-7.534 7.535-19.752 7.535-27.288 0z" fill="#fef2a8"/><g><path d="m455.902 232.458c-2.615 0-5.228-.997-7.223-2.991l-18.919-18.918c-3.989-3.989-3.989-10.457 0-14.446 3.988-3.988 10.456-3.988 14.446 0l18.919 18.918c3.989 3.989 3.989 10.457 0 14.446-1.994 1.993-4.609 2.991-7.223 2.991z" fill="#d08372"/></g><path d="m124.666 434.539h205.167v37.931h-205.167z" fill="#c7758d"/><g><path d="m155.644 159.793c-2.153 0-4.322-.678-6.169-2.08-4.493-3.411-5.37-9.818-1.959-14.312 6.165-8.122 13.69-14.891 22.365-20.121 4.83-2.913 11.108-1.357 14.021 3.474 2.913 4.832 1.357 11.109-3.474 14.022-6.448 3.887-12.047 8.927-16.641 14.978-2.009 2.646-5.058 4.039-8.143 4.039z" fill="#fff"/></g><g><path d="m205.094 132.335c-4.979 0-9.339-3.645-10.091-8.717-.828-5.58 3.025-10.775 8.605-11.602.404-.06.667-.103.856-.133 1.107-.178 1.615-.211 2.674-.225l.788-.013c5.647-.062 10.304 4.366 10.419 10.006.114 5.641-4.366 10.305-10.007 10.419l-.82.013c-.225.036-.517.082-.914.141-.506.075-1.011.111-1.51.111z" fill="#fff"/></g><g><path d="m289.447 491.64c-3.385 0-6.129-2.744-6.129-6.129v-13.041c0-3.385 2.744-6.129 6.129-6.129 3.384 0 6.129 2.744 6.129 6.129v13.041c-.001 3.385-2.745 6.129-6.129 6.129z" fill="#b3586b"/></g><g><path d="m253.166 478.599c-3.385 0-6.129-2.744-6.129-6.129v-13.042c0-3.384 2.744-6.129 6.129-6.129s6.129 2.744 6.129 6.129v13.042c0 3.385-2.745 6.129-6.129 6.129z" fill="#b3586b"/></g><g><path d="m272.66 255.49c-3.384 0-6.129-2.744-6.129-6.129v-13.041c0-3.385 2.744-6.129 6.129-6.129s6.129 2.744 6.129 6.129v13.041c-.001 3.384-2.745 6.129-6.129 6.129z" fill="#a171e3"/></g></g><g><ellipse cx="323.542" cy="18.945" fill="#a183e2" rx="18.945" ry="18.945" transform="matrix(.526 -.851 .851 .526 137.331 284.207)"/><ellipse cx="58.594" cy="107.852" fill="#a183e2" rx="8.023" ry="8.023" transform="matrix(.23 -.973 .973 .23 -59.835 140.099)"/><g fill="#cab4ef"><path d="m53.088 270.389 6.436 18.096c.275.775.821 1.389 1.509 1.699l16.078 7.244c2.271 1.023 2.271 4.643 0 5.666l-16.078 7.244c-.688.31-1.234.924-1.509 1.699l-6.436 18.096c-.909 2.557-4.125 2.557-5.034 0l-6.436-18.096c-.275-.775-.821-1.389-1.509-1.699l-16.078-7.244c-2.271-1.023-2.271-4.642 0-5.666l16.078-7.244c.688-.31 1.234-.924 1.509-1.699l6.436-18.096c.91-2.556 4.125-2.556 5.034 0z"/><path d="m408.083 54.367 8.843 24.396c.379 1.044 1.128 1.872 2.074 2.29l22.092 9.765c3.121 1.38 3.121 6.258 0 7.638l-22.092 9.766c-.946.418-1.695 1.246-2.074 2.29l-8.843 24.396c-1.249 3.447-5.668 3.447-6.917 0l-8.843-24.396c-.379-1.044-1.128-1.872-2.074-2.29l-22.092-9.765c-3.121-1.38-3.121-6.258 0-7.638l22.092-9.765c.946-.418 1.695-1.246 2.074-2.29l8.843-24.396c1.249-3.447 5.668-3.447 6.917-.001z"/></g></g></g></svg>