<svg id="Capa_1" enable-background="new 0 0 512 512" height="512" viewBox="0 0 512 512" width="512" xmlns="http://www.w3.org/2000/svg"><g><g><path d="m406.793 26.434c27.687 2.338 54.345 20.871 67.621 50.196 13.555 29.94 9.452 62.94-7.954 85.326" fill="#b2e7f1"/><path d="m39.282 239.705h77.508v35.077h-77.508z" fill="#b2e7f1" transform="matrix(.911 -.412 .412 .911 -99.148 55.081)"/><path d="m2.462 271.857 14.728 32.533c4.113 9.086 14.814 13.117 23.9 9.004 9.086-4.113 13.118-14.814 9.004-23.9l-14.728-32.533c-4.114-9.086-14.814-13.118-23.901-9.004-9.085 4.113-13.116 14.814-9.003 23.9z" fill="#ffe266"/><path d="m176.257 246.927-66.798 30.241c-7.398 3.349-16.111.067-19.46-7.331l-14.407-31.823c-3.349-7.398-.067-16.111 7.331-19.46l66.798-30.241c7.398-3.349 16.111-.067 19.46 7.331l14.407 31.823c3.35 7.398.067 16.111-7.331 19.46z" fill="#8bb6ef"/><path d="m176.257 246.927-66.798 30.241c-7.398 3.349-16.111.067-19.46-7.331l-14.407-31.823c-3.349-7.398-.067-16.111 7.331-19.46l66.798-30.241c7.398-3.349 16.111-.067 19.46 7.331l14.407 31.823c3.35 7.398.067 16.111-7.331 19.46z" fill="#8bb6ef"/><path d="m183.588 227.467-14.407-31.823c-1.609-3.553-4.46-6.144-7.804-7.52l6.225 13.75c3.349 7.398.067 16.111-7.331 19.46l-66.798 30.241c-3.845 1.74-8.039 1.677-11.656.189l8.182 18.074c3.349 7.398 12.062 10.68 19.46 7.331l66.798-30.242c7.398-3.35 10.681-12.062 7.331-19.46z" fill="#8388ef"/><path d="m325.534 209.088-119.992 54.323c-8.13 3.681-17.704.074-21.385-8.056l-35.557-78.54c-3.681-8.13-.074-17.704 8.056-21.385l119.992-54.323c8.13-3.681 17.704-.074 21.385 8.056l35.557 78.54c3.68 8.13.074 17.705-8.056 21.385z" fill="#b2e7f1"/><path d="m333.59 187.703-35.557-78.54c-3.681-8.13-13.255-11.737-21.385-8.056l-67.073 30.365c4.571-2.069 9.953-.041 12.022 4.529l22.603 49.928c2.069 4.57.042 9.953-4.529 12.022l-59.364 26.876c-4.57 2.069-9.953.041-12.022-4.529l-8.337-18.416 24.209 53.473c3.681 8.13 13.255 11.737 21.385 8.056l119.992-54.323c8.13-3.68 11.736-13.255 8.056-21.385z" fill="#a7adf1"/><path d="m449.87 169.13-140.967 64.434c-10.121 4.582-22.04.092-26.622-10.029l-45.028-99.46c-4.582-10.121-.092-22.04 10.029-26.621l140.967-64.434c10.121-4.582 22.039-.092 26.621 10.029l45.028 99.46c4.582 10.121.092 22.039-10.028 26.621z" fill="#8bb6ef"/><path d="m459.898 142.509-45.028-99.46c-4.582-10.12-16.501-14.61-26.621-10.029l-47.044 21.503c6.537-1.777 13.716 1.646 16.752 8.35l32.912 72.697c3.349 7.398.382 15.967-6.627 19.14l-97.616 44.643c-7.009 3.173-15.406-.251-18.755-7.648l14.41 31.83c4.582 10.12 16.501 14.611 26.621 10.029l140.968-64.434c10.12-4.582 14.61-16.501 10.028-26.621z" fill="#8388ef"/><path d="m463.752 186.338c-8.875 4.238-19.912-.582-24.491-10.696l-62.442-137.925c-4.463-9.859-1.108-21.068 7.543-25.199 8.875-4.238 19.912.582 24.491 10.696l62.442 137.925c4.463 9.859 1.108 21.068-7.543 25.199z" fill="#ffe266"/><g><path d="m124.346 494.473h-46.93l146.665-233.502h46.93z" fill="#cab4ef"/><path d="m369.043 494.473h46.93l-145.813-233.674h-46.93z" fill="#cab4ef"/><g fill="#ffe266"><path d="m127.603 512h-38.346c-11.157 0-20.201-9.044-20.201-20.201 0-11.157 9.044-20.201 20.201-20.201h38.346c11.157 0 20.201 9.044 20.201 20.201 0 11.157-9.044 20.201-20.201 20.201z"/><path d="m365.787 512h38.346c11.157 0 20.201-9.044 20.201-20.201 0-11.157-9.044-20.201-20.201-20.201h-38.346c-11.157 0-20.201 9.044-20.201 20.201-.001 11.157 9.044 20.201 20.201 20.201z"/></g></g><path d="m306.607 319.208-33.553 21.437-25.958-41.599 32.482-23.426z" fill="#be87ef"/><path d="m187.768 318.402 33.553 21.437 25.775-40.793-34.106-19.667z" fill="#be87ef"/><g><circle cx="246.695" cy="260.971" fill="#ffe266" r="40.232"/><path d="m259.587 260.971c0 7.12-5.772 12.892-12.892 12.892s-12.892-5.772-12.892-12.892 5.772-12.892 12.892-12.892c7.12.001 12.892 5.773 12.892 12.892z" fill="#d0844b"/></g><g><path d="m334.411 108.984c-4.021 0-7.876-2.277-9.698-6.159-2.512-5.352-.21-11.726 5.142-14.238l2.87-1.347c5.35-2.515 11.726-.21 14.239 5.142 2.512 5.352.21 11.726-5.142 14.238-2.192 1.056-4.969 2.504-7.411 2.364z" fill="#fff"/></g><g><path d="m282.095 133.541c-4.022 0-7.875-2.277-9.697-6.158-2.513-5.351-.211-11.726 5.14-14.239l24.242-11.379c5.35-2.513 11.727-.211 14.239 5.142 2.512 5.352.21 11.726-5.142 14.238l-24.24 11.379c-1.471.69-3.019 1.017-4.542 1.017z" fill="#fff"/></g></g><g><path d="m108.762 31.225c0 10.965-8.889 19.853-19.853 19.853-10.965 0-19.854-8.889-19.854-19.853 0-10.965 8.889-19.854 19.854-19.854 10.965.001 19.853 8.889 19.853 19.854z" fill="#8bb6ef"/><circle cx="502.742" cy="8.408" fill="#8bb6ef" r="8.408"/><g fill="#b2e7f1"><path d="m185.681 22.729 6.745 18.965c.289.812.86 1.455 1.582 1.78l16.849 7.591c2.38 1.073 2.38 4.865 0 5.938l-16.849 7.591c-.722.325-1.293.968-1.582 1.78l-6.745 18.964c-.953 2.679-4.322 2.679-5.275 0l-6.745-18.964c-.289-.812-.86-1.455-1.582-1.78l-16.849-7.591c-2.38-1.073-2.38-4.865 0-5.938l16.849-7.591c.722-.325 1.293-.969 1.582-1.78l6.745-18.965c.953-2.679 4.323-2.679 5.275 0z"/><path d="m46.255 96.904 9.267 25.566c.397 1.095 1.182 1.962 2.174 2.4l23.152 10.234c3.271 1.446 3.271 6.559 0 8.005l-23.152 10.234c-.991.438-1.777 1.306-2.174 2.4l-9.267 25.566c-1.309 3.612-5.94 3.612-7.249 0l-9.267-25.566c-.397-1.094-1.182-1.962-2.174-2.4l-23.152-10.235c-3.271-1.446-3.271-6.559 0-8.005l23.152-10.234c.991-.438 1.777-1.306 2.174-2.4l9.267-25.566c1.309-3.611 5.94-3.611 7.249.001z"/></g></g></g></svg>