<svg id="Capa_1" enable-background="new 0 0 512 512" height="512" viewBox="0 0 512 512" width="512" xmlns="http://www.w3.org/2000/svg"><g><g><path d="m411.199 512h-285.797c-14.447 0-26.158-11.711-26.158-26.158v-395.271c0-14.446 11.711-26.158 26.158-26.158h285.797c14.446 0 26.158 11.711 26.158 26.158v395.271c0 14.447-11.711 26.158-26.158 26.158z" fill="#e7effa"/><path d="m411.199 64.413h-42.572c12.475 0 22.588 10.113 22.588 22.588v341.33c0 12.475-10.113 22.588-22.588 22.588h-246.794c-12.475 0-22.588-10.113-22.588-22.588v57.511c0 14.447 11.711 26.158 26.158 26.158h285.797c14.446 0 26.158-11.711 26.158-26.158v-395.271c-.001-14.446-11.712-26.158-26.159-26.158z" fill="#dcb6f5"/><g><path d="m340.517 222.321c-34.43 0-62.44-28.01-62.44-62.44s28.011-62.44 62.44-62.44 62.44 28.011 62.44 62.44-28.01 62.44-62.44 62.44zm0-112.462c-27.582 0-50.022 22.44-50.022 50.022s22.44 50.022 50.022 50.022 50.022-22.44 50.022-50.022-22.44-50.022-50.022-50.022z" fill="#78eac4"/></g><path d="m369.171 183.233-21.532-57.058c-.022-.057-.044-.114-.067-.17-1.165-2.831-3.894-4.659-6.955-4.659-.003 0-.005 0-.008 0-3.064.003-5.793 1.837-6.953 4.672-.019.047-.038.095-.056.142l-21.73 57.055c-1.221 3.205.388 6.792 3.592 8.012 3.204 1.223 6.792-.388 8.013-3.592l3.889-10.211h26.342l3.846 10.193c.938 2.487 3.301 4.019 5.81 4.019.729 0 1.469-.129 2.191-.401 3.209-1.212 4.829-4.794 3.618-8.002zm-37.078-18.226 8.502-22.323 8.424 22.323z" fill="#78eac4"/><g><path d="m305.568 457.128h-153.168c-3.429 0-6.209-2.78-6.209-6.209s2.78-6.209 6.209-6.209h153.167c3.429 0 6.209 2.78 6.209 6.209.001 3.429-2.779 6.209-6.208 6.209z" fill="#ad99c9"/></g><g><path d="m237.568 133.764h-85.168c-3.429 0-6.209-2.78-6.209-6.209s2.78-6.209 6.209-6.209h85.168c3.429 0 6.209 2.78 6.209 6.209s-2.78 6.209-6.209 6.209z" fill="#ad99c9"/></g><g><path d="m237.568 173.195h-85.168c-3.429 0-6.209-2.78-6.209-6.209s2.78-6.209 6.209-6.209h85.168c3.429 0 6.209 2.78 6.209 6.209s-2.78 6.209-6.209 6.209z" fill="#ad99c9"/></g><g><path d="m384.201 417.697h-231.801c-3.429 0-6.209-2.78-6.209-6.209s2.78-6.209 6.209-6.209h231.801c3.429 0 6.209 2.78 6.209 6.209s-2.78 6.209-6.209 6.209z" fill="#ad99c9"/></g><g><path d="m384.201 378.266h-193.488c-3.429 0-6.209-2.78-6.209-6.209s2.78-6.209 6.209-6.209h193.488c3.429 0 6.209 2.78 6.209 6.209s-2.78 6.209-6.209 6.209z" fill="#ad99c9"/></g><g><path d="m384.201 338.835h-231.801c-3.429 0-6.209-2.78-6.209-6.209s2.78-6.209 6.209-6.209h231.801c3.429 0 6.209 2.78 6.209 6.209s-2.78 6.209-6.209 6.209z" fill="#ad99c9"/></g><g><path d="m384.201 299.404h-193.488c-3.429 0-6.209-2.78-6.209-6.209s2.78-6.209 6.209-6.209h193.488c3.429 0 6.209 2.78 6.209 6.209s-2.78 6.209-6.209 6.209z" fill="#ad99c9"/></g><g><path d="m384.201 259.973h-231.801c-3.429 0-6.209-2.78-6.209-6.209s2.78-6.209 6.209-6.209h231.801c3.429 0 6.209 2.78 6.209 6.209s-2.78 6.209-6.209 6.209z" fill="#ad99c9"/></g><g><path d="m156.64 317.179c-.006 0-.013 0-.019 0-2.644-.008-4.993-1.69-5.853-4.191l-10.191-29.658c-1.114-3.243.611-6.776 3.854-7.89 3.242-1.112 6.776.611 7.89 3.854l4.378 12.739 4.49-12.81c1.134-3.236 4.678-4.941 7.913-3.805 3.236 1.134 4.94 4.677 3.805 7.913l-10.408 29.692c-.873 2.49-3.223 4.156-5.859 4.156z" fill="#78eac4"/></g><g><path d="m156.64 392.905c-.006 0-.013 0-.019 0-2.644-.008-4.993-1.69-5.853-4.191l-10.191-29.658c-1.114-3.243.611-6.776 3.854-7.89 3.242-1.113 6.776.611 7.89 3.854l4.378 12.739 4.49-12.81c1.134-3.236 4.678-4.941 7.913-3.805 3.236 1.134 4.94 4.677 3.805 7.914l-10.408 29.692c-.873 2.489-3.223 4.155-5.859 4.155z" fill="#78eac4"/></g></g><g><ellipse cx="22.572" cy="91.735" fill="#78eac4" rx="19.193" ry="19.193" transform="matrix(.229 -.974 .974 .229 -71.894 92.739)"/><path d="m88.656 32.207c0 4.489-3.639 8.128-8.128 8.128s-8.128-3.639-8.128-8.128 3.639-8.128 8.128-8.128c4.489-.001 8.128 3.639 8.128 8.128z" fill="#78eac4"/><path d="m482.557 1.943 6.52 18.334c.279.785.832 1.407 1.529 1.721l16.289 7.339c2.301 1.037 2.301 4.703 0 5.74l-16.289 7.339c-.697.314-1.25.936-1.529 1.721l-6.52 18.334c-.921 2.59-4.179 2.59-5.1 0l-6.52-18.334c-.279-.785-.832-1.407-1.529-1.721l-16.289-7.339c-2.301-1.037-2.301-4.703 0-5.74l16.289-7.339c.698-.314 1.25-.936 1.529-1.721l6.52-18.334c.922-2.591 4.179-2.591 5.1 0z" fill="#bdf4e3"/></g></g></svg>