<svg id="Capa_1" enable-background="new 0 0 512 512" height="512" viewBox="0 0 512 512" width="512" xmlns="http://www.w3.org/2000/svg"><g><g><path d="m204.131 239.746v-94.442c0-15.106-12.246-27.353-27.353-27.353h-13.954c-15.106 0-27.353 12.246-27.353 27.353v94.442c0 7.594-3.119 14.887-8.715 20.02-44.119 40.477-95.114 123.189-95.114 178.96 3.804 73.29 61.857 73.274 138.16 73.274s138.159.016 138.159-73.273c0-55.771-50.995-138.483-95.114-178.96-5.596-5.134-8.716-12.427-8.716-20.021z" fill="#b2e7f1"/><path d="m100.607 346.271c-16.946 27.389-26.575 54.526-30.361 78.106-6.814 55.075 40.438 53.373 99.555 53.549 57.792.172 110.92 1.746 100.273-53.087-4.497-23.158-14.133-51.178-31.079-78.568z" fill="#ef8bbd"/><path d="m212.846 259.767c-5.596-5.134-8.715-12.427-8.715-20.02v-94.442c0-15.107-12.246-27.353-27.353-27.353h-13.954c-2.562 0-5.038.36-7.39 1.018 8.951 2.818 15.084 15.417 15.084 25.298v76.234c0 6.13 2.518 12.017 7.035 16.16 35.613 32.673 77.136 95.202 77.136 140.221 0 59.16-49.931 59.147-111.523 59.147-50.735 0-91.468.002-105.97-33.059-3.548 12.616-5.553 24.714-5.553 35.755 3.803 73.29 61.856 73.274 138.159 73.274s138.159.016 138.159-73.273c-.001-55.772-50.995-138.484-95.115-178.96z" fill="#a7adf1"/><path d="m254.678 376.141c.003.247.011.497.011.743 0 59.16-49.931 59.147-111.523 59.147-28.641 0-54.091-.003-73.438-5.95-2.88 49.242 43.078 47.674 100.073 47.844 57.791.172 110.92 1.746 100.273-53.087-2.861-14.735-7.814-31.441-15.396-48.697z" fill="#e068bd"/><path d="m199.01 144.268h-58.417c-13.729 0-24.859-11.13-24.859-24.859 0-13.729 11.13-24.859 24.859-24.859h58.417c13.729 0 24.859 11.13 24.859 24.859 0 13.729-11.13 24.859-24.859 24.859z" fill="#8bb6ef"/><path d="m412.574 512c-21.937 0-39.721-17.784-39.721-39.721v-236.207h79.442v236.207c0 21.937-17.783 39.721-39.721 39.721z" fill="#b2e7f1"/><path d="m453.104 254.169h-81.252c-15.051 0-27.253-12.202-27.253-27.253 0-15.051 12.202-27.253 27.253-27.253h81.252c15.052 0 27.253 12.202 27.253 27.253 0 15.051-12.201 27.253-27.253 27.253z" fill="#8bb6ef"/><path d="m414.448 512h-1.97v-257.831h39.817v219.983c0 20.903-16.945 37.848-37.847 37.848z" fill="#a7adf1"/><g><path d="m412.574 341.109h-39.721c-5.736 0-10.386-4.65-10.386-10.386s4.65-10.386 10.386-10.386h39.721c5.736 0 10.386 4.65 10.386 10.386s-4.65 10.386-10.386 10.386z" fill="#95cde6"/></g><g><path d="m412.574 384.422h-39.721c-5.736 0-10.386-4.65-10.386-10.386s4.65-10.386 10.386-10.386h39.721c5.736 0 10.386 4.65 10.386 10.386s-4.65 10.386-10.386 10.386z" fill="#95cde6"/></g><g><path d="m412.574 427.735h-39.721c-5.736 0-10.386-4.65-10.386-10.386s4.65-10.386 10.386-10.386h39.721c5.736 0 10.386 4.65 10.386 10.386s-4.65 10.386-10.386 10.386z" fill="#95cde6"/></g><g><path d="m223.869 401.883c-3.441 0-6.231-2.79-6.231-6.232v-12.567c0-3.441 2.79-6.232 6.231-6.232s6.232 2.79 6.232 6.232v12.567c-.001 3.441-2.791 6.232-6.232 6.232z" fill="#b74a96"/></g><g><path d="m190.486 446.724c-3.441 0-6.232-2.79-6.232-6.232v-12.566c0-3.441 2.79-6.232 6.232-6.232 3.441 0 6.232 2.79 6.232 6.232v12.566c0 3.442-2.79 6.232-6.232 6.232z" fill="#b74a96"/></g><g><path d="m143.262 419.561c-11.774 0-21.354-9.58-21.354-21.354s9.58-21.354 21.354-21.354c11.775 0 21.355 9.58 21.355 21.354-.001 11.775-9.58 21.354-21.355 21.354zm0-30.245c-4.902 0-8.891 3.988-8.891 8.891s3.989 8.891 8.891 8.891c4.903 0 8.891-3.988 8.891-8.891 0-4.902-3.988-8.891-8.891-8.891z" fill="#b74a96"/></g><g><path d="m127.149 325.362c-2.172 0-4.36-.678-6.23-2.083-4.586-3.445-5.511-9.956-2.065-14.542 4.925-6.556 10.273-12.892 15.895-18.832 3.941-4.165 10.515-4.348 14.682-.404 4.166 3.943 4.347 10.516.404 14.682-5.084 5.372-9.92 11.101-14.374 17.03-2.041 2.717-5.157 4.149-8.312 4.149z" fill="#fff"/></g><g><path d="m163.367 288.287c-3.139 0-6.242-1.417-8.284-4.112-3.465-4.571-2.569-11.086 2.003-14.551 1.003-.76 1.996-1.481 2.953-2.144 4.714-3.267 11.185-2.093 14.451 2.622 3.267 4.715 2.093 11.185-2.622 14.452-.757.524-1.5 1.068-2.233 1.623-1.878 1.422-4.082 2.11-6.268 2.11z" fill="#fff"/></g></g><g><path d="m262.394 34.834c0 10.638-8.624 19.263-19.262 19.263-10.639 0-19.263-8.624-19.263-19.263s8.624-19.263 19.263-19.263c10.638 0 19.262 8.624 19.262 19.263z" fill="#ef8bbd"/><path d="m460.453 119.409c0 4.505-3.652 8.158-8.157 8.158s-8.158-3.652-8.158-8.158c0-4.505 3.652-8.158 8.158-8.158 4.505.001 8.157 3.653 8.157 8.158z" fill="#ef8bbd"/><g fill="#f7c4db"><path d="m34.202 1.95 6.544 18.4c.28.788.835 1.412 1.535 1.727l16.348 7.365c2.31 1.041 2.31 4.72 0 5.761l-16.348 7.365c-.7.315-1.255.94-1.535 1.727l-6.544 18.4c-.924 2.6-4.194 2.6-5.118 0l-6.544-18.4c-.28-.788-.835-1.412-1.535-1.727l-16.348-7.365c-2.309-1.041-2.309-4.72 0-5.761l16.348-7.365c.7-.316 1.255-.94 1.535-1.727l6.544-18.4c.924-2.6 4.194-2.6 5.118 0z"/><path d="m482.916 1.95 6.544 18.4c.28.788.835 1.412 1.535 1.727l16.348 7.365c2.309 1.041 2.309 4.72 0 5.761l-16.348 7.365c-.7.315-1.255.94-1.535 1.727l-6.544 18.4c-.924 2.6-4.194 2.6-5.118 0l-6.544-18.4c-.28-.788-.835-1.412-1.535-1.727l-16.348-7.365c-2.309-1.041-2.309-4.72 0-5.761l16.348-7.365c.7-.316 1.255-.94 1.535-1.727l6.544-18.4c.925-2.6 4.194-2.6 5.118 0z"/><path d="m348.116 69.244 8.992 24.805c.385 1.062 1.147 1.904 2.109 2.329l22.463 9.929c3.174 1.403 3.174 6.364 0 7.766l-22.463 9.929c-.962.425-1.724 1.267-2.109 2.329l-8.992 24.805c-1.27 3.505-5.763 3.505-7.033 0l-8.992-24.805c-.385-1.062-1.147-1.904-2.109-2.329l-22.463-9.929c-3.174-1.403-3.174-6.363 0-7.766l22.463-9.929c.962-.425 1.724-1.267 2.109-2.329l8.992-24.805c1.27-3.505 5.762-3.505 7.033 0z"/></g></g></g></svg>