<svg id="Capa_1" enable-background="new 0 0 512 512" height="512" viewBox="0 0 512 512" width="512" xmlns="http://www.w3.org/2000/svg"><g><g><path d="m222.593 249.258h60.911v247.973h-60.911z" fill="#a183e2"/><path d="m222.593 332.717h60.911v51.721h-60.911z" fill="#9762e2"/><path d="m314.914 509.379h-123.731c-14.491 0-26.237-11.747-26.237-26.237 0-14.491 11.747-26.237 26.237-26.237h123.731c14.49 0 26.237 11.747 26.237 26.237 0 14.49-11.747 26.237-26.237 26.237z" fill="#a183e2"/><g><path d="m278.575 467.3h-50.715c-5.741 0-10.396-4.654-10.396-10.396s4.655-10.396 10.396-10.396h50.714c5.741 0 10.396 4.654 10.396 10.396.001 5.742-4.654 10.396-10.395 10.396z" fill="#7844c1"/></g><path d="m448.819 336.572h-391.542c-16.827 0-30.469-13.641-30.469-30.469v-266.252h452.479v266.252c.001 16.828-13.64 30.469-30.468 30.469z" fill="#e7effa"/><path d="m426.615 39.851v225.399c0 14.571-11.812 26.383-26.383 26.383h-347.041c-14.571 0-26.383-11.812-26.383-26.383v40.853c0 16.827 13.641 30.469 30.469 30.469h391.542c16.827 0 30.469-13.642 30.469-30.469v-266.252z" fill="#dcb6f5"/><path d="m479.976 64.513h-453.856c-8.191 0-14.832-6.64-14.832-14.832v-32.229c0-8.191 6.64-14.832 14.832-14.832h453.856c8.191 0 14.831 6.64 14.831 14.832v32.229c.001 8.192-6.639 14.832-14.831 14.832z" fill="#a183e2"/><g><g fill="#b2e7f1"><path d="m294.058 253.681h-20.399c-4.236 0-7.67-3.434-7.67-7.67v-88.954c0-4.236 3.434-7.67 7.67-7.67h20.399c4.236 0 7.67 3.434 7.67 7.67v88.954c0 4.236-3.434 7.67-7.67 7.67z"/><path d="m357.309 253.681h-20.399c-4.236 0-7.67-3.434-7.67-7.67v-61.316c0-4.236 3.434-7.67 7.67-7.67h20.399c4.236 0 7.67 3.434 7.67 7.67v61.316c0 4.236-3.434 7.67-7.67 7.67z"/><path d="m420.56 253.681h-20.399c-4.236 0-7.67-3.434-7.67-7.67v-36.807c0-4.236 3.434-7.67 7.67-7.67h20.399c4.236 0 7.67 3.434 7.67 7.67v36.807c0 4.236-3.434 7.67-7.67 7.67z"/><path d="m230.807 253.681h-20.399c-4.236 0-7.67-3.434-7.67-7.67v-115.598c0-4.236 3.434-7.67 7.67-7.67h20.399c4.236 0 7.67 3.434 7.67 7.67v115.597c.001 4.237-3.433 7.671-7.67 7.671z"/></g><g><path d="m159.51 259.919h-81.644c-3.445 0-6.238-2.793-6.238-6.238s2.793-6.238 6.238-6.238h81.644c3.445 0 6.238 2.793 6.238 6.238s-2.793 6.238-6.238 6.238z" fill="#ad99c9"/></g><g><path d="m159.51 221.59h-81.644c-3.445 0-6.238-2.793-6.238-6.238s2.793-6.238 6.238-6.238h81.644c3.445 0 6.238 2.793 6.238 6.238s-2.793 6.238-6.238 6.238z" fill="#ad99c9"/></g><g><path d="m159.51 183.261h-81.644c-3.445 0-6.238-2.793-6.238-6.238s2.793-6.238 6.238-6.238h81.644c3.445 0 6.238 2.793 6.238 6.238s-2.793 6.238-6.238 6.238z" fill="#ad99c9"/></g></g></g><g><ellipse cx="424.031" cy="471.936" fill="#a183e2" rx="19.282" ry="19.282" transform="matrix(.23 -.973 .973 .23 -132.703 776.194)"/><circle cx="115.537" cy="396.078" fill="#a183e2" r="8.166"/><g fill="#cab4ef"><path d="m485.816 380.061 6.55 18.418c.28.789.835 1.413 1.536 1.729l16.364 7.373c2.312 1.042 2.312 4.725 0 5.767l-16.364 7.373c-.701.316-1.256.94-1.536 1.729l-6.55 18.418c-.926 2.602-4.198 2.602-5.124 0l-6.55-18.418c-.28-.789-.836-1.413-1.536-1.729l-16.364-7.373c-2.312-1.042-2.312-4.725 0-5.767l16.364-7.373c.701-.316 1.256-.941 1.536-1.729l6.55-18.418c.925-2.603 4.198-2.603 5.124 0z"/><path d="m43.02 413.095 9 24.83c.386 1.063 1.148 1.906 2.111 2.331l22.486 9.939c3.177 1.404 3.177 6.37 0 7.774l-22.486 9.939c-.963.426-1.726 1.268-2.111 2.331l-9 24.83c-1.272 3.508-5.769 3.508-7.04 0l-9.001-24.83c-.385-1.063-1.148-1.905-2.111-2.331l-22.486-9.939c-3.177-1.404-3.177-6.37 0-7.774l22.486-9.939c.963-.426 1.726-1.268 2.111-2.331l9.001-24.83c1.271-3.508 5.769-3.508 7.04 0z"/></g></g></g></svg>