<svg id="Capa_1" enable-background="new 0 0 512 512" height="512" viewBox="0 0 512 512" width="512" xmlns="http://www.w3.org/2000/svg"><g><g><path d="m231.908 512h-97.98c-14.869 0-26.923-12.054-26.923-26.922v-385.744c0-14.869 12.054-26.923 26.923-26.923h97.98c14.869 0 26.923 12.054 26.923 26.923v385.743c0 14.869-12.054 26.923-26.923 26.923z" fill="#8bb6ef"/><path d="m231.908 72.412h-26.29c12.411 0 22.473 10.062 22.473 22.473v339.097c0 12.412-10.061 22.473-22.473 22.473h-76.14c-12.411 0-22.473-10.061-22.473-22.473v51.096c0 14.869 12.054 26.923 26.923 26.923h97.98c14.869 0 26.923-12.054 26.923-26.923v-385.744c0-14.869-12.054-26.922-26.923-26.922z" fill="#8388ef"/><circle cx="182.918" cy="427.827" fill="#b2e7f1" r="42.811"/><circle cx="182.918" cy="427.827" fill="#a183e2" r="19.987"/><path d="m212.952 293.87h-60.068c-8.37 0-15.154-6.785-15.154-15.154v-123.181c0-8.369 6.785-15.154 15.154-15.154h60.068c8.37 0 15.154 6.785 15.154 15.154v123.181c0 8.369-6.785 15.154-15.154 15.154z" fill="#e7effa"/><path d="m228.106 181.665v-26.13c0-8.37-6.785-15.154-15.154-15.154h-60.068c-8.37 0-15.154 6.785-15.154 15.154v26.13z" fill="#b2e7f1"/><path d="m383.734 512h-97.98c-14.869 0-26.922-12.054-26.922-26.922v-385.744c0-14.869 12.053-26.923 26.922-26.923h97.98c14.869 0 26.923 12.054 26.923 26.923v385.743c-.001 14.869-12.055 26.923-26.923 26.923z" fill="#ffe266"/><path d="m383.734 72.412h-26.319c12.436 0 22.517 10.081 22.517 22.517v340.475c0 12.436-10.081 22.517-22.517 22.517h-76.067c-12.436 0-22.517-10.081-22.517-22.517v49.673c0 14.869 12.053 26.923 26.922 26.923h97.98c14.869 0 26.923-12.054 26.923-26.923v-385.743c0-14.869-12.053-26.922-26.922-26.922z" fill="#efaa66"/><circle cx="334.743" cy="427.827" fill="#b2e7f1" r="42.811"/><circle cx="334.743" cy="427.827" fill="#a183e2" r="19.987"/><path d="m364.777 293.87h-60.068c-8.37 0-15.154-6.785-15.154-15.154v-123.181c0-8.369 6.785-15.154 15.154-15.154h60.068c8.37 0 15.154 6.785 15.154 15.154v123.181c.001 8.369-6.784 15.154-15.154 15.154z" fill="#e7effa"/><path d="m379.932 181.665v-26.13c0-8.37-6.785-15.154-15.154-15.154h-60.068c-8.37 0-15.154 6.785-15.154 15.154v26.13z" fill="#b2e7f1"/><g><g><path d="m202.904 231.038h-39.974c-3.42 0-6.193-2.773-6.193-6.193s2.773-6.193 6.193-6.193h39.974c3.42 0 6.193 2.773 6.193 6.193s-2.772 6.193-6.193 6.193z" fill="#ad99c9"/></g><g><path d="m202.904 252.751h-39.974c-3.42 0-6.193-2.773-6.193-6.193s2.773-6.193 6.193-6.193h39.974c3.42 0 6.193 2.773 6.193 6.193.001 3.42-2.772 6.193-6.193 6.193z" fill="#ad99c9"/></g></g><g><g><path d="m354.731 231.038h-39.974c-3.42 0-6.193-2.773-6.193-6.193s2.773-6.193 6.193-6.193h39.974c3.42 0 6.193 2.773 6.193 6.193s-2.773 6.193-6.193 6.193z" fill="#ad99c9"/></g><g><path d="m354.731 252.751h-39.974c-3.42 0-6.193-2.773-6.193-6.193s2.773-6.193 6.193-6.193h39.974c3.42 0 6.193 2.773 6.193 6.193s-2.773 6.193-6.193 6.193z" fill="#ad99c9"/></g></g><g><path d="m343.454 342.789c-3.42 0-6.193-2.773-6.193-6.193v-10.978c0-3.42 2.773-6.193 6.193-6.193s6.193 2.773 6.193 6.193v10.978c.001 3.42-2.772 6.193-6.193 6.193z" fill="#d0844b"/></g><g><path d="m370.943 366.65c-3.42 0-6.193-2.773-6.193-6.193v-10.978c0-3.42 2.773-6.193 6.193-6.193s6.193 2.773 6.193 6.193v10.978c.001 3.42-2.772 6.193-6.193 6.193z" fill="#d0844b"/></g><g><path d="m175.688 119.119c-5.623 0-10.227-4.513-10.317-10.157-.092-5.7 4.455-10.395 10.155-10.486 8.805-.142 18.07-.142 27.532 0 5.7.085 10.252 4.775 10.167 10.475-.084 5.648-4.689 10.168-10.318 10.168-.052 0-.104 0-.157-.001-9.251-.138-18.299-.138-26.894-.001-.056.002-.112.002-.168.002z" fill="#fff"/></g><g><path d="m142.662 119.119h-4.932c-5.701 0-10.322-4.621-10.322-10.322s4.621-10.322 10.322-10.322h4.932c5.701 0 10.322 4.621 10.322 10.322s-4.622 10.322-10.322 10.322z" fill="#fff"/></g></g><g><path d="m96.264 35.359c0 10.573-8.571 19.144-19.144 19.144s-19.144-8.571-19.144-19.144 8.571-19.144 19.144-19.144c10.572 0 19.144 8.571 19.144 19.144z" fill="#ffe266"/><ellipse cx="388.039" cy="8.107" fill="#ffe266" rx="8.107" ry="8.107" transform="matrix(.925 -.381 .381 .925 26.148 148.376)"/><g fill="#fef2a8"><path d="m31.607 91.961 6.504 18.287c.278.783.83 1.403 1.525 1.717l16.247 7.32c2.295 1.034 2.295 4.691 0 5.726l-16.247 7.32c-.696.313-1.247.934-1.525 1.717l-6.504 18.287c-.919 2.583-4.168 2.583-5.087 0l-6.504-18.287c-.278-.783-.829-1.403-1.525-1.717l-16.247-7.32c-2.295-1.034-2.295-4.691 0-5.726l16.247-7.32c.696-.313 1.247-.934 1.525-1.717l6.504-18.287c.919-2.584 4.168-2.584 5.087 0z"/><path d="m475.754 10.719 8.936 24.653c.383 1.056 1.14 1.892 2.096 2.314l22.325 9.868c3.154 1.394 3.154 6.324 0 7.719l-22.325 9.868c-.956.423-1.713 1.259-2.096 2.314l-8.936 24.653c-1.262 3.483-5.727 3.483-6.99 0l-8.936-24.653c-.383-1.055-1.14-1.892-2.096-2.314l-22.325-9.868c-3.154-1.394-3.154-6.324 0-7.719l22.325-9.868c.956-.423 1.713-1.259 2.096-2.314l8.936-24.653c1.263-3.482 5.728-3.482 6.99 0z"/></g></g></g></svg>