<svg id="Capa_1" enable-background="new 0 0 512 512" height="512" viewBox="0 0 512 512" width="512" xmlns="http://www.w3.org/2000/svg"><g><g><g fill="#ffe266"><path d="m248.042 425.286c-10.98 0-7.288-7.201-16.497-17.716-1.835-2.251-13.63-8.44-25.677-8.44s-19.838 4.442-21.673 6.693c-9.784 7.343-9.52 19.463-20.5 19.463-11.337 0-20.528-9.19-20.528-20.528 0-14.145 8.041-27.244 22.061-35.94 11.171-6.928 25.603-10.743 40.64-10.743s29.469 3.815 40.64 10.743c14.02 8.695 22.061 21.794 22.061 35.94.001 11.338-9.189 20.528-20.527 20.528z"/><path d="m395.63 430.531c-2.404.427-4.937.354-7.455-.304-9.336-2.437-14.928-11.979-12.492-21.315l45.118-172.837c.69-2.468 7.298-24.394 26.25-34.044 7.406-3.771 19.529-7.044 35.212-1.215 15.529 5.773 22.725 15.729 26.026 23.064 7.492 16.647 1.439 33.337.724 35.185 0 0-6.733 14.916-22.451 10.2-15.227-4.568-10.146-23.138-10.207-22.961.325-.941 1.04-3.562.583-6.327-.239-1.44-.682-4.12-6.85-6.413-4.605-1.712-6.48-.758-7.184-.399-4.105 2.09-7.596 9.382-8.427 12.218l-44.987 172.354c-1.78 6.817-7.35 11.639-13.86 12.794z"/><path d="m20.517 430.531c-2.404.427-4.937.354-7.455-.304-9.335-2.437-14.928-11.979-12.491-21.315l45.118-172.837c.69-2.468 7.298-24.394 26.25-34.044 7.406-3.771 19.529-7.044 35.212-1.215 15.529 5.773 22.725 15.729 26.026 23.064 7.492 16.647 1.439 33.337.724 35.185 0 0-6.732 14.916-22.451 10.2-15.227-4.568-10.145-23.138-10.207-22.961.325-.941 1.04-3.562.583-6.327-.239-1.44-.682-4.12-6.85-6.413-4.606-1.712-6.48-.758-7.184-.399-4.105 2.09-7.596 9.382-8.427 12.218l-44.988 172.354c-1.78 6.817-7.349 11.639-13.86 12.794z"/></g><path d="m329.233 475.219h-33.526c-35.49 0-64.26-28.77-64.26-64.26 0-35.49 28.77-64.26 64.26-64.26h33.526c35.49 0 64.26 28.77 64.26 64.26 0 35.49-28.77 64.26-64.26 64.26z" fill="#b2e7f1"/><path d="m329.233 346.699h-22.369c27.371 0 49.56 22.189 49.56 49.56 0 27.371-22.189 49.56-49.56 49.56h-25.857c-25.03 0-45.714-18.558-49.072-42.663-.31 2.559-.488 5.159-.488 7.802 0 35.49 28.77 64.26 64.26 64.26h33.526c35.49 0 64.26-28.77 64.26-64.26 0-35.489-28.77-64.259-64.26-64.259z" fill="#a7adf1"/><path d="m118.296 475.219h-33.526c-35.49 0-64.26-28.77-64.26-64.26 0-35.49 28.77-64.26 64.26-64.26h33.526c35.49 0 64.26 28.77 64.26 64.26 0 35.49-28.77 64.26-64.26 64.26z" fill="#b2e7f1"/><path d="m118.296 346.699h-22.369c27.371 0 49.56 22.189 49.56 49.56 0 27.371-22.189 49.56-49.56 49.56h-25.857c-25.03 0-45.714-18.558-49.072-42.663-.31 2.559-.488 5.159-.488 7.802 0 35.49 28.77 64.26 64.26 64.26h33.526c35.49 0 64.26-28.77 64.26-64.26 0-35.489-28.77-64.259-64.26-64.259z" fill="#a7adf1"/><path d="m20.532 430.798c-.073 0-.146 0-.221-.001-11.336-.12-20.429-9.407-20.31-20.743.236-22.458 9.157-43.533 25.119-59.343 15.976-15.825 37.16-24.54 59.649-24.54h33.527c16.799 0 33.042 4.909 46.973 14.197 9.433 6.289 11.982 19.034 5.693 28.466-6.288 9.433-19.034 11.982-28.466 5.693-7.166-4.777-15.534-7.302-24.2-7.302h-33.527c-23.853 0-43.464 19.406-43.715 43.261-.119 11.263-9.286 20.312-20.522 20.312z" fill="#ffe266"/><g><path d="m20.51 366.092c-2.688 0-5.374-1.031-7.414-3.091-4.056-4.095-4.025-10.702.07-14.758 9.01-8.926 23.921-20.677 35.366-25.386 5.328-2.192 11.427.35 13.622 5.681 2.193 5.33-.351 11.428-5.681 13.621-8.038 3.307-20.864 13.23-28.619 20.912-2.034 2.014-4.689 3.021-7.344 3.021z" fill="#d0844b"/></g><path d="m393.367 430.798c.073 0 .146 0 .221-.001 11.336-.12 20.429-9.407 20.31-20.743-.237-22.458-9.157-43.533-25.119-59.343-15.976-15.825-37.16-24.54-59.649-24.54h-33.527c-16.799 0-33.041 4.909-46.973 14.197-9.433 6.289-11.982 19.034-5.693 28.466 6.288 9.433 19.034 11.982 28.466 5.693 7.166-4.777 15.534-7.302 24.2-7.302h33.527c23.853 0 43.464 19.406 43.715 43.261.119 11.263 9.286 20.312 20.522 20.312z" fill="#ffe266"/><g><path d="m412.506 406.023c-4.945 0-9.336-3.529-10.254-8.567-2.722-14.937-9.92-28.537-20.817-39.33-4.095-4.056-4.126-10.664-.07-14.758 4.056-4.095 10.664-4.126 14.758-.07 13.95 13.817 23.17 31.251 26.662 50.417 1.033 5.67-2.725 11.104-8.396 12.138-.632.114-1.262.17-1.883.17z" fill="#d0844b"/></g><g><path d="m73.841 430.607c-5.76 0-10.432-4.667-10.436-10.428-.001-1.949.141-3.881.422-5.742.863-5.699 6.176-9.62 11.88-8.757 5.699.862 9.619 6.181 8.757 11.88-.125.826-.188 1.702-.188 2.604.004 5.764-4.665 10.439-10.429 10.444-.001-.001-.004-.001-.006-.001z" fill="#fff"/></g><g><path d="m268.418 430.607c-5.76 0-10.432-4.667-10.436-10.428-.001-1.949.141-3.881.422-5.742.863-5.699 6.179-9.62 11.88-8.757 5.699.862 9.62 6.181 8.757 11.88-.125.826-.189 1.702-.188 2.604.004 5.764-4.665 10.439-10.429 10.444-.001-.001-.004-.001-.006-.001z" fill="#fff"/></g><g><path d="m119.82 410.906c-.995 0-2.007-.143-3.008-.444-5.324-1.6-10.998-2.173-16.876-1.695-5.745.466-10.778-3.815-11.245-9.558-.465-5.745 3.815-10.779 9.559-11.245 8.471-.687 16.742.157 24.57 2.51 5.52 1.659 8.649 7.478 6.99 12.998-1.358 4.517-5.503 7.434-9.99 7.434z" fill="#fff"/></g></g><g><path d="m202.29 56.136c0 10.69-8.666 19.355-19.355 19.355-10.69 0-19.355-8.665-19.355-19.355s8.666-19.355 19.355-19.355 19.355 8.665 19.355 19.355z" fill="#ffe266"/><path d="m355.773 95.003c0 4.527-3.67 8.197-8.197 8.197s-8.197-3.67-8.197-8.197 3.67-8.197 8.197-8.197 8.197 3.67 8.197 8.197z" fill="#ffe266"/><g fill="#fef2a8"><path d="m69.14 65.875 6.575 18.489c.281.791.839 1.419 1.542 1.736l16.427 7.4c2.321 1.046 2.321 4.743 0 5.789l-16.426 7.401c-.703.317-1.261.944-1.542 1.736l-6.575 18.488c-.929 2.612-4.214 2.612-5.143 0l-6.575-18.488c-.281-.792-.839-1.419-1.542-1.736l-16.426-7.401c-2.321-1.045-2.321-4.743 0-5.789l16.426-7.401c.703-.317 1.261-.944 1.542-1.736l6.575-18.489c.928-2.611 4.213-2.611 5.142.001z"/><path d="m297.086 140.362 9.035 24.924c.387 1.067 1.153 1.913 2.119 2.34l22.571 9.977c3.189 1.409 3.189 6.394 0 7.804l-22.571 9.977c-.966.427-1.732 1.273-2.119 2.34l-9.035 24.924c-1.277 3.521-5.791 3.521-7.067 0l-9.035-24.924c-.387-1.067-1.153-1.913-2.119-2.34l-22.571-9.977c-3.189-1.41-3.189-6.394 0-7.804l22.571-9.977c.966-.427 1.732-1.273 2.119-2.34l9.035-24.924c1.277-3.521 5.791-3.521 7.067 0z"/><path d="m458.144 39.585 9.035 24.924c.387 1.067 1.153 1.913 2.119 2.34l22.571 9.977c3.189 1.409 3.189 6.394 0 7.804l-22.571 9.977c-.966.427-1.732 1.273-2.119 2.34l-9.035 24.924c-1.276 3.521-5.79 3.521-7.067 0l-9.035-24.924c-.387-1.067-1.153-1.913-2.119-2.34l-22.571-9.977c-3.189-1.41-3.189-6.394 0-7.804l22.571-9.977c.966-.427 1.732-1.273 2.119-2.34l9.035-24.924c1.277-3.521 5.791-3.521 7.067 0z"/></g></g></g></svg>