<svg id="Capa_1" enable-background="new 0 0 512 512" height="512" viewBox="0 0 512 512" width="512" xmlns="http://www.w3.org/2000/svg"><g><g><g><path d="m167.729 406.968h43.534c10.472 0 19.365-8.14 19.169-18.086-.19-9.645-8.48-17.409-18.679-17.409h-44.023c-5.629 0-10.193-4.335-10.193-9.683v-66.405c0-10.483-9.273-19.16-20.27-18.281-9.575.765-17.095 8.391-17.095 17.684v67.002c-.002 24.951 21.291 45.178 47.557 45.178z" fill="#cab4ef"/><g fill="#cab4ef"><path d="m234.632 512h-1.034c-10.979 0-19.879-8.9-19.879-19.879v-191.866h40.793v191.865c-.001 10.98-8.901 19.88-19.88 19.88z"/><path d="m349.028 510.941h-1.034c-10.979 0-19.879-8.9-19.879-19.879v-191.866h40.793v191.865c0 10.979-8.901 19.88-19.88 19.88z"/></g><path d="m383.679 310.244 18.89-131.153c6.813-47.303-31.889-89.44-82.149-89.44h-59.455c-50.555 0-89.342 42.608-82.046 90.13l20.028 130.464c2.922 13.766 15.655 23.666 30.438 23.666h123.856c14.783-.001 27.516-9.902 30.438-23.667z" fill="#bdf4e3"/><path d="m320.419 89.651h-26.616c40.865 0 72.332 34.261 66.793 72.721l-15.359 106.637c-2.376 11.193-12.728 19.242-24.748 19.242h-100.703c-12.02 0-25.193-7.583-27.569-18.776l6.73 40.769c2.922 13.765 15.655 23.666 30.438 23.666h123.856c14.783 0 27.516-9.901 30.438-23.666l18.889-131.153c6.813-47.303-31.889-89.44-82.149-89.44z" fill="#b1b7e3"/><path d="m386.655 421.629h-190.684c-30.545 0-30.545-50.487 0-50.487h190.684c30.602.002 30.602 50.488 0 50.487z" fill="#bdf4e3"/><path d="m285.469 256.826h-156.021c-11.166 0-20.217 9.051-20.217 20.217 0 11.166 9.051 20.217 20.217 20.217h156.021c11.166 0 20.217-9.052 20.217-20.217 0-11.166-9.051-20.217-20.217-20.217z" fill="#78eac4"/></g><g fill="#90e0c5"><ellipse cx="229.859" cy="177.584" rx="12.921" ry="12.921" transform="matrix(.152 -.988 .988 .152 19.349 377.726)"/><ellipse cx="351.523" cy="177.584" rx="12.921" ry="12.921" transform="matrix(.161 -.987 .987 .161 119.716 495.971)"/></g><g><path d="m253.038 131.642c-4.642 0-8.839-3.189-9.928-7.905-1.267-5.487 2.154-10.964 7.642-12.231l.799-.188c.983-.236 1.409-.31 2.402-.418l.83-.094c5.586-.658 10.662 3.341 11.321 8.935.659 5.593-3.341 10.662-8.935 11.321l-.93.105-.897.211c-.773.179-1.545.264-2.304.264z" fill="#fff"/></g><g><path d="m213.709 159.306c-1.564 0-3.15-.361-4.637-1.121-5.014-2.566-6.998-8.711-4.432-13.724 2.415-4.719 7.451-13.447 14.04-18.877 4.347-3.582 10.774-2.962 14.356 1.384s2.962 10.774-1.384 14.355c-2.62 2.159-6.095 7.038-8.855 12.43-1.806 3.526-5.381 5.553-9.088 5.553z" fill="#fff"/></g><g><path d="m351.523 291.928c-3.379 0-6.119-2.74-6.119-6.119v-13.02c0-3.379 2.74-6.119 6.119-6.119s6.119 2.74 6.119 6.119v13.02c0 3.38-2.74 6.119-6.119 6.119z" fill="#90e0c5"/></g><g><path d="m332.591 254.991c-3.379 0-6.119-2.74-6.119-6.119v-13.02c0-3.379 2.74-6.119 6.119-6.119s6.119 2.74 6.119 6.119v13.02c-.001 3.379-2.74 6.119-6.119 6.119z" fill="#90e0c5"/></g></g><g><ellipse cx="473.465" cy="223.448" fill="#78eac4" rx="18.914" ry="18.914" transform="matrix(.232 -.973 .973 .232 146.426 632.281)"/><circle cx="91.909" cy="49.085" fill="#78eac4" r="8.01"/><g fill="#bdf4e3"><path d="m173.908 1.914 6.425 18.067c.275.773.82 1.386 1.507 1.696l16.052 7.232c2.268 1.022 2.268 4.635 0 5.657l-16.052 7.232c-.687.31-1.232.923-1.507 1.696l-6.425 18.067c-.908 2.553-4.118 2.553-5.026 0l-6.425-18.067c-.275-.774-.82-1.386-1.507-1.696l-16.052-7.232c-2.268-1.022-2.268-4.635 0-5.657l16.052-7.232c.687-.31 1.232-.923 1.507-1.696l6.425-18.067c.908-2.552 4.118-2.552 5.026 0z"/><path d="m466.002 301.11 6.425 18.067c.275.773.82 1.387 1.507 1.696l16.052 7.232c2.268 1.022 2.268 4.635 0 5.657l-16.052 7.232c-.687.31-1.232.923-1.507 1.696l-6.425 18.067c-.908 2.552-4.118 2.552-5.026 0l-6.425-18.067c-.275-.774-.82-1.387-1.507-1.696l-16.052-7.232c-2.268-1.022-2.268-4.635 0-5.657l16.052-7.232c.687-.31 1.232-.923 1.507-1.696l6.425-18.067c.908-2.552 4.118-2.552 5.026 0z"/><path d="m61.82 115.226 8.829 24.356c.378 1.043 1.126 1.869 2.071 2.287l22.057 9.749c3.116 1.377 3.116 6.248 0 7.626l-22.057 9.749c-.944.417-1.693 1.244-2.071 2.287l-8.829 24.356c-1.247 3.441-5.658 3.441-6.906 0l-8.829-24.356c-.378-1.043-1.126-1.869-2.071-2.287l-22.057-9.749c-3.116-1.377-3.116-6.248 0-7.626l22.057-9.749c.944-.418 1.693-1.244 2.071-2.287l8.829-24.356c1.248-3.441 5.659-3.441 6.906 0z"/></g></g></g></svg>