<svg id="Capa_1" enable-background="new 0 0 512 512" height="512" viewBox="0 0 512 512" width="512" xmlns="http://www.w3.org/2000/svg"><g><g><g fill="#d49c8d"><path d="m259.379 511.187h-14.189c-10.348 0-18.737-8.389-18.737-18.737v-461.269c0-10.348 8.389-18.737 18.737-18.737h14.189c10.348 0 18.737 8.389 18.737 18.737v461.27c0 10.347-8.389 18.736-18.737 18.736z"/><path d="m135.723 511.187h-31.268c-5.639 0-10.21-4.571-10.21-10.21l31.575-137.817h51.688l-31.574 137.817c-.001 5.639-4.573 10.21-10.211 10.21z"/><path d="m368.846 511.187h31.268c5.639 0 10.21-4.571 10.21-10.21l-31.574-137.817h-51.688l31.574 137.817c1.899 5.932 4.571 10.21 10.21 10.21z"/><path d="m78.412 371.668v-20.39c0-8.643 7.006-15.649 15.649-15.649h316.445c8.643 0 15.649 7.007 15.649 15.649v20.39c0 8.643-7.006 15.649-15.649 15.649h-316.444c-8.643 0-15.65-7.006-15.65-15.649z"/></g><path d="m374.824 58.35h-245.079c-10.396 0-18.824 8.428-18.824 18.824v239.631c0 10.396 8.428 18.824 18.824 18.824h245.079c10.396 0 18.824-8.428 18.824-18.824v-239.631c-.001-10.396-8.428-18.824-18.824-18.824z" fill="#e7effa"/><path d="m374.824 58.35h-48.451c8.576 0 15.529 6.952 15.529 15.529v199.923c0 8.577-6.953 15.53-15.529 15.53h-199.923c-8.576 0-15.529-6.953-15.529-15.53v43.003c0 10.396 8.428 18.824 18.824 18.824h245.079c10.396 0 18.824-8.428 18.824-18.824v-239.631c-.001-10.396-8.428-18.824-18.824-18.824z" fill="#dcb6f5"/><path d="m226.453 387.317h51.662v38.228h-51.662z" fill="#c7758d"/><path d="m393.042 425.545h-51.688l-8.758-38.228h51.688z" fill="#c7758d"/><path d="m111.595 425.243 51.62.302 8.758-38.228h-51.689z" fill="#c7758d"/><g><path d="m346.267 281.16c-3.415 0-6.184-2.769-6.184-6.184v-13.16c0-3.415 2.769-6.184 6.184-6.184s6.184 2.769 6.184 6.184v13.16c0 3.415-2.769 6.184-6.184 6.184z" fill="#ad99c9"/></g><g><path d="m289.422 300.675c-3.415 0-6.184-2.769-6.184-6.184v-13.159c0-3.415 2.769-6.184 6.184-6.184s6.184 2.769 6.184 6.184v13.159c0 3.415-2.769 6.184-6.184 6.184z" fill="#ad99c9"/></g><g><path d="m315.548 235.044c-3.415 0-6.184-2.769-6.184-6.184v-13.159c0-3.415 2.769-6.184 6.184-6.184s6.184 2.769 6.184 6.184v13.159c0 3.416-2.769 6.184-6.184 6.184z" fill="#ad99c9"/></g></g><g><path d="m455.002 19.929c0 10.557-8.559 19.116-19.116 19.116-10.558 0-19.116-8.558-19.116-19.116s8.559-19.116 19.116-19.116c10.557 0 19.116 8.558 19.116 19.116z" fill="#ffa585"/><circle cx="8.095" cy="149.166" fill="#ffa585" r="8.095"/><g fill="#ffc7b6"><path d="m486.041 127.119 6.494 18.26c.278.782.828 1.401 1.523 1.714l16.223 7.309c2.292 1.033 2.292 4.684 0 5.717l-16.223 7.309c-.695.313-1.245.932-1.523 1.714l-6.494 18.26c-.918 2.58-4.162 2.58-5.079 0l-6.494-18.26c-.278-.782-.828-1.401-1.523-1.714l-16.223-7.309c-2.292-1.033-2.292-4.685 0-5.717l16.223-7.309c.695-.313 1.245-.933 1.523-1.714l6.494-18.26c.917-2.58 4.161-2.58 5.079 0z"/><path d="m42.65 3.421 8.923 24.616c.382 1.054 1.138 1.889 2.093 2.311l22.292 9.854c3.149 1.392 3.149 6.315 0 7.707l-22.292 9.854c-.955.422-1.711 1.257-2.093 2.311l-8.923 24.616c-1.261 3.478-5.719 3.478-6.98 0l-8.923-24.616c-.382-1.054-1.138-1.889-2.093-2.311l-22.292-9.854c-3.149-1.392-3.149-6.315 0-7.707l22.292-9.854c.955-.422 1.711-1.257 2.093-2.311l8.923-24.616c1.261-3.478 5.719-3.478 6.98 0z"/></g></g></g></svg>