<svg id="Capa_1" enable-background="new 0 0 512 512" height="512" viewBox="0 0 512 512" width="512" xmlns="http://www.w3.org/2000/svg"><g><g><path d="m270.392 185.331h-29.928c-10.673 0-19.326-8.652-19.326-19.326v-85.999c0-10.673 8.652-19.326 19.326-19.326h29.928c10.673 0 19.326 8.652 19.326 19.326v85.999c0 10.674-8.653 19.326-19.326 19.326z" fill="#b2e7f1"/><path d="m454.527 508.289h-397.055c-31.741 0-57.472-25.731-57.472-57.472v-232.425c0-31.741 25.731-57.473 57.472-57.473h397.055c31.741 0 57.473 25.731 57.473 57.473v232.425c0 31.741-25.731 57.472-57.473 57.472z" fill="#ffe266"/><path d="m454.527 160.919h-59.292c26.701 0 48.346 21.646 48.346 48.347v187.029c0 26.701-21.645 48.346-48.346 48.346h-346.889c-26.701-.001-48.346-21.646-48.346-48.347v54.523c0 31.741 25.731 57.472 57.472 57.472h397.055c31.741 0 57.473-25.731 57.473-57.472v-232.425c0-31.742-25.731-57.473-57.473-57.473z" fill="#efaa66"/><path d="m199.641 396.734h-124.874c-13.333 0-24.143-10.809-24.143-24.142v-138.195c0-13.333 10.809-24.142 24.143-24.142h124.875c13.334 0 24.142 10.809 24.142 24.142v138.195c0 13.333-10.809 24.142-24.143 24.142z" fill="#e7effa"/><g><path d="m181.626 396.734v-12.009c0-24.533-19.888-44.421-44.421-44.421-24.533 0-44.421 19.888-44.421 44.421v12.009z" fill="#8bb6ef"/><path d="m149.995 358.107h-25.071c-31.154 0-56.41-25.256-56.41-56.41 0-31.154 25.256-56.41 56.41-56.41h25.071c31.154 0 56.41 25.256 56.41 56.41 0 31.155-25.255 56.41-56.41 56.41z" fill="#ffc7b6"/><g fill="#d08372"><path d="m115.872 326.832c0 3.478-2.82 6.297-6.297 6.297-3.478 0-6.297-2.819-6.297-6.297s2.819-6.297 6.297-6.297 6.297 2.819 6.297 6.297z"/><path d="m171.642 326.832c0 3.478-2.819 6.297-6.297 6.297s-6.297-2.819-6.297-6.297 2.82-6.297 6.297-6.297 6.297 2.819 6.297 6.297z"/></g><path d="m201.225 325.885c6.736-4.17 13.159-12.451 13.245-21.565v-6.619c0-36.655-29.714-66.369-66.369-66.369h-21.792c-36.655 0-66.369 29.714-66.369 66.369v6.619c.468 11.621 7.418 17.823 12.336 21.886 29.251-13.32 65.628-34.927 92.704-60.09 9.573 23.248 20.513 41.299 36.245 59.769z" fill="#b07676"/></g><g><path d="m436.802 455.286c-.029 0-.058 0-.087 0-20.367-.163-41.367-.271-64.201-.332-5.879-.016-10.632-4.793-10.617-10.673.016-5.869 4.779-10.617 10.644-10.617h.029c22.872.06 43.91.168 64.315.332 5.879.048 10.607 4.852 10.56 10.73-.047 5.849-4.804 10.56-10.643 10.56z" fill="#d0844b"/></g><g><path d="m272.74 454.966c-5.868 0-10.632-4.75-10.645-10.621-.013-5.879 4.743-10.655 10.621-10.669l8.033-.019c16.931-.039 25.484-.058 45.29-.046 5.879.004 10.642 4.773 10.638 10.652-.004 5.877-4.77 10.638-10.645 10.638-.002 0-.004 0-.007 0-19.768-.007-28.317.007-45.226.046l-8.035.019c-.009 0-.017 0-.024 0z" fill="#d0844b"/></g><g><path d="m155.884 455.286c-5.856 0-10.617-4.733-10.644-10.595-.027-5.88 4.716-10.668 10.596-10.695 23.794-.11 47.477-.193 70.39-.246h.025c5.868 0 10.631 4.75 10.645 10.62.014 5.88-4.741 10.657-10.621 10.67-22.897.053-46.562.135-70.34.246-.017 0-.034 0-.051 0z" fill="#d0844b"/></g><g><path d="m103.318 455.286c-.162 0-.323-.003-.486-.01-9.49-.426-17.613-.426-27.157 0-5.853.266-10.847-4.286-11.11-10.16-.262-5.873 4.287-10.848 10.16-11.11 10.077-.45 19.039-.448 29.062 0 5.873.264 10.421 5.239 10.156 11.112-.255 5.71-4.966 10.168-10.625 10.168z" fill="#d0844b"/></g><g><path d="m443.582 253.041h-164.061c-3.527 0-6.387-2.86-6.387-6.387s2.86-6.387 6.387-6.387h164.062c3.527 0 6.387 2.86 6.387 6.387-.001 3.527-2.861 6.387-6.388 6.387z" fill="#d0844b"/></g><g><path d="m443.582 350.578h-164.061c-3.527 0-6.387-2.86-6.387-6.387s2.86-6.387 6.387-6.387h164.062c3.527 0 6.387 2.86 6.387 6.387-.001 3.528-2.861 6.387-6.388 6.387z" fill="#d0844b"/></g><g><path d="m372.542 301.81h-93.021c-3.527 0-6.387-2.86-6.387-6.387s2.86-6.387 6.387-6.387h93.021c3.527 0 6.387 2.86 6.387 6.387s-2.86 6.387-6.387 6.387z" fill="#d0844b"/></g></g><g><path d="m381.294 26.474c0 10.904-8.839 19.743-19.743 19.743s-19.743-8.839-19.743-19.743 8.839-19.743 19.743-19.743 19.743 8.839 19.743 19.743z" fill="#ffe266"/><ellipse cx="111.6" cy="96.728" fill="#ffe266" rx="8.361" ry="8.361" transform="matrix(.924 -.383 .383 .924 -28.521 50.071)"/><g fill="#fef2a8"><path d="m475.639 61.903 6.707 18.859c.287.807.855 1.447 1.573 1.771l16.756 7.549c2.367 1.067 2.367 4.838 0 5.905l-16.756 7.549c-.718.323-1.286.963-1.573 1.771l-6.707 18.859c-.948 2.664-4.299 2.664-5.246 0l-6.707-18.859c-.287-.808-.855-1.447-1.573-1.771l-16.756-7.549c-2.367-1.066-2.367-4.838 0-5.905l16.756-7.549c.717-.323 1.286-.963 1.573-1.771l6.707-18.859c.947-2.664 4.298-2.664 5.246 0z"/><path d="m45.191 6.405 9.216 25.424c.395 1.089 1.176 1.951 2.161 2.387l23.024 10.177c3.253 1.438 3.253 6.522 0 7.96l-23.023 10.176c-.986.436-1.767 1.298-2.161 2.387l-9.217 25.424c-1.302 3.592-5.907 3.592-7.209 0l-9.216-25.424c-.395-1.089-1.176-1.951-2.162-2.387l-23.023-10.177c-3.253-1.438-3.253-6.522 0-7.96l23.024-10.177c.986-.436 1.767-1.298 2.162-2.387l9.216-25.424c1.302-3.591 5.906-3.591 7.208.001z"/></g></g></g></svg>