<svg id="Capa_1" enable-background="new 0 0 512 512" height="512" viewBox="0 0 512 512" width="512" xmlns="http://www.w3.org/2000/svg"><g><g><g><path d="m135.75 470.573 24.828-48.882-65.783-65.782-48.882 24.827" fill="#fef2a8"/></g><path d="m229.206 33.085h93.321v415.069h-93.321z" fill="#fef2a8" transform="matrix(.707 .707 -.707 .707 250.942 -124.591)"/><path d="m461.435 136.629c8.961-8.961 14.344-20.139 16.176-31.767l34.389-45.704-54.304-54.303-46.073 34.02c-11.629 1.832-22.806 7.215-31.767 16.176s-14.345 20.139-16.176 31.767l-40.046 40.046 65.988 65.988 40.046-40.046c11.628-1.832 22.806-7.216 31.767-16.177z" fill="#fef2a8"/><g fill="#ffe266"><path d="m379.455 199.045-62.013-62.013c-8.798-8.798-8.798-23.061 0-31.858 8.797-8.798 23.061-8.798 31.858 0l62.013 62.013c8.797 8.798 8.797 23.061 0 31.858-8.797 8.797-23.061 8.797-31.858 0z"/><path d="m158.693 419.806-62.013-62.013c-8.798-8.797-8.798-23.061 0-31.858 8.797-8.797 23.061-8.797 31.858 0l62.013 62.013c8.797 8.797 8.797 23.061 0 31.858-8.797 8.798-23.06 8.798-31.858 0z"/><path d="m102.008 500.547-86.069-86.068c-8.797-8.797-8.797-23.061 0-31.858 8.797-8.797 23.061-8.797 31.858 0l86.069 86.069c8.798 8.797 8.798 23.061 0 31.858-8.797 8.797-23.061 8.797-31.858-.001z"/></g><path d="m457.696 4.855-20.25 14.953 21.678 21.677c7.691 7.691 8.548 19.871 2.008 28.563l-20.287 26.962c-1.688 10.715-6.649 21.015-14.906 29.272-8.258 8.258-20.141 14.497-30.857 16.186l-4.335 4.153c6.338 8.144 4.754 21.642-2.731 29.127s-20.65 9.402-28.794 3.065l-191.277 186.53c6.338 8.144 4.884 20.789-2.601 28.274-8.107 8.107-22.255 10.587-30.361 2.48l-21.247 52.463s11.033 8.705 2.926 16.811c-8.107 8.107-13.823 4.365-21.93-3.742l-78.895-78.894c-8.689 8.806-8.659 22.984.102 31.746l86.069 86.068c8.798 8.798 23.061 8.798 31.858 0 8.798-8.797 8.798-23.061 0-31.858l1.884 1.884 24.827-48.882-1.884-1.885c8.797 8.798 23.061 8.798 31.858 0 8.123-8.123 8.728-20.897 1.85-29.734l189.177-189.177c8.837 6.877 21.611 6.272 29.734-1.85 8.123-8.123 8.728-20.897 1.85-29.734l16.505-16.505c11.629-1.832 22.806-7.215 31.767-16.177 8.961-8.96 14.344-20.138 16.176-31.767l34.39-45.706z" fill="#eeb6a8"/><path d="m411.313 199.044c8.797-8.797 8.797-23.061 0-31.858l-20.566-20.565c6.338 8.144 4.754 21.642-2.731 29.127s-20.65 9.402-28.794 3.065l20.233 20.233c8.797 8.796 23.061 8.796 31.858-.002z" fill="#efaa66"/><path d="m190.552 387.948-22.606-22.606c6.337 8.143 4.884 20.789-2.602 28.273-8.106 8.107-22.253 10.587-30.36 2.482l23.709 23.709c8.797 8.797 23.061 8.797 31.858 0 8.798-8.797 8.798-23.061.001-31.858z" fill="#efaa66"/><path d="m116.298 451.12c2.668 3.18 5.768 8.846.364 14.25-8.107 8.107-13.823 4.364-21.93-3.743l-78.895-78.894c0 .001-.001.001-.001.001-8.688 8.806-8.658 22.984.103 31.745l86.069 86.068c8.798 8.797 23.061 8.797 31.858 0 8.798-8.797 8.798-23.061 0-31.858z" fill="#efaa66"/><g fill="#d08372"><ellipse cx="316.43" cy="200.056" rx="13.057" ry="13.057" transform="matrix(.788 -.615 .615 .788 -56.099 237.105)"/><circle cx="275.179" cy="241.307" r="13.057"/><path d="m243.161 291.791c-5.099 5.099-13.366 5.099-18.465 0s-5.099-13.366 0-18.465 13.366-5.099 18.465 0c5.099 5.098 5.099 13.366 0 18.465z"/><path d="m201.91 333.042c-5.099 5.099-13.366 5.099-18.465 0s-5.099-13.366 0-18.465 13.366-5.099 18.465 0c5.099 5.098 5.099 13.366 0 18.465z"/></g><path d="m412.607 87.801c-1.487-1.487-3.86-1.709-5.535-.439-1.02.774-2.01 1.634-2.955 2.579-8.354 8.354-10.105 20.147-3.911 26.34 6.193 6.194 17.986 4.442 26.34-3.911.945-.945 1.805-1.935 2.579-2.955 1.27-1.675 1.048-4.049-.439-5.535z" fill="#b07676"/></g><g><path d="m172.042 59.177c0 10.7-8.674 19.373-19.373 19.373-10.7 0-19.373-8.674-19.373-19.373 0-10.7 8.674-19.373 19.373-19.373 10.7 0 19.373 8.674 19.373 19.373z" fill="#ffe266"/><ellipse cx="144.465" cy="195.204" fill="#ffe266" rx="8.204" ry="8.204" transform="matrix(.16 -.987 .987 .16 -71.313 306.624)"/><g fill="#fef2a8"><path d="m263.244 17.855 6.581 18.506c.282.792.839 1.42 1.543 1.737l16.442 7.407c2.323 1.047 2.323 4.748 0 5.794l-16.442 7.408c-.704.317-1.262.945-1.543 1.737l-6.581 18.506c-.93 2.614-4.218 2.614-5.148 0l-6.581-18.506c-.282-.792-.839-1.42-1.544-1.737l-16.441-7.407c-2.323-1.047-2.323-4.748 0-5.794l16.442-7.407c.704-.317 1.262-.945 1.544-1.737l6.581-18.506c.929-2.616 4.218-2.616 5.147-.001z"/><path d="m43.224 122.629 9.043 24.948c.387 1.068 1.154 1.915 2.121 2.342l22.592 9.986c3.192 1.411 3.192 6.4 0 7.811l-22.592 9.986c-.967.428-1.734 1.274-2.121 2.342l-9.043 24.948c-1.278 3.525-5.796 3.525-7.074 0l-9.043-24.948c-.387-1.068-1.154-1.915-2.121-2.342l-22.592-9.986c-3.192-1.411-3.192-6.4 0-7.811l22.592-9.986c.967-.428 1.734-1.274 2.121-2.342l9.043-24.948c1.278-3.524 5.797-3.524 7.074 0z"/></g></g></g></svg>