<svg id="Capa_1" enable-background="new 0 0 512 512" height="512" viewBox="0 0 512 512" width="512" xmlns="http://www.w3.org/2000/svg"><g><g><g fill="#ffe266"><path d="m83.894 184.76c-13.109 0-23.736-10.627-23.736-23.736v-54.345c0-13.109 10.627-23.736 23.736-23.736 13.109 0 23.736 10.627 23.736 23.736v54.345c-.001 13.109-10.628 23.736-23.736 23.736z"/><path d="m426.268 184.76c-13.109 0-23.736-10.627-23.736-23.736v-54.345c0-13.109 10.627-23.736 23.736-23.736 13.109 0 23.736 10.627 23.736 23.736v54.345c0 13.109-10.627 23.736-23.736 23.736z"/></g><path d="m475.412 512h-438.824c-16.742 0-30.314-13.572-30.314-30.314v-301.889c0-16.742 13.572-30.314 30.314-30.314h438.825c16.742 0 30.314 13.572 30.314 30.314v301.889c-.001 16.742-13.573 30.314-30.315 30.314z" fill="#fef2a8"/><path d="m458.246 480.22h-124.298c-7.178 0-12.998-5.819-12.998-12.998v-259.024c0-7.178 5.819-12.998 12.998-12.998h124.298c7.178 0 12.998 5.819 12.998 12.998v259.024c0 7.179-5.819 12.998-12.998 12.998z" fill="#e7effa"/><path d="m47.222 252.219h235.272c4.695 0 8.501 3.806 8.501 8.501v205.437c0 4.695-3.806 8.501-8.501 8.501h-235.272c-4.695 0-8.501-3.806-8.501-8.501v-205.437c-.001-4.695 3.805-8.501 8.501-8.501z" fill="#e7effa"/><path d="m290.995 299.051v-38.331c0-4.695-3.806-8.501-8.501-8.501h-235.272c-4.695 0-8.501 3.806-8.501 8.501v38.331z" fill="#ef8bbd"/><g><path d="m190.003 223.043h-142.466c-3.443 0-6.234-2.791-6.234-6.234s2.791-6.234 6.234-6.234h142.466c3.443 0 6.234 2.791 6.234 6.234 0 3.442-2.791 6.234-6.234 6.234z" fill="#d08372"/></g><g><path d="m39.108 337.444h252.274v12.468h-252.274z" fill="#ad99c9"/></g><g><path d="m39.108 381.083h252.274v12.468h-252.274z" fill="#ad99c9"/></g><g><path d="m39.108 424.721h252.274v12.468h-252.274z" fill="#ad99c9"/></g><g><path d="m280.272 223.043h-44.607c-3.443 0-6.234-2.791-6.234-6.234s2.791-6.234 6.234-6.234h44.607c3.443 0 6.234 2.791 6.234 6.234 0 3.442-2.792 6.234-6.234 6.234z" fill="#d08372"/></g><path d="m475.412 149.483h-56.395c14.377 0 26.031 11.654 26.031 26.03v252.218c0 14.376-11.654 26.031-26.031 26.031h-386.712c-14.377 0-26.031-11.654-26.031-26.031v53.955c0 16.742 13.572 30.314 30.314 30.314h438.825c16.742 0 30.314-13.572 30.314-30.314v-301.889c-.001-16.742-13.573-30.314-30.315-30.314z" fill="#eeb6a8"/><path d="m47.221 474.659h235.272c4.695 0 8.501-3.806 8.501-8.501v-12.396h-252.274v12.396c0 4.694 3.806 8.501 8.501 8.501z" fill="#dcb6f5"/><path d="m458.246 195.201h-13.198v232.531c0 14.376-11.654 26.031-26.031 26.031h-98.067v13.46c0 7.179 5.819 12.998 12.998 12.998h124.299c7.178 0 12.998-5.819 12.998-12.998v-259.025c-.001-7.178-5.82-12.997-12.999-12.997z" fill="#dcb6f5"/><g><path d="m440.245 245.242h-88.295c-3.443 0-6.234-2.791-6.234-6.234s2.791-6.234 6.234-6.234h88.295c3.443 0 6.234 2.791 6.234 6.234s-2.791 6.234-6.234 6.234z" fill="#ad99c9"/></g><g><path d="m440.245 285.197h-88.295c-3.443 0-6.234-2.791-6.234-6.234s2.791-6.234 6.234-6.234h88.295c3.443 0 6.234 2.791 6.234 6.234s-2.791 6.234-6.234 6.234z" fill="#ad99c9"/></g><g><path d="m440.245 325.15h-88.295c-3.443 0-6.234-2.791-6.234-6.234s2.791-6.234 6.234-6.234h88.295c3.443 0 6.234 2.791 6.234 6.234s-2.791 6.234-6.234 6.234z" fill="#ad99c9"/></g><g><path d="m440.245 365.105h-88.295c-3.443 0-6.234-2.791-6.234-6.234s2.791-6.234 6.234-6.234h88.295c3.443 0 6.234 2.791 6.234 6.234 0 3.442-2.791 6.234-6.234 6.234z" fill="#ad99c9"/></g><g><path d="m440.245 405.058h-88.295c-3.443 0-6.234-2.791-6.234-6.234s2.791-6.234 6.234-6.234h88.295c3.443 0 6.234 2.791 6.234 6.234s-2.791 6.234-6.234 6.234z" fill="#ad99c9"/></g><g><path d="m440.245 445.013h-88.295c-3.443 0-6.234-2.791-6.234-6.234s2.791-6.234 6.234-6.234h88.295c3.443 0 6.234 2.791 6.234 6.234 0 3.442-2.791 6.234-6.234 6.234z" fill="#ad99c9"/></g><g><path d="m200.184 300.039h12.468v174.62h-12.468z" fill="#ad99c9"/></g><g><path d="m158.623 300.039h12.468v174.62h-12.468z" fill="#ad99c9"/></g><g><path d="m117.063 300.039h12.468v174.62h-12.468z" fill="#ad99c9"/></g><g><path d="m241.745 300.039h12.468v174.62h-12.468z" fill="#ad99c9"/></g><g><path d="m75.502 300.039h12.468v174.62h-12.468z" fill="#ad99c9"/></g><g><path d="m100.088 191.787c-5.649 0-10.28-4.526-10.384-10.198-.107-5.738 4.459-10.474 10.196-10.58 10.593-.196 19.944-.194 30.32 0 5.737.108 10.301 4.846 10.192 10.584-.108 5.737-4.874 10.293-10.584 10.192-10.107-.191-19.221-.191-29.545 0-.064.001-.13.002-.195.002z" fill="#fff"/></g><g><path d="m54.811 191.787h-6.237c-5.738 0-10.39-4.652-10.39-10.39s4.652-10.39 10.39-10.39h6.237c5.738 0 10.39 4.652 10.39 10.39s-4.652 10.39-10.39 10.39z" fill="#fff"/></g></g><g><path d="m307.325 82.944c0 10.643-8.628 19.271-19.27 19.271-10.643 0-19.271-8.628-19.271-19.271s8.628-19.271 19.271-19.271c10.642 0 19.27 8.628 19.27 19.271z" fill="#ffe266"/><ellipse cx="39.108" cy="24.175" fill="#ffe266" rx="8.161" ry="8.161" transform="matrix(.924 -.383 .383 .924 -6.275 16.806)"/><g fill="#fef2a8"><path d="m378.519 1.951 6.547 18.408c.28.788.835 1.413 1.535 1.728l16.354 7.368c2.31 1.041 2.31 4.722 0 5.763l-16.354 7.368c-.7.316-1.255.94-1.535 1.728l-6.547 18.408c-.925 2.601-4.196 2.601-5.12 0l-6.547-18.408c-.28-.788-.835-1.413-1.535-1.728l-16.354-7.368c-2.31-1.041-2.31-4.722 0-5.763l16.354-7.368c.7-.316 1.255-.94 1.535-1.728l6.547-18.408c.925-2.601 4.195-2.601 5.12 0z"/><path d="m183.231 17.611 8.995 24.815c.385 1.062 1.148 1.904 2.11 2.33l22.473 9.933c3.175 1.403 3.175 6.366 0 7.77l-22.473 9.933c-.962.425-1.725 1.267-2.11 2.33l-8.995 24.815c-1.271 3.506-5.765 3.506-7.036 0l-8.995-24.815c-.385-1.062-1.148-1.904-2.11-2.33l-22.472-9.933c-3.175-1.403-3.175-6.366 0-7.77l22.472-9.933c.962-.425 1.725-1.267 2.11-2.33l8.995-24.815c1.271-3.506 5.765-3.506 7.036 0z"/></g></g></g></svg>