<svg id="Capa_1" enable-background="new 0 0 512 512" height="512" viewBox="0 0 512 512" width="512" xmlns="http://www.w3.org/2000/svg"><g><g><path d="m400.44 112.776c-13.449-13.449-13.449-35.255 0-48.704l48.433-48.433c13.449-13.449 35.255-13.449 48.704 0 13.449 13.449 13.449 35.255 0 48.704l-48.433 48.433c-13.449 13.449-35.255 13.449-48.704 0z" fill="#8bb6ef"/><g><path d="m372.337 387.156c-2.598 0-5.195-.991-7.177-2.973l-236.128-236.127c-3.964-3.964-3.964-10.39 0-14.353 3.965-3.964 10.389-3.964 14.354-.001l236.128 236.127c3.964 3.964 3.964 10.39 0 14.354-1.983 1.982-4.579 2.973-7.177 2.973z" fill="#95cde6"/></g><g><path d="m14.496 320.331c-3.519 0-6.939-1.831-8.814-5.102-2.788-4.863-1.107-11.065 3.755-13.853l87.001-49.886c4.863-2.788 11.066-1.107 13.853 3.756 2.788 4.863 1.107 11.065-3.755 13.853l-87.001 49.886c-1.592.912-3.327 1.346-5.039 1.346z" fill="#95cde6"/></g><g><path d="m206.145 512c-1.712 0-3.446-.434-5.039-1.346-4.863-2.788-6.544-8.99-3.755-13.853l49.886-87c2.787-4.863 8.985-6.546 13.853-3.756 4.863 2.788 6.544 8.99 3.755 13.853l-49.886 87c-1.875 3.27-5.295 5.102-8.814 5.102z" fill="#95cde6"/></g><path d="m66.772 301.479c-14.678-27.783-4.054-62.204 23.728-76.881l285.995-151.094 26.577 50.305z" fill="#b2e7f1"/><path d="m213.168 447.874 1.574.832c27.783 14.678 62.203 4.054 76.881-23.728l151.093-285.994-51.879-27.408z" fill="#b2e7f1"/><path d="m416.777 125.279-151.912 287.544c-7.303 13.824-24.43 19.11-38.254 11.807l-.909-.48-12.534 23.725 1.574.831c27.782 14.678 62.203 4.054 76.881-23.728l151.093-285.994z" fill="#a7adf1"/><circle cx="379.566" cy="133.65" fill="#8bb6ef" r="82.165"/><path d="m437.665 75.551c-18.894-18.894-44.699-26.651-69.278-23.294 12.351 1.955 24.222 7.677 33.74 17.196 23.957 23.957 23.957 62.8 0 86.758-23.958 23.958-62.801 23.958-86.758 0-9.519-9.519-15.241-21.389-17.196-33.741-3.357 24.578 4.399 50.384 23.293 69.278 32.087 32.087 84.111 32.087 116.199 0 32.087-32.086 32.087-84.11 0-116.197z" fill="#8388ef"/><g><path d="m455.718 112.884c-4.011 0-7.809-2.392-9.409-6.338-3.621-8.927-8.943-16.94-15.821-23.818-7.013-7.013-10.892-9.143-17.315-12.671-.875-.48-1.78-.977-2.724-1.504-4.896-2.73-6.653-8.911-3.923-13.807s8.912-6.653 13.807-3.923c.906.505 1.772.981 2.611 1.441 6.888 3.783 12.838 7.05 21.898 16.11 8.808 8.809 15.63 19.086 20.277 30.544 2.107 5.194-.396 11.113-5.591 13.219-1.249.507-2.54.747-3.81.747z" fill="#6280cc"/></g><circle cx="379.566" cy="133.65" fill="#ef8bbd" r="29.521"/></g><g><path d="m106.208 18.824c0 10.396-8.428 18.824-18.824 18.824s-18.824-8.428-18.824-18.824c.001-10.396 8.428-18.824 18.825-18.824 10.396 0 18.823 8.428 18.823 18.824z" fill="#8bb6ef"/><circle cx="281.258" cy="35.327" fill="#8bb6ef" r="7.972"/><g fill="#b2e7f1"><path d="m42.998 108.674 6.395 17.981c.274.77.816 1.38 1.5 1.688l15.975 7.198c2.257 1.017 2.257 4.613 0 5.63l-15.975 7.197c-.684.308-1.226.918-1.5 1.688l-6.395 17.981c-.903 2.54-4.098 2.54-5.002 0l-6.395-17.981c-.274-.77-.816-1.38-1.5-1.688l-15.975-7.197c-2.257-1.017-2.257-4.613 0-5.63l15.975-7.198c.684-.308 1.226-.918 1.5-1.688l6.395-17.981c.904-2.54 4.099-2.54 5.002 0z"/><path d="m196.496 3.285 8.787 24.24c.376 1.038 1.121 1.86 2.061 2.276l21.952 9.703c3.101 1.371 3.101 6.219 0 7.589l-21.952 9.703c-.94.415-1.685 1.238-2.061 2.276l-8.787 24.24c-1.241 3.425-5.632 3.425-6.873 0l-8.787-24.24c-.376-1.038-1.121-1.86-2.061-2.276l-21.952-9.703c-3.101-1.371-3.101-6.219 0-7.589l21.952-9.703c.94-.416 1.685-1.238 2.061-2.276l8.787-24.24c1.242-3.425 5.632-3.425 6.873 0z"/></g></g></g></svg>