<svg id="Capa_1" enable-background="new 0 0 512 512" height="512" viewBox="0 0 512 512" width="512" xmlns="http://www.w3.org/2000/svg"><g><g><path d="m422.408 505.871h-327.294c-17.897 0-31.399-16.248-28.123-33.843l50.249-223.141c2.522-13.546 14.344-23.37 28.123-23.37h327.294c17.897 0 31.399 16.248 28.122 33.843l-50.249 223.141c-2.522 13.546-14.343 23.37-28.122 23.37z" fill="#bdf4e3"/><path d="m422.408 505.871h-327.294c-17.897 0-31.399-16.248-28.123-33.843l50.249-223.141c2.522-13.546 14.344-23.37 28.123-23.37h327.294c17.897 0 31.399 16.248 28.122 33.843l-50.249 223.141c-2.522 13.546-14.343 23.37-28.122 23.37z" fill="#b1b7e3"/><path d="m406.412 505.904h-327.322c-11.796 0-20.771-10.589-18.837-22.226l41.374-270.287c1.531-9.212 9.499-15.965 18.837-15.965h327.322c11.796 0 20.771 10.589 18.837 22.226l-41.374 270.287c-1.531 9.211-9.499 15.965-18.837 15.965z" fill="#e7effa"/><path d="m406.412 505.904h-327.322c-11.796 0-20.771-10.589-18.837-22.226l41.374-270.287c1.531-9.212 9.499-15.965 18.837-15.965h327.322c11.796 0 20.771 10.589 18.837 22.226l-41.374 270.287c-1.531 9.211-9.499 15.965-18.837 15.965z" fill="#dcb6f5"/><path d="m368.95 505.904h-330.793c-8.347 0-14.728-7.442-13.455-15.691l34.937-298.499c1.025-6.639 6.738-11.538 13.455-11.538h342.889c8.347 0 14.729 7.442 13.455 15.691l-34.937 285.507c-1.024 6.638-18.833 24.53-25.551 24.53z" fill="#e7effa"/><path d="m365.45 505.904h-324.344c-16.885 0-30.573-13.688-30.573-30.573v-228.778c0-16.885 13.688-30.573 30.573-30.573h324.344c16.885 0 30.573 13.688 30.573 30.573v228.778c0 16.885-13.688 30.573-30.573 30.573z" fill="#bdf4e3"/><path d="m365.45 215.98h-49.096c14.549 0 26.344 11.794 26.344 26.344v197.131c0 14.549-11.795 26.344-26.344 26.344h-279.477c-14.549 0-26.344-11.795-26.344-26.344v35.877c0 16.885 13.688 30.573 30.573 30.573h324.344c16.885 0 30.573-13.688 30.573-30.573v-228.779c0-16.885-13.689-30.573-30.573-30.573z" fill="#b1b7e3"/><g><path d="m10.532 376.969c-2.509 0-5.02-.929-6.977-2.799-4.03-3.854-4.174-10.246-.319-14.276l140.116-146.538c3.854-4.03 10.245-4.174 14.276-.32s4.173 10.245.32 14.276l-140.117 146.538c-1.983 2.074-4.639 3.119-7.299 3.119z" fill="#90e0c5"/></g><g><path d="m392.172 373.416c-2.627 0-5.251-1.018-7.229-3.047l-139.469-142.985c-3.894-3.992-3.814-10.385.178-14.279 3.992-3.895 10.386-3.815 14.278.178l139.469 142.985c3.894 3.992 3.815 10.385-.177 14.279-1.964 1.915-4.508 2.869-7.05 2.869z" fill="#90e0c5"/></g><g><path d="m243.613 423.26c-3.346 0-6.058-2.713-6.058-6.058v-12.892c0-3.346 2.713-6.058 6.058-6.058 3.346 0 6.058 2.713 6.058 6.058v12.892c0 3.345-2.713 6.058-6.058 6.058z" fill="#90e0c5"/></g><g><path d="m336.806 415.26c-3.346 0-6.058-2.713-6.058-6.058v-12.892c0-3.346 2.713-6.058 6.058-6.058 3.346 0 6.058 2.713 6.058 6.058v12.892c.001 3.345-2.712 6.058-6.058 6.058z" fill="#90e0c5"/></g><g><path d="m279.058 444.824c-3.346 0-6.058-2.713-6.058-6.058v-12.892c0-3.346 2.713-6.058 6.058-6.058s6.058 2.713 6.058 6.058v12.892c.001 3.345-2.712 6.058-6.058 6.058z" fill="#90e0c5"/></g><g><path d="m66.499 386.631c-2.494 0-4.993-.918-6.945-2.769-4.047-3.837-4.217-10.228-.381-14.275 4.415-4.657 9.066-9.012 13.564-13.224 5.295-4.958 10.296-9.64 14.882-14.721 3.737-4.139 10.121-4.466 14.261-.73 4.14 3.737 4.466 10.122.73 14.261-5.156 5.712-10.704 10.907-16.07 15.932-4.479 4.194-8.71 8.155-12.711 12.376-1.986 2.093-4.656 3.15-7.33 3.15z" fill="#fff"/></g><g><path d="m127.967 325.948c-2.606 0-5.211-1.002-7.187-3.004-3.918-3.969-3.876-10.362.093-14.279l3.676-3.629c3.968-3.918 10.361-3.878 14.279.09 3.919 3.968 3.878 10.361-.09 14.279l-3.678 3.632c-1.967 1.942-4.531 2.911-7.093 2.911z" fill="#fff"/></g></g><g><ellipse cx="297.785" cy="44.48" fill="#78eac4" rx="18.727" ry="18.727" transform="matrix(.383 -.924 .924 .383 142.733 302.576)"/><ellipse cx="423.338" cy="98.755" fill="#78eac4" rx="7.931" ry="7.931" transform="matrix(.16 -.987 .987 .16 258.047 500.808)"/><g fill="#bdf4e3"><path d="m148.622 72.514 6.362 17.889c.272.766.812 1.373 1.492 1.679l15.894 7.161c2.245 1.012 2.245 4.589 0 5.601l-15.894 7.161c-.68.307-1.22.913-1.492 1.679l-6.362 17.889c-.899 2.527-4.077 2.527-4.976 0l-6.362-17.889c-.272-.766-.811-1.373-1.492-1.679l-15.894-7.161c-2.245-1.012-2.245-4.589 0-5.601l15.894-7.161c.681-.307 1.22-.914 1.492-1.679l6.362-17.889c.899-2.528 4.078-2.528 4.976 0z"/><path d="m486.569 103.939 6.362 17.889c.272.766.811 1.373 1.492 1.679l15.894 7.161c2.245 1.012 2.245 4.589 0 5.601l-15.894 7.161c-.681.307-1.22.913-1.492 1.679l-6.362 17.889c-.899 2.527-4.077 2.527-4.976 0l-6.362-17.889c-.272-.766-.812-1.373-1.492-1.679l-15.893-7.161c-2.245-1.012-2.245-4.589 0-5.601l15.893-7.161c.681-.307 1.22-.914 1.492-1.679l6.362-17.889c.898-2.528 4.077-2.528 4.976 0z"/><path d="m41.783 8.652 8.742 24.116c.374 1.033 1.115 1.851 2.05 2.264l21.839 9.653c3.085 1.364 3.085 6.187 0 7.55l-21.839 9.653c-.935.413-1.676 1.232-2.05 2.264l-8.742 24.116c-1.235 3.407-5.603 3.407-6.838 0l-8.742-24.116c-.374-1.033-1.115-1.851-2.05-2.264l-21.839-9.653c-3.086-1.364-3.086-6.187 0-7.55l21.839-9.653c.935-.413 1.676-1.232 2.05-2.264l8.742-24.116c1.235-3.407 5.603-3.407 6.838 0z"/></g></g></g></svg>