<svg id="Capa_1" enable-background="new 0 0 512 512" height="512" viewBox="0 0 512 512" width="512" xmlns="http://www.w3.org/2000/svg"><g><g><path d="m311.216 226.413c-34.789-28.618 13.254-186.43-145.012-163.818-122.445 17.494-200.818 192.237-124.552 330.29s275.863 154.83 356.952 56.96c100.667-121.5-31.367-177.348-87.388-223.432zm63.721 140.572c-13.466 12.154-36.828 8.217-52.18-8.793s-16.881-40.651-3.415-52.805 36.828-8.217 52.18 8.793c15.352 17.009 16.881 40.651 3.415 52.805z" fill="#ffc7b6"/><path d="m176.443 181.198c22.456 4.219 45.053-41.026 31.986-68.712-8.054-17.065-32.13-.091-38.678 1.091-6.017 1.086-32.01.304-35.462 15.23-4.834 20.905 18.847 23.098 23.01 26.713 8.561 7.433 9.42 23.852 19.144 25.678z" fill="#8bb6ef"/><path d="m128.092 269.651c20.695-9.682 12.635-59.61-14.136-74.463-16.5-9.155-26.142 18.68-30.769 23.463-4.251 4.394-25.813 18.932-19.904 33.066 8.277 19.796 28.786 7.754 34.276 8.259 11.291 1.038 21.572 13.868 30.533 9.675z" fill="#ef8bbd"/><path d="m98.913 330.886c-18.179 13.841.263 60.933 29.57 69.786 18.064 5.457 21.598-23.788 25.108-29.441 3.225-5.194 21.224-23.965 12.457-36.528-12.278-17.596-29.775-1.488-35.247-.82-11.254 1.374-24.017-8.99-31.888-2.997z" fill="#ffe266"/><path d="m246.984 383.052c-18.892-12.85-57.704 19.575-56.805 50.177.554 18.862 29.41 12.938 35.885 14.474 5.949 1.411 29.459 12.527 38.593.229 12.794-17.225-8.032-28.71-10.402-33.688-4.872-10.237.909-25.628-7.271-31.192z" fill="#78eac4"/><path d="m311.216 226.413c-34.196-28.13 11.636-181.086-137.108-164.813-.33.037-.657.07-.99.109-.131.015-.266.032-.397.047 82.047 13.264 59.263 154.329 101.431 177.902 44.306 11.785 80.049 58.671 80.76 62.316 5.965 2.667 11.698 6.763 16.61 12.206 15.352 17.01 16.881 40.652 3.415 52.805-9.063 8.18-22.605 9.061-35.174 3.585-4.623 7.906-10.314 16.119-17.213 24.66-67.967 84.149-235.267 69.724-299.192-48.975-1.103-2.048-2.158-4.107-3.185-6.173 4.914 17.92 11.999 35.645 21.478 52.804 76.266 138.053 275.863 154.83 356.952 56.96 100.668-121.501-31.366-177.349-87.387-223.433z" fill="#ef95b6"/><path d="m264.657 447.931c3.517-4.735 4.484-9.034 4.002-12.885-14.903 6.311-31.045 10.444-47.784 12.364 2.23-.015 4.057.024 5.189.293 5.948 1.411 29.458 12.527 38.593.228z" fill="#71afc4"/><g><path d="m68.312 193.956c-1.401 0-2.824-.29-4.185-.9-5.159-2.316-7.464-8.373-5.149-13.532 2.047-4.562 4.422-9.24 7.057-13.903 2.782-4.922 9.028-6.657 13.95-3.874 4.922 2.782 6.657 9.028 3.875 13.95-2.326 4.115-4.412 8.223-6.201 12.209-1.705 3.799-5.438 6.05-9.347 6.05z" fill="#fff"/></g><g><path d="m92.175 155.272c-2.219 0-4.453-.718-6.331-2.197-4.44-3.5-5.202-9.938-1.702-14.378.96-1.218 1.863-2.326 2.76-3.386 3.651-4.317 10.11-4.856 14.428-1.205 4.316 3.651 4.856 10.111 1.204 14.428-.743.879-1.5 1.808-2.312 2.838-2.02 2.562-5.019 3.9-8.047 3.9z" fill="#fff"/></g><g><path d="m338.772 433.619c-3.392 0-6.143-2.75-6.143-6.143v-13.732c0-3.392 2.75-6.143 6.143-6.143 3.392 0 6.143 2.75 6.143 6.143v13.732c0 3.392-2.751 6.143-6.143 6.143z" fill="#d07297"/></g><g><path d="m305.022 414.356c-3.392 0-6.143-2.75-6.143-6.143v-13.732c0-3.392 2.75-6.143 6.143-6.143 3.392 0 6.143 2.75 6.143 6.143v13.732c0 3.393-2.75 6.143-6.143 6.143z" fill="#d07297"/></g></g><g><path d="m431.355 54.092c0 10.487-8.501 18.987-18.988 18.987s-18.988-8.501-18.988-18.987c0-10.487 8.501-18.988 18.988-18.988 10.486 0 18.988 8.501 18.988 18.988z" fill="#ffa585"/><path d="m406.605 145.034c0 4.441-3.6 8.041-8.041 8.041s-8.041-3.6-8.041-8.041 3.6-8.041 8.041-8.041 8.041 3.6 8.041 8.041z" fill="#ffa585"/><g fill="#ffc7b6"><path d="m318.945 1.922 6.45 18.137c.276.776.823 1.392 1.513 1.703l16.114 7.26c2.276 1.026 2.276 4.653 0 5.679l-16.114 7.26c-.69.311-1.237.926-1.513 1.703l-6.45 18.137c-.911 2.562-4.134 2.562-5.045 0l-6.451-18.137c-.276-.777-.823-1.392-1.513-1.703l-16.114-7.26c-2.277-1.026-2.277-4.653 0-5.679l16.114-7.26c.69-.311 1.237-.926 1.513-1.703l6.451-18.137c.911-2.563 4.133-2.563 5.045 0z"/><path d="m465.054 159.831 8.863 24.451c.379 1.047 1.131 1.877 2.079 2.296l22.143 9.787c3.128 1.383 3.128 6.273 0 7.655l-22.143 9.788c-.948.419-1.699 1.249-2.079 2.296l-8.863 24.451c-1.252 3.454-5.68 3.454-6.933 0l-8.863-24.451c-.379-1.047-1.131-1.877-2.079-2.296l-22.143-9.788c-3.128-1.383-3.128-6.273 0-7.655l22.143-9.787c.948-.419 1.699-1.249 2.079-2.296l8.863-24.451c1.252-3.455 5.68-3.455 6.933 0z"/></g></g></g></svg>