<svg id="Capa_1" enable-background="new 0 0 512 512" height="512" viewBox="0 0 512 512" width="512" xmlns="http://www.w3.org/2000/svg"><g><g><g><path d="m292.905 312.262c-2.654 0-5.309-1.013-7.334-3.037l-77.716-77.716c-4.05-4.05-4.05-10.617 0-14.667 4.05-4.049 10.617-4.049 14.667 0l77.716 77.716c4.05 4.05 4.05 10.617 0 14.667-2.025 2.024-4.679 3.037-7.333 3.037z" fill="#6280cc"/></g><g><path d="m259.818 330.509c-2.654 0-5.309-1.013-7.334-3.037l-56.988-56.989c-4.05-4.05-4.05-10.617 0-14.667 4.05-4.049 10.617-4.049 14.667 0l56.989 56.989c4.05 4.05 4.05 10.617 0 14.667-2.025 2.024-4.68 3.037-7.334 3.037z" fill="#6280cc"/></g><g><path d="m454.956 150.21c-2.655 0-5.308-1.013-7.334-3.037l-72.372-72.373c-4.05-4.05-4.05-10.617.001-14.667 4.05-4.049 10.616-4.048 14.667 0l72.372 72.373c4.05 4.05 4.05 10.617-.001 14.667-2.024 2.025-4.679 3.037-7.333 3.037z" fill="#6280cc"/></g><g><path d="m421.87 168.458c-2.654 0-5.309-1.013-7.334-3.037l-56.988-56.989c-4.05-4.05-4.05-10.617 0-14.667 4.05-4.049 10.617-4.049 14.667 0l56.988 56.988c4.05 4.05 4.05 10.617 0 14.667-2.025 2.025-4.679 3.038-7.333 3.038z" fill="#6280cc"/></g><g><path d="m307.836 275.86c-2.654 0-5.309-1.013-7.334-3.037l-59.562-59.562c-4.05-4.05-4.05-10.617 0-14.667 4.05-4.049 10.617-4.049 14.667 0l59.562 59.562c4.05 4.05 4.05 10.617 0 14.667-2.024 2.024-4.679 3.037-7.333 3.037z" fill="#6280cc"/></g><g><path d="m130.9 474.266c-2.654 0-5.309-1.013-7.334-3.037l-73.876-73.876c-4.05-4.05-4.05-10.617 0-14.667 4.05-4.049 10.617-4.049 14.667 0l73.876 73.876c4.05 4.05 4.05 10.617 0 14.667-2.024 2.024-4.679 3.037-7.333 3.037z" fill="#6280cc"/></g><g><path d="m145.832 437.863c-2.654 0-5.309-1.013-7.334-3.037l-54.609-54.609c-4.05-4.05-4.05-10.617 0-14.667 4.05-4.049 10.617-4.049 14.667 0l54.609 54.609c4.05 4.05 4.05 10.617 0 14.667-2.025 2.025-4.679 3.037-7.333 3.037z" fill="#6280cc"/></g><path d="m115.155 503.977c-10.698-10.698-10.698-28.043 0-38.741 42.455-42.456 38.182-83.541 33.233-131.114-4.85-46.628-10.347-99.477 36.316-146.141 46.207-46.207 96.749-39.585 141.341-33.743 47.494 6.223 88.512 11.596 135.913-35.805 10.698-10.699 28.043-10.698 38.741 0s10.698 28.043 0 38.741c-66.492 66.492-130.411 58.118-181.771 51.388-43.662-5.72-69.625-7.697-95.483 18.16-26.9 26.9-25.447 54.776-20.562 101.731 5.311 51.065 11.922 114.616-48.986 175.524-10.699 10.697-28.044 10.698-38.742 0z" fill="#ef8bbd"/><path d="m397.212 155.846c-.001 0-.002 0-.003 0-23.177 4.674-46.283 1.651-71.165-1.608-44.592-5.842-95.134-12.464-141.341 33.743-46.663 46.663-41.166 99.513-36.316 146.141 2.451 23.56 4.733 45.528 1.259 66.86v.003c18.186 1.09 36.306 3.556 54.382 6.554 0-.002.001-.003.001-.005 4.155-28.082 1.362-54.974-1.146-79.081-4.883-46.94-6.336-74.814 20.538-101.706.008-.008.016-.017.024-.025.018-.018.036-.033.054-.051 25.84-25.802 51.797-23.825 95.429-18.109 25.492 3.341 54.079 7.081 84.538 1.876.005-.001.011-.002.016-.003-1.954-18.214-3.937-36.424-6.27-54.589z" fill="#e068bd"/><path d="m11.302 404.264c-10.698-10.698-10.698-28.043 0-38.741 66.491-66.492 130.411-58.117 181.772-51.389 43.662 5.72 69.625 7.698 95.483-18.16 26.899-26.899 25.446-54.776 20.562-101.731-5.312-51.064-11.923-114.615 48.986-175.523 10.698-10.698 28.043-10.698 38.741 0s10.699 28.043 0 38.741c-42.455 42.455-38.182 83.541-33.233 131.114 4.85 46.628 10.348 99.477-36.315 146.14-46.207 46.207-96.75 39.586-141.342 33.743-47.494-6.223-88.511-11.596-135.913 35.805-10.698 10.699-28.043 10.699-38.741.001z" fill="#8bb6ef"/></g><g><ellipse cx="302.21" cy="485.027" fill="#ef8bbd" rx="19.235" ry="19.235" transform="matrix(.099 -.995 .995 .099 -210.236 737.972)"/><ellipse cx="95.215" cy="80.002" fill="#ef8bbd" rx="8.146" ry="8.146" transform="matrix(.134 -.991 .991 .134 3.162 163.623)"/><g fill="#f7c4db"><path d="m60.949 167.103 6.534 18.374c.28.786.833 1.41 1.532 1.725l16.324 7.355c2.306 1.039 2.306 4.714 0 5.753l-16.324 7.355c-.699.315-1.253.938-1.532 1.725l-6.534 18.374c-.923 2.596-4.188 2.596-5.111 0l-6.534-18.374c-.28-.787-.833-1.41-1.533-1.725l-16.324-7.355c-2.306-1.039-2.306-4.714 0-5.753l16.324-7.355c.699-.315 1.253-.938 1.533-1.725l6.534-18.374c.923-2.596 4.188-2.596 5.111 0z"/><path d="m465.707 245.403 6.534 18.374c.28.786.834 1.41 1.533 1.725l16.324 7.355c2.306 1.039 2.306 4.714 0 5.753l-16.324 7.355c-.699.315-1.253.938-1.533 1.725l-6.534 18.374c-.923 2.596-4.188 2.596-5.111 0l-6.534-18.374c-.28-.787-.833-1.41-1.533-1.725l-16.324-7.355c-2.306-1.039-2.306-4.714 0-5.753l16.324-7.355c.699-.315 1.253-.938 1.533-1.725l6.534-18.374c.923-2.596 4.188-2.596 5.111 0z"/><path d="m430.071 377.209 6.534 18.374c.28.787.833 1.41 1.532 1.725l16.324 7.355c2.306 1.039 2.306 4.714 0 5.753l-16.324 7.355c-.699.315-1.253.938-1.532 1.725l-6.534 18.374c-.923 2.596-4.188 2.596-5.111 0l-6.534-18.374c-.28-.787-.833-1.41-1.533-1.725l-16.324-7.355c-2.306-1.039-2.306-4.714 0-5.753l16.324-7.355c.699-.315 1.253-.938 1.533-1.725l6.534-18.374c.923-2.596 4.188-2.596 5.111 0z"/><path d="m192.004 2.624 8.979 24.769c.384 1.06 1.146 1.901 2.106 2.325l22.431 9.915c3.169 1.401 3.169 6.354 0 7.755l-22.431 9.915c-.96.424-1.722 1.265-2.106 2.325l-8.979 24.769c-1.269 3.5-5.754 3.5-7.023 0l-8.979-24.769c-.384-1.06-1.145-1.901-2.106-2.325l-22.431-9.915c-3.169-1.401-3.169-6.354 0-7.755l22.431-9.915c.96-.425 1.721-1.265 2.106-2.325l8.979-24.769c1.268-3.499 5.754-3.499 7.023 0z"/></g></g></g></svg>