<svg id="Capa_1" enable-background="new 0 0 512 512" height="512" viewBox="0 0 512 512" width="512" xmlns="http://www.w3.org/2000/svg"><g><g><path d="m108.874 7.639h-74.698c-15.48 0-28.028 12.549-28.028 28.028v442.635c0 15.48 12.549 28.029 28.028 28.029h74.698c15.48 0 28.028-12.548 28.028-28.029v-442.635c0-15.479-12.548-28.028-28.028-28.028zm-37.349 102.197c-10.311 0-18.67-8.359-18.67-18.67 0-10.312 8.359-18.67 18.67-18.67s18.67 8.359 18.67 18.67-8.359 18.67-18.67 18.67z" fill="#fef2a8"/><path d="m108.874 7.639h-27.591c11.322 0 20.5 11.1 20.5 24.792v391.527c0 13.693-9.178 24.793-20.5 24.793h-54.635c-11.322 0-20.5-11.1-20.5-24.793v54.344c0 15.48 12.549 28.029 28.028 28.029h74.698c15.48 0 28.028-12.548 28.028-28.029v-442.635c0-15.479-12.548-28.028-28.028-28.028z" fill="#eeb6a8"/><path d="m497.467 487.378-282.207-460.517c-6.565-10.713-23.062-6.06-23.062 6.504v460.516c0 6.875 5.573 12.448 12.448 12.448h282.207c9.728.001 15.697-10.657 10.614-18.951zm-131.13-66.863h-102.284c-2.492 0-4.512-2.02-4.512-4.512v-166.911c0-4.553 5.979-6.24 8.359-2.357l102.284 166.911c1.842 3.006-.321 6.869-3.847 6.869z" fill="#78eac4"/><path d="m497.467 487.378-282.207-460.517c-3.071-5.011-8.315-6.659-13.027-5.709 1.998.583 3.877 2.202 5.171 5.05l186.078 409.669c3.351 7.379-.584 16.86-6.999 16.86h-186.077c-4.533 0-8.208-4.958-8.208-11.074v52.225c0 6.875 5.573 12.448 12.448 12.448h282.207c9.728 0 15.697-10.658 10.614-18.952z" fill="#71afc4"/><g><path d="m76.097 174.768h-69.95c-3.395 0-6.147-2.752-6.147-6.147s2.753-6.147 6.147-6.147h69.95c3.395 0 6.147 2.753 6.147 6.147s-2.752 6.147-6.147 6.147z" fill="#d08372"/></g><g><path d="m52.855 220.873h-46.708c-3.395 0-6.147-2.752-6.147-6.147s2.753-6.147 6.147-6.147h46.707c3.395 0 6.147 2.753 6.147 6.147.001 3.395-2.751 6.147-6.146 6.147z" fill="#d08372"/></g><g><path d="m76.097 266.979h-69.95c-3.395 0-6.147-2.753-6.147-6.147s2.753-6.147 6.147-6.147h69.95c3.395 0 6.147 2.753 6.147 6.147s-2.752 6.147-6.147 6.147z" fill="#d08372"/></g><g><path d="m52.855 313.084h-46.708c-3.395 0-6.147-2.753-6.147-6.147s2.753-6.147 6.147-6.147h46.707c3.395 0 6.147 2.753 6.147 6.147s-2.751 6.147-6.146 6.147z" fill="#d08372"/></g><g><path d="m76.097 359.19h-69.95c-3.395 0-6.147-2.753-6.147-6.147 0-3.395 2.753-6.147 6.147-6.147h69.95c3.395 0 6.147 2.753 6.147 6.147s-2.752 6.147-6.147 6.147z" fill="#d08372"/></g><g><path d="m52.855 405.295h-46.708c-3.395 0-6.147-2.753-6.147-6.147 0-3.395 2.753-6.148 6.147-6.148h46.707c3.395 0 6.147 2.753 6.147 6.147.001 3.396-2.751 6.148-6.146 6.148z" fill="#d08372"/></g><g><path d="m76.097 451.401h-69.95c-3.395 0-6.147-2.753-6.147-6.147 0-3.395 2.753-6.147 6.147-6.147h69.95c3.395 0 6.147 2.753 6.147 6.147s-2.752 6.147-6.147 6.147z" fill="#d08372"/></g><g><path d="m231.052 205.179c-5.659 0-10.246-4.587-10.246-10.246v-25.35c0-5.659 4.587-10.246 10.246-10.246s10.246 4.587 10.246 10.246v25.35c-.001 5.659-4.588 10.246-10.246 10.246z" fill="#fff"/></g><g><path d="m231.052 147.563c-5.659 0-10.246-4.587-10.246-10.246v-4.492c0-5.659 4.587-10.246 10.246-10.246s10.246 4.587 10.246 10.246v4.492c-.001 5.658-4.588 10.246-10.246 10.246z" fill="#fff"/></g></g><g><ellipse cx="434.144" cy="89.43" fill="#78eac4" rx="19.002" ry="19.003" transform="matrix(.189 -.982 .982 .189 264.228 498.829)"/><ellipse cx="473.072" cy="301.4" fill="#78eac4" rx="8.047" ry="8.047" transform="matrix(.973 -.23 .23 .973 -56.593 116.753)"/><g fill="#bdf4e3"><path d="m308.444 7.593 6.455 18.152c.276.777.823 1.393 1.514 1.704l16.127 7.266c2.278 1.027 2.278 4.657 0 5.683l-16.127 7.266c-.691.311-1.238.927-1.514 1.704l-6.455 18.152c-.912 2.564-4.137 2.564-5.049 0l-6.456-18.152c-.276-.777-.823-1.393-1.514-1.704l-16.127-7.266c-2.278-1.026-2.278-4.657 0-5.683l16.127-7.266c.691-.311 1.238-.927 1.514-1.704l6.456-18.152c.912-2.564 4.137-2.564 5.049 0z"/><path d="m476.541 141.865 8.87 24.47c.38 1.048 1.132 1.878 2.081 2.297l22.16 9.795c3.131 1.384 3.131 6.278 0 7.661l-22.16 9.795c-.949.419-1.701 1.25-2.081 2.297l-8.87 24.47c-1.253 3.457-5.685 3.457-6.938 0l-8.87-24.47c-.38-1.048-1.132-1.878-2.08-2.297l-22.16-9.795c-3.131-1.384-3.131-6.278 0-7.661l22.16-9.795c.949-.419 1.701-1.25 2.08-2.297l8.87-24.47c1.253-3.457 5.685-3.457 6.938 0z"/></g></g></g></svg>