<svg id="Capa_1" enable-background="new 0 0 512 512" height="512" viewBox="0 0 512 512" width="512" xmlns="http://www.w3.org/2000/svg"><g><g><ellipse cx="251.958" cy="283.058" fill="#ef8bbd" rx="71.029" ry="71.029" transform="matrix(.098 -.995 .995 .098 -54.368 506.148)"/><path d="m251.958 212.029c-3.184 0-6.313.23-9.386.636 25.569 3.967 45.141 26.074 45.141 52.755 0 29.487-23.904 53.391-53.391 53.391-26.681 0-48.788-19.572-52.755-45.14-.406 3.074-.637 6.202-.637 9.386 0 39.228 31.801 71.029 71.029 71.029s71.029-31.801 71.029-71.029c-.001-39.227-31.802-71.028-71.03-71.028z" fill="#e068bd"/><g><path d="m251.958 512c-34.412 0-66.234-24.689-89.604-69.518-22.287-42.751-34.56-99.369-34.56-159.424s12.273-116.673 34.56-159.424c23.37-44.829 55.192-69.518 89.604-69.518s66.234 24.689 89.604 69.518c22.286 42.751 34.56 99.369 34.56 159.424s-12.274 116.673-34.56 159.424c-23.369 44.829-55.192 69.518-89.604 69.518zm0-437.767c-26.545 0-52.032 20.847-71.765 58.701-20.817 39.932-32.282 93.247-32.282 150.124 0 56.876 11.465 110.192 32.282 150.124 19.734 37.854 45.22 58.701 71.765 58.701s52.032-20.847 71.765-58.701c20.817-39.932 32.281-93.247 32.281-150.124s-11.464-110.192-32.281-150.124c-19.733-37.854-45.219-58.701-71.765-58.701z" fill="#6280cc"/></g><g><path d="m149.327 440.574c-45.75 0-79.513-15.117-95.638-43.045-17.206-29.802-11.736-69.705 15.402-112.359 25.88-40.676 68.776-79.614 120.785-109.642 52.01-30.028 107.179-47.708 155.345-49.782 50.505-2.181 87.801 13.038 105.007 42.84s11.736 69.705-15.403 112.359c-25.88 40.676-68.776 79.614-120.785 109.642l-5.029-8.711 5.029 8.711c-52.009 30.028-107.178 47.708-155.345 49.782-3.174.137-6.299.205-9.368.205zm205.355-294.917c-2.81 0-5.671.062-8.595.189-44.991 1.938-96.896 18.667-146.152 47.105-49.257 28.438-89.696 65.024-113.87 103.019-22.916 36.016-28.226 68.512-14.954 91.501 12.363 21.413 39.937 32.987 78.124 32.989 2.81 0 5.671-.062 8.595-.189 44.991-1.938 96.895-18.667 146.152-47.105 49.257-28.438 89.697-65.024 113.871-103.019 22.916-36.016 28.226-68.512 14.954-91.501-12.364-21.414-39.938-32.989-78.125-32.989z" fill="#6280cc"/></g><g><path d="m354.59 440.574c-3.072 0-6.19-.068-9.369-.205-48.166-2.075-103.336-19.755-155.345-49.782s-94.905-68.966-120.785-109.642c-27.139-42.654-32.609-82.557-15.402-112.359 17.206-29.802 54.497-45.021 105.007-42.84 48.166 2.075 103.336 19.755 155.345 49.782 52.01 30.027 94.905 68.965 120.785 109.642 27.139 42.654 32.609 82.557 15.403 112.359-16.124 27.927-49.893 43.044-95.639 43.045zm-205.355-294.917c-38.191 0-65.76 11.574-78.124 32.989-13.273 22.989-7.962 55.484 14.954 91.501 24.174 37.995 64.614 74.581 113.87 103.019 49.257 28.438 101.161 45.167 146.152 47.105 42.653 1.836 73.446-9.811 86.719-32.8 13.272-22.989 7.962-55.485-14.954-91.501-24.174-37.994-64.614-74.58-113.871-103.019-49.257-28.438-101.161-45.167-146.152-47.105-2.92-.127-5.786-.189-8.594-.189z" fill="#6280cc"/></g><g fill="#8bb6ef"><ellipse cx="303.957" cy="90.499" rx="26.325" ry="26.325" transform="matrix(.848 -.53 .53 .848 -1.735 174.952)"/><ellipse cx="58.507" cy="217.562" rx="26.325" ry="26.325" transform="matrix(.921 -.389 .389 .921 -80.005 39.88)"/><circle cx="221.442" cy="415.315" r="26.325"/></g><path d="m240.208 262.115c0 8.537-6.92 15.457-15.457 15.457s-15.458-6.92-15.458-15.457 6.921-15.458 15.458-15.458c8.536.001 15.457 6.921 15.457 15.458z" fill="#e7effa"/></g><g><path d="m153.444 42.202c0 10.303-8.353 18.656-18.656 18.656s-18.656-8.352-18.656-18.656 8.353-18.656 18.656-18.656 18.656 8.353 18.656 18.656z" fill="#8bb6ef"/><path d="m403.288 84.404c0 4.363-3.537 7.901-7.9 7.901s-7.901-3.537-7.901-7.901c0-4.363 3.537-7.901 7.901-7.901 4.362.001 7.9 3.538 7.9 7.901z" fill="#8bb6ef"/><g fill="#b2e7f1"><path d="m34.661 78.334 6.338 17.821c.271.763.808 1.368 1.486 1.673l15.833 7.133c2.237 1.008 2.237 4.572 0 5.58l-15.833 7.133c-.678.305-1.215.91-1.486 1.673l-6.338 17.821c-.896 2.518-4.062 2.518-4.957 0l-6.338-17.821c-.271-.763-.808-1.368-1.486-1.673l-15.833-7.133c-2.237-1.008-2.237-4.572 0-5.58l15.833-7.133c.678-.306 1.215-.91 1.486-1.673l6.338-17.821c.895-2.517 4.061-2.517 4.957 0z"/><path d="m472.819 2.546 8.708 24.024c.373 1.029 1.111 1.844 2.043 2.256l21.756 9.616c3.074 1.359 3.074 6.163 0 7.522l-21.756 9.617c-.931.412-1.67 1.227-2.043 2.255l-8.708 24.024c-1.23 3.394-5.581 3.394-6.812 0l-8.708-24.024c-.373-1.029-1.111-1.844-2.043-2.255l-21.756-9.618c-3.074-1.358-3.074-6.163 0-7.522l21.756-9.616c.932-.412 1.67-1.227 2.043-2.256l8.708-24.024c1.231-3.394 5.582-3.394 6.812.001z"/></g></g></g></svg>