<svg id="Capa_1" enable-background="new 0 0 512 512" height="512" viewBox="0 0 512 512" width="512" xmlns="http://www.w3.org/2000/svg"><g><g><path d="m349.581 408.818h-68.624c-5.271 0-9.544 4.273-9.544 9.544v39.084c0 5.271 4.273 9.544 9.544 9.544h68.624c5.271 0 9.544-4.273 9.544-9.544v-39.084c0-5.271-4.273-9.544-9.544-9.544z" fill="#8bb6ef"/><path d="m198.035 399.276c-61.635 0-111.6-50.779-111.6-113.417s49.965-113.417 111.6-113.417l-4.705-45.278c-93.826 0-169.887 82.684-169.887 184.679 0 101.996 76.061 184.68 169.887 184.68" fill="#e7effa"/><path d="m362.456 365.165h-162.75c-14.725 0-26.661-11.937-26.661-26.661 0-14.725 11.936-26.661 26.661-26.661h162.75c14.725 0 26.661 11.937 26.661 26.661 0 14.725-11.936 26.661-26.661 26.661z" fill="#e7effa"/><path d="m117.021 472.016h92.047c10.105 0 18.296-8.192 18.296-18.297v-123.58c0-10.105-8.192-18.297-18.296-18.297h-59.06c-7.863 0-14.847 5.024-17.347 12.479l-32.987 123.58c-3.975 11.855 4.845 24.115 17.347 24.115z" fill="#cab4ef"/><path d="m209.068 311.843h-29.195c7.432 0 13.456 5.537 13.456 12.368v83.54c0 6.831-6.025 12.368-13.456 12.368h-67.696c-1.734 0-3.37-.296-4.866-.828l-7.637 28.61c-3.975 11.854 4.845 24.114 17.347 24.114h92.047c10.105 0 18.296-8.192 18.296-18.297v-123.58c.001-10.104-8.191-18.295-18.296-18.295z" fill="#be87ef"/><path d="m394.945 512h-281.991c-17.402 0-31.509-14.107-31.509-31.509 0-17.402 14.107-31.509 31.509-31.509h281.991c17.402 0 31.509 14.107 31.509 31.509 0 17.402-14.107 31.509-31.509 31.509z" fill="#a183e2"/><path d="m394.945 448.982h-29.179c10.196 0 18.462 8.266 18.462 18.462s-8.266 18.461-18.462 18.461h-265.859c-8.228 0-15.193-5.386-17.577-12.823-.573 2.377-.884 4.856-.884 7.408 0 17.402 14.107 31.509 31.509 31.509h281.991c17.402 0 31.509-14.107 31.509-31.509-.001-17.401-14.108-31.508-31.51-31.508z" fill="#9762e2"/><path d="m291.846 259.633-27.431 8.458c-11.807 3.641-24.331-2.98-27.972-14.787l-24.024-77.913 70.19-21.643 24.024 77.913c3.641 11.808-2.98 24.331-14.787 27.972z" fill="#a183e2"/><path d="m285.149 150.264h-70.747l-74.819-119.617c-8.343-13.339 1.246-30.647 16.979-30.647h23.503c6.903 0 13.319 3.555 16.979 9.407z" fill="#a183e2"/><path d="m296.163 187.379-76.004 23.436c-13.365 4.121-27.541-3.373-31.662-16.738l-23.436-76.004c-4.121-13.365 3.373-27.541 16.738-31.662l76.004-23.435c13.365-4.121 27.541 3.373 31.662 16.738l23.436 76.004c4.121 13.364-3.373 27.54-16.738 31.661z" fill="#cab4ef"/><path d="m312.901 155.717-23.436-76.004c-4.121-13.365-18.297-20.86-31.662-16.738l-25.62 7.9c9.948-3.067 20.499 2.51 23.566 12.459l17.443 56.571c3.068 9.948-2.51 20.499-12.458 23.567l-56.571 17.443c-9.948 3.067-20.499-2.511-23.567-12.459l7.9 25.621c4.121 13.365 18.297 20.859 31.662 16.738l76.004-23.436c13.366-4.121 20.86-18.297 16.739-31.662z" fill="#be87ef"/><g><path d="m169.5 134.047c-2.669 0-5.142-1.72-5.978-4.403-1.029-3.302.814-6.814 4.117-7.842l121.652-37.897c3.303-1.025 6.814.814 7.843 4.117 1.029 3.302-.814 6.814-4.117 7.842l-121.652 37.897c-.62.194-1.247.286-1.865.286z" fill="#a171e3"/></g><g><path d="m188.669 188.747c-2.669 0-5.142-1.72-5.978-4.403-1.029-3.302.814-6.814 4.117-7.842l115.494-35.98c3.303-1.026 6.814.814 7.843 4.117 1.029 3.302-.815 6.814-4.117 7.842l-115.494 35.98c-.62.193-1.248.286-1.865.286z" fill="#a171e3"/></g><g><path d="m151.992 400.719c-.807 0-1.626-.094-2.445-.29-5.606-1.346-9.059-6.981-7.714-12.587l3.379-14.08c1.346-5.606 6.982-9.059 12.587-7.714 5.606 1.346 9.059 6.981 7.714 12.587l-3.379 14.08c-1.15 4.787-5.427 8.004-10.142 8.004z" fill="#fff"/></g><g><path d="m162.412 357.301c-.806 0-1.624-.094-2.443-.29-5.606-1.345-9.061-6.979-7.716-12.586l.635-2.645c1.347-5.606 6.984-9.054 12.588-7.712 5.606 1.347 9.058 6.983 7.712 12.589l-.633 2.637c-1.148 4.788-5.426 8.007-10.143 8.007z" fill="#fff"/></g></g><g><ellipse cx="459.154" cy="108.834" fill="#a183e2" rx="19.36" ry="19.361" transform="matrix(.231 -.973 .973 .231 247.326 530.492)"/><circle cx="379.789" cy="180.023" fill="#a183e2" r="8.199"/><g fill="#cab4ef"><path d="m361.697 31.316 6.577 18.494c.281.792.839 1.419 1.542 1.736l16.431 7.403c2.321 1.046 2.321 4.744 0 5.79l-16.431 7.403c-.704.317-1.261.944-1.542 1.736l-6.577 18.494c-.929 2.613-4.215 2.613-5.144 0l-6.577-18.494c-.282-.792-.839-1.419-1.543-1.736l-16.431-7.403c-2.321-1.046-2.321-4.744 0-5.79l16.431-7.403c.704-.317 1.261-.944 1.543-1.736l6.577-18.494c.928-2.613 4.214-2.613 5.144 0z"/><path d="m452.431 193.248 9.037 24.931c.387 1.067 1.153 1.913 2.12 2.341l22.577 9.98c3.19 1.41 3.19 6.396 0 7.806l-22.577 9.98c-.967.427-1.733 1.273-2.12 2.341l-9.037 24.931c-1.277 3.522-5.792 3.522-7.069 0l-9.037-24.931c-.387-1.067-1.153-1.913-2.12-2.341l-22.577-9.98c-3.19-1.41-3.19-6.396 0-7.806l22.577-9.98c.967-.427 1.733-1.273 2.12-2.341l9.037-24.931c1.277-3.522 5.793-3.522 7.069 0z"/></g></g></g></svg>