<svg id="Capa_1" enable-background="new 0 0 512 512" height="512" viewBox="0 0 512 512" width="512" xmlns="http://www.w3.org/2000/svg"><g><g><path d="m501.246 314.334c14.339-6.308 14.339-22.079 0-28.388l-107.087-47.114-127.405-56.054c-6.654-2.928-14.853-2.928-21.508 0l-127.405 56.054-107.087 47.114c-14.339 6.309-14.339 22.08 0 28.388l107.087 47.114 127.405 56.054c6.655 2.928 14.854 2.928 21.508 0l127.405-56.054z" fill="#8bb6ef"/><path d="m397.631 457.278v-146.673c0-19.37-63.41-35.073-141.631-35.073s-141.631 15.703-141.631 35.073v146.673" fill="#8bb6ef"/><ellipse cx="256" cy="457.278" fill="#a183e2" rx="141.631" ry="35.072"/><path d="m256 275.532c-5.069 0-10.075.067-15.006.196 56.229 1.64 99.852 13.481 99.852 27.846v117.27c0 15.487-50.699 28.042-113.239 28.042s-113.238-12.555-113.238-28.042v36.434c0 19.37 63.411 35.073 141.631 35.073s141.631-15.702 141.631-35.073v-146.674c0-19.369-63.41-35.072-141.631-35.072z" fill="#8388ef"/><path d="m336.634 428.443c-13.38 11.794-57.124 20.441-109.027 20.441-36.556 0-69.06-4.291-89.764-10.948-14.83 5.544-23.475 12.192-23.475 19.341 0 19.37 63.41 35.072 141.631 35.072s141.631-15.703 141.631-35.072c.001-11.949-24.139-22.501-60.996-28.834z" fill="#9762e2"/><g><path d="m114.369 359.641c-5.811 0-10.522-4.711-10.522-10.522v-38.515c0-15.316 16.184-26.77 49.476-35.013 27.553-6.823 64.018-10.581 102.677-10.581s75.124 3.758 102.678 10.581c33.292 8.244 49.476 19.697 49.476 35.013 0 5.811-4.711 10.522-10.522 10.522-5.716 0-10.367-4.557-10.518-10.236-1.077-2.265-9.946-9.576-37.818-15.897-25.421-5.765-58.554-8.94-93.296-8.94-34.741 0-67.874 3.175-93.295 8.94-27.839 6.313-36.72 13.614-37.813 15.889v38.237c-.001 5.811-4.712 10.522-10.523 10.522z" fill="#6280cc"/></g><g><path d="m461.92 405.665c-5.811 0-10.522-4.711-10.522-10.522v-122.577c0-5.811 4.711-10.522 10.522-10.522s10.522 4.711 10.522 10.522v122.577c0 5.811-4.712 10.522-10.522 10.522z" fill="#6280cc"/></g><path d="m461.92 460.498c-12.473 0-22.585-10.112-22.585-22.585v-39.907c0-4.534 3.676-8.21 8.21-8.21h28.751c4.534 0 8.21 3.676 8.21 8.21v39.907c-.001 12.473-10.113 22.585-22.586 22.585z" fill="#ffe266"/><g><path d="m306.92 379.435c-3.486 0-6.313-2.827-6.313-6.313v-13.434c0-3.487 2.827-6.313 6.313-6.313 3.487 0 6.313 2.827 6.313 6.313v13.434c.001 3.486-2.826 6.313-6.313 6.313z" fill="#6280cc"/></g><g><path d="m336.441 362.149c-3.486 0-6.313-2.827-6.313-6.313v-13.434c0-3.486 2.827-6.313 6.313-6.313s6.313 2.827 6.313 6.313v13.434c0 3.487-2.827 6.313-6.313 6.313z" fill="#6280cc"/></g><g><path d="m358.307 406.246c-3.486 0-6.313-2.827-6.313-6.313v-13.434c0-3.486 2.827-6.313 6.313-6.313 3.487 0 6.313 2.827 6.313 6.313v13.434c0 3.486-2.827 6.313-6.313 6.313z" fill="#6280cc"/></g><g><path d="m156.078 390.064c-5.811 0-10.522-4.711-10.522-10.522v-17.194c0-5.811 4.711-10.522 10.522-10.522s10.522 4.711 10.522 10.522v17.194c0 5.811-4.712 10.522-10.522 10.522z" fill="#fff"/></g><g><path d="m156.078 340.904c-5.811 0-10.522-4.711-10.522-10.522v-6.402c0-5.811 4.711-10.522 10.522-10.522s10.522 4.711 10.522 10.522v6.402c0 5.812-4.712 10.522-10.522 10.522z" fill="#fff"/></g></g><g><path d="m376.864 137.866c0 10.778-8.737 19.515-19.515 19.515s-19.515-8.737-19.515-19.515 8.737-19.515 19.515-19.515 19.515 8.737 19.515 19.515z" fill="#8bb6ef"/><ellipse cx="74.061" cy="65.64" fill="#8bb6ef" rx="8.264" ry="8.264" transform="matrix(.707 -.707 .707 .707 -24.722 71.595)"/><g fill="#b2e7f1"><path d="m213.602 21.625 6.63 18.641c.284.798.846 1.43 1.555 1.75l16.562 7.462c2.34 1.054 2.34 4.782 0 5.836l-16.562 7.462c-.709.319-1.271.952-1.555 1.75l-6.63 18.641c-.937 2.634-4.249 2.634-5.185 0l-6.63-18.641c-.284-.798-.846-1.431-1.555-1.75l-16.562-7.462c-2.34-1.054-2.34-4.782 0-5.836l16.562-7.462c.709-.32 1.271-.952 1.555-1.75l6.63-18.641c.936-2.634 4.248-2.634 5.185 0z"/><path d="m455.337 35.601 9.109 25.13c.39 1.076 1.162 1.929 2.137 2.359l22.757 10.06c3.215 1.421 3.215 6.447 0 7.868l-22.758 10.059c-.974.431-1.747 1.283-2.137 2.359l-9.109 25.13c-1.287 3.55-5.838 3.55-7.125 0l-9.109-25.13c-.39-1.076-1.162-1.929-2.137-2.359l-22.758-10.059c-3.215-1.421-3.215-6.447 0-7.868l22.758-10.059c.975-.431 1.747-1.283 2.137-2.359l9.109-25.13c1.287-3.551 5.839-3.551 7.126-.001z"/><path d="m69.359 112.836 9.109 25.13c.39 1.076 1.162 1.929 2.137 2.359l22.758 10.059c3.215 1.421 3.215 6.447 0 7.868l-22.758 10.059c-.974.431-1.746 1.283-2.137 2.359l-9.109 25.13c-1.287 3.55-5.838 3.55-7.125 0l-9.109-25.13c-.39-1.076-1.162-1.929-2.137-2.359l-22.758-10.058c-3.215-1.421-3.215-6.447 0-7.868l22.758-10.059c.974-.431 1.746-1.283 2.137-2.359l9.109-25.13c1.287-3.551 5.839-3.551 7.125-.001z"/></g></g></g></svg>