<svg id="Capa_1" enable-background="new 0 0 512 512" height="512" viewBox="0 0 512 512" width="512" xmlns="http://www.w3.org/2000/svg"><g><g><g fill="#bdf4e3"><path d="m95.27 512h-15.205c-10.555 0-19.112-8.557-19.112-19.112v-46.344h53.429v46.344c0 10.555-8.557 19.112-19.112 19.112z"/><path d="m415.746 512h-15.205c-10.555 0-19.112-8.557-19.112-19.112v-46.344h53.429v46.344c0 10.555-8.557 19.112-19.112 19.112z"/></g><path d="m450.305 466.917h-404.799c-13.511 0-24.464-10.953-24.464-24.464v-309.192c0-13.511 10.953-24.464 24.464-24.464h404.799c13.511 0 24.464 10.953 24.464 24.464v309.192c0 13.512-10.953 24.464-24.464 24.464z" fill="#78eac4"/><path d="m163.872 273.318h-10.562c-4.999 0-9.05 4.052-9.05 9.05v43.221c0 4.998 4.052 9.05 9.05 9.05h10.562" fill="#bdf4e3"/><path d="m304.181 273.318h-10.562c-4.999 0-9.051 4.052-9.051 9.05v43.221c0 4.998 4.052 9.05 9.051 9.05h10.562" fill="#bdf4e3"/><path d="m450.305 108.797h-46.96c11.892 0 21.533 9.64 21.533 21.532v268.646c0 11.892-9.641 21.532-21.533 21.532h-360.77c-11.892 0-21.532-9.64-21.532-21.532v43.478c0 13.511 10.953 24.464 24.464 24.464h404.799c13.511 0 24.464-10.953 24.464-24.464v-309.192c-.001-13.511-10.954-24.464-24.465-24.464z" fill="#71afc4"/><path d="m444.49 273.318h-10.562c-4.998 0-9.05 4.052-9.05 9.05v43.221c0 4.998 4.052 9.05 9.05 9.05h10.562" fill="#b1b7e3"/><g><path d="m149.261 448.881h-83.329c-11.472 0-20.804-9.333-20.804-20.804v-275.172c0-11.471 9.333-20.804 20.804-20.804h83.329c11.472 0 20.804 9.333 20.804 20.804v275.172c0 11.472-9.332 20.804-20.804 20.804zm-83.329-304.393c-4.642 0-8.418 3.776-8.418 8.417v275.172c0 4.641 3.776 8.417 8.418 8.417h83.329c4.642 0 8.418-3.776 8.418-8.417v-275.172c0-4.641-3.776-8.417-8.418-8.417z" fill="#518699"/></g><g><path d="m289.571 448.881h-83.33c-11.471 0-20.804-9.333-20.804-20.804v-275.172c0-11.471 9.333-20.804 20.804-20.804h83.33c11.471 0 20.804 9.333 20.804 20.804v275.172c0 11.472-9.333 20.804-20.804 20.804zm-83.33-304.393c-4.641 0-8.417 3.776-8.417 8.417v275.172c0 4.641 3.776 8.417 8.417 8.417h83.33c4.641 0 8.417-3.776 8.417-8.417v-275.172c0-4.641-3.776-8.417-8.417-8.417z" fill="#518699"/></g><g><path d="m429.879 448.881h-83.329c-11.472 0-20.804-9.333-20.804-20.804v-275.172c0-11.471 9.333-20.804 20.804-20.804h83.329c11.472 0 20.804 9.333 20.804 20.804v275.172c.001 11.472-9.332 20.804-20.804 20.804zm-83.329-304.393c-4.642 0-8.418 3.776-8.418 8.417v275.172c0 4.641 3.776 8.417 8.418 8.417h83.329c4.642 0 8.418-3.776 8.418-8.417v-275.172c0-4.641-3.776-8.417-8.418-8.417z" fill="#518699"/></g><g><path d="m135.355 185.199h-55.516c-3.42 0-6.193-2.773-6.193-6.193s2.773-6.193 6.193-6.193h55.516c3.42 0 6.193 2.773 6.193 6.193s-2.773 6.193-6.193 6.193z" fill="#518699"/></g><g><path d="m135.355 209.701h-55.516c-3.42 0-6.193-2.773-6.193-6.193s2.773-6.193 6.193-6.193h55.516c3.42 0 6.193 2.773 6.193 6.193s-2.773 6.193-6.193 6.193z" fill="#518699"/></g><g><path d="m135.355 234.203h-55.516c-3.42 0-6.193-2.773-6.193-6.193s2.773-6.193 6.193-6.193h55.516c3.42 0 6.193 2.773 6.193 6.193s-2.773 6.193-6.193 6.193z" fill="#518699"/></g><g><path d="m274.797 185.199h-55.517c-3.42 0-6.193-2.773-6.193-6.193s2.773-6.193 6.193-6.193h55.516c3.42 0 6.193 2.773 6.193 6.193s-2.772 6.193-6.192 6.193z" fill="#518699"/></g><g><path d="m274.797 209.701h-55.517c-3.42 0-6.193-2.773-6.193-6.193s2.773-6.193 6.193-6.193h55.516c3.42 0 6.193 2.773 6.193 6.193.001 3.42-2.772 6.193-6.192 6.193z" fill="#518699"/></g><g><path d="m274.797 234.203h-55.517c-3.42 0-6.193-2.773-6.193-6.193s2.773-6.193 6.193-6.193h55.516c3.42 0 6.193 2.773 6.193 6.193.001 3.42-2.772 6.193-6.192 6.193z" fill="#518699"/></g><g><path d="m415.973 185.199h-55.516c-3.42 0-6.193-2.773-6.193-6.193s2.773-6.193 6.193-6.193h55.516c3.42 0 6.193 2.773 6.193 6.193s-2.773 6.193-6.193 6.193z" fill="#518699"/></g><g><path d="m415.973 209.701h-55.516c-3.42 0-6.193-2.773-6.193-6.193s2.773-6.193 6.193-6.193h55.516c3.42 0 6.193 2.773 6.193 6.193s-2.773 6.193-6.193 6.193z" fill="#518699"/></g><g><path d="m415.973 234.203h-55.516c-3.42 0-6.193-2.773-6.193-6.193s2.773-6.193 6.193-6.193h55.516c3.42 0 6.193 2.773 6.193 6.193s-2.773 6.193-6.193 6.193z" fill="#518699"/></g><g fill="#ffe266"><ellipse cx="114.382" cy="303.979" rx="11.827" ry="11.827" transform="matrix(.707 -.707 .707 .707 -181.444 169.914)"/><ellipse cx="253.574" cy="303.979" rx="11.827" ry="11.827" transform="matrix(.229 -.974 .974 .229 -100.322 481.35)"/><ellipse cx="392.766" cy="303.979" rx="11.827" ry="11.827" transform="matrix(.16 -.987 .987 .16 29.798 642.981)"/></g><g><path d="m77.011 337.481c-5.547 0-10.13-4.405-10.311-9.989-.33-10.215-.33-19.65 0-29.691.188-5.698 4.953-10.139 10.656-9.977 5.698.187 10.165 4.958 9.977 10.656-.315 9.583-.315 18.59 0 28.347.184 5.698-4.286 10.466-9.983 10.65-.113.002-.226.004-.339.004z" fill="#fff"/></g><g><path d="m77.017 279.577c-5.701 0-10.322-4.621-10.322-10.322v-5.619c0-5.701 4.621-10.322 10.322-10.322s10.322 4.621 10.322 10.322v5.619c0 5.701-4.621 10.322-10.322 10.322z" fill="#fff"/></g><g><path d="m408.144 409.768c-3.42 0-6.193-2.773-6.193-6.193v-11.813c0-3.42 2.773-6.193 6.193-6.193s6.193 2.773 6.193 6.193v11.813c0 3.42-2.773 6.193-6.193 6.193z" fill="#518699"/></g><g><path d="m381.43 382.774c-3.42 0-6.193-2.773-6.193-6.193v-11.813c0-3.42 2.773-6.193 6.193-6.193s6.193 2.773 6.193 6.193v11.813c0 3.42-2.773 6.193-6.193 6.193z" fill="#518699"/></g><g><path d="m262.011 397.954c-3.42 0-6.193-2.773-6.193-6.193v-11.813c0-3.42 2.773-6.193 6.193-6.193s6.193 2.773 6.193 6.193v11.813c0 3.42-2.773 6.193-6.193 6.193z" fill="#518699"/></g></g><g><ellipse cx="21.042" cy="19.29" fill="#78eac4" rx="19.144" ry="19.144" transform="matrix(.387 -.922 .922 .387 -4.89 31.222)"/><path d="m376.671 43.307c0 4.478-3.63 8.107-8.107 8.107-4.478 0-8.107-3.63-8.107-8.107 0-4.478 3.63-8.107 8.107-8.107 4.478-.001 8.107 3.629 8.107 8.107z" fill="#78eac4"/><g fill="#bdf4e3"><path d="m122.398 13.12 6.504 18.287c.278.783.829 1.403 1.525 1.717l16.247 7.32c2.295 1.034 2.295 4.691 0 5.726l-16.247 7.32c-.696.313-1.247.934-1.525 1.717l-6.504 18.287c-.919 2.583-4.168 2.583-5.087 0l-6.504-18.287c-.278-.783-.83-1.403-1.525-1.717l-16.247-7.32c-2.295-1.034-2.295-4.691 0-5.726l16.247-7.32c.696-.313 1.247-.934 1.525-1.717l6.504-18.287c.919-2.583 4.168-2.583 5.087 0z"/><path d="m474.379 2.612 8.936 24.653c.383 1.056 1.14 1.892 2.096 2.315l22.325 9.868c3.154 1.394 3.154 6.324 0 7.718l-22.325 9.868c-.956.422-1.713 1.259-2.096 2.314l-8.936 24.653c-1.263 3.483-5.727 3.483-6.99 0l-8.936-24.653c-.383-1.055-1.14-1.892-2.096-2.314l-22.325-9.868c-3.154-1.394-3.154-6.324 0-7.718l22.325-9.868c.956-.423 1.713-1.259 2.096-2.315l8.936-24.653c1.262-3.483 5.727-3.483 6.99 0z"/></g></g></g></svg>