<svg width="486.59" height="486.59" xmlns="http://www.w3.org/2000/svg" clip-rule="evenodd" version="1.1" xml:space="preserve">

 <g>
  <title>Layer 1</title>
  <g id="Capa_x0020_1">
   <metadata id="CorelCorpID_0Corel-Layer"/>
   <rect id="svg_1" fill="none" height="486.59" width="486.59" y="0" x="0" class="fil0"/>
   <g id="_2289508432544">
    <path id="svg_2" fill-rule="nonzero" fill="#002D42" d="m468.93,55.67l-452.51,-1.35c-1.41,1.41 -0.07,222.69 2.68,240.61c3.65,3.65 410.65,8.52 448.12,2.76c2.59,-22.33 1.51,-204.28 1.71,-242.03l0,0.01z" class="fil1"/>
    <path id="svg_3" fill-rule="nonzero" fill="#373435" d="m25.6,41.67l435.39,0c5.67,0 10.84,2.33 14.61,6.08l0.04,0.04c3.75,3.77 6.08,8.95 6.08,14.61l0,225.84c0,5.67 -2.33,10.84 -6.08,14.61l-0.04,0.04c-3.77,3.75 -8.95,6.08 -14.61,6.08l-435.39,0c-5.67,0 -10.84,-2.33 -14.61,-6.08l-0.04,-0.04c-3.75,-3.77 -6.08,-8.95 -6.08,-14.61l0,-225.84c0,-5.67 2.33,-10.84 6.08,-14.61l0.04,-0.04c3.77,-3.75 8.94,-6.08 14.61,-6.08zm435.39,20.57l-435.5,0.02l-0.04,0.04c-2.28,14.84 -2.28,211.21 0,226.06l0.04,0.04c28.48,4.38 407.12,4.38 435.6,0l0.04,-0.04c2.28,-14.84 2.28,-211.21 0,-226.06l-0.04,-0.04l-0.11,-0.02l0.01,0z" class="fil2"/>
    <path id="svg_4" fill="white" d="m367.59,251.75c25.05,0 45.36,20.31 45.36,45.36c0,25.05 -20.31,45.36 -45.36,45.36c-25.05,0 -45.36,-20.31 -45.36,-45.36c0,-25.05 20.31,-45.36 45.36,-45.36zm55.77,184.83l0,-24.84c0,-32.18 -26.33,-58.51 -58.51,-58.51l0,0c-32.18,0 -58.51,26.33 -58.51,58.51l0,24.84l117.02,0z" class="fil3"/>
    <path id="svg_5" fill="white" d="m114.5,119.31c27.55,0 49.89,22.34 49.89,49.89c0,27.55 -22.34,49.89 -49.89,49.89c-27.55,0 -49.89,-22.34 -49.89,-49.89c0,-27.55 22.34,-49.89 49.89,-49.89zm185.32,45.19l31.54,-53.48c0.9,-1.52 0.39,-3.5 -1.13,-4.4l0,0c-1.52,-0.9 -3.5,-0.39 -4.39,1.14l-31.74,53.82c-5.93,-1.91 -12.67,-1.09 -18.08,2.81l-90.31,65.14l-72.12,0l0,0c-32.18,0 -58.51,26.33 -58.51,58.51l0,148.55l117.02,0l0,-147.34l127.59,-92.03c9.03,-6.51 11.09,-19.22 4.57,-28.25l0,0c-1.27,-1.76 -2.77,-3.25 -4.44,-4.47z" class="fil3"/>
   </g>
  </g>
 </g>
</svg>