<svg width="268.71" height="268.71" xmlns="http://www.w3.org/2000/svg" clip-rule="evenodd" version="1.1" xml:space="preserve">

 <g>
  <title>Layer 1</title>
  <g id="Capa_x0020_1">
   <metadata id="CorelCorpID_0Corel-Layer"/>
   <rect id="svg_1" fill="none" height="268.71" width="268.71" y="0" x="0" class="fil0"/>
   <g id="_2289511119792">
    <path id="svg_2" fill="#373435" d="m29.73,125.02l139.32,0c1.52,0 2.77,-1.24 2.77,-2.76l0,-10.18l-14.27,-15.59l-2.15,0.36l-23.98,-27.13l22.73,-19.7l3.41,7.43l14.27,14.83l0,-46.96c0,-1.52 -1.24,-2.76 -2.77,-2.76l-139.32,0c-1.52,0 -2.77,1.24 -2.77,2.76l0,96.95c0,1.52 1.24,2.76 2.77,2.76l-0.01,-0.01z" class="fil1"/>
    <rect id="svg_3" fill="#373435" ry="2.77" rx="2.77" height="19.02" width="153.5" y="13.03" x="22.64" class="fil1"/>
    <polygon id="svg_4" fill="white" points="41.23,112.49 157.55,112.49 157.55,96.49 133.25,69.93 153.15,52.87 157.55,57.44 157.55,27.95 41.23,27.95 " class="fil2"/>
    <path id="svg_5" fill="#002D42" d="m128.36,73.78c0,16 -12.97,28.97 -28.97,28.97c-16,0 -28.97,-12.97 -28.97,-28.97c0,-16 12.97,-28.97 28.97,-28.97l0,28.97l28.97,0z" class="fil3"/>
    <path id="svg_6" fill="#002D42" d="m105.87,38.76c16,0 28.97,12.97 28.97,28.97l-28.97,0l0,-28.97z" class="fil3"/>
    <path id="svg_7" fill="white" d="m5.3,256.46l73.29,0l0,-35.56c0,-12.11 -7.88,-22.46 -18.76,-26.19c-4.38,5.72 -10.77,9.33 -17.88,9.33c-7.12,0 -13.51,-3.61 -17.88,-9.33c-10.88,3.73 -18.76,14.08 -18.76,26.19l0,35.56l-0.01,0z" class="fil2"/>
    <ellipse id="svg_8" fill="white" ry="19.89" rx="17.17" cy="176.36" cx="41.94" class="fil2"/>
    <path id="svg_9" fill="white" d="m87.28,256.46l73.29,0l0,-35.56c0,-12.11 -7.88,-22.46 -18.76,-26.19c-4.38,5.72 -10.77,9.33 -17.88,9.33c-7.12,0 -13.51,-3.61 -17.88,-9.33c-10.88,3.73 -18.76,14.08 -18.76,26.19l0,35.56l-0.01,0z" class="fil2"/>
    <ellipse id="svg_10" fill="white" ry="19.89" rx="17.17" cy="176.36" cx="123.93" class="fil2"/>
    <path id="svg_11" fill="white" d="m169.26,256.46l73.29,0l0,-35.56c0,-12.11 -7.88,-22.46 -18.76,-26.19c-4.38,5.72 -10.77,9.33 -17.88,9.33c-7.12,0 -13.51,-3.61 -17.88,-9.33c-10.88,3.73 -18.76,14.08 -18.76,26.19l0,35.56l-0.01,0z" class="fil2"/>
    <ellipse id="svg_12" fill="white" ry="19.89" rx="17.17" cy="176.36" cx="205.91" class="fil2"/>
    <path id="svg_13" fill="#002D42" d="m201.64,140.7l0,12.17c1.38,-0.32 2.81,-0.48 4.27,-0.48c5.97,0 11.36,2.77 15.22,7.25c0.95,1.1 1.81,2.31 2.56,3.6l0,-22.54l4.32,0l0,46.88c6.48,2.57 12.03,6.96 16.01,12.52c0.95,1.33 1.81,2.72 2.58,4.17l3.46,0l0,-63.56l13.19,0l0,-51.8c0,-12.18 -15.67,-32.44 -22.14,-22.14l-11.94,19.02l-5.28,-11.89l-5.28,11.89l-11.88,-19.02l-3.93,0c-3.86,0 -5.95,2.31 -8.3,3.9l-19.68,12.97l-22.05,-22.92l-11.35,9.73l31.46,34.38l21.62,-13.09l7.14,48.98l0,-0.02z" class="fil3"/>
    <ellipse id="svg_14" fill="white" ry="19.89" rx="17.17" cy="43.3" cx="223.9" class="fil2"/>
   </g>
  </g>
 </g>
</svg>