<svg width="216.6" height="216.6" xmlns="http://www.w3.org/2000/svg" clip-rule="evenodd" version="1.1" xml:space="preserve">

 <g>
  <title>Layer 1</title>
  <g id="Capa_x0020_1">
   <metadata id="CorelCorpID_0Corel-Layer"/>
   <rect id="svg_1" fill="none" height="216.6" width="216.6" y="0" x="0" class="fil0"/>
   <g id="_2289506560240">
    <path id="svg_2" fill="#002D42" d="m52.56,19.13l13.7,0l16.61,17.92l45.06,0.15l20.12,-18.07l14.46,0c9.65,0 17.54,7.89 17.54,17.54l0,146.2c0,9.65 -7.89,17.54 -17.54,17.54l-109.95,0c-9.65,0 -17.54,-7.89 -17.54,-17.54l0,-146.2c0,-9.65 7.89,-17.54 17.54,-17.54z" class="fil1"/>
    <rect id="svg_3" fill="white" ry="4.29" rx="4.05" height="155.14" width="117.2" y="32.2" x="48.93" class="fil2"/>
    <rect id="svg_4" fill="#465B65" height="8.22" width="40.89" y="83.43" x="60.95" class="fil3"/>
    <rect id="svg_5" fill="#465B65" height="8.22" width="40.89" y="138.23" x="60.95" class="fil3"/>
    <polygon id="svg_6" fill="#6DBE4F" points="132.02,89.06 122.69,79.73 116.88,85.55 132.02,100.69 152.75,79.96 146.93,74.15 " class="fil4"/>
    <polygon id="svg_7" fill="#EC3143" points="116.45,153.19 125.79,143.86 116.45,134.53 122.27,128.71 131.6,138.05 140.94,128.71 146.75,134.53 137.41,143.86 146.75,153.19 140.93,159.01 131.6,149.67 122.27,159.01 " class="fil5"/>
    <path id="svg_8" fill="#8FA3AD" d="m107.53,2.06c9.43,0 17.07,7.64 17.07,17.07l23.44,0l0,18.44c0,5.19 -4.25,9.44 -9.44,9.44l-62.9,0c-5.19,0 -9.5,-4.14 -9.5,-9.34l0,-18.44l24.26,-0.1c0,-9.43 7.64,-17.07 17.07,-17.07zm0,7.1c5.51,0 9.97,4.46 9.97,9.97c0,5.51 -4.46,9.97 -9.97,9.97c-5.51,0 -9.97,-4.46 -9.97,-9.97c0,-5.51 4.46,-9.97 9.97,-9.97z" class="fil6"/>
   </g>
  </g>
 </g>
</svg>