<svg width="345.31" height="345.31" xmlns="http://www.w3.org/2000/svg" clip-rule="evenodd" version="1.1" xml:space="preserve">

 <g>
  <title>Layer 1</title>
  <g id="Capa_x0020_1">
   <metadata id="CorelCorpID_0Corel-Layer"/>
   <rect id="svg_1" fill="none" height="345.31" width="345.31" y="0" x="0" class="fil0"/>
   <path id="svg_2" fill="white" d="m160.1,5.58c7.45,0 14.35,2.35 19.99,6.35c-5.27,1.9 -10.47,3.06 -15.78,3.48c-7.84,0.62 -15.98,-0.36 -25,-2.9c5.79,-4.35 12.99,-6.93 20.79,-6.93zm-3.06,30.17c-1.32,-1.32 -3.15,-2.14 -5.18,-2.14c-2.03,0 -3.86,0.82 -5.18,2.13l-0.01,0.01c-1.32,1.32 -2.14,3.15 -2.14,5.18c0,2.03 0.82,3.86 2.14,5.18c1.33,1.33 3.17,2.15 5.19,2.15c2.02,0 3.85,-0.82 5.18,-2.15c1.32,-1.32 2.14,-3.15 2.14,-5.18c0,-2.02 -0.82,-3.85 -2.14,-5.18zm2.22,39.15c-18.76,-0.44 -33.83,-15.79 -33.83,-34.65c0,-6.85 1.99,-13.24 5.42,-18.62l1,0.23c6.9,1.61 13.18,3.4 19.04,5.51c0.43,0.33 0.4,0.82 -0.14,1.13c-3,0.27 -5.69,1.59 -7.71,3.61l-0.01,0.01c-2.26,2.26 -3.66,5.38 -3.66,8.82c0,3.44 1.4,6.56 3.66,8.83c2.26,2.26 5.38,3.66 8.83,3.66c3.45,0 6.57,-1.4 8.83,-3.66c2.26,-2.26 3.66,-5.38 3.66,-8.83c0,-2.89 -0.98,-5.56 -2.64,-7.67c-0.19,-0.52 -0.02,-1.03 0.64,-1.07c1.57,0.77 3.12,1.57 4.65,2.42c3.21,1.77 6.34,3.73 9.45,5.91c-3.03,4.85 -5.99,10.24 -8.77,15.78c-3.12,6.22 -5.98,12.6 -8.42,18.59z" class="fil1"/>
   <path id="svg_3" fill="#002D42" d="m190.28,10.28c7.63,7.69 12.34,18.27 12.34,29.96c0,5.91 -1.21,11.55 -3.39,16.66c-21.28,-21.81 -39.14,-31.11 -66.8,-37.56c1.28,-1.6 2.81,-3.37 4.45,-4.86c20.01,5.98 35.85,4.72 53.39,-4.21l0.01,0.01z" class="fil2"/>
   <path id="svg_4" fill="#002D42" d="m194.62,55.91l-30.43,39.77c-6.4,-7.1 -5.41,-12.58 -3.52,-17.37c4.66,-11.82 11.09,-25.41 17.87,-36.29c5.32,3.9 10.6,8.47 16.08,13.89z" class="fil2"/>
   <path id="svg_5" fill="white" d="m127.88,211.71c6.09,3.41 9.7,10.05 9.34,16.95c-0.06,2.57 -0.66,5.13 -1.8,7.5l-30.48,91.78c-3.26,9.81 -13.95,15.17 -23.76,11.91l0,0c-9.81,-3.26 -15.17,-13.95 -11.91,-23.76l27.56,-82.97l-59.35,-51.75c-0.52,-0.41 -1.01,-0.84 -1.48,-1.29l-1.63,-1.42c-5.74,-5.01 -7.59,-12.88 -5.27,-19.7c0.06,-0.65 0.14,-1.31 0.23,-1.96c2.53,-17.53 9.41,-37.96 20.97,-57.05c5.26,-8.69 23.23,-29.5 32.53,-35.49c12.57,-8.11 29.03,-7.64 38.65,0.47c3.42,2.89 5.98,6.75 7.19,11.53c0.3,0.71 0.54,1.47 0.69,2.26l8.79,45.85l34.12,0c6.18,0 11.25,5.06 11.25,11.25l0,0c0,6.18 -5.06,11.25 -11.25,11.25l-35.93,0l-21.44,-15.97l-2.7,-15.29c-3.42,3.95 -5.35,6.42 -8.14,10.22c-5.09,-3.61 -10.18,-7.12 -13.4,-9.52c5.11,-4.11 13.71,-10.2 18.03,-14.52c3.3,-2.81 5.22,-6.69 5.66,-10.73c0.45,-4.16 -0.69,-8.51 -3.51,-12.03l-0.29,-0.35c-2.81,-3.3 -6.7,-5.22 -10.73,-5.66c-4.17,-0.45 -8.51,0.69 -12.03,3.52l-34.06,27.41c-2.26,1.82 -3.92,4.14 -4.93,6.69c-1.03,2.6 -1.39,5.43 -1.04,8.19l-0.01,0c0.26,2.17 0.96,4.31 2.1,6.28c1.09,1.89 2.56,3.58 4.4,4.95l32.2,23.98l0.74,0.52l-1.54,3.37c-1.72,3.73 -3.48,7.74 -5.34,12.09l47.59,41.49l-0.02,0z" class="fil1"/>
   <path id="svg_6" fill="#002D42" d="m168.94,119.95l5.71,0c1.2,0 2.19,0.98 2.19,2.19l0,33.26l1.06,0c1.2,0 2.19,0.98 2.19,2.19l0,22.96c0,1.2 -0.98,2.19 -2.19,2.19l-12.28,0c-1.2,0 -2.19,-0.98 -2.19,-2.19l0,-1.15l-42.04,0c-1.49,0 -2.71,-1.22 -2.71,-2.71l0,-5.45c-34.08,0.69 -50.1,33.82 -65.77,66.23c-13.18,27.26 -26.12,54.01 -49,62.28l0,-5.97c20.21,-8.62 32.18,-33.37 44.35,-58.55c16.42,-33.97 33.22,-68.71 70.41,-69.17l0,-4.61c0,-1.49 1.22,-2.71 2.71,-2.71l42.04,0l0,-1.15c0,-1.2 0.98,-2.19 2.19,-2.19l1.14,0l0,-33.26c0,-1.2 0.98,-2.19 2.19,-2.19z" class="fil2"/>
   <path id="svg_7" fill="white" d="m82.25,116.66l16.96,12.64l2.96,2.24c-2.85,2.49 -5.71,5.59 -8.21,8.95c-2.1,2.81 -3.98,5.86 -5.44,8.94l-3.26,-2.46l-27.97,-20.83c-2.57,-1.91 -4.09,-4.74 -4.44,-7.7c-0.5,-3.77 0.92,-7.72 4.09,-10.27l34.06,-27.41c4.82,-3.88 11.93,-3.11 15.81,1.71l0,0c3.88,4.82 3.11,11.93 -1.71,15.81l-22.85,18.39l0,-0.01z" class="fil1"/>
   <path id="svg_8" fill="white" d="m110.24,133.32l25.9,19.28c4.77,4.18 6.35,13.27 2.43,19.7c-4.34,7.11 -15.41,10.26 -21.32,5.67l-25.89,-19.28c2.01,-9.66 11.65,-21.29 18.89,-25.37l-0.01,0z" class="fil1"/>
   <path id="svg_9" fill="white" d="m210.01,141.56c15.19,0 27.5,12.31 27.5,27.5c0,15.19 -12.31,27.5 -27.5,27.5c-15.19,0 -27.5,-12.31 -27.5,-27.5c0,-15.19 12.31,-27.5 27.5,-27.5zm0,6.46c11.62,0 21.04,9.42 21.04,21.04c0,11.62 -9.42,21.04 -21.04,21.04c-11.62,0 -21.04,-9.42 -21.04,-21.04c0,-11.62 9.42,-21.04 21.04,-21.04z" class="fil1"/>
   <path id="svg_10" fill="white" d="m210.01,156.29c7.05,0 12.77,5.72 12.77,12.78c0,7.05 -5.72,12.77 -12.77,12.77c-7.05,0 -12.77,-5.72 -12.77,-12.77c0,-7.06 5.72,-12.78 12.77,-12.78zm0,7.79c2.75,0 4.98,2.23 4.98,4.99c0,2.75 -2.23,4.99 -4.98,4.99c-2.75,0 -4.99,-2.23 -4.99,-4.99c0,-2.75 2.23,-4.99 4.99,-4.99z" class="fil1"/>
   <path id="svg_11" fill="#373435" d="m159.62,221.82l6.15,0l10.59,0l16.48,0l0,-7.23l0,-4.82l0,-11.47c0,-0.78 0.41,-1.47 1.03,-1.85c4.73,2.79 10.25,4.4 16.14,4.4c6.12,0 11.83,-1.73 16.68,-4.73l39.98,0c1.2,0 2.19,0.98 2.19,2.19l0,11.47l0,4.82l0,7.23l16.14,0l9.22,0l7.52,0l0,9.76l0,106.74l-16.74,0l-14.76,0l0,-14.69l-79.12,0l0,14.69l-14.76,0l-16.74,0l0,-106.74l0,-9.76l0,-0.01zm110.62,38.98l-79.12,0l0,46.09l79.12,0l0,-46.09z" class="fil3"/>
   <path id="svg_12" fill-rule="nonzero" fill="#F07F35" d="m239.14,186.59c2.02,-2.07 4.05,-4.09 6.09,-6.05c2,-1.93 4.05,-3.85 6.15,-5.75l1.73,1.91c-2.01,1.82 -4.04,3.72 -6.09,5.7c-2.02,1.95 -4.03,3.95 -6.03,5.99l-1.85,-1.8zm23.72,-21.61c2.52,-2.02 5.05,-3.96 7.59,-5.83c2.53,-1.86 5.12,-3.67 7.75,-5.43l1.43,2.14c-2.56,1.71 -5.11,3.5 -7.66,5.37c-2.54,1.86 -5.04,3.78 -7.5,5.76l-1.62,-2.01l0.01,0zm21.75,-15.38c7.14,-4.4 14.51,-8.35 22.17,-11.86c7.68,-3.51 15.65,-6.58 23.94,-9.2l0.78,2.46c-8.24,2.61 -16.1,5.63 -23.65,9.08c-7.57,3.46 -14.85,7.36 -21.89,11.71l-1.35,-2.19z" class="fil4"/>
   <path id="svg_13" fill-rule="nonzero" fill="#F07F35" d="m247.2,190.73c2.6,-2.97 5.33,-5.78 8.18,-8.42c2.93,-2.72 6,-5.27 9.17,-7.66l1.55,2.06c-3.12,2.35 -6.12,4.85 -8.97,7.49c-2.8,2.6 -5.48,5.34 -8,8.23l-1.94,-1.69l0.01,-0.01zm28.08,-23.32c3.35,-2.02 6.8,-3.89 10.33,-5.61c3.57,-1.74 7.25,-3.35 11.02,-4.81l0.93,2.4c-3.66,1.42 -7.27,2.99 -10.82,4.72c-3.46,1.69 -6.84,3.52 -10.12,5.5l-1.33,-2.21l-0.01,0.01zm31.65,-13.99c11.2,-3.44 22.85,-5.64 34.55,-6.67l0,2.58c-11.44,1.01 -22.84,3.18 -33.79,6.54l-0.76,-2.46l0,0.01z" class="fil4"/>
   <path id="svg_14" fill="#BDBFC1" d="m247.23,159.39c1.4,0 2.53,1.13 2.53,2.53c0,1.4 -1.13,2.53 -2.53,2.53c-1.4,0 -2.53,-1.13 -2.53,-2.53c0,-1.4 1.13,-2.53 2.53,-2.53z" class="fil5"/>
   <path id="svg_15" fill="#BDBFC1" d="m257.44,147.6c2.41,0 4.36,1.95 4.36,4.36c0,2.4 -1.95,4.36 -4.36,4.36c-2.41,0 -4.36,-1.95 -4.36,-4.36c0,-2.41 1.95,-4.36 4.36,-4.36z" class="fil5"/>
   <path id="svg_16" fill="#BDBFC1" d="m264.96,134.88c2.41,0 4.36,1.95 4.36,4.36c0,2.41 -1.95,4.36 -4.36,4.36c-2.41,0 -4.36,-1.95 -4.36,-4.36c0,-2.41 1.95,-4.36 4.36,-4.36z" class="fil5"/>
   <path id="svg_17" fill="#BDBFC1" d="m257.36,129.67c2.41,0 4.36,1.95 4.36,4.36c0,2.41 -1.95,4.36 -4.36,4.36c-2.41,0 -4.36,-1.95 -4.36,-4.36c0,-2.41 1.95,-4.36 4.36,-4.36z" class="fil5"/>
   <path id="svg_18" fill="#BDBFC1" d="m264.7,115.4c4.72,0 8.54,3.82 8.54,8.54c0,4.72 -3.82,8.54 -8.54,8.54c-4.72,0 -8.54,-3.82 -8.54,-8.54c0,-4.72 3.82,-8.54 8.54,-8.54z" class="fil5"/>
   <path id="svg_19" fill="#BDBFC1" d="m264.87,91.06c6.46,0 11.7,5.24 11.7,11.7c0,6.46 -5.24,11.7 -11.7,11.7c-6.46,0 -11.7,-5.24 -11.7,-11.7c0,-6.46 5.24,-11.7 11.7,-11.7z" class="fil5"/>
   <path id="svg_20" fill="#BDBFC1" d="m246.25,101.99c4.81,0 8.71,3.9 8.71,8.71c0,4.81 -3.9,8.71 -8.71,8.71c-4.81,0 -8.71,-3.9 -8.71,-8.71c0,-4.81 3.9,-8.71 8.71,-8.71z" class="fil5"/>
   <path id="svg_21" fill="#BDBFC1" d="m274.78,70.73c6.98,0 12.64,5.66 12.64,12.64c0,6.98 -5.66,12.64 -12.64,12.64c-6.98,0 -12.64,-5.66 -12.64,-12.64c0,-6.98 5.66,-12.64 12.64,-12.64z" class="fil5"/>
   <path id="svg_22" fill="#BDBFC1" d="m247.28,70.22c6.98,0 12.64,5.66 12.64,12.64c0,6.98 -5.66,12.64 -12.64,12.64c-6.98,0 -12.64,-5.66 -12.64,-12.64c0,-6.98 5.66,-12.64 12.64,-12.64z" class="fil5"/>
   <path id="svg_23" fill="#BDBFC1" d="m221.14,59.78c4.63,0 8.39,3.76 8.39,8.39c0,4.63 -3.76,8.39 -8.39,8.39c-4.63,0 -8.39,-3.76 -8.39,-8.39c0,-4.63 3.76,-8.39 8.39,-8.39z" class="fil5"/>
   <path id="svg_24" fill="#BDBFC1" d="m239.76,51.16c2.88,0 5.22,2.34 5.22,5.22c0,2.88 -2.34,5.22 -5.22,5.22c-2.88,0 -5.22,-2.34 -5.22,-5.22c0,-2.88 2.34,-5.22 5.22,-5.22z" class="fil5"/>
   <path id="svg_25" fill="#BDBFC1" d="m262.31,53.31c3.3,0 5.98,2.68 5.98,5.98c0,3.3 -2.68,5.98 -5.98,5.98c-3.3,0 -5.98,-2.68 -5.98,-5.98c0,-3.3 2.68,-5.98 5.98,-5.98z" class="fil5"/>
   <path id="svg_26" fill="#F07F35" d="m279.48,182.24c1.18,0 2.14,0.96 2.14,2.14c0,1.18 -0.96,2.14 -2.14,2.14c-1.18,0 -2.14,-0.96 -2.14,-2.14c0,-1.18 0.96,-2.14 2.14,-2.14z" class="fil6"/>
   <path id="svg_27" fill="#F07F35" d="m267.9,187.74c1.18,0 2.14,0.96 2.14,2.14c0,1.18 -0.96,2.14 -2.14,2.14c-1.18,0 -2.14,-0.96 -2.14,-2.14c0,-1.18 0.96,-2.14 2.14,-2.14z" class="fil6"/>
   <path id="svg_28" fill="#F07F35" d="m279.14,195.99c1.32,0 2.39,1.07 2.39,2.39c0,1.32 -1.07,2.39 -2.39,2.39c-1.32,0 -2.39,-1.07 -2.39,-2.39c0,-1.32 1.07,-2.39 2.39,-2.39z" class="fil6"/>
  </g>
 </g>
</svg>