<?xml version="1.0" encoding="UTF-8"?>
<!-- Creator: CorelDRAW 2017 -->
<svg xmlns="http://www.w3.org/2000/svg" xml:space="preserve" width="33.8666mm" height="33.8666mm" version="1.1" style="shape-rendering:geometricPrecision; text-rendering:geometricPrecision; image-rendering:optimizeQuality; fill-rule:evenodd; clip-rule:evenodd"
viewBox="0 0 764.63 764.63" xmlns:xlink="http://www.w3.org/1999/xlink">
 <g id="Capa_x0020_1">
  <metadata id="CorelCorpID_0Corel-Layer"/>
  <rect fill="none" x="-0" y="-0" width="764.63" height="764.63"/>
  <g id="_2289508443744">
   <g>
    <path fill="white" d="M379.64 74c112.4,-0.99 145.05,47 205.56,19.93 16.3,32.52 -2.98,61.73 -25.99,70.84 28.71,40.01 28.54,103.67 28.54,124.53 0,25.08 28.68,48.55 40.14,63.8 2.47,3.28 2.72,11.09 0.79,13.75 -2.61,3.59 -11.9,8.84 -28.56,24.99 -8.89,8.62 4.54,11.52 6.96,20.37 0.37,1.36 -0.3,2.91 -0.57,4.59 -0.63,3.93 -6.05,7.3 -9.12,9.69 -3.29,2.55 4.8,8.21 6.45,13.12 0.42,1.23 0.5,4.19 -0.66,5.88 -3.03,4.36 -5.56,7.45 -13.52,13.32 -12.73,9.39 22.19,51.96 -4.46,64.32 -37.97,17.6 -85.53,-6.62 -105.42,30.02 -7.82,14.42 -13.76,25.32 -20.15,77.97 -81.51,3.55 -198.38,-91.19 -215.39,-91.19 3.67,-21.55 9.15,-99.82 1.85,-110.73 -35.74,-53.42 -63.45,-101.78 -63.02,-161.72 0.66,-90.16 63.63,-192.32 196.56,-193.49z"/>
    <path fill="#002536" d="M207.81 594.11c14.66,-6.5 35.51,-6 48.5,0.89 43.06,22.86 76.33,40.38 113.81,69.29 45.86,35.37 67.13,59.71 99.22,90.39 -9.55,2.22 -19.25,4.09 -29.06,5.58 -103.51,-42.98 -239.68,-89.55 -314.1,-95.26 17.35,-28.94 70.93,-74.63 81.65,-70.89z"/>
    <path fill="#465B65" d="M244.22 522.78c7.97,-0.9 58.36,12.3 110.26,33.43 61.36,24.98 124.97,59.32 124.97,70.01 0,19.72 -20.11,86.68 -41.47,86.68 -9.07,0 -40.96,-41.92 -84.54,-70.34 -59.07,-38.53 -128.95,-71.09 -129.41,-80.8 -0.75,-15.92 2.79,-36.99 20.18,-38.97z"/>
    <path fill="#002D42" d="M227.99 555.14c50.72,12.17 106.35,44.3 156.82,83.23 41.55,32.05 79.88,69.33 111.36,109.02 -13.96,4.35 -28.26,7.92 -42.86,10.66 -40.42,-22.73 -83.17,-44.96 -118.75,-59.99 6.17,-10.97 9.19,-24.07 10.35,-40.45 -14.08,1.32 -28.99,4.73 -43.17,11.86 -32.74,-49.58 -93.59,-67.67 -93.94,-75.36 -0.74,-15.92 3.16,-43.05 20.18,-38.97z"/>
   </g>
   <g>
    <path fill="#FBEF55" d="M397.06 349.04c3.28,-5.14 8.58,-19.66 11.21,-25.81 10.1,-23.59 27.68,-50.6 26.94,-76.73 -1.04,-36.46 -31.92,-69.82 -72.18,-70.17 -42.54,-0.61 -70.09,33.19 -72.31,69.26 -1.63,26.39 14.45,51.01 24.77,75.02 2.72,6.35 7.99,23.45 11.28,28.15 24.6,-0.15 54.81,1.28 70.29,0.29z"/>
    <path fill="#020202" d="M384.96 358.4c-7.63,0.03 -15.27,0 -22.89,0 -26.88,0 -39.09,-3.95 -37.27,8.08 6,3.28 69.68,3.28 75.75,0.02 1.66,-10.8 -5.73,-8.13 -15.58,-8.1z"/>
    <path fill="#010103" d="M363.27 382.11c10.61,0 28.94,2.54 36.03,-2.71l-0.84 -6.14c-6.15,-1.98 -65.73,-2.01 -71.74,0.03l-0.33 6.11c6.84,5.39 26.1,2.71 36.88,2.71z"/>
    <path fill="#020202" d="M328.45 388.72c-1.77,8.71 7.38,7.18 14.33,7.09 6.82,-0.1 13.66,0.03 20.49,0.03 17.13,-0.01 35.77,3.28 33.63,-7.04 -3.59,-4.43 -10.28,-2.84 -16.76,-2.82 -6.03,0.02 -12.05,0 -18.07,0 -8.54,0 -28.35,-3.29 -33.61,2.75z"/>
    <path fill="#090909" d="M359.4 336.43c0.28,-3.81 0.46,-7.05 0.48,-10.89l1.12 -42.16c0.21,-8.02 0.5,-13.39 0.25,-18.07 0.71,0.12 1.13,0.09 2.02,-0.11l2.84 76.04c-0.47,3.27 -0.88,4.38 -3.69,4.3 -3.36,-0.09 -3.51,-2.67 -3.02,-9.1zm13.76 -79.73c0.07,-10.2 3.11,-14.07 11.2,-11.34 2.11,8.45 -3.82,10.99 -11.2,11.34zm-0.25 8.04c34.99,-2.27 21.43,-38.93 -0.64,-26.57 -6.93,3.88 -6.77,8.58 -7.76,18.69l-3.38 -0.29c-0.76,-9.23 -1.28,-13.89 -7.35,-17.92 -15.22,-10.11 -29.95,7.74 -18.75,19.99 5.3,5.81 9.55,3.79 17.28,6.66 0.95,7.43 -0.66,74.03 -2.29,80.02l-20.48 -0.59c-3.29,-4.7 -6.8,-17.78 -9.53,-24.13 -10.31,-24.01 -26.9,-48.12 -25.27,-74.52 2.22,-36.07 30.27,-65.84 68.54,-65.48 37.24,0.34 66.36,30.18 67.4,66.63 0.74,26.14 -15.58,50.64 -25.68,74.23 -2.63,6.15 -5.92,18.66 -9.2,23.79l-20.93 0.09c-0.42,-11.1 -0.54,-76.7 -1.95,-80.62zm-31.69 -19.06c6.92,-3.79 10.51,1.21 11.14,10.08 -7.72,-0.25 -14.47,-2.2 -11.14,-10.08zm-28.23 81.39l2.56 6.15 3.51 10.29 1.04 3.67c3.91,6.49 3.8,7.33 12.97,7.29 78.72,-0.33 65.98,6.48 77.63,-23.67 3.94,-10.22 7.96,-18.25 12.34,-27.4 9.63,-20.1 18.61,-37.05 15.78,-64.38 -4.39,-42.32 -46.28,-74.3 -91.62,-65.6 -22.29,4.27 -38.97,18.76 -48.18,32.45 -33,49.1 4.43,91.75 13.97,121.2z"/>
    <path fill="#010103" d="M495.42 266.72c5.83,0.01 12.77,0.67 17.18,-1.74l-0.41 -5.29c-4.06,-2.43 -11.26,-1.61 -17.1,-1.78 -5.61,0.14 -16.18,-1.66 -15.59,4.8 0.51,5.7 9.81,4.05 15.92,4.01z"/>
    <path fill="#020202" d="M229.87 266.74c5.83,-0.01 10.82,0.65 15.3,-1.31l0.38 -6.15c-4.96,-1.94 -9.47,-1.23 -15.26,-1.35 -8.41,0.19 -18.99,-2.77 -17.09,6.87 4.31,2.89 10.48,1.94 16.68,1.94z"/>
    <path fill="#020202" d="M245.06 199.9c5.8,2.47 13.03,9.21 16.26,4.25 2.23,-6.71 -7.91,-9.76 -13.37,-13.14 -6.47,-3.3 -12.63,-10.12 -16.06,-1.62 2.52,6.24 8.86,6.34 13.17,10.51z"/>
    <path fill="#020202" d="M245.73 324.78c-5.62,3.33 -13.63,5.24 -13.51,12.75 6.65,4.34 10.56,-1.87 18.19,-4.95 4.64,-4.21 13.72,-5.1 10.79,-12.01 -3.09,-2.81 -3.13,-2.71 -7.79,-0.17 -2.96,1.61 -4.46,2.79 -7.69,4.39z"/>
    <path fill="#020105" d="M292.16 149.65c4.47,5.55 4.19,11.73 11.77,11.91l1.65 -0.72c1.74,-6.03 -3.18,-11.89 -6.38,-16.74 -2.67,-4.85 -5.47,-14.13 -11.67,-11.45 -5.38,3.94 2.33,10.49 4.63,17z"/>
    <path fill="#020105" d="M426.11 144.13c-3.38,4.54 -7.72,10.75 -6.59,16.68 8.9,2.6 8.48,-4.59 13.63,-11.13 1.73,-4.81 5.99,-9.23 6.22,-12.28 0.01,-0.2 1.01,-2.88 -1.56,-4.75 -6.24,-2.73 -8.83,6.61 -11.69,11.48z"/>
    <path fill="#0D0C0D" d="M475.2 332.44c7.04,3.15 11.06,9.41 18.03,5.22 0.07,-8.85 -9.25,-8.75 -14.08,-13.2 -3.94,-1.82 -4.51,-2.73 -7.97,-4.55 -6.49,-3.42 -7.09,0.61 -7.11,0.64 -2.77,6.97 6.3,7.99 11.13,11.9z"/>
    <path fill="#020202" d="M475.42 191.82c-5.36,4.92 -11.23,4.32 -12.12,12.14 5.55,4.72 10.58,-1.2 16.95,-4.1 4.36,-4.03 10.68,-4.29 13.24,-10.47 -3.76,-9.34 -10.79,-0.11 -18.07,2.43z"/>
    <path fill="#020202" d="M358.23 128.69l0.64 16.33 7.09 0.31 1.11 -16.44c-0.04,-8.1 2.74,-18.18 -6.96,-16.09 -2.35,3.8 -1.74,10.3 -1.88,15.88z"/>
    <path class="#050505" d="M346.55 401.37c6.2,11.84 25.94,12.04 32.19,-0.01l-4.64 -0.13 -16.86 0 -10.69 0.14z"/>
   </g>
  </g>
 </g>
</svg>
