<svg xmlns="http://www.w3.org/2000/svg" xmlns:xlink="http://www.w3.org/1999/xlink" aria-hidden="true" focusable="false" width="1em" height="1em" style="-ms-transform: rotate(360deg); -webkit-transform: rotate(360deg); transform: rotate(360deg);" preserveAspectRatio="xMidYMid meet" viewBox="0 0 1536 1536"><path d="M685 1171l614-614q19-19 19-45t-19-45l-102-102q-19-19-45-19t-45 19L640 832L429 621q-19-19-45-19t-45 19L237 723q-19 19-19 45t19 45l358 358q19 19 45 19t45-19zm851-883v960q0 119-84.5 203.5T1248 1536H288q-119 0-203.5-84.5T0 1248V288Q0 169 84.5 84.5T288 0h960q119 0 203.5 84.5T1536 288z" fill="#626262"/></svg>