<svg xmlns="http://www.w3.org/2000/svg"  width="150" height="150" viewBox="0 0 240579 239793">
    <path
        d="M120289,0c66434,0 120290,53680 120290,119897 0,66217 -53856,119896 -120290,119896 -66434,0 -120289,-53679 -120289,-119896 0,-66217 53855,-119897 120289,-119897z"
        fill="#A60F38"
        fill-opacity="0.94902"/>
    <path
        d="M120269,20543c55191,0 99931,44564 99931,99536 0,54972 -44740,99536 -99931,99536 -55191,0 -99932,-44564 -99932,-99536 0,-54972 44741,-99536 99932,-99536z"
        fill="#CF035C"
        fill-opacity="0.94902"/>
    <path
        d="M161364,92582l-4428,0 0,-17709c0,-19534 -15885,-35419 -35419,-35419 -19533,0 -35419,15885 -35419,35419l0,17709 -4427,0c-7320,0 -13282,5956 -13282,13282l0,61984c0,7325 5962,13282 13282,13282l79693,0c7320,0 13282,-5957 13282,-13283l0,-61983c0,-7326 -5962,-13282 -13282,-13282l0,0zM97905,74873c0,-13023 10590,-23613 23612,-23613 13023,0 23613,10590 23613,23613l0,17709 -47225,0 0,-17709zM127420,138166l0,13448c0,3258 -2638,5903 -5903,5903 -3264,0 -5903,-2645 -5903,-5903l0,-13448c-3512,-2048 -5903,-5814 -5903,-10165 0,-6511 5295,-11806 11806,-11806 6512,0 11807,5295 11807,11806 0,4351 -2391,8117 -5903,10165l-1,0z"
        fill="#ffffff"/>
</svg>
