<?xml version="1.0" encoding="UTF-8"?>
<!DOCTYPE svg PUBLIC "-//W3C//DTD SVG 1.1//EN" "http://www.w3.org/Graphics/SVG/1.1/DTD/svg11.dtd">
<!-- Creator: CorelDRAW 2017 -->
<svg xmlns="http://www.w3.org/2000/svg" xml:space="preserve" width="57.36mm" height="67.7333mm" version="1.1" style="shape-rendering:geometricPrecision; text-rendering:geometricPrecision; image-rendering:optimizeQuality; fill-rule:evenodd; clip-rule:evenodd"
viewBox="0 0 304.37 359.42"
 xmlns:xlink="http://www.w3.org/1999/xlink">
 <defs>
 </defs>
 <g id="Capa_x0020_1">
  <metadata id="CorelCorpID_0Corel-Layer"/>
  <g id="_2877046818624">
   <path fill="#FEFEFE" d="M160.01 0c39.86,0 75.95,16.16 102.08,42.28 26.12,26.12 42.28,62.21 42.28,102.08 0,39.86 -16.16,75.95 -42.28,102.08 -26.12,26.12 -62.21,42.28 -102.08,42.28 -39.86,0 -75.95,-16.16 -102.08,-42.28 -26.12,-26.12 -42.28,-62.21 -42.28,-102.08 0,-39.86 16.16,-75.95 42.28,-102.08 26.12,-26.12 62.21,-42.28 102.08,-42.28z"/>
   <circle fill="#E9E7EB" cx="160.01" cy="144.36" r="137.91"/>
   <g>
    <rect fill="#BDBFC1" transform="matrix(0.480065 -0.748395 0.748394 0.480066 -0.000214934 239.247)" width="129.73" height="8.99"/>
    <polygon fill="#E6E7E8" points="62.28,142.16 67.66,137.53 70.96,139.65 69,146.47 "/>
    <polygon fill="#96989A" points="67.66,137.53 72.85,133.07 70.96,139.65 "/>
   </g>
   <rect fill="#D2D3D5" transform="matrix(1.12221 0.363144 -0.363144 1.12221 96.6596 114.733)" width="120.18" height="179.15"/>
   <rect fill="#FEFEFE" transform="matrix(1.12221 0.363144 -0.363144 1.12221 94.5009 109.978)" width="120.18" height="179.15"/>
   <circle fill="#BDBFC1" cx="228.72" cy="128.44" r="4.57"/>
   <circle fill="#BDBFC1" cx="234.09" cy="143.49" r="2.64"/>
   <circle fill="#D2D3D5" cx="203.33" cy="78.63" r="47.16"/>
   <circle fill="#FEFEFE" cx="199.6" cy="73.78" r="47.16"/>
   <circle fill="#BDBFC1" cx="199.6" cy="73.78" r="39.24"/>
   <path fill="#96989A" d="M199.6 34.54c9.86,0 18.87,3.64 25.76,9.64 -37.26,-16.15 -70.81,10.69 -57.15,53.15 -4.93,-6.56 -7.85,-14.71 -7.85,-23.55 0,-21.67 17.57,-39.24 39.24,-39.24z"/>
   <path fill="#FEFEFE" d="M240.75 67.4l18.22 0c4.43,0 8.05,3.62 8.05,8.05l0 0c0,4.43 -3.62,8.05 -8.05,8.05l-18.22 0 0 -16.1z"/>
   <g>
    <path fill="#D0D0D0" d="M98.57 235.28c3.31,2.12 8.37,6.02 11.21,7.44 0.22,-1.25 0.22,-2 0.96,-3.26 3.35,-5.71 13.28,-2.2 11.89,4.77 -0.3,1.5 -0.96,1.9 -1.52,3 1.12,0.45 5.94,1.31 7,1.28 -0.05,-2.26 1.43,-8.17 2.2,-10.44 1.08,1.04 2.15,3.29 4.78,3.66 4.37,0.61 6.84,-5.39 3.19,-8.03 -0.81,-0.58 -2.11,-0.91 -3.06,-0.91 -0.64,-0 -2.41,0.16 -2.86,0.34 -0.05,-0.43 0.58,-1.36 0.83,-1.82 0.91,-1.72 2.33,-4.16 3.46,-5.61 0.61,-0.78 0.34,-1.1 0.06,-1.76 -0.78,-1.9 -1.38,-3.07 -2.88,-4.82 -3.71,-4.34 -9.74,-7.02 -15.8,-6.76 -2.89,0.12 -5.29,0.73 -7.32,1.7 -2.04,0.97 -4.32,2.49 -6,4.57 -4.05,5 -5.41,10.24 -6.15,16.66z"/>
    <path fill="#E0E0E1" d="M152.82 257.08c0.39,0.33 1.04,0.74 1.52,1.08 0.56,0.4 1.07,0.8 1.61,1.2 1.03,0.75 2.21,1.62 3.31,2.26 1.22,-1.5 1.21,-1.21 2.59,-3.16 2.61,-3.69 4.95,-8.2 5.65,-12.68 0.94,-6.08 -0.68,-10.47 -3.68,-14.44 -3.13,-4.14 -9.58,-7.63 -15.38,-7.66 -2.75,-0.02 -5.2,0.54 -7.39,1.54 -0.53,0.24 -2.69,1.44 -3.14,1.99 -0.62,0.75 -1.9,2.84 -2.31,3.69 0.25,0.07 0.43,0.08 0.71,0.1 1.72,0.14 3.71,1.35 4.64,2.81 2.48,3.91 0.06,8.71 -3.65,9.6 -2.53,0.61 -3.72,-0.03 -6.1,-1.53 -0.33,1.15 -0.52,2.26 -0.74,3.41 -0.21,1.13 -0.26,2.37 -0.49,3.42 0.71,0.18 1.74,0.24 2.54,0.37 2.29,0.38 6.26,1.22 8.26,2.03 -7.4,4.86 -2.14,10.28 1.99,9.49 0.53,-0.1 1.52,-0.39 1.73,-0.84 0.18,-0.06 0.03,0.05 0.28,-0.14 0.19,-0.14 0.12,-0.11 0.26,-0.26 1.74,-1.57 1.01,-4.6 0.87,-6.1 0.58,0.03 2.9,1.41 3.6,1.77l2.54 1.49c0.01,0.02 0.05,0.03 0.05,0.06 0,0.03 0.04,0.05 0.05,0.06l0.67 0.44z"/>
    <path fill="#E0E0E1" d="M113.02 239.6c-0.76,0.66 -1.13,2.45 -1.19,3.62 -0.06,1.23 0.14,1.94 0.2,2.77 -2.57,-1.2 -5.02,-2.67 -7.18,-4.11 -1.28,-0.85 -5.23,-4.03 -6.36,-4.39l0.11 2.95c0.42,6.86 3.11,14.88 6.33,21.15 2.15,4.17 5.95,10.49 8.91,14.1 0.55,0.66 1.2,1.64 1.77,2.19 0.04,-0.02 3.12,-4.17 3.43,-4.59 0.95,-1.29 2.59,-3.51 3.25,-5.03 -1.33,-0.33 -2.06,-0.23 -3.39,-1.06 -4.55,-2.85 -3.7,-9.84 1.72,-11.47 2.77,-0.84 4.58,0.68 6.09,1.49 0.89,-2.77 0.81,-4.9 1.25,-6.78 -0.59,-0.16 -3.79,-0.55 -5.32,-0.91 -1.59,-0.37 -3.94,-0.86 -5.46,-1.5 0.71,-0.68 1.65,-1.16 2.37,-1.98 1.54,-1.75 1.91,-4.25 0.1,-6.05 -1.78,-1.78 -4.74,-2.05 -6.63,-0.4z"/>
    <path fill="#D0D0D0" d="M123.87 266.27c0.59,-0.01 1.17,-0.14 1.76,-0.2 -0.93,2.21 -2.65,5 -4.12,7.06 -1.22,1.71 -2.33,3.04 -3.53,4.78 -0.14,0.21 -1.06,1.41 -0.91,1.67 0.18,0.34 2.33,-0.07 2.88,-0.14 7.56,-1 17.32,-3.79 24.05,-7.1l2.46 -1.22c1.29,-0.63 3.63,-2.09 4.81,-2.85 1.53,-1 5.81,-4.15 6.64,-5.33 -2.68,-1.47 -5.46,-4.03 -8.37,-5.73 -0.46,-0.27 -0.89,-0.58 -1.39,-0.79 -0.27,0.83 0.17,0.73 -0.73,2.87 -0.6,1 -0.86,1.38 -1.7,2.02 -3.75,2.87 -9.74,0.4 -10.46,-4.09 -0.13,-0.82 -0.15,-1.78 0.15,-2.71 0.41,-1.32 0.91,-1.62 1.44,-2.59 -1.07,-0.38 -6.09,-1.36 -6.94,-1.28 -0.2,0.55 -0.3,1.89 -0.41,2.6 -0.4,2.62 -0.99,5.27 -1.87,7.83 -0.97,-0.85 -1.19,-2 -3.2,-3.11 -1.64,-0.9 -3.31,-0.66 -4.32,0.02 -0.78,0.35 -1.71,1.51 -2.04,2.61 -1.27,4.31 3.29,6.4 5.82,5.66z"/>
    <path fill="#C0C0C0" d="M113.63 188.5c1.18,-0.09 2.46,0.04 3.53,0.4l28.52 9.81c2,0.69 2.5,1.97 1.12,2.84l-10.91 6.86 -9.02 13.47 -9.3 -2.87 -10.03 -16.72 6.09 -13.79z"/>
    <path fill="#C0C0C0" d="M118.85 228.93c-1.5,0.12 -3.13,-0.05 -4.49,-0.51l-13.74 -4.69c-1.36,-0.46 -2.17,-1.14 -2.37,-1.83l-0.01 0 -0.02 -0.17 -0 -0.03 -1.15 -8.95 11.94 -1.54 8.57 7.79 6.65 4.16 -5.37 5.76z"/>
    <path fill="#BBBBBB" d="M137.07 217.52c0.19,0.61 -0.11,1.24 -0.94,1.76l-13.95 8.72c-0.82,0.51 -2.02,0.83 -3.33,0.93l-1.28 -9.92c1.03,-0.08 1.98,-0.33 2.63,-0.74l15.69 -9.86 1.18 9.11z"/>
    <path fill="#C7C8C9" d="M113.63 188.5l3.94 30.51c-1.18,0.09 -2.46,-0.04 -3.53,-0.4l-28.52 -9.81c-2,-0.69 -2.51,-1.97 -1.12,-2.84l26.6 -16.72c0.65,-0.41 1.6,-0.66 2.63,-0.74z"/>
    <path fill="#9D9D9D" d="M115.34 201.77c2.2,-0.25 4.09,0.44 4.23,1.54 0.14,1.09 -1.52,2.18 -3.72,2.43 -2.2,0.25 -4.09,-0.44 -4.23,-1.54 -0.14,-1.09 1.53,-2.18 3.72,-2.43z"/>
    <path fill="#BEBEBE" d="M95.59 219.53l2.83 1.1c0.54,0.21 0.81,0.82 0.6,1.36l-2.04 5.25c-0.21,0.54 -0.82,0.81 -1.36,0.6l-2.83 -1.1c-0.54,-0.21 -0.81,-0.82 -0.6,-1.36l2.04 -5.25c0.21,-0.54 0.82,-0.81 1.36,-0.6z"/>
    <path fill="#DEDFDF" d="M97.83 217.96c1.54,0.6 2.41,2.04 1.95,3.21 -0.46,1.18 -2.07,1.64 -3.61,1.04 -1.54,-0.6 -2.41,-2.03 -1.95,-3.21 0.46,-1.17 2.07,-1.64 3.61,-1.04z"/>
    <path fill="#BEBEBE" d="M98.03 213.49c-0.01,0.02 -0.02,0.03 -0.03,0.05l-0.01 0.01c-0.03,0.05 -0.06,0.09 -0.09,0.14l0.01 0c-0.02,0.05 -0.04,0.09 -0.06,0.14l-0 0c-0.02,0.05 -0.04,0.11 -0.06,0.16l-1.85 4.76c-0.29,0.75 0.09,1.61 0.86,1.9l0 0c0.76,0.3 1.63,-0.07 1.92,-0.82l1.45 -3.74c0.16,-0.41 0.43,-1.03 0.79,-1.39l0 0c0.09,-0.07 0.19,-0.14 0.29,-0.21 0.01,-0.01 0.02,-0.01 0.03,-0.02 0.09,-0.06 0.18,-0.12 0.28,-0.18l13.56 -8.52c-1.67,0.03 -3.05,-0.49 -3.4,-1.3l-11.98 7.53c-0.76,0.48 -1.32,0.98 -1.69,1.48z"/>
   </g>
  </g>
 </g>
</svg>
