<svg id="Layer_1" enable-background="new 0 0 512.002 512.002" height="512" viewBox="0 0 512.002 512.002" width="512" xmlns="http://www.w3.org/2000/svg"><g><g><path d="m468.417 72.643c-4.561-40.812-39.274-72.643-81.284-72.643-24.364 0-47.388 10.902-62.862 29.467-2.939-.499-5.925-.75-8.931-.75-24.168 0-44.6 16.243-50.99 38.381-10.558-2.778-22.246-.194-30.709 7.769l-20.882 19.654-28.027-6.605c-16.78-3.925-33.786 5.947-38.702 22.451l-8.243 27.42-27.128 8.155c-16.707 4.811-26.695 21.83-22.741 38.809l6.604 28.009-19.648 20.875c-11.811 12.529-11.814 32.175-.006 44.727l19.654 20.882-.855 3.628c-18.641 17.989-30.965 42.483-33.272 69.787-34.071 4.696-60.395 34.003-60.395 69.343 0 38.598 31.402 70 70 70h260c38.598 0 70-31.402 70-70 0-23.34-11.485-44.044-29.097-56.77l3.312-11.017 27.132-8.156c16.706-4.812 26.692-21.831 22.737-38.808l-6.604-28.009 19.649-20.877c11.811-12.529 11.813-32.175.005-44.726l-19.654-20.88 6.605-28.027c.531-2.269.801-4.541.845-6.787h33.995c29.266 0 53.076-23.81 53.076-53.076.001-26.028-18.83-47.74-43.584-52.226zm-138.417 419.359h-260c-27.57 0-50-22.43-50-50s22.43-50 50-50c5.523 0 10-4.477 10-10 0-49.626 40.374-90 90-90 29.355 0 56.943 14.386 73.799 38.482 2.501 3.575 7.03 5.116 11.192 3.808 4.837-1.52 9.887-2.291 15.009-2.291 27.57 0 50 22.43 50 50 0 5.523 4.477 10 10 10 27.57 0 50 22.43 50 50 0 27.571-22.43 50.001-50 50.001zm92.57-244.657c4.569 4.857 4.572 12.458 0 17.308l-23.339 24.798c-2.301 2.445-3.221 5.881-2.451 9.148l7.832 33.217c1.533 6.579-2.347 13.183-8.833 15.034-.045.013-.089.026-.134.039l-32.338 9.721c-3.215.966-5.731 3.482-6.698 6.698l-3.769 12.537c-4.317-1.495-8.816-2.593-13.466-3.218-.656-4.882-1.833-9.598-3.445-14.11 31.482-24.576 50.071-62.361 50.071-102.515 0-26.564-7.961-52.113-23.024-73.882-14.708-21.257-35.138-37.511-59.082-47.005-5.134-2.035-10.946.476-12.982 5.61s.476 10.946 5.61 12.982c42.206 16.735 69.478 56.889 69.478 102.296 0 32.796-14.658 63.727-39.639 84.544-12.757-17.298-33.269-28.543-56.362-28.543-4.729 0-9.417.472-14.01 1.406-20.808-26.047-52.455-41.406-85.99-41.406-7.697 0-15.21.802-22.466 2.314-1.012-6.035-1.533-12.163-1.533-18.314 0-45.404 27.269-85.557 69.471-102.293 5.134-2.036 7.645-7.849 5.609-12.982-2.036-5.134-7.849-7.644-12.982-5.609-23.942 9.495-44.37 25.749-59.077 47.005-15.061 21.769-23.021 47.316-23.021 73.879 0 8.147.764 16.264 2.267 24.23-5.688 2.341-11.137 5.144-16.302 8.365l-22.534-23.941c-4.569-4.857-4.572-12.458 0-17.308l23.339-24.796c2.301-2.445 3.221-5.881 2.451-9.149l-7.832-33.216c-1.532-6.579 2.348-13.183 8.833-15.035.044-.013.089-.026.134-.039l32.338-9.721c3.215-.966 5.731-3.482 6.698-6.698l9.798-32.594c1.908-6.403 8.494-10.23 14.97-8.714l33.243 7.835c3.268.77 6.703-.151 9.148-2.452l24.795-23.338c4.857-4.569 12.458-4.573 17.308-.001l24.796 23.339c2.445 2.301 5.881 3.223 9.149 2.452l33.217-7.832c6.577-1.53 13.182 2.347 15.034 8.833.013.045.026.089.039.134l9.721 32.338c.966 3.215 3.482 5.731 6.698 6.698l32.594 9.799c6.403 1.907 10.229 8.491 8.714 14.97l-7.835 33.243c-.77 3.268.151 6.704 2.452 9.148zm36.356-89.4h-40.371c-4.07-5.529-9.889-9.821-16.919-11.915l-27.42-8.243-8.155-27.126c-4.81-16.709-21.83-26.698-38.809-22.743l-28.009 6.604-16.827-15.839c1.573-16.784 15.737-29.965 32.925-29.965 3.39 0 6.73.51 9.929 1.515 4.164 1.309 8.693-.233 11.193-3.808 11.573-16.547 30.515-26.425 50.67-26.425 34.072 0 61.792 27.72 61.792 61.792 0 5.523 4.477 10 10 10 18.238 0 33.076 14.838 33.076 33.076.001 18.239-14.837 33.077-33.075 33.077z"/><path d="m256.001 126.001h-.007c-5.523 0-9.996 4.477-9.996 10s4.48 10 10.003 10 10-4.477 10-10-4.477-10-10-10z"/></g></g></svg>