<svg xmlns="http://www.w3.org/2000/svg"  width="150" height="150" viewBox="0 0 4973 4957">
    <path
        d="M2487,0c1373,0 2486,1110 2486,2479 0,1369 -1113,2478 -2486,2478 -1374,0 -2487,-1109 -2487,-2478 0,-1369 1113,-2479 2487,-2479z"
        fill="#A98E3F"
        fill-opacity="0.94902"/>
    <path
        d="M2486,425c1141,0 2066,921 2066,2057 0,1137 -925,2058 -2066,2058 -1141,0 -2066,-921 -2066,-2058 0,-1136 925,-2057 2066,-2057z"
        fill="#FDD30F"
        fill-opacity="0.94902"/>
    <path
        d="M3853,2708l-174,-101c5,-43 7,-88 7,-132 0,-45 -2,-90 -7,-133l174,-101c37,-21 64,-56 75,-98 11,-41 6,-85 -16,-122l-335,-581c-29,-49 -82,-80 -140,-80 -28,0 -56,7 -80,21l-175,101c-71,-52 -148,-97 -229,-133l0,-201c0,-89 -73,-161 -161,-161l-671,0c-89,0 -161,72 -161,161l0,201c-82,36 -158,81 -230,133l-174,-101c-25,-14 -53,-21 -81,-21 -57,0 -111,31 -139,80l-336,581c-21,37 -27,81 -16,122 11,42 38,77 75,98l175,101c-5,43 -8,88 -8,133 0,44 3,89 8,132l-175,101c-37,21 -64,56 -75,98 -11,41 -5,85 16,122l336,581c28,49 82,80 139,80 28,0 56,-7 81,-21l174,-101c72,52 148,97 230,133l0,201c0,43 17,83 47,114 30,30 71,47 114,47l671,0c88,0 161,-72 161,-161l0,-201c81,-36 158,-81 229,-133l175,101c24,14 52,21 80,21 58,0 111,-31 140,-80l335,-581c22,-37 27,-81 16,-122 -11,-42 -38,-77 -75,-98zM2456,3042c-313,0 -567,-254 -567,-567 0,-314 254,-568 567,-568 314,0 568,254 568,568 0,313 -254,567 -568,567z"
        fill="#ffffff"/>
</svg>
