<svg xmlns="http://www.w3.org/2000/svg" xml:space="preserve" width="617.609" height="225.846" version="1.1" shape-rendering="geometricPrecision" text-rendering="geometricPrecision" image-rendering="optimizeQuality" fill-rule="evenodd" clip-rule="evenodd"
    viewBox="0 0 8407 3074">
 <g >
     <path fill="#0D7DC0" d="M1537 0l5333 0c845,0 1537,692 1537,1537l0 0c0,845 -692,1537 -1537,1537l-5333 0c-845,0 -1537,-692 -1537,-1537l0 0c0,-845 692,-1537 1537,-1537z"/>
     <path fill="#FEFEFE" fill-opacity="0.949020" d="M1587 247l5232 0c717,0 1304,587 1304,1304l0 0c0,717 -587,1304 -1304,1304l-5232 0c-717,0 -1304,-587 -1304,-1304l0 0c0,-717 587,-1304 1304,-1304z"/>
     <path fill="#0277BD" d="M992 722c115,0 208,92 208,208 0,115 -93,208 -208,208 -115,0 -208,-92 -208,-208 0,-115 93,-208 208,-208zm1126 2c115,0 208,92 208,208 0,115 -93,208 -208,208 -115,0 -208,-92 -208,-208 0,-115 93,-208 208,-208zm-563 -3c115,0 208,92 208,208 0,115 -93,208 -208,208 -115,0 -208,-92 -208,-208 0,-115 93,-208 208,-208zm-563 979c-114,0 -208,-93 -208,-208 0,-115 94,-208 208,-208 114,0 208,93 208,208 0,115 -94,208 -208,208zm563 -415c115,0 208,93 208,208 0,115 -93,208 -208,208 -115,0 -208,-93 -208,-208 0,-115 93,-208 208,-208zm563 0c115,0 208,93 208,208 0,115 -93,208 -208,208 -115,0 -208,-93 -208,-208 0,-115 93,-208 208,-208zm-1127 563c115,0 208,92 208,208 0,115 -93,208 -208,208 -115,0 -208,-92 -208,-208 0,-115 93,-208 208,-208zm563 0c115,0 208,92 208,208 0,115 -93,208 -208,208 -115,0 -208,-92 -208,-208 0,-115 93,-208 208,-208zm563 0c115,0 208,92 208,208 0,115 -93,208 -208,208 -115,0 -208,-92 -208,-208 0,-115 93,-208 208,-208z"/>
     <path fill="#0277BD" d="M2792 1906l173 0 0 -265 167 0c172,0 288,-114 288,-271 0,-157 -116,-271 -288,-271l-340 0 0 807zm173 -426l0 -219 161 0c69,0 115,45 115,109 0,65 -46,109 -115,109l-161 0z"/>
     <path fill="#0277BD" d="M3524 1906l156 0 0 -265c0,-92 58,-150 133,-150 17,0 30,2 39,3l13 2 0 -167 -12 0c-55,0 -97,23 -124,46 -16,14 -30,29 -43,46l-6 0 0 -81 -156 0 0 565z"/>
     <path fill="#0277BD" d="M4377 1716c-10,13 -23,23 -38,32 -27,17 -62,31 -112,31 -86,0 -133,-46 -150,-98l409 0 2 -20c1,-13 3,-28 3,-50 0,-156 -127,-282 -282,-282 -161,0 -294,133 -294,294 0,161 133,294 300,294 78,0 138,-23 180,-46 24,-14 45,-29 62,-46l-81 -109zm-300 -150c17,-52 62,-98 127,-98 65,0 109,46 127,98l-254 0z"/>
     <path fill="#0277BD" d="M5011 1705c-10,13 -23,24 -37,35 -24,17 -59,35 -101,35 -81,0 -144,-63 -144,-150 0,-86 63,-150 144,-150 43,0 77,17 101,35 14,10 27,22 37,35l98 -98c-15,-22 -35,-40 -58,-58 -40,-29 -97,-58 -179,-58 -167,0 -300,133 -300,294 0,161 133,294 300,294 82,0 138,-29 179,-58 23,-17 43,-36 58,-58l-98 -98z"/>
     <path fill="#0277BD" d="M5207 1906l156 0 0 -565 -156 0 0 565zm-12 -726c0,46 39,86 89,86 50,0 90,-40 90,-86 0,-46 -39,-86 -89,-86 -50,0 -90,40 -90,86z"/>
     <path fill="#0277BD" d="M5455 1814c17,20 38,37 62,52 41,27 101,52 180,52 156,0 236,-82 236,-179 0,-184 -288,-173 -288,-236 0,-17 17,-35 58,-35 40,0 71,10 93,23 13,7 24,15 33,23l92 -98c-15,-15 -33,-30 -55,-43 -37,-22 -91,-44 -164,-44 -144,0 -225,81 -225,173 0,184 288,173 288,236 0,23 -17,40 -69,40 -46,0 -83,-14 -109,-31 -15,-9 -29,-20 -40,-32l-92 98z"/>
     <path fill="#0277BD" d="M6037 1906l156 0 0 -565 -156 0 0 565zm-12 -726c0,46 39,86 89,86 50,0 90,-40 90,-86 0,-46 -39,-86 -89,-86 -50,0 -90,40 -90,86z"/>
     <path fill="#0277BD" d="M6607 1774c-81,0 -144,-63 -144,-150 0,-86 63,-150 144,-150 81,0 144,63 144,150 0,86 -63,150 -144,150zm-300 -150c0,161 133,294 300,294 167,0 300,-133 300,-294 0,-161 -133,-294 -300,-294 -167,0 -300,133 -300,294zm236 -357l127 0 127 -173 -161 0 -92 173z"/>
     <path fill="#0277BD" d="M7022 1906l156 0 0 -300c0,-75 52,-127 121,-127 65,0 104,40 104,109l0 317 156 0 0 -340c0,-144 -92,-236 -207,-236 -55,0 -97,23 -124,46 -16,14 -30,29 -43,46l-6 0 0 -81 -156 0 0 565z"/>
 </g>
</svg>
