<?xml version="1.0" encoding="iso-8859-1"?>
<!-- Generator: Adobe Illustrator 19.0.0, SVG Export Plug-In . SVG Version: 6.00 Build 0)  -->
<svg version="1.1" id="Capa_1" xmlns="http://www.w3.org/2000/svg" xmlns:xlink="http://www.w3.org/1999/xlink" x="0px" y="0px"
	 viewBox="0 0 512.001 512.001" style="enable-background:new 0 0 512.001 512.001;" xml:space="preserve">
<g>
	<g>
		<path d="M215.526,390.032c-28.364-8.402-53.881-26.063-71.85-49.729c-18.562-24.446-28.374-53.625-28.374-84.381
			c0-41.455,18.274-80.529,50.138-107.205c3.211-2.688,3.636-7.471,0.947-10.682c-2.689-3.211-7.471-3.635-10.683-0.946
			c-35.315,29.564-55.569,72.878-55.569,118.833c0,34.097,10.879,66.446,31.461,93.552c19.907,26.219,48.184,45.787,79.621,55.1
			c0.719,0.213,1.444,0.314,2.157,0.314c3.272,0,6.291-2.134,7.269-5.433C221.833,395.442,219.542,391.222,215.526,390.032z"/>
	</g>
</g>
<g>
	<g>
		<path d="M255.499,100.88c-27.503,0-54.529,7.269-78.158,21.02c-3.62,2.107-4.846,6.749-2.74,10.369
			c2.108,3.621,6.751,4.846,10.369,2.74c21.316-12.405,45.704-18.962,70.53-18.962c77.306,0,140.199,62.748,140.199,139.877
			S332.806,395.8,255.499,395.8c-5.683,0-11.406-0.343-17.009-1.018c-4.146-0.499-7.935,2.463-8.436,6.621
			c-0.502,4.158,2.464,7.935,6.622,8.436c6.203,0.748,12.536,1.127,18.824,1.127c85.669,0,155.365-69.551,155.365-155.043
			C410.865,170.432,341.168,100.88,255.499,100.88z"/>
	</g>
</g>
<g>
	<g>
		<path d="M504.767,303.601l-53.44-48.725l52.856-49.357c1.981-1.849,2.824-4.614,2.212-7.253c-0.611-2.64-2.583-4.752-5.175-5.543
			l-69.171-21.098l26.581-67.256c0.996-2.52,0.571-5.379-1.112-7.501c-1.684-2.122-4.375-3.186-7.052-2.788l-71.537,10.606
			l-4.828-72.158c-0.181-2.703-1.791-5.104-4.222-6.299c-2.431-1.196-5.315-1.002-7.565,0.505l-60.078,40.26L266.931,3.881
			c-1.323-2.365-3.806-3.844-6.515-3.881c-2.72-0.038-5.231,1.375-6.617,3.703l-42.494,71.352l-71.255-42.663
			c-2.323-1.39-5.214-1.437-7.582-0.12c-2.367,1.317-3.852,3.798-3.896,6.506l-1.154,72.308l-71.983-6.951
			c-2.697-0.259-5.326,0.937-6.901,3.142c-1.574,2.205-1.852,5.083-0.73,7.548l29.968,65.815L9.765,205.231
			c-2.548,0.921-4.41,3.131-4.887,5.799c-0.477,2.667,0.507,5.385,2.578,7.131l55.299,46.603l-50.891,51.38
			c-1.907,1.924-2.642,4.72-1.928,7.333c0.714,2.614,2.767,4.648,5.387,5.336l69.94,18.385L61.328,415.44
			c-0.896,2.556-0.361,5.397,1.404,7.452c1.765,2.055,4.488,3.012,7.155,2.51l71.066-13.387l7.64,71.914
			c0.286,2.694,1.988,5.031,4.464,6.13c2.477,1.099,5.351,0.794,7.541-0.801l58.46-42.571l37.743,61.688
			c1.38,2.256,3.832,3.626,6.467,3.626c0.066,0,0.129-0.001,0.193-0.001c2.708-0.069,5.175-1.577,6.469-3.957l34.553-63.528
			l60.55,39.541c2.266,1.481,5.152,1.641,7.571,0.417c2.417-1.223,3.998-3.643,4.146-6.349l3.973-72.208l71.657,9.754
			c2.689,0.366,5.36-0.73,7.018-2.871c1.659-2.141,2.049-5.006,1.023-7.513l-27.38-66.934l68.916-21.919
			c2.581-0.821,4.53-2.957,5.109-5.603C507.645,308.181,506.769,305.426,504.767,303.601z M420.612,326.387
			c-2.018,0.642-3.674,2.097-4.571,4.015c-0.896,1.918-0.95,4.123-0.149,6.083l25.519,62.385l-66.786-9.092
			c-2.105-0.287-4.22,0.318-5.851,1.666c-1.632,1.348-2.628,3.316-2.743,5.431l-3.703,67.3l-56.434-36.854
			c-1.772-1.158-3.951-1.521-6.001-1.004c-2.052,0.518-3.796,1.87-4.808,3.73l-32.204,59.21l-35.176-57.495
			c-1.105-1.806-2.914-3.068-4.991-3.48c-0.49-0.098-0.986-0.146-1.478-0.146c-1.591,0-3.157,0.502-4.462,1.456l-54.486,39.678
			l-7.12-67.025c-0.222-2.105-1.316-4.021-3.015-5.284s-3.845-1.759-5.929-1.367L79.988,408.07l22.308-63.602
			c0.701-1.997,0.534-4.197-0.458-6.066c-0.994-1.87-2.723-3.239-4.77-3.777l-65.185-17.136l47.432-47.888
			c1.49-1.504,2.284-3.562,2.188-5.677c-0.095-2.115-1.069-4.094-2.688-5.458l-51.54-43.436l63.386-22.919
			c1.99-0.721,3.588-2.24,4.41-4.191c0.82-1.951,0.789-4.156-0.089-6.084l-27.931-61.341l67.09,6.479
			c2.106,0.202,4.204-0.483,5.781-1.894c1.579-1.41,2.496-3.416,2.53-5.534l1.075-67.392l66.507,39.821
			c1.728,1.034,3.798,1.34,5.75,0.846s3.631-1.742,4.66-3.473l39.664-66.598l32.906,58.824c1.034,1.847,2.793,3.179,4.851,3.672
			c2.06,0.493,4.231,0.104,5.989-1.075l55.995-37.524l4.5,67.253c0.141,2.112,1.159,4.07,2.807,5.398
			c1.648,1.329,3.775,1.908,5.871,1.597l66.674-9.885l-24.774,62.684c-0.778,1.969-0.698,4.173,0.221,6.08
			c0.919,1.907,2.593,3.343,4.618,3.96l64.469,19.664L434.969,249.4c-1.547,1.445-2.421,3.47-2.407,5.587
			c0.012,2.116,0.909,4.131,2.474,5.558l49.808,45.413L420.612,326.387z"/>
	</g>
</g>
<g>
</g>
<g>
</g>
<g>
</g>
<g>
</g>
<g>
</g>
<g>
</g>
<g>
</g>
<g>
</g>
<g>
</g>
<g>
</g>
<g>
</g>
<g>
</g>
<g>
</g>
<g>
</g>
<g>
</g>
</svg>
