<svg xmlns="http://www.w3.org/2000/svg" viewBox="0 0 512 512" version="1.1" x="0px" y="0px" height="24" width="24">
    <path fill="#EF2E2E" d="M75.8,165.8C29.6,211.9 0,275.7 0,346c0,8.3 6.7,15 15,15c32.6,0 58.4,0 91,0c8.3,0 15,-6.7 15,-15c0,-37.2 15.1,-71 39.6,-95.4l-9.2,-39.2l-25.1,-25.1L75.8,165.8z"/>
    <path fill="#17ACE8" d="M256,91c0,4.9 -15,9.7 -15,14.4c0,31.8 0,58.9 0,90.6c0,4.9 15,9.9 15,15c37.2,0 71,15.1 95.4,39.6l13.6,1.4l62.8,-62.8l8.4,-23.4C390.1,119.6 326.3,91 256,91z"/>
    <path fill="#FEDB41" d="M75.8,165.8l84.8,84.8c24.4,-24.4 58.2,-39.6 95.4,-39.6c0,-43.4 0,-76.6 0,-120C185.7,91 121.9,119.6 75.8,165.8z"/>
    <path fill="#10BB67" d="M436.2,165.8l-84.8,84.8C375.9,275 391,308.8 391,346c0,8.3 6.7,15 15,15c32.6,0 58.4,0 91,0c8.3,0 15,-6.7 15,-15C512,275.7 482.4,211.9 436.2,165.8z"/>
    <path fill="#495A79" d="M371.8,228.7c-4.8,-4.5 -12.3,-5.1 -18,-1.5c-47.1,30.3 -82.8,53.1 -129.9,83.1c-8.7,5.7 -15.9,13.2 -20.4,21.9c-12.9,23.1 -9,52.2 10.2,71.1c19.8,20.1 50.7,23.4 74.7,8.4c9.3,-6.3 17.1,-15 21.9,-25.5c23.7,-50.7 41.7,-89.1 65.4,-139.8C378.4,240.4 376.9,233.2 371.8,228.7z"/>
    <path fill="#42516D" d="M375.7,246.4c-23.7,50.7 -41.7,89.1 -65.4,139.8c-4.8,10.5 -12.6,19.2 -21.9,25.5c-24,15 -54.9,11.7 -74.7,-8.4l158.1,-174.6C376.9,233.2 378.4,240.4 375.7,246.4z"/>
</svg>
