<svg xmlns="http://www.w3.org/2000/svg" viewBox="0 0 53 53" version="1.1" x="0px" y="0px" height="24" width="24">
    <g><path fill="#424A60" d="M27,28h2v18h-2z"/></g>
    <g><path fill="#424A60" d="M45.29,5.29l1.41,1.41l-15,15l-1.41,-1.41z"/></g>
    <g><path fill="#424A60" d="M25.29,25.29l1.41,1.41l-20,20l-1.41,-1.41z"/></g>
    <path fill="#424A60" d="M13.71,8.29l11,11l-1.41,1.41l-11,-11z"/>
    <path fill="#424A60" d="M30.71,25.29l15,15l-1.41,1.41l-15,-15z"/>
    <path fill="#43B05C" d="M48,5m-5,0a5,5 0,1 1,10 0a5,5 0,1 1,-10 0"/>
    <path fill="#7383BF" d="M28,48m-5,0a5,5 0,1 1,10 0a5,5 0,1 1,-10 0"/>
    <path fill="#57D8AB" d="M5,46m-5,0a5,5 0,1 1,10 0a5,5 0,1 1,-10 0"/>
    <path fill="#D75A4A" d="M12,8m-3,0a3,3 0,1 1,6 0a3,3 0,1 1,-6 0"/>
    <path fill="#EBBA16" d="M44,40m-3,0a3,3 0,1 1,6 0a3,3 0,1 1,-6 0"/>
    <path fill="#4B6DAA" d="M28,24m-7,0a7,7 0,1 1,14 0a7,7 0,1 1,-14 0"/>
</svg>