<svg width="1973.63" height="1184.35" xmlns="http://www.w3.org/2000/svg" clip-rule="evenodd" version="1.1" xml:space="preserve">

 <g>
  <title>Layer 1</title>
  <g id="Capa_x0020_1">
   <metadata id="CorelCorpID_0Corel-Layer"/>
   <g id="_2604576705344">
    <path id="svg_1" fill-rule="nonzero" fill="#9FCCF5" d="m168.78,1184.35l609.62,-3.17l162.49,-0.05l53.83,-0.02l162.81,-0.05l743.8,-0.2c0,0 170.14,-218.16 -11.59,-425.36c-188.43,-214.84 -280.04,-39.87 -337.96,-342.27c-145.78,-761.19 -1539.93,-359.83 -1243.82,310.14c136.13,233.23 -233.23,128.71 -139.19,460.99l0.01,-0.01z" class="fil0"/>
    <path id="svg_2" fill-rule="nonzero" fill="#AFCDFB" d="m729.61,1025.49l-3.3,-1.81c-3.52,-1.92 -4.82,-6.35 -2.89,-9.87l15.14,-27.66c1.93,-3.52 6.36,-4.82 9.88,-2.89l4.72,2.58c0.69,0.38 0.94,1.25 0.57,1.94c-0.38,0.69 -1.25,0.94 -1.94,0.57l-4.72,-2.59c-2.14,-1.17 -4.84,-0.39 -6.01,1.76l-15.15,27.66c-1.17,2.14 -0.38,4.84 1.76,6.01l3.3,1.81c2.14,1.17 4.83,0.38 6.01,-1.76l10.05,-18.36c0.38,-0.69 1.25,-0.94 1.94,-0.57c0.69,0.38 0.94,1.24 0.57,1.93l-10.06,18.36c-1.93,3.52 -6.35,4.82 -9.87,2.89z" class="fil1"/>
    <path id="svg_3" fill-rule="nonzero" fill="#F7FAFD" d="m1284.82,871.67l-725.35,0c-17.83,0 -32.29,-14.45 -32.29,-32.29l0,-608.8c0,-17.83 14.46,-32.29 32.29,-32.29l725.35,0c17.83,0 32.29,14.46 32.29,32.29l0,608.8c0,17.83 -14.46,32.29 -32.29,32.29zm-311.22,-326.42c-3.03,0 -5.48,2.46 -5.48,5.48c0,3.03 2.46,5.49 5.48,5.49l111.85,0c3.04,0 5.49,-2.46 5.49,-5.49c0,-3.03 -2.46,-5.48 -5.49,-5.48l-111.85,0zm-101.99,0c-3.04,0 -5.49,2.46 -5.49,5.48c0,3.03 2.46,5.49 5.49,5.49l81.63,0c3.03,0 5.48,-2.46 5.48,-5.49c0,-3.03 -2.46,-5.48 -5.48,-5.48l-81.63,0zm-281.83,-212.95l0,223.92l223.92,0l0,-223.92l-223.92,0zm523.31,178.93c-3.03,0 -5.48,2.46 -5.48,5.49c0,3.03 2.46,5.49 5.48,5.49l57.11,0c3.03,0 5.48,-2.46 5.48,-5.49c0,-3.03 -2.46,-5.49 -5.48,-5.49l-57.11,0zm-241.48,0c-3.04,0 -5.49,2.46 -5.49,5.49c0,3.03 2.46,5.49 5.49,5.49l216.34,0c3.03,0 5.48,-2.46 5.48,-5.49c0,-3.03 -2.45,-5.49 -5.48,-5.49l-216.34,0zm141.11,-44.64c-3.03,0 -5.48,2.46 -5.48,5.49c0,3.03 2.45,5.48 5.48,5.48l181.15,0c3.03,0 5.48,-2.46 5.48,-5.48c0,-3.03 -2.45,-5.49 -5.48,-5.49l-181.15,0zm-141.11,0c-3.04,0 -5.49,2.46 -5.49,5.49c0,3.03 2.46,5.48 5.49,5.48l110.76,0c3.04,0 5.49,-2.46 5.49,-5.48c0,-3.03 -2.45,-5.49 -5.49,-5.49l-110.76,0zm241.48,-29.41c-3.03,0 -5.48,2.46 -5.48,5.48c0,3.03 2.46,5.49 5.48,5.49l57.11,0c3.03,0 5.48,-2.46 5.48,-5.49c0,-3.03 -2.46,-5.48 -5.48,-5.48l-57.11,0zm-139.49,0c-3.03,0 -5.48,2.46 -5.48,5.48c0,3.03 2.46,5.49 5.48,5.49l111.85,0c3.04,0 5.49,-2.46 5.49,-5.49c0,-3.03 -2.46,-5.48 -5.49,-5.48l-111.85,0zm-101.99,0c-3.04,0 -5.49,2.46 -5.49,5.48c0,3.03 2.46,5.49 5.49,5.49l81.63,0c3.03,0 5.48,-2.46 5.48,-5.49c0,-3.03 -2.46,-5.48 -5.48,-5.48l-81.63,0zm241.48,-34.02c-3.03,0 -5.48,2.46 -5.48,5.49c0,3.03 2.46,5.48 5.48,5.48l57.11,0c3.03,0 5.48,-2.46 5.48,-5.48c0,-3.03 -2.46,-5.49 -5.48,-5.49l-57.11,0zm-241.48,0c-3.04,0 -5.49,2.46 -5.49,5.49c0,3.03 2.46,5.48 5.49,5.48l216.34,0c3.03,0 5.48,-2.46 5.48,-5.48c0,-3.03 -2.45,-5.49 -5.48,-5.49l-216.34,0zm2.97,-71.1c-4.67,0 -8.46,3.79 -8.46,8.46c0,4.67 3.79,8.46 8.46,8.46l178.11,0c4.67,0 8.46,-3.79 8.46,-8.46c0,-4.67 -3.78,-8.46 -8.46,-8.46l-178.11,0zm212.99,-11.35c-4.67,0 -8.46,3.79 -8.46,8.46c0,4.67 3.79,8.46 8.46,8.46l178.11,0c4.67,0 8.46,-3.79 8.46,-8.46c0,-4.67 -3.79,-8.46 -8.46,-8.46l-178.11,0z" class="fil2"/>
    <path id="svg_4" fill-rule="nonzero" fill="#3A7DD6" d="m1317.11,273.01l-789.93,0l0,-50.62c0,-13.31 10.79,-24.11 24.11,-24.11l741.72,0c13.31,0 24.1,10.79 24.1,24.11l0,50.62z" class="fil3"/>
    <path id="svg_5" fill-rule="nonzero" fill="#DDE7FE" d="m559.12,235.2c0,-4.93 4,-8.93 8.93,-8.93c4.94,0 8.93,4 8.93,8.93c0,4.94 -4,8.93 -8.93,8.93c-4.93,0 -8.93,-4 -8.93,-8.93z" class="fil4"/>
    <path id="svg_6" fill-rule="nonzero" fill="#DDE7FE" d="m596.62,235.2c0,-4.93 4,-8.93 8.93,-8.93c4.93,0 8.93,4 8.93,8.93c0,4.94 -4,8.93 -8.93,8.93c-4.93,0 -8.93,-4 -8.93,-8.93z" class="fil4"/>
    <path id="svg_7" fill-rule="nonzero" fill="#DDE7FE" d="m634.11,235.2c0,-4.93 4,-8.93 8.93,-8.93c4.94,0 8.94,4 8.94,8.93c0,4.94 -4,8.93 -8.94,8.93c-4.93,0 -8.93,-4 -8.93,-8.93z" class="fil4"/>
    <polygon id="svg_8" fill-rule="nonzero" fill="#E2EDFC" points="589.78,556.22 813.7,556.22 813.7,332.3 589.78,332.3 " class="fil5"/>
    <path id="svg_9" fill-rule="nonzero" fill="#B9CAF7" d="m1052.69,348.99l-178.11,0c-4.67,0 -8.46,-3.79 -8.46,-8.46c0,-4.67 3.79,-8.46 8.46,-8.46l178.11,0c4.67,0 8.46,3.79 8.46,8.46c0,4.67 -3.78,8.46 -8.46,8.46z" class="fil6"/>
    <path id="svg_10" fill-rule="nonzero" fill="#B9CAF7" d="m1265.67,337.64l-178.11,0c-4.67,0 -8.46,-3.79 -8.46,-8.46c0,-4.67 3.79,-8.46 8.46,-8.46l178.11,0c4.67,0 8.46,3.79 8.46,8.46c0,4.67 -3.79,8.46 -8.46,8.46z" class="fil6"/>
    <path id="svg_11" fill-rule="nonzero" fill="#E5EEFC" d="m1087.95,414.14l-216.34,0c-3.04,0 -5.49,-2.46 -5.49,-5.48c0,-3.03 2.46,-5.49 5.49,-5.49l216.34,0c3.03,0 5.48,2.46 5.48,5.49c0,3.03 -2.45,5.48 -5.48,5.48z" class="fil7"/>
    <path id="svg_12" fill-rule="nonzero" fill="#E5EEFC" d="m1170.2,414.14l-57.11,0c-3.03,0 -5.48,-2.46 -5.48,-5.48c0,-3.03 2.46,-5.49 5.48,-5.49l57.11,0c3.03,0 5.48,2.46 5.48,5.49c0,3.03 -2.46,5.48 -5.48,5.48z" class="fil7"/>
    <path id="svg_13" fill-rule="nonzero" fill="#E5EEFC" d="m953.24,448.15l-81.63,0c-3.04,0 -5.49,-2.46 -5.49,-5.49c0,-3.03 2.46,-5.48 5.49,-5.48l81.63,0c3.03,0 5.48,2.46 5.48,5.48c0,3.03 -2.46,5.49 -5.48,5.49z" class="fil7"/>
    <path id="svg_14" fill-rule="nonzero" fill="#E5EEFC" d="m1085.44,448.15l-111.85,0c-3.03,0 -5.48,-2.46 -5.48,-5.49c0,-3.03 2.46,-5.48 5.48,-5.48l111.85,0c3.04,0 5.49,2.46 5.49,5.48c0,3.03 -2.46,5.49 -5.49,5.49z" class="fil7"/>
    <path id="svg_15" fill-rule="nonzero" fill="#E5EEFC" d="m1170.2,448.15l-57.11,0c-3.03,0 -5.48,-2.46 -5.48,-5.49c0,-3.03 2.46,-5.48 5.48,-5.48l57.11,0c3.03,0 5.48,2.46 5.48,5.48c0,3.03 -2.46,5.49 -5.48,5.49z" class="fil7"/>
    <path id="svg_16" fill-rule="nonzero" fill="#E5EEFC" d="m982.36,477.57l-110.76,0c-3.04,0 -5.49,-2.46 -5.49,-5.48c0,-3.03 2.46,-5.49 5.49,-5.49l110.76,0c3.04,0 5.49,2.46 5.49,5.49c0,3.03 -2.45,5.48 -5.49,5.48z" class="fil7"/>
    <path id="svg_17" fill-rule="nonzero" fill="#E5EEFC" d="m1193.87,477.57l-181.15,0c-3.03,0 -5.48,-2.46 -5.48,-5.48c0,-3.03 2.45,-5.49 5.48,-5.49l181.15,0c3.03,0 5.48,2.46 5.48,5.49c0,3.03 -2.45,5.48 -5.48,5.48z" class="fil7"/>
    <path id="svg_18" fill-rule="nonzero" fill="#E5EEFC" d="m1087.95,522.2l-216.34,0c-3.04,0 -5.49,-2.46 -5.49,-5.49c0,-3.03 2.46,-5.49 5.49,-5.49l216.34,0c3.03,0 5.48,2.46 5.48,5.49c0,3.03 -2.45,5.49 -5.48,5.49z" class="fil7"/>
    <path id="svg_19" fill-rule="nonzero" fill="#E5EEFC" d="m1170.2,522.2l-57.11,0c-3.03,0 -5.48,-2.46 -5.48,-5.49c0,-3.03 2.46,-5.49 5.48,-5.49l57.11,0c3.03,0 5.48,2.46 5.48,5.49c0,3.03 -2.46,5.49 -5.48,5.49z" class="fil7"/>
    <path id="svg_20" fill-rule="nonzero" fill="#E5EEFC" d="m953.24,556.22l-81.63,0c-3.04,0 -5.49,-2.46 -5.49,-5.49c0,-3.03 2.46,-5.48 5.49,-5.48l81.63,0c3.03,0 5.48,2.46 5.48,5.48c0,3.03 -2.46,5.49 -5.48,5.49z" class="fil7"/>
    <path id="svg_21" fill-rule="nonzero" fill="#E5EEFC" d="m1085.44,556.22l-111.85,0c-3.03,0 -5.48,-2.46 -5.48,-5.49c0,-3.03 2.46,-5.48 5.48,-5.48l111.85,0c3.04,0 5.49,2.46 5.49,5.48c0,3.03 -2.46,5.49 -5.49,5.49z" class="fil7"/>
    <path id="svg_22" fill-rule="nonzero" fill="#BDD1F9" d="m725.88,452.29l-24.54,-56.8l-24.34,56.8l48.88,0zm-35.7,-86.62l23.13,0l62.47,143.01l-26.37,0l-14.4,-34.28l-67.15,0l-14.6,34.28l-25.56,0l62.48,-143.01z" class="fil8"/>
    <path id="svg_23" fill-rule="nonzero" fill="#BDD1F9" d="m807.02,614.99l-68.82,0c-2.88,0 -5.22,-2.33 -5.22,-5.21c0,-2.88 2.34,-5.21 5.22,-5.21l68.82,0c2.88,0 5.21,2.33 5.21,5.21c0,2.88 -2.33,5.21 -5.21,5.21z" class="fil8"/>
    <path id="svg_24" fill-rule="nonzero" fill="#BDD1F9" d="m783.84,633.37l-45.63,0c-2.88,0 -5.22,-2.33 -5.22,-5.21c0,-2.88 2.34,-5.21 5.22,-5.21l45.63,0c2.88,0 5.21,2.33 5.21,5.21c0,2.88 -2.33,5.21 -5.21,5.21z" class="fil8"/>
    <path id="svg_25" fill-rule="nonzero" fill="#BDD1F9" d="m807.02,739.85l-68.82,0c-2.88,0 -5.22,-2.33 -5.22,-5.21c0,-2.88 2.34,-5.21 5.22,-5.21l68.82,0c2.88,0 5.21,2.33 5.21,5.21c0,2.88 -2.33,5.21 -5.21,5.21z" class="fil8"/>
    <path id="svg_26" fill-rule="nonzero" fill="#BDD1F9" d="m783.84,758.23l-45.63,0c-2.88,0 -5.22,-2.33 -5.22,-5.21c0,-2.88 2.34,-5.22 5.22,-5.22l45.63,0c2.88,0 5.21,2.34 5.21,5.22c0,2.88 -2.33,5.21 -5.21,5.21z" class="fil8"/>
    <path id="svg_27" fill-rule="nonzero" fill="#213140" d="m1325.08,259.27c0,0 3.26,38.83 -5.59,38.24c-8.85,-0.59 -26.32,-17.68 -61.56,-14.9c-35.25,2.78 -78.37,10.49 -104.44,-35.64c-26.07,-46.13 33.34,-59.41 33.34,-59.41l138.24,71.71l0.01,0z" class="fil9"/>
    <polygon id="svg_28" fill-rule="nonzero" fill="#2D3E50" points="1250.16,256.43 1427.75,271.03 1431.45,263.13 1261.18,137.45 1089.19,117.36 1085.89,124.43 " class="fil10"/>
    <path id="svg_29" fill-rule="nonzero" fill="#F99746" d="m1371.02,390.18c-1.05,-3.66 -4.86,-5.77 -8.52,-4.72c-3.65,1.05 -5.77,4.86 -4.72,8.51c1.05,3.66 4.86,5.77 8.51,4.73c3.65,-1.05 5.77,-4.86 4.73,-8.51l0,-0.01z" class="fil11"/>
    <path id="svg_30" fill-rule="nonzero" fill="#F99746" d="m1365.1,392.09c7.12,-0.55 8.79,64.26 8.79,64.26c0,0 -4.65,2.18 -6.93,1.67c-2.28,-0.51 -3.45,-9.27 -3.45,-9.27l-0.22,9.18c0,0 -7.82,0.27 -10.52,-1.63c0,0 1.06,-63.33 12.33,-64.21z" class="fil11"/>
    <polygon id="svg_31" fill-rule="nonzero" fill="#F99746" points="1367.42,393.55 1366.13,251.94 1365.22,251.26 1272.45,182.64 1269.12,187.15 1360.96,255.08 1363.04,393.3 " class="fil11"/>
    <path id="svg_32" fill-rule="nonzero" fill="#FCECDB" d="m1487.1,1061.61l-390.14,0l0,-148.23l391.45,0c31.63,0 57.29,25.65 57.29,57.29l0,32.36c0,32.36 -26.23,58.59 -58.6,58.59l0,-0.01z" class="fil12"/>
    <path id="svg_33" fill-rule="nonzero" fill="#C6E47D" d="m1880.37,974.37l0,22.3c0,11.92 -2.99,23.08 -8.22,32.67c-10.52,19.3 -30.07,32.27 -52.45,32.27l-734.76,0c-4.86,0 -8.8,-4.22 -8.8,-9.41l0,-3.34c0,-5.2 3.94,-9.42 8.8,-9.42l447.9,0c2.4,-3.12 4.5,-6.51 6.28,-10.11c4.21,-8.46 6.58,-18.1 6.58,-28.34l0,-28.35c0,-5.21 -0.63,-10.28 -1.81,-15.09c-2.02,-8.16 -5.61,-15.63 -10.39,-22.01l-448.56,0c-4.86,0 -8.8,-4.21 -8.8,-9.42l0,-3.33c0,-5.2 3.94,-9.42 8.8,-9.42l738.47,0c26.01,0 47.96,18.67 54.77,44.18c1.44,5.34 2.19,10.98 2.19,16.81l0,0.01z" class="fil13"/>
    <path id="svg_34" fill-rule="nonzero" fill="#C6E47D" d="m1878.18,957.56l-334.29,0c-2.02,-8.16 -5.61,-15.63 -10.39,-22.01l-448.56,0c-4.86,0 -8.8,-4.21 -8.8,-9.42l0,-3.33c0,-5.2 3.94,-9.42 8.8,-9.42l738.47,0c26.01,0 47.96,18.67 54.77,44.18z" class="fil13"/>
    <polygon id="svg_35" fill-rule="nonzero" fill="#F4D2B8" points="1096.96,987.49 1151.36,989.99 1096.96,991.49 " class="fil14"/>
    <polygon id="svg_36" fill-rule="nonzero" fill="#F4D2B8" points="1096.96,1010.75 1226.39,1013.24 1096.96,1014.75 " class="fil14"/>
    <path id="svg_37" fill-rule="nonzero" fill="#FECF92" d="m1039.95,1176.6l382.99,0l0,-115.29l-386.37,0c-28.69,0 -51.95,23.26 -51.95,51.95l0,8.02c0,30.55 24.77,55.32 55.33,55.32z" class="fil15"/>
    <path id="svg_38" fill-rule="nonzero" fill="#FCECDB" d="m1404.49,1176.6l436.5,0l0,-115.29l-437.7,0c-29.18,0 -52.82,23.64 -52.82,52.82l0,8.45c0,29.84 24.19,54.02 54.02,54.02z" class="fil12"/>
    <path id="svg_39" fill-rule="nonzero" fill="#FECF92" d="m1321.63,1176.6l534.09,0c4.44,0 8.03,-3.59 8.03,-8.02l0,-1.2c0,-4.43 -3.59,-8.02 -8.03,-8.02l-534.09,0c-4.43,0 -8.03,3.59 -8.03,8.02l0,1.2c0,4.43 3.59,8.02 8.03,8.02z" class="fil15"/>
    <path id="svg_40" fill-rule="nonzero" fill="#FECF92" d="m1321.63,1078.54l534.09,0c4.44,0 8.03,-3.59 8.03,-8.02l0,-1.2c0,-4.43 -3.59,-8.02 -8.03,-8.02l-534.09,0c-4.43,0 -8.03,3.59 -8.03,8.02l0,1.2c0,4.43 3.59,8.02 8.03,8.02z" class="fil15"/>
    <polygon id="svg_41" fill-rule="nonzero" fill="#F4D2B8" points="1840.99,1118.95 1781.52,1120.89 1840.99,1122.06 " class="fil14"/>
    <polygon id="svg_42" fill-rule="nonzero" fill="#F4D2B8" points="1840.99,1092.42 1699.51,1094.36 1840.99,1095.52 " class="fil14"/>
    <path id="svg_43" fill-rule="nonzero" fill="#BDD1F9" d="m1700.96,1093.97c0,0 6.06,4.96 8.08,13.1c0.35,1.42 0.57,2.95 0.62,4.56c0.34,10.82 0,35.31 0,35.31l17.9,-12.25l17.86,12.25l0,-33.19c0,-6.28 -1.53,-12.38 -4.38,-16.38c-1.37,-1.94 -3.05,-3.4 -4.94,-3.4l-35.13,0l-0.01,0z" class="fil8"/>
    <path id="svg_44" fill-rule="nonzero" fill="#BDD1F9" d="m1700.96,1093.97c0,0 6.06,4.96 8.08,13.1l35.87,0.48c0,0 -1.41,-11.66 -8.81,-13.58l-35.13,0l-0.01,0z" class="fil8"/>
    <path id="svg_45" fill-rule="nonzero" fill="#FCECDB" d="m1375.47,913.69l-376.96,0l0,-169.4l378.33,0c33.44,0 60.56,27.11 60.56,60.57l0,46.89c0,34.21 -27.73,61.94 -61.94,61.94l0.01,0z" class="fil12"/>
    <path id="svg_46" fill-rule="nonzero" fill="#A8E0F0" d="m1437.62,810.02l0,36.46c-0.1,15.57 -7.31,29.08 -17.92,36.31c-5.22,3.54 -11.25,5.57 -17.67,5.57l-415.08,0c-4.86,0 -8.81,4.71 -8.81,10.52l0,4.3c0,5.81 3.95,10.51 8.81,10.51l717.07,0c20.57,0 38.75,-12.21 49.74,-30.91c6.93,-11.78 10.99,-26.13 10.99,-41.62l0,-28.77c0,-10.62 -2.03,-20.66 -5.66,-29.62c-9.22,-22.77 -28.75,-38.48 -51.36,-38.48l-720.77,0c-4.86,0 -8.81,4.7 -8.81,10.51l0,4.3c0,5.82 3.95,10.52 8.81,10.52l416.35,0c9.95,0 18.96,5.06 25.25,13.15c5.56,7.18 9,16.73 9.06,27.24l0,0.01z" class="fil16"/>
    <path id="svg_47" fill-rule="nonzero" fill="#A8E0F0" d="m978.15,898.87l0,4.3c0,5.81 3.95,10.51 8.81,10.51l717.07,0c20.57,0 38.75,-12.21 49.74,-30.91l-334.06,0c-5.22,3.54 -11.25,5.57 -17.67,5.57l-415.08,0c-4.86,0 -8.81,4.71 -8.81,10.52l0,0.01z" class="fil16"/>
    <polygon id="svg_48" fill-rule="nonzero" fill="#F4D2B8" points="998.51,828.99 1051.72,831.83 998.51,833.55 " class="fil14"/>
    <polygon id="svg_49" fill-rule="nonzero" fill="#F4D2B8" points="998.51,790 1125.1,792.85 998.51,794.56 " class="fil14"/>
    <path id="svg_50" fill-rule="nonzero" fill="#FECF92" d="m1123.8,792.28c0,0 -8.36,5.38 -11.12,14.21c-0.49,1.54 -0.8,3.2 -0.87,4.94c-0.46,11.73 0,38.28 0,38.28l-24.67,-13.27l-24.6,13.27l0,-35.98c0,-6.8 2.11,-13.43 6.03,-17.76c1.9,-2.11 4.21,-3.68 6.82,-3.68l48.41,0l0,-0.01z" class="fil15"/>
    <path id="svg_51" fill-rule="nonzero" fill="#FECF92" d="m1123.8,792.28c0,0 -8.36,5.38 -11.12,14.21l-49.43,0.53c0,0 1.94,-12.65 12.14,-14.73l48.41,0l0,-0.01z" class="fil15"/>
    <path id="svg_52" fill-rule="nonzero" fill="#9FCCF5" d="m235.05,776.27c2.69,-66.6 -53.13,-96.19 -110.21,-96.19c-57.08,0 -119.2,14.79 -124.58,103.35c-3.46,56.98 26.91,92.03 114.37,92.03c29.5,0 52.42,-4.65 69.98,-12.95l22.23,-14.85c19.03,-17.7 27.05,-42.65 28.21,-71.4l0,0.01z" class="fil0"/>
    <polygon id="svg_53" fill-rule="nonzero" fill="#F7B8A0" points="1149.04,1107.27 1149.02,1177.87 793.94,1177.79 793.95,1107.21 " class="fil17"/>
    <path id="svg_54" fill-rule="nonzero" fill="#FCECDB" d="m793.93,1177.8l-52.19,-22.33l-30.35,-12.99l31.06,-13.27l51.49,-22.01c0,0 6.87,17.18 6.97,33.35c0.16,25.37 -6.99,37.24 -6.99,37.24l0.01,0.01z" class="fil12"/>
    <path id="svg_55" fill-rule="nonzero" fill="#FCECDB" d="m1190.31,1130.7l0,22.32c-0.01,13.73 -11.13,24.85 -24.86,24.85l-16.43,0l0.01,-70.59l17.87,0.01c12.94,0 23.42,10.49 23.41,23.42l0,-0.01z" class="fil12"/>
    <path id="svg_56" fill-rule="nonzero" fill="#87919B" d="m742.46,1129.21c1.3,7.13 2.41,18.05 -0.71,26.26l-30.35,-12.99l31.06,-13.27z" class="fil18"/>
    <g id="svg_57">
     <path id="svg_58" fill="#A8E0F0" d="m394.09,1057.42c13.41,2.75 34.75,9.17 45.78,10.18c-0.85,-4.42 -1.83,-6.91 -1.02,-12.03c3.67,-23.22 40.33,-24.39 44.62,0.47c0.92,5.34 -0.7,7.53 -1.13,11.89c4.21,0.05 20.94,-3.32 24.32,-4.79c-3.02,-7.43 -5.67,-28.9 -6.03,-37.39c4.81,2.03 11.14,8.12 20.13,5.96c14.95,-3.6 15.39,-26.65 0.21,-30.69c-3.35,-0.89 -7.98,-0.29 -11.08,0.92c-2.08,0.81 -7.62,3.63 -8.83,4.81c-0.72,-1.35 0.17,-5.25 0.39,-7.09c0.8,-6.85 2.29,-16.78 4.15,-23.05c1,-3.39 -0.28,-4.07 -2.02,-5.92c-4.94,-5.27 -8.35,-8.37 -15.43,-12.24c-17.52,-9.57 -40.48,-10.67 -59.82,-2.03c-9.24,4.13 -16.23,9.24 -21.6,15.05c-5.39,5.84 -10.87,13.81 -13.7,22.87c-6.81,21.77 -4.62,40.86 1.09,63.08l-0.03,0z" class="fil19"/>
     <path id="svg_59" fill="#C6E47D" d="m597.65,1059.7c1.67,0.59 4.31,1.09 6.3,1.63c2.31,0.62 4.48,1.26 6.75,1.88c4.27,1.16 9.21,2.53 13.61,3.22c2.08,-6.54 2.38,-5.56 4.39,-13.8c3.8,-15.56 5.72,-33.51 2.31,-49.24c-4.62,-21.33 -15.44,-33.79 -30.17,-43.05c-15.39,-9.67 -40.73,-12.9 -59.57,-5.55c-8.94,3.49 -16.18,8.47 -22.04,14.62c-1.42,1.49 -6.9,8.23 -7.67,10.63c-1.06,3.26 -2.57,11.86 -2.84,15.21c0.91,-0.1 1.49,-0.3 2.43,-0.59c5.76,-1.75 13.74,-0.33 18.62,3.33c12.99,9.73 11.18,28.76 0.27,36.5c-7.45,5.28 -12.1,4.68 -21.71,2.8c0.38,4.22 1.17,8.13 1.92,12.25c0.74,4.02 2.14,8.16 2.71,11.95c2.53,-0.32 5.96,-1.45 8.72,-2.05c7.91,-1.7 21.86,-4.01 29.38,-3.91c-17.86,25.62 6.04,36.79 18.44,28.84c1.59,-1.02 4.43,-3.25 4.55,-5.01c0.53,-0.44 0.16,0.14 0.74,-0.84c0.42,-0.71 0.24,-0.5 0.5,-1.21c3.67,-7.46 -2.52,-16.54 -4.9,-21.32c1.92,-0.64 11.19,0.94 13.91,1.21l10.11,1.66c0.07,0.06 0.2,0.02 0.25,0.14c0.04,0.11 0.19,0.1 0.25,0.13l2.73,0.6l0.01,-0.03z" class="fil20"/>
     <path id="svg_60" fill="#C6E47D" d="m446.43,1053.11c-1.62,3.17 -0.56,9.56 0.73,13.51c1.35,4.15 2.91,6.23 4.15,8.9c-9.85,-0.65 -19.67,-2.35 -28.49,-4.35c-5.22,-1.18 -22.06,-6.6 -26.17,-6.32l4.08,9.63c10.03,22.18 28.87,45.25 47.25,61.85c12.24,11.05 32.56,27.07 46.72,35.18c2.61,1.49 5.97,3.89 8.51,4.97c0.09,-0.13 4.85,-17.81 5.32,-19.61c1.45,-5.5 3.96,-14.96 4.2,-20.83c-4.74,0.62 -6.98,1.91 -12.36,0.86c-18.38,-3.56 -24.42,-27.8 -8.91,-40.2c7.92,-6.33 15.74,-3.64 21.63,-2.92c-0.63,-10.32 -3.56,-17.26 -4.5,-24.06c-2.13,0.25 -13,3.07 -18.41,3.85c-5.61,0.82 -13.88,2.22 -19.62,2.08c1.46,-3.16 3.9,-5.97 5.2,-9.59c2.78,-7.76 0.82,-16.51 -7.31,-20.15c-8.03,-3.6 -17.98,-0.68 -22.02,7.21l0,-0.01z" class="fil20"/>
     <path id="svg_61" fill="#A8E0F0" stroke-miterlimit="22.9256" stroke-width="1.18" stroke="#A8E0F0" d="m515.33,1127.4c1.9,-0.78 3.61,-1.98 5.44,-2.92c-0.23,8.5 -2.29,19.96 -4.44,28.68c-1.78,7.23 -3.71,13.06 -5.41,20.38c-0.2,0.86 -1.66,6.02 -0.85,6.72c1.02,0.87 7.48,-3.22 9.18,-4.18c23.27,-13.06 51.42,-34.87 69.08,-54.47l6.42,-7.21c3.4,-3.74 9.16,-11.59 12.01,-15.64c3.69,-5.26 13.61,-21.2 14.81,-26.21c-10.57,-1.42 -22.82,-6.3 -34.4,-8.18c-1.82,-0.3 -3.61,-0.79 -5.52,-0.82c0.17,3.11 1.47,2.21 1.24,10.46c-0.69,4.08 -1.06,5.69 -2.96,8.88c-8.53,14.33 -31.11,13.87 -39.1,-0.07c-1.46,-2.54 -2.73,-5.7 -2.96,-9.17c-0.32,-4.9 0.89,-6.54 1.39,-10.44c-3.94,0.13 -21.46,3.34 -24.15,4.72c0.03,2.09 1.41,6.65 1.96,9.13c2.02,9.19 3.43,18.72 3.82,28.34c-4.23,-1.56 -6.39,-5.08 -14.31,-6.16c-6.45,-0.88 -11.57,2.06 -13.97,5.64c-2.1,2.16 -3.66,7.2 -3.31,11.28c1.32,15.89 18.76,16.96 26.02,11.25l0.01,-0.01z" class="fil19 str0"/>
     <path id="svg_62" fill="#87919B" d="m383.53,882.38c3.93,-1.93 8.52,-3.23 12.68,-3.4l111.21,-4.52c7.81,-0.32 11.25,3.47 7.64,8.43l-28.34,38.94l-18.95,61.81l-29.87,0.38l-51.93,-41.74l-2.44,-59.9z" class="fil21"/>
     <path id="svg_63" fill="#87919B" d="m455.57,1017.07c-4.99,2.45 -10.83,4.11 -16.11,4.34l-53.53,2.32c-5.29,0.23 -8.99,-1.02 -10.61,-3.18l-0.05,0.02l-0.3,-0.56l-0.05,-0.09l-15.94,-29.81l49.34,-20.33l29.56,14.24l18.53,12.17l-0.85,20.88l0.01,0z" class="fil21"/>
     <path id="svg_64" fill="#808992" d="m502.97,952.2c1.46,1.9 1.29,4.51 -0.87,7.45l-36.31,49.62c-2.13,2.92 -5.85,5.66 -10.22,7.8l-17.68,-33.05c3.45,-1.69 6.38,-3.87 8.07,-6.18l40.76,-56.01l16.24,30.37l0.01,0z" class="fil22"/>
     <path id="svg_65" fill="#8D97A4" d="m383.53,882.38l54.37,101.64c-3.93,1.93 -8.52,3.23 -12.68,3.4l-111.21,4.52c-7.81,0.32 -11.25,-3.47 -7.64,-8.43l69.1,-94.96c1.68,-2.31 4.62,-4.49 8.07,-6.18l-0.01,0.01z" class="fil23"/>
     <ellipse id="svg_66" fill="#687C96" ry="42.46" rx="84.09" transform="matrix(0.155502 -0.0831751 0.0831751 0.155502 410.714 933.204)" class="fil24"/>
     <rect id="svg_67" fill="#FECF92" stroke-miterlimit="22.9256" stroke-width="1.18" stroke="#FECF92" ry="4.7" rx="3.87" height="29.11" width="18.95" y="1015.87" x="359.16" class="fil25 str1"/>
     <ellipse id="svg_68" fill="#FEE9BB" ry="8.59" rx="11.02" cy="1015.87" cx="368.63" class="fil26"/>
     <path id="svg_69" fill="#FECF92" d="m363.33,991.34c-0.02,0.07 -0.04,0.14 -0.06,0.22l-0.01,0.06c-0.05,0.21 -0.09,0.41 -0.13,0.61l0.03,0c-0.02,0.19 -0.03,0.39 -0.03,0.58l0,0.01c-0.01,0.22 -0.01,0.43 0,0.64l0,19.23c0,3.03 2.48,5.5 5.5,5.5l0,0c3.03,0 5.5,-2.48 5.5,-5.5l0,-15.09c0,-1.64 0.11,-4.19 0.85,-5.97l0,0c0.23,-0.37 0.47,-0.74 0.72,-1.12c0.02,-0.03 0.05,-0.07 0.07,-0.1c0.23,-0.33 0.46,-0.67 0.71,-1.01l35.23,-48.4c-5.72,2.39 -11.15,2.44 -13.44,0.08l-31.13,42.78c-1.97,2.7 -3.23,5.24 -3.82,7.49l0.01,-0.01z" class="fil25"/>
    </g>
    <g id="svg_70">
     <rect id="svg_71" fill="#F7B8A0" ry="14.08" rx="12.49" height="75.97" width="117.68" y="596.72" x="589.38" class="fil27"/>
     <polygon id="svg_72" fill="#FEFEFE" points="635.43,622.36 663.82,634.45 635.43,649.17 " class="fil28"/>
    </g>
    <g id="svg_73">
     <path id="svg_74" fill="#B0CBEF" d="m589.38,746.16l117.68,0l0,-10.55c0,-5.06 -4.13,-9.19 -9.19,-9.19l-99.31,0c-5.05,0 -9.19,4.13 -9.19,9.19l0,10.55l0.01,0z" class="fil29"/>
     <path id="svg_75" fill="#FEFEFE" d="m697.87,802.4l-99.31,0c-5.05,0 -9.19,-4.13 -9.19,-9.19l0,-38.72l117.68,0l0,38.72c0,5.05 -4.13,9.19 -9.19,9.19l0.01,0z" class="fil28"/>
     <rect id="svg_76" fill="#B0CBEF" ry="3.94" rx="5.78" height="4.51" width="56.86" y="763.39" x="619.78" class="fil29"/>
     <rect id="svg_77" fill="#B0CBEF" ry="3.94" rx="5.78" height="4.51" width="56.86" y="772.58" x="619.78" class="fil29"/>
     <rect id="svg_78" fill="#B0CBEF" ry="3.94" rx="5.78" height="4.51" width="56.86" y="781.77" x="619.78" class="fil29"/>
     <rect id="svg_79" fill="#B0CBEF" ry="3.94" rx="5.78" height="4.51" width="56.86" y="790.95" x="619.78" class="fil29"/>
    </g>
    <path id="svg_80" fill-rule="nonzero" fill="#9FCCF5" d="m1904.14,463.66c2.69,-66.6 -53.13,-96.19 -110.21,-96.19c-57.08,0 -119.2,14.79 -124.58,103.35c-3.46,56.98 26.91,92.03 114.37,92.03c29.5,0 52.42,-4.65 69.98,-12.95l22.23,-14.85c19.03,-17.7 27.05,-42.65 28.21,-71.4l0,0.01z" class="fil0"/>
   </g>
  </g>
 </g>
</svg>